<?xml version="1.0" standalone="no"?>
<!DOCTYPE svg PUBLIC "-//W3C//DTD SVG 1.1//EN" "http://www.w3.org/Graphics/SVG/1.1/DTD/svg11.dtd" >
<svg xmlns="http://www.w3.org/2000/svg" xmlns:xlink="http://www.w3.org/1999/xlink" version="1.1">
<metadata>
Created by FontForge 20170731 at Wed Nov 15 04:21:54 2017
 By Aleksey,,,
Copyright (c) 1990 Adobe Systems Incorporated.  All Rights Reserved.WTC Our Bodoni is a trademark of World Typeface Center, Incorporated.
</metadata>
<defs>
<font id="ATOurBodoni-Light" horiz-adv-x="550" >
  <font-face 
    font-family="ATOurBodoni"
    font-weight="400"
    font-stretch="normal"
    units-per-em="1024"
    panose-1="0 0 0 0 0 0 0 0 0 0"
    ascent="819"
    descent="-205"
    x-height="467"
    cap-height="717"
    bbox="-98 -268 983 948"
    underline-thickness="1"
    underline-position="-2"
    unicode-range="U+000D-FB02"
  />
<missing-glyph horiz-adv-x="543" 
d="M51 102h307v512h-307v-129v-383zM0 666h410v-615h-410v615z" />
    <glyph glyph-name=".notdef" horiz-adv-x="543" 
d="M51 102h307v512h-307v-129v-383zM0 666h410v-615h-410v615z" />
    <glyph glyph-name=".null" horiz-adv-x="0" 
 />
    <glyph glyph-name=".null" horiz-adv-x="0" 
 />
    <glyph glyph-name="nonmarkingreturn" unicode="&#xd;" horiz-adv-x="0" 
 />
    <glyph glyph-name="space" unicode=" " horiz-adv-x="285" 
 />
    <glyph glyph-name="exclam" unicode="!" horiz-adv-x="285" 
d="M142 -18q-22 0 -36 13q-14 14 -14 37q0 22 14 36t36 14q23 0 37 -14t14 -36q0 -23 -14 -37q-14 -13 -37 -13zM131 221q0 89 -7 165q-6 75 -14 131q-8 57 -14 94q-6 36 -6 47q0 12 2 25q1 13 6 25t16 20q11 7 28 7q18 0 28 -7q10 -8 15 -20q6 -12 8 -25t2 -25
q0 -11 -7 -47q-7 -37 -15 -94q-7 -56 -13 -131q-6 -76 -6 -165h-23z" />
    <glyph glyph-name="quotedbl" unicode="&#x22;" horiz-adv-x="474" 
d="M294 420q-6 49 -23 195q-2 20 -4 39q-3 19 -3 38q0 22 11 32q12 11 32 11q43 0 43 -43q0 -19 -2 -38q-3 -19 -5 -39q-7 -65 -22 -195h-27zM153 420q-6 49 -23 195q-2 20 -5 39q-2 19 -2 38q0 22 11 32q11 11 32 11q43 0 43 -43q0 -19 -3 -38q-2 -19 -4 -39
q-8 -65 -23 -195h-26z" />
    <glyph glyph-name="numbersign" unicode="#" horiz-adv-x="645" 
d="M201 370h-131q4 11 18 47h131q11 28 45 113h-132l20 48h131l44 112h26l-44 -112h111l44 112h26l-44 -112h128q-4 -12 -19 -48h-127q-11 -28 -45 -113h128q-5 -12 -18 -47h-128q-12 -32 -49 -125h-26q12 31 48 125h-111q-12 -32 -48 -125h-26q12 31 48 125zM246 417h110
q12 28 45 113h-110q-11 -28 -45 -113z" />
    <glyph glyph-name="dollar" unicode="$" 
d="M216 14q-22 4 -49 15q-26 10 -48 27q-23 18 -38 43q-15 26 -15 61q0 26 17 45t42 19q23 0 36 -14t13 -35q0 -18 -9 -28q-9 -9 -21 -14q-10 -5 -19 -9q-9 -3 -9 -9q0 -17 10 -30q11 -13 27 -24q16 -9 33 -15q18 -6 30 -9v306q-22 8 -44 19q-21 12 -39 30q-17 20 -28 47
q-11 28 -11 68q0 34 11 61q12 28 29 48q18 22 40 36t42 22v100h25v-93q11 3 23 5q11 1 21 1h10l10 -2v89h25v-91q20 -3 44 -12q23 -9 43 -25q19 -15 32 -37t13 -52q0 -8 -3 -18t-9 -18q-7 -8 -17 -14q-10 -5 -24 -5q-23 0 -35 14q-13 14 -13 30t8 26t16 15q9 5 17 8t8 8
q0 13 -10 23q-9 10 -22 17q-12 7 -26 11q-13 4 -22 6v-251q23 -8 50 -20q28 -12 50 -34q24 -21 39 -54t15 -80q0 -48 -14 -83q-15 -36 -38 -61q-22 -25 -50 -40q-28 -14 -52 -22v-121h-25v117q-15 -4 -33 -4q-8 0 -15 1l-16 2v-116h-25v120zM216 650q-12 -5 -26 -14
q-14 -8 -26 -23q-11 -13 -19 -31q-8 -19 -8 -43q0 -23 7 -39q8 -16 19 -27q12 -11 26 -18q14 -8 27 -13v208zM241 433q4 -1 13 -3q9 -3 19 -6q11 -3 19 -5q9 -2 13 -3v247q-5 1 -10 1q-5 1 -10 1q-15 0 -24 -2q-10 -3 -20 -5v-225zM330 41q15 5 35 15q19 11 35 28
q18 17 30 42q11 26 11 61q0 32 -11 53q-12 21 -30 34q-16 15 -35 22q-20 8 -35 13v-268zM241 33q15 -3 31 -3q9 0 17 1t16 3v281q-5 1 -13 4t-18 5q-9 3 -18 5l-15 5v-76v-225z" />
    <glyph glyph-name="percent" unicode="%" horiz-adv-x="664" 
d="M426 170q0 -36 1 -66t7 -52q6 -21 20 -34q13 -12 38 -12q24 0 37 12q14 13 20 34q6 22 7 52t1 66t-1 66t-7 52q-6 21 -20 34q-13 12 -37 12q-25 0 -38 -12q-14 -13 -20 -34q-6 -22 -7 -52t-1 -66zM492 -14q-29 0 -55 13q-25 14 -45 39q-18 24 -29 58t-11 74t11 74t29 58
q20 25 45 38q26 14 55 14q28 0 54 -14q25 -13 44 -38q19 -24 30 -58t11 -74t-11 -74t-30 -58q-19 -25 -44 -39q-26 -13 -54 -13zM105 520q0 -36 1 -66q2 -30 8 -52q6 -21 19 -33q13 -13 38 -13t38 13q13 12 19 33q6 22 8 52q1 30 1 66t-1 66q-2 30 -8 52q-6 21 -19 34
q-13 12 -38 12t-38 -12q-13 -13 -19 -34q-6 -22 -8 -52q-1 -30 -1 -66zM171 336q-29 0 -54 14q-26 14 -45 38q-19 25 -30 58q-10 34 -10 74t10 74q11 34 30 58q19 25 45 39q25 14 54 14t54 -14q26 -14 44 -39q20 -24 31 -58q10 -34 10 -74t-10 -74q-11 -33 -31 -58
q-18 -24 -44 -38q-25 -14 -54 -14zM548 705h37q-121 -180 -485 -719h-37q122 179 485 719z" />
    <glyph glyph-name="ampersand" unicode="&#x26;" horiz-adv-x="721" 
d="M463 71q-12 -12 -32 -27q-19 -15 -45 -30q-26 -13 -58 -23q-33 -9 -73 -9q-51 0 -92 17t-70 46q-28 30 -44 69q-15 39 -15 83q0 53 25 93q26 40 60 68q35 30 70 49q36 19 57 30q-6 9 -18 26t-23 39q-11 21 -20 46t-9 52q0 26 12 50q12 25 33 43q23 20 54 31t70 11
q31 0 59 -8q29 -8 51 -25q21 -15 34 -38q14 -23 14 -52q0 -40 -17 -67t-42 -46q-24 -19 -52 -31q-27 -12 -49 -22q54 -92 163 -277q29 38 52 102q23 65 24 146h-113v22h229v-22h-90q0 -46 -7 -86q-7 -39 -19 -73q-13 -33 -29 -61q-15 -29 -32 -55q24 -40 71 -119h82v-23
h-169q-11 18 -42 71zM261 414q-17 -8 -42 -21q-24 -12 -48 -32q-23 -19 -39 -46q-16 -26 -16 -63q0 -35 12 -75q12 -41 35 -76q22 -34 55 -57q33 -24 74 -24q27 0 52 8q24 8 43 19q20 11 35 24t27 23q-63 107 -188 320zM248 637q0 -19 10 -44t24 -49q14 -25 28 -45
q14 -21 21 -31q17 6 35 16q18 11 32 26q15 16 24 39t9 55q0 48 -20 78q-21 31 -75 31q-15 0 -31 -5t-29 -14q-12 -9 -20 -23q-8 -15 -8 -34z" />
    <glyph glyph-name="quotesingle" unicode="'" horiz-adv-x="265" 
d="M119 420q-6 49 -23 195q-2 20 -4 39q-3 19 -3 38q0 22 11 32q12 11 32 11q43 0 43 -43q0 -19 -2 -38q-3 -19 -5 -39q-8 -65 -23 -195h-26z" />
    <glyph glyph-name="parenleft" unicode="(" horiz-adv-x="265" 
d="M231 -147q-28 28 -61 71t-61 99t-47 123q-18 68 -18 148t18 147q19 68 47 123q28 57 61 99q33 43 61 72l18 -15q-26 -31 -56 -71t-57 -92q-25 -52 -43 -117t-18 -146t18 -146t43 -117q27 -53 57 -92q30 -40 56 -71z" />
    <glyph glyph-name="parenright" unicode=")" horiz-adv-x="265" 
d="M16 -132q26 31 56 71q30 39 56 92q27 52 45 117q17 65 17 146t-17 146q-18 65 -45 117q-26 52 -56 92t-56 71l18 15q28 -29 61 -72q33 -42 61 -99q28 -55 47 -123q18 -67 18 -147t-18 -148q-19 -67 -47 -123t-61 -99t-61 -71z" />
    <glyph glyph-name="asterisk" unicode="*" 
d="M274 426q-30 0 -30 34q0 23 8 43q9 20 12 45q1 5 1 15q-12 -8 -24 -20q-12 -13 -24 -24q-11 -11 -23 -20t-25 -9t-21 7t-8 18q0 13 10 23q9 9 21 15q13 6 28 10t27 7q8 2 15 4q7 3 15 7q-8 4 -15 6t-15 4q-12 3 -27 7t-28 10q-12 6 -21 15q-10 9 -10 23q0 11 8 18t21 7
t25 -9t23 -20q12 -11 24 -24t24 -20q0 10 -1 15q-3 25 -12 45q-8 20 -8 43q0 34 30 34q31 0 31 -34q0 -23 -9 -43q-8 -20 -11 -45q-1 -5 -1 -15q12 7 24 20q11 13 23 24q11 11 23 20q13 9 26 9t21 -7t8 -18q0 -14 -10 -23q-9 -9 -22 -15q-12 -6 -27 -10t-27 -7q-9 -2 -15 -4
q-7 -2 -15 -6q8 -4 15 -7q6 -2 15 -4q12 -3 27 -7t27 -10q13 -6 22 -15q10 -10 10 -23q0 -11 -8 -18t-21 -7t-26 9q-12 9 -23 20q-12 11 -23 24q-12 12 -24 20q0 -10 1 -15q3 -25 11 -45q9 -20 9 -43q0 -34 -31 -34z" />
    <glyph glyph-name="plus" unicode="+" 
d="M249 319h-184v52h184v196h51v-196h184v-52h-184v-196h-51v196z" />
    <glyph glyph-name="comma" unicode="," horiz-adv-x="285" 
d="M117 -139q9 8 22 20q14 13 26 29t21 37q9 20 9 45q0 14 -5 25q-4 12 -15 12q-7 0 -9 -6q-2 -7 -4 -15q-3 -8 -10 -14q-8 -6 -25 -6q-15 0 -28 11q-13 12 -13 36q0 23 17 35q18 12 43 12q30 0 52 -24t22 -70q0 -26 -10 -48q-10 -23 -25 -41q-14 -19 -29 -32
q-16 -13 -26 -22q-4 5 -13 16z" />
    <glyph glyph-name="hyphen" unicode="-" horiz-adv-x="341" 
d="M41 269h259v-69h-259v69z" />
    <glyph glyph-name="period" unicode="." horiz-adv-x="285" 
d="M142 -18q-22 0 -36 13q-14 14 -14 37q0 22 14 36t36 14q23 0 37 -14t14 -36q0 -23 -14 -37q-14 -13 -37 -13z" />
    <glyph glyph-name="slash" unicode="/" horiz-adv-x="512" 
d="M456 735h32q-108 -188 -432 -753h-32q108 188 432 753z" />
    <glyph glyph-name="zero" unicode="0" 
d="M274 -18q-58 0 -100 35q-43 36 -72 89q-27 55 -41 119t-14 120t14 120t42 118q29 54 72 90q42 36 99 36q59 0 101 -36q43 -36 70 -90q29 -54 43 -118t14 -120t-14 -120t-43 -119q-27 -53 -70 -89q-42 -35 -101 -35zM147 345q0 -52 3 -112q2 -59 14 -110t38 -85t74 -34
t73 34t36 85q12 51 14 110q2 60 2 112t-2 112q-2 59 -14 110q-11 51 -36 85t-73 34t-74 -34t-38 -85t-14 -110q-3 -60 -3 -112z" />
    <glyph glyph-name="one" unicode="1" 
d="M118 23h126v595q0 16 -1 26q0 9 -4 14q-3 7 -12 8q-8 2 -22 2h-80v22h31q45 0 85 4q41 3 85 13v-684h112v-23h-320v23z" />
    <glyph glyph-name="two" unicode="2" 
d="M36 50q10 11 39 37q28 25 65 59q38 35 79 78t75 90q34 48 56 98q22 49 22 97q0 33 -8 63t-24 53t-43 37t-65 14q-35 0 -62 -12q-26 -13 -43 -31t-26 -38t-9 -34q0 -11 4 -19q4 -7 16 -7q11 0 20 7q8 7 21 7q17 0 29 -13q13 -14 13 -36q0 -21 -17 -36q-16 -15 -37 -15
q-28 0 -51 26q-22 26 -22 82q0 22 11 48t35 48q24 24 62 40q37 16 90 16q40 0 77 -13q36 -12 63 -36q27 -22 44 -55q16 -34 16 -75q0 -32 -11 -63q-12 -31 -28 -57q-15 -26 -33 -47l-30 -35q-65 -71 -136 -134q-70 -64 -129 -118h250q28 0 44 1t24 7q9 6 12 18t5 33
q2 14 4 42h23q-2 -44 -8 -177h-417v10v40z" />
    <glyph glyph-name="three" unicode="3" 
d="M230 -18q-39 0 -71 11q-33 11 -57 29q-22 18 -35 40t-13 44q0 26 14 46q14 19 36 19q26 0 38 -14q13 -14 13 -34q0 -15 -8 -24q-7 -8 -15 -13t-15 -10q-7 -4 -7 -11q0 -11 9 -21q10 -11 26 -20q17 -9 37 -14q20 -6 40 -6q40 0 68 14q27 15 45 39q17 25 25 59q9 34 9 72
q0 84 -45 131t-122 47q-13 0 -20 -1q-7 0 -13 -1q-5 -2 -11 -2q-5 -1 -13 -1q-15 0 -15 17q0 9 8 11q7 1 14 1q9 0 18 -1q10 -1 20 -1q69 0 108 44q40 43 40 119q0 27 -4 51q-4 25 -16 43q-10 19 -29 30t-47 11q-39 0 -66 -14q-28 -15 -28 -38q0 -5 7 -10q6 -4 12 -10
q7 -5 13 -12t6 -17q0 -21 -11 -35q-12 -13 -36 -13q-25 0 -36 17t-11 42q0 21 11 42q11 20 30 36q21 16 50 25q30 10 68 10t71 -11q32 -11 57 -31q24 -20 39 -49q14 -28 14 -63q0 -40 -19 -71q-19 -30 -45 -52q-27 -20 -55 -33t-48 -18v-2q29 -3 64 -13q36 -10 66 -31
q32 -21 53 -55t21 -87q0 -42 -16 -80t-46 -68q-31 -29 -76 -46q-44 -17 -101 -17z" />
    <glyph glyph-name="four" unicode="4" 
d="M292 603h-2q-27 -40 -61 -97q-34 -56 -69 -115q-34 -57 -63 -108t-46 -79h241v399zM166 23h126v158h-274v5v19q33 59 72 126q38 66 79 133q41 66 82 129q42 63 81 116h42v-505h105v88h23v-192h-23v81h-105v-158h112v-23h-320v23z" />
    <glyph glyph-name="five" unicode="5" 
d="M140 391q21 7 46 15q26 8 65 8t79 -14q41 -13 73 -40q34 -26 56 -67q21 -40 21 -93q0 -43 -18 -83q-19 -39 -51 -70q-33 -30 -77 -48q-44 -17 -95 -17q-38 0 -71 10q-32 11 -55 30q-23 18 -36 42q-12 24 -12 51q0 20 14 39t40 19q24 0 35 -15q11 -16 11 -37q0 -13 -8 -21
q-7 -7 -17 -12q-8 -4 -16 -9q-7 -5 -7 -13q0 -13 11 -24t29 -20t39 -13q21 -5 41 -5q38 0 66 18q28 17 44 45q18 28 25 63q8 35 8 70q0 91 -42 141t-110 50q-32 0 -59 -13q-26 -13 -41 -25q-6 1 -18 2q3 64 13 253q0 31 2 47q2 17 9 24q8 8 22 10q14 1 38 1h164q22 0 34 1
q11 0 19 3q7 3 9 10q3 7 6 18h21q-3 -22 -5 -42t-8 -34t-19 -23t-36 -9h-227q-3 -55 -12 -223z" />
    <glyph glyph-name="six" unicode="6" 
d="M453 710q-67 -13 -120 -47q-53 -35 -92 -81q-38 -46 -61 -98q-22 -51 -27 -97q0 -1 2 -2q10 11 23 26q12 14 30 26q18 13 43 21q24 8 58 8q40 0 77 -18q36 -18 64 -50q27 -31 44 -75q16 -43 16 -95q0 -41 -14 -84q-14 -44 -42 -81q-29 -35 -73 -58q-43 -23 -102 -23
q-62 0 -106 25q-45 26 -74 68q-27 43 -41 97t-14 113q0 68 19 127q20 59 53 107q32 49 74 88q42 38 86 65q46 26 90 42q45 15 81 18q2 -7 6 -22zM144 241q0 -36 5 -77t18 -77q14 -36 40 -59q26 -24 69 -24q45 0 71 18q27 18 40 49q14 30 19 71q4 40 4 86q0 32 -2 70t-14 70
q-10 32 -34 54q-23 21 -67 21q-28 0 -51 -11q-23 -12 -40 -29q-18 -16 -30 -33q-12 -18 -19 -29q-2 -18 -6 -46q-3 -27 -3 -54z" />
    <glyph glyph-name="seven" unicode="7" 
d="M350 348q-26 -55 -42 -96q-15 -40 -15 -65q0 -14 4 -32t9 -37q6 -19 10 -38q5 -19 5 -36q0 -33 -16 -48q-15 -14 -37 -14q-15 0 -26 7t-18 18q-6 12 -9 27t-3 29q0 27 12 65t30 81t40 87q21 44 40 84q36 75 107 226h-277q-16 0 -25 -2q-10 -2 -17 -9q-6 -7 -12 -20
t-13 -34q-3 -11 -11 -32q-6 1 -24 6q12 44 47 175h393v-25q-38 -80 -152 -317z" />
    <glyph glyph-name="eight" unicode="8" 
d="M166 534q0 -28 4 -56q5 -28 17 -52q13 -23 34 -37t53 -14q33 0 54 14t33 37q13 24 17 52q5 28 5 56q0 27 -5 55q-4 27 -17 49q-11 21 -32 35q-21 13 -55 13q-33 0 -54 -13q-21 -14 -34 -35q-11 -22 -16 -49q-4 -28 -4 -55zM151 177q0 -31 5 -62t18 -56q14 -24 38 -40
q25 -15 62 -15q38 0 62 15q24 16 38 40q14 25 19 56t5 62q0 32 -6 63t-21 56q-15 26 -38 41q-24 15 -59 15q-34 0 -58 -15q-23 -15 -39 -41q-14 -25 -20 -56t-6 -63zM274 -18q-48 0 -89 14t-70 39q-30 25 -47 61q-18 35 -18 78q0 47 19 80t47 54q27 23 58 35t54 17v2
q-17 7 -44 18q-26 12 -52 32q-24 19 -42 49q-18 29 -18 73q0 38 15 71q14 32 41 54q28 24 65 37q36 13 81 13q44 0 82 -13q37 -13 64 -37q27 -22 42 -54q15 -33 15 -71q0 -44 -18 -73q-18 -30 -43 -49q-25 -20 -51 -32q-27 -11 -44 -18v-2q23 -5 54 -17t58 -35
q28 -21 47 -54t19 -80q0 -43 -18 -78q-17 -36 -47 -61t-71 -39t-89 -14z" />
    <glyph glyph-name="nine" unicode="9" 
d="M97 -19q67 12 120 47q53 34 91 81q39 46 62 97q22 51 27 97q0 1 -2 2q-10 -12 -23 -26t-31 -26q-17 -12 -42 -21q-25 -8 -58 -8q-40 0 -77 18q-36 18 -64 50q-27 32 -44 75q-16 44 -16 95q0 41 14 84q14 44 42 80q29 37 72 60q44 23 103 23q62 0 106 -26q45 -26 73 -69
q28 -42 42 -96t14 -112q0 -69 -20 -128q-19 -59 -52 -108q-33 -48 -75 -87q-42 -38 -87 -65q-44 -26 -88 -42q-45 -15 -82 -18q-1 8 -5 23zM140 462q0 -32 2 -70t13 -70t34 -54q24 -21 68 -21q28 0 50 12q23 11 40 28q19 16 31 34q12 17 19 28q2 19 5 46q4 27 4 55
q0 34 -5 76q-5 41 -19 77q-13 36 -39 60q-27 23 -70 23q-44 0 -70 -18q-27 -18 -41 -48q-14 -31 -18 -72q-4 -40 -4 -86z" />
    <glyph glyph-name="colon" unicode=":" horiz-adv-x="285" 
d="M142 -18q-22 0 -36 13q-14 14 -14 37q0 22 14 36t36 14q23 0 37 -14t14 -36q0 -23 -14 -37q-14 -13 -37 -13zM142 322q-22 0 -36 13q-14 14 -14 37q0 22 14 36t36 14q23 0 37 -14t14 -36q0 -23 -14 -37q-14 -13 -37 -13z" />
    <glyph glyph-name="semicolon" unicode=";" horiz-adv-x="285" 
d="M117 -139q9 8 22 20q14 13 26 29t21 37q9 20 9 45q0 14 -5 25q-4 12 -15 12q-7 0 -9 -6q-2 -7 -4 -15q-3 -8 -10 -14q-8 -6 -25 -6q-15 0 -28 11q-13 12 -13 36q0 23 17 35q18 12 43 12q30 0 52 -24t22 -70q0 -26 -10 -48q-10 -23 -25 -41q-14 -19 -29 -32
q-16 -13 -26 -22q-4 5 -13 16zM142 319q-23 0 -37 14t-14 38q0 23 14 37t37 14q24 0 38 -14t14 -37q0 -24 -14 -38t-38 -14z" />
    <glyph glyph-name="less" unicode="&#x3c;" 
d="M459 131q-92 54 -369 214q92 54 369 214v-55q-70 -40 -280 -159q70 -40 280 -159v-55z" />
    <glyph glyph-name="equal" unicode="=" 
d="M65 301h419v-51h-419v51zM65 440h419v-51h-419v51z" />
    <glyph glyph-name="greater" unicode="&#x3e;" 
d="M90 131v55q70 40 280 159q-70 40 -280 159v55q92 -53 369 -214q-92 -53 -369 -214z" />
    <glyph glyph-name="question" unicode="?" horiz-adv-x="398" 
d="M129 221q-2 12 -6 32q-3 20 -3 55q0 39 15 67t36 50q22 22 48 40t47 37q22 19 37 42q14 23 14 55q0 26 -11 47t-31 35q-19 15 -44 24q-25 8 -53 8q-43 0 -69 -16q-27 -16 -27 -31q0 -11 8 -15q7 -5 15 -10q10 -4 17 -11q8 -7 8 -22q0 -17 -11 -31q-11 -15 -34 -15
q-27 0 -41 18q-14 17 -14 43q0 25 12 46q13 21 34 36q21 14 48 22t54 8q35 0 69 -11t60 -34q27 -22 43 -56q16 -33 16 -77t-16 -75t-41 -55q-23 -23 -51 -40t-52 -35q-24 -17 -40 -38q-15 -20 -15 -49q0 -12 1 -22q2 -11 3 -22h-26zM142 -18q-22 0 -36 13q-14 14 -14 37
q0 22 14 36t36 14q23 0 37 -14t14 -36q0 -23 -14 -37q-14 -13 -37 -13z" />
    <glyph glyph-name="at" unicode="@" horiz-adv-x="853" 
d="M622 -66q-9 -5 -28 -15t-46 -20q-28 -11 -64 -18q-37 -8 -81 -8q-85 0 -152 30q-68 29 -115 80q-47 50 -73 115q-25 66 -25 136q0 80 33 149q32 69 88 118q56 50 129 79q73 28 154 28q80 0 148 -24q68 -25 118 -69q50 -43 78 -102q28 -60 28 -128q0 -65 -24 -116
q-25 -51 -63 -87q-37 -35 -82 -53q-46 -19 -88 -19q-20 0 -35 8q-14 9 -23 21t-13 27q-4 14 -4 26q-8 -9 -20 -23q-11 -14 -28 -27q-16 -12 -37 -21t-47 -9q-28 0 -53 13t-43 34q-18 22 -29 51q-10 28 -10 61q0 52 22 103t57 91q36 39 79 64q44 25 86 25q25 0 43 -7
q17 -6 28 -15q13 -9 20 -20q8 -12 13 -22q5 17 14 51h65q-19 -72 -75 -287q-5 -17 -9 -39q-5 -22 -5 -35q0 -9 7 -23q6 -14 26 -14q32 0 68 17q36 18 66 50q31 32 50 78q20 45 20 101q0 58 -26 112t-72 95t-111 65q-65 25 -143 25q-74 0 -143 -28q-68 -29 -120 -77
q-51 -48 -82 -111q-31 -64 -31 -136q0 -69 26 -131q25 -62 70 -108t108 -73q63 -26 138 -26q41 0 76 7t62 17q26 9 45 19q18 9 25 13q3 -6 10 -18zM287 115q0 -35 15 -58q14 -22 53 -22q29 0 55 15q25 16 46 42q20 27 36 64q15 38 25 83q14 45 22 74q7 29 7 46q0 27 -24 50
q-23 22 -63 22q-35 0 -61 -22t-46 -56q-18 -32 -31 -72q-13 -39 -21 -74q-7 -35 -10 -61t-3 -31z" />
    <glyph glyph-name="A" unicode="A" horiz-adv-x="645" 
d="M-5 23h68l248 704h23q58 -176 233 -704h78v-23h-267v23h95q-17 50 -66 202h-246q-17 -50 -69 -202h91v-23h-188v23zM170 248h227q-27 84 -109 336h-2z" />
    <glyph glyph-name="B" unicode="B" horiz-adv-x="607" 
d="M205 383h65q31 0 61 3q29 2 53 17q25 16 39 48t14 92q0 51 -9 81q-10 30 -32 46q-21 15 -56 20q-34 4 -83 4h-52v-311zM205 23h63q46 0 82 4q35 5 59 21q24 18 37 51q13 34 13 94q0 59 -15 93q-15 33 -41 50q-25 16 -59 20q-35 4 -74 4h-65v-337zM27 23h86v671h-86v23
h252q38 0 83 -6q46 -6 84 -25q39 -18 65 -53q27 -35 27 -92q0 -43 -21 -74q-20 -31 -48 -50q-28 -20 -57 -29q-29 -10 -46 -13v-2q23 -2 57 -12q34 -9 64 -29q32 -20 54 -53q22 -34 22 -85q0 -68 -28 -106q-28 -39 -69 -58q-41 -20 -87 -25t-83 -5h-269v23z" />
    <glyph glyph-name="C" unicode="C" horiz-adv-x="607" 
d="M497 47q-11 -9 -22 -20q-12 -12 -30 -22q-16 -10 -41 -17q-25 -6 -62 -6q-71 0 -126 36t-93 92q-37 56 -56 122q-20 67 -20 126q0 60 20 126q19 67 56 122q38 57 93 93t126 36q34 0 58 -6q24 -7 40 -17q18 -10 30 -20q11 -11 20 -18q13 17 39 50h17q1 -49 5 -196h-19
q-6 20 -16 51q-11 31 -33 61q-21 30 -55 51q-35 22 -86 22q-66 0 -103 -29t-56 -78q-18 -48 -23 -112q-4 -65 -4 -136q0 -70 4 -135q5 -64 23 -113q19 -49 56 -77q37 -29 103 -29q56 0 93 24q36 23 58 55q22 33 32 65q11 33 16 51h18q-1 -52 -3 -205h-16q-11 13 -43 53z" />
    <glyph glyph-name="D" unicode="D" horiz-adv-x="683" 
d="M207 23h64q84 0 136 16q51 17 78 57q29 40 38 105t9 160q0 97 -11 161t-41 102q-28 39 -79 54q-51 16 -130 16h-64v-168v-503zM29 23h86v671h-86v23h246q14 0 36 -1t48 -5q27 -3 55 -12q28 -8 55 -22q37 -21 68 -53q31 -33 54 -74t37 -89q13 -47 13 -100q0 -46 -10 -91
t-30 -86q-19 -41 -47 -74q-28 -34 -62 -58q-29 -19 -56 -30t-54 -16q-27 -4 -54 -5t-56 -1h-243v23z" />
    <glyph glyph-name="E" unicode="E" horiz-adv-x="588" 
d="M32 23h86v671h-86v23h485l8 -200h-18q-5 30 -11 61q-7 31 -24 57q-16 27 -48 43t-86 16h-128v-318h29q35 0 59 4t38 17q14 14 20 39t6 67h19v-288h-19q0 42 -6 69t-20 43q-14 15 -38 21q-24 5 -59 5h-29v-330h122q65 0 102 15t56 42q20 26 29 62q8 36 18 78h18
q-5 -55 -18 -220h-505v23z" />
    <glyph glyph-name="F" unicode="F" horiz-adv-x="569" 
d="M37 23h86v671h-86v23h490q2 -50 9 -200h-19q-5 30 -11 61t-24 57q-17 27 -50 43t-89 16h-128v-318h49q38 0 64 4q25 4 41 17q15 14 21 39t6 67h19v-288h-19q0 42 -6 69t-21 43q-16 15 -41 21q-26 5 -64 5h-49v-330h95v-23h-273v23z" />
    <glyph glyph-name="G" unicode="G" horiz-adv-x="664" 
d="M579 231q-1 -48 -13 -92q-12 -45 -39 -81q-25 -34 -69 -55q-43 -21 -107 -21q-77 0 -134 36t-95 92t-57 122q-19 67 -19 126q0 60 20 126q19 67 56 122q38 57 93 93t126 36q34 0 58 -6q25 -7 41 -17q18 -10 29 -20q11 -11 20 -18q14 17 41 50h15q1 -49 5 -196h-19
q-6 20 -17 51t-33 61q-21 30 -55 51q-34 22 -85 22q-66 0 -103 -29t-56 -78q-18 -48 -23 -112q-4 -65 -4 -136q0 -70 3 -135q4 -64 22 -113q19 -49 59 -77q40 -29 112 -29q51 0 78 23t37 55q11 32 12 64v50v35h-116v23h288v-23h-71z" />
    <glyph glyph-name="H" unicode="H" horiz-adv-x="721" 
d="M30 23h86v671h-86v23h274v-23h-96v-315h304v315h-96v23h274v-23h-86v-671h85v-23h-273v23h96v333h-304v-333h95v-23h-273v23z" />
    <glyph glyph-name="I" unicode="I" horiz-adv-x="341" 
d="M32 23h92v671h-92v23h276v-23h-92v-671h91v-23h-275v23z" />
    <glyph glyph-name="J" unicode="J" horiz-adv-x="360" 
d="M256 167q0 -36 -6 -79q-6 -44 -25 -83q-18 -39 -51 -65q-34 -26 -88 -26q-41 0 -70 24t-29 67q0 23 13 37q13 15 39 15q15 0 28 -11q12 -11 12 -33q0 -12 -2 -20q-2 -7 -5 -12q-3 -7 -5 -11q-2 -5 -2 -10q0 -10 8 -17q8 -6 20 -6q25 0 39 15t21 42q7 25 9 58t2 69v573
h-92v23h275v-23h-91v-527z" />
    <glyph glyph-name="K" unicode="K" horiz-adv-x="683" 
d="M20 23h93v671h-93v23h277v-23h-92v-671h91v-23h-276v23zM403 23h94q-70 88 -278 355q71 79 283 316h-99v23h222v-23h-86q-61 -68 -243 -272q80 -100 318 -399h77v-23h-288v23z" />
    <glyph glyph-name="L" unicode="L" 
d="M33 23h92v671h-92v23h276v-23h-92v-671h96q65 0 102 17q37 18 57 47q21 30 29 66q9 35 17 72h19q-5 -56 -20 -225h-484v23z" />
    <glyph glyph-name="M" unicode="M" horiz-adv-x="835" 
d="M37 23h89v671h-91v23h198q48 -140 190 -561h2q45 140 178 561h195v-23h-89v-671h91v-23h-269v23h85v648h-2q-53 -168 -212 -671h-22q-56 168 -223 671h-2v-648h96v-23h-214v23z" />
    <glyph glyph-name="N" unicode="N" horiz-adv-x="721" 
d="M35 23h93v671h-91v23h199l336 -540h2v517h-88v23h200v-23h-83v-704h-22q-106 168 -422 673h-2v-640h98v-23h-220v23z" />
    <glyph glyph-name="O" unicode="O" horiz-adv-x="683" 
d="M341 -18q-71 0 -126 36t-93 92q-37 56 -56 122q-20 67 -20 126q0 60 20 126q19 67 56 122q38 57 93 93t126 36t126 -36t92 -93q38 -55 57 -122q20 -66 20 -126q0 -59 -20 -126q-19 -66 -57 -122q-37 -56 -92 -92t-126 -36zM155 358q0 -70 4 -135q5 -64 23 -113
q19 -49 56 -77q37 -29 103 -29t103 29q37 28 56 77q18 49 23 113q4 65 4 135q0 71 -4 136q-5 64 -23 112q-19 49 -56 78t-103 29t-103 -29t-56 -78q-18 -48 -23 -112q-4 -65 -4 -136z" />
    <glyph glyph-name="P" unicode="P" horiz-adv-x="588" 
d="M29 23h92v671h-92v23h253q40 0 89 -5t91 -24q43 -17 72 -53q28 -36 28 -97q0 -67 -26 -106q-27 -39 -68 -59q-40 -20 -88 -25q-48 -6 -90 -6h-77v-319h91v-23h-275v23zM213 365h54q45 0 81 3t62 19q25 16 39 50q13 33 13 93q0 59 -15 92q-14 32 -39 49q-26 16 -60 20
q-34 3 -72 3h-63v-329z" />
    <glyph glyph-name="Q" unicode="Q" horiz-adv-x="683" 
d="M555 -246q-48 0 -96 8q-47 9 -85 30q-38 22 -62 59q-23 37 -23 97q0 9 1 17t2 18q-62 15 -108 55q-46 41 -76 94q-31 53 -47 113q-15 59 -15 113q0 60 20 126q19 67 56 122q38 57 93 93t126 36t126 -36t92 -93q38 -55 57 -122q20 -66 20 -126q0 -56 -18 -118
q-17 -62 -49 -116q-31 -54 -76 -93q-46 -39 -101 -48q-3 -18 -3 -35q0 -56 14 -89q15 -33 41 -52q28 -18 67 -24q40 -6 90 -6v-23h-46zM155 358q0 -70 4 -134q5 -64 23 -113q19 -49 56 -77q37 -29 103 -29t103 29q37 28 56 77q18 49 23 113q4 64 4 134q0 71 -4 136
q-5 64 -23 112q-19 49 -56 78t-103 29t-103 -29t-56 -78q-18 -48 -23 -112q-4 -65 -4 -136z" />
    <glyph glyph-name="R" unicode="R" horiz-adv-x="626" 
d="M211 390h30q49 0 88 4q39 3 66 19q28 16 42 47q15 32 15 87q0 50 -13 79q-12 29 -36 45q-22 15 -54 19q-33 4 -74 4h-64v-304zM27 23h92v671h-92v23h248q24 0 54 -1q29 -1 60 -6q31 -4 60 -14t52 -29t37 -47q14 -29 14 -71q0 -51 -23 -83q-22 -32 -54 -51t-66 -27
q-35 -9 -61 -13v-2q28 -3 46 -8q19 -5 31 -10t19 -9q8 -4 13 -6q13 -9 27 -22q14 -12 26 -33q12 -22 20 -57t9 -91q1 -61 13 -88q12 -26 42 -26q5 0 16 2q11 3 20 8q2 -7 7 -22q-12 -8 -31 -15q-18 -6 -50 -6q-19 0 -39 8q-19 9 -37 26q-16 16 -27 39q-12 23 -15 52
q-4 41 -5 73t-4 58q-3 25 -11 45q-7 20 -24 37q-14 14 -34 22t-41 11q-19 5 -37 6q-19 1 -31 1h-40v-345h91v-23h-275v23z" />
    <glyph glyph-name="S" unicode="S" horiz-adv-x="531" 
d="M61 218h21q4 -18 13 -54q9 -35 31 -71q21 -36 58 -62q36 -27 95 -27q33 0 63 13q30 14 52 38q23 25 36 59q12 33 12 74q0 40 -12 66q-13 26 -35 40q-21 15 -48 22q-28 8 -57 12q-30 5 -59 9q-28 5 -52 15q-62 26 -91 70q-30 45 -30 116q0 36 15 72q14 35 39 63t60 45
q34 17 75 17q48 0 78 -16q30 -17 50 -34q11 14 33 43h18q1 -46 4 -183h-20q-6 16 -14 44t-26 56t-48 48t-77 20q-32 0 -59 -13q-27 -12 -47 -32q-19 -20 -30 -46q-12 -26 -12 -53q0 -49 24 -73t60 -35t79 -17q42 -6 78 -17q30 -9 56 -25q26 -15 45 -40q20 -23 31 -57
q11 -35 11 -83q0 -51 -14 -95t-41 -77q-27 -32 -65 -50q-37 -18 -83 -18q-37 0 -62 7t-42 16q-17 10 -29 22q-11 12 -21 21l-48 -51h-19q1 55 4 221z" />
    <glyph glyph-name="T" unicode="T" horiz-adv-x="626" 
d="M451 0h-277v23h92v671h-47q-55 0 -87 -19t-49 -48q-16 -29 -24 -64t-15 -67h-18q2 55 11 221h551q3 -55 11 -221h-18q-8 32 -15 67q-8 35 -25 64t-48 48q-32 19 -87 19h-48v-671h93v-23z" />
    <glyph glyph-name="U" unicode="U" horiz-adv-x="683" 
d="M577 214q0 -31 -5 -71t-28 -76t-71 -61q-48 -24 -134 -24q-67 0 -111 19q-45 19 -71 52q-27 33 -38 74q-10 42 -10 87v480h-77v23h264v-23h-95v-480q0 -31 3 -66t19 -65q17 -30 52 -49q35 -20 99 -20q62 0 97 23t51 55q18 32 22 66q4 33 4 56v480h-93v23h204v-23h-82
v-480z" />
    <glyph glyph-name="V" unicode="V" horiz-adv-x="626" 
d="M66 694h-78v23h267v-23h-95q48 -139 192 -557h2q45 139 180 557h-92v23h189v-23h-69l-228 -704h-23q-61 176 -245 704z" />
    <glyph glyph-name="W" unicode="W" horiz-adv-x="891" 
d="M487 442h2l92 252h-179q22 -63 85 -252zM435 339q-32 89 -127 355h-150q50 -141 201 -566h2q19 53 74 211zM63 694h-77v23h687v-23h-64q-26 -71 -103 -284q24 -71 95 -283h2q51 142 202 567h-72v23h162v-23h-61q-64 -176 -254 -704h-23q-26 77 -104 310h-2
q-28 -78 -111 -310h-23q-63 176 -254 704z" />
    <glyph glyph-name="X" unicode="X" horiz-adv-x="683" 
d="M2 23h79q54 83 218 335q-50 84 -202 336h-79v23h268v-23h-88q39 -66 157 -263q42 66 168 263h-91v23h189v-23h-65q-46 -72 -185 -288q57 -96 230 -383h79v-23h-267v23h88q-47 77 -186 308q-50 -77 -201 -308h87v-23h-199v14v9z" />
    <glyph glyph-name="Y" unicode="Y" horiz-adv-x="588" 
d="M168 23h92v302q-53 92 -211 369h-69v23h258v-23h-88q46 -82 187 -328q41 82 163 328h-91v23h188v-23h-65q-45 -90 -180 -359v-312h91v-23h-275v23z" />
    <glyph glyph-name="Z" unicode="Z" horiz-adv-x="588" 
d="M26 20q103 169 411 674h-134q-66 0 -103 -12q-37 -11 -58 -36q-19 -23 -29 -60t-22 -86h-20q3 54 15 217h453v-21q-103 -168 -412 -673h206q58 0 90 10t50 34q19 23 30 63q11 39 27 97h21q-4 -57 -16 -227h-509v20z" />
    <glyph glyph-name="bracketleft" unicode="[" horiz-adv-x="265" 
d="M100 717h134v-23h-103v-790h103v-23h-134v523v313z" />
    <glyph glyph-name="backslash" unicode="\" horiz-adv-x="512" 
d="M24 735h32q108 -188 432 -753h-32q-108 188 -432 753z" />
    <glyph glyph-name="bracketright" unicode="]" horiz-adv-x="265" 
d="M31 -96h103v790h-103v23h134v-836h-134v23z" />
    <glyph glyph-name="asciicircum" unicode="^" 
d="M432 348q-39 70 -158 280q-39 -70 -157 -280h-56q54 92 213 369q54 -92 213 -369h-55z" />
    <glyph glyph-name="underscore" unicode="_" horiz-adv-x="512" 
d="M0 -77h384h128v-51h-512v36v15z" />
    <glyph glyph-name="grave" unicode="`" horiz-adv-x="410" 
d="M82 620q5 12 21 50q62 -31 245 -123q-2 -4 -7 -17q-65 23 -259 90z" />
    <glyph glyph-name="a" unicode="a" horiz-adv-x="493" 
d="M477 31q-13 -16 -34 -33q-20 -16 -52 -16q-22 0 -37 9q-14 10 -23 23q-8 15 -12 31t-4 29h-2q-6 -12 -18 -27q-11 -16 -30 -31q-17 -14 -41 -24q-23 -10 -54 -10t-54 11q-24 11 -39 29q-16 18 -23 40q-8 23 -8 46q0 34 16 60t41 43q26 18 57 30q31 11 61 17t55 9
q25 2 39 3v95q0 24 -1 43q-1 18 -7 30q-6 13 -19 19q-14 6 -38 6q-19 0 -36 -3q-18 -3 -33 -9q-13 -7 -21 -15q-8 -9 -8 -19q0 -7 3 -12l8 -10q4 -4 7 -10q4 -7 4 -19q0 -17 -12 -30q-11 -13 -36 -13q-22 0 -33 13q-11 14 -11 38q0 20 12 40t35 36q24 16 56 26q32 9 71 9
q11 0 25 -1q14 -2 26 -5q14 -2 24 -5q11 -3 17 -6q12 -6 21 -11q8 -5 13 -15q6 -9 9 -25q2 -16 2 -43v-264q0 -13 1 -29q0 -15 2 -29q3 -13 8 -22q6 -10 16 -10q17 0 28 10t15 14q5 -4 14 -13zM315 248q-24 -1 -56 -6q-33 -5 -62 -19q-29 -13 -49 -37t-20 -63q0 -45 20 -74
t59 -29q15 0 29 7q14 6 25 16t21 22q9 11 15 22q9 16 14 40q4 24 4 72v49z" />
    <glyph glyph-name="b" unicode="b" 
d="M177 227q0 -49 11 -90q12 -41 31 -70q20 -30 45 -47q26 -16 54 -16q37 0 58 20q20 20 30 52q9 33 10 74q2 41 2 83t-2 84q-1 41 -10 73q-10 33 -30 53q-21 20 -58 20q-38 0 -65 -23t-44 -58q-16 -35 -24 -76q-8 -42 -8 -79zM23 23h76v671h-76v23h67q23 0 48 2q25 3 39 6
v-351h2q6 13 18 32q11 19 27 36q18 19 41 31q24 12 53 12q43 0 79 -26q35 -26 61 -65q25 -38 40 -82q14 -44 14 -79t-15 -79q-15 -43 -40 -82q-26 -38 -62 -64t-77 -26q-29 0 -53 11q-24 12 -43 29q-18 16 -31 34q-12 19 -16 33h-2v-97q-7 2 -17 3q-11 1 -23 3q-11 1 -23 1
q-13 1 -24 1h-63v23z" />
    <glyph glyph-name="c" unicode="c" horiz-adv-x="455" 
d="M441 152q-4 -21 -16 -50t-35 -56q-21 -27 -52 -45q-31 -19 -72 -19q-54 0 -96 22q-41 22 -70 56q-28 36 -43 82q-15 45 -15 91q0 43 16 89q17 45 46 80q30 37 71 60t91 23q34 0 63 -9q28 -10 49 -26q21 -17 33 -38q11 -21 11 -42q0 -54 -45 -54q-26 0 -37 14
q-10 13 -10 30q0 16 5 24q6 8 13 13q7 6 13 11t6 11q0 9 -9 17q-8 8 -22 15q-13 6 -32 9q-18 3 -38 3q-49 0 -75 -18t-38 -50q-13 -30 -15 -72t-2 -90q0 -47 2 -89t15 -73q12 -31 38 -49t75 -18q37 0 64 18q27 17 46 41q19 25 31 51q11 26 15 43q6 -2 19 -5z" />
    <glyph glyph-name="d" unicode="d" 
d="M134 233q0 -42 2 -83q1 -41 10 -74q10 -32 30 -52q21 -20 57 -20q29 0 55 16q25 17 45 47q19 29 31 70q11 41 11 90q0 37 -8 79q-8 41 -25 76q-16 35 -44 58q-27 23 -65 23q-36 0 -57 -20q-20 -20 -30 -53q-9 -32 -10 -73q-2 -42 -2 -84zM379 89h-2q-5 -14 -17 -33
q-12 -18 -30 -34q-19 -17 -43 -29q-24 -11 -54 -11q-43 0 -78 25q-35 26 -61 64q-25 39 -40 83q-14 44 -14 79q0 36 14 80t39 82q26 39 62 65q35 25 78 25q30 0 54 -12q23 -12 40 -31q17 -17 28 -36q12 -19 18 -32h2v320h-85v23h76q22 0 47 2q25 3 40 6v-702h76v-23h-63
q-23 0 -48 -3q-25 -2 -39 -5v97z" />
    <glyph glyph-name="e" unicode="e" horiz-adv-x="474" 
d="M451 142q-10 -21 -22 -49q-12 -27 -35 -53q-21 -25 -56 -42q-34 -16 -85 -16q-46 0 -85 18t-68 52q-27 34 -43 81t-16 104q0 41 15 85q16 44 43 79q29 37 68 61q40 23 89 23q47 0 82 -20t57 -51q24 -31 36 -70q11 -40 11 -78h-307v-90q0 -26 3 -57q2 -30 15 -56
q12 -25 37 -42t70 -17q42 0 71 17t49 39q19 24 31 49q12 24 19 39zM355 318q0 28 -2 54q-3 26 -13 46t-31 33q-20 12 -57 12q-43 0 -67 -18q-23 -17 -34 -44q-12 -25 -14 -55q-2 -31 -2 -57h220v29z" />
    <glyph glyph-name="f" unicode="f" horiz-adv-x="323" 
d="M29 23h87v421h-101v23h101v30q0 42 7 84q7 43 23 76q18 35 46 57q28 21 71 21q37 0 62 -22t25 -56q0 -22 -12 -34q-11 -12 -30 -12q-14 0 -27 9t-13 30q0 15 11 25q10 10 10 18q0 20 -26 20t-40 -10q-14 -9 -21 -28q-6 -20 -7 -50t-1 -72v-86h124v-23h-124v-421h115v-23
h-280v23z" />
    <glyph glyph-name="g" unicode="g" horiz-adv-x="493" 
d="M141 335q0 -28 2 -52q1 -24 10 -42q8 -19 26 -30q19 -10 52 -10q34 0 53 8q18 8 27 24q10 18 11 43q2 25 2 59q0 27 -2 51q-1 23 -10 40q-8 17 -26 27t-52 10t-53 -10q-19 -11 -28 -29q-9 -17 -10 -41q-2 -23 -2 -48zM143 7q-4 -5 -11 -15q-7 -9 -14 -23q-6 -14 -12 -30
q-5 -16 -5 -33q0 -25 11 -45q10 -21 28 -35q19 -15 44 -24q26 -9 57 -9q43 0 78 16q36 15 62 38q26 24 39 51q14 27 14 52q0 39 -16 56t-49 17q-7 0 -18 -2t-19 -2zM324 95q10 0 21 2q10 1 17 1q54 0 80 -33q27 -34 27 -88q0 -40 -16 -78q-17 -37 -49 -66q-30 -29 -75 -45
q-44 -17 -100 -17q-33 0 -67 8q-33 8 -59 24q-25 17 -41 42q-16 26 -16 61q0 17 9 34q8 16 21 30q12 14 25 23q13 10 21 15q-16 4 -30 12t-25 20q-12 12 -18 30q-7 18 -7 43q0 21 10 38t26 28q15 12 33 19t32 9v2q-11 5 -26 15q-15 9 -28 25q-12 15 -21 36t-9 50q0 23 12 50
q11 27 32 48q23 23 56 38q34 14 77 14q27 0 48 -6q20 -6 35 -15q16 -8 26 -18q10 -9 17 -16q10 10 18 22q9 11 18 20q11 9 22 15q12 7 27 7q22 0 33 -13q12 -12 12 -30q0 -13 -8 -24t-28 -11q-14 0 -20 4q-7 5 -11 10q-4 6 -7 11q-2 4 -7 4q-7 0 -16 -11q-10 -12 -15 -21
q4 -6 8 -16q4 -9 8 -20t7 -22t3 -20q0 -39 -16 -68t-41 -50q-24 -19 -54 -29q-29 -10 -54 -10q-24 0 -40 5q-16 4 -30 10q-11 -2 -27 -5t-31 -11q-15 -7 -25 -20q-11 -13 -11 -32q0 -15 5 -24q5 -8 13 -12q9 -4 20 -5q10 -1 20 -1q11 0 24 1q12 1 23 2q47 3 142 9z" />
    <glyph glyph-name="h" unicode="h" horiz-adv-x="588" 
d="M28 23h73v671h-83v23h74q23 0 48 2q25 3 39 6v-381h2q9 20 25 44q16 25 39 46q22 22 52 37q30 14 67 14q39 0 65 -12t39 -30q14 -16 19 -35q6 -19 6 -31v-354h76v-23h-228v23h74v362q0 14 -2 29q-1 14 -7 24q-7 12 -19 18q-13 7 -36 7q-24 0 -54 -16t-56 -45
q-26 -28 -44 -68t-18 -88v-223h71v-23h-222v23z" />
    <glyph glyph-name="i" unicode="i" horiz-adv-x="285" 
d="M37 23h74v421h-83v23h73q23 0 48 3q25 2 39 5v-452h77v-23h-228v23zM147 587q-19 0 -33 14q-14 13 -14 33q0 19 14 33t33 14q20 0 34 -14t14 -33q0 -20 -14 -33q-14 -14 -34 -14z" />
    <glyph glyph-name="j" unicode="j" horiz-adv-x="247" 
d="M169 44q0 -49 -8 -98q-8 -48 -27 -87q-17 -39 -46 -64q-30 -24 -71 -24q-37 0 -59 20q-21 20 -21 53q0 16 11 31t35 15q18 0 30 -9q12 -10 12 -28t-5 -23q-4 -6 -4 -19q0 -11 7 -14q6 -4 12 -4q21 0 33 21q11 21 16 53t6 68q1 37 1 69v440h-83v23h74q22 0 48 3q25 2 39 5
v-431zM128 587q-19 0 -33 14q-14 13 -14 33q0 19 14 33t33 14t33 -14t14 -33q0 -20 -14 -33q-14 -14 -33 -14z" />
    <glyph glyph-name="k" unicode="k" 
d="M329 23h69q-48 60 -193 240q45 45 179 181h-83v23h192v-23h-76q-36 -35 -145 -143q57 -70 226 -278h59v-23h-228v23zM27 23h84v671h-94v23h84q23 0 48 2q25 3 39 6v-702h71v-23h-232v23z" />
    <glyph glyph-name="l" unicode="l" horiz-adv-x="285" 
d="M25 23h84v671h-94v23h84q23 0 48 2q25 3 39 6v-702h71v-23h-232v23z" />
    <glyph glyph-name="m" unicode="m" horiz-adv-x="891" 
d="M40 23h74v421h-83v23h73q23 0 46 3q23 2 37 5v-131h2q8 20 22 44q15 25 37 46q21 22 50 37q29 14 64 14q44 0 68 -16q25 -16 37 -40q13 -22 17 -46q3 -24 4 -39h2q10 21 25 45q15 25 37 46q22 22 50 36t61 14q39 0 65 -12t39 -30q14 -16 19 -35q6 -19 6 -31v-354h76v-23
h-228v23h74v354q0 13 -2 28q-1 15 -7 27q-7 13 -19 22q-13 9 -36 9t-51 -16t-51 -45q-24 -28 -40 -68t-16 -88v-223h76v-23h-228v23h74v354q0 13 -2 28q-1 15 -8 27q-6 13 -18 22q-13 9 -36 9q-22 0 -50 -16t-52 -45q-24 -28 -40 -68q-17 -40 -17 -88v-223h71v-23h-222v23z
" />
    <glyph glyph-name="n" unicode="n" horiz-adv-x="588" 
d="M32 23h73v421h-82v23h73q23 0 46 3q23 2 37 5v-131h2q8 20 24 44q15 25 37 46q22 22 51 37q30 14 66 14q40 0 66 -12t39 -30q14 -16 19 -35t5 -31v-354h77v-23h-228v23h74v362q0 14 -2 29q-1 14 -8 24q-6 12 -19 18q-12 7 -35 7q-22 0 -51 -16t-54 -45q-25 -28 -42 -68
t-17 -88v-223h71v-23h-222v23z" />
    <glyph glyph-name="o" unicode="o" horiz-adv-x="531" 
d="M135 233q0 -42 2 -83t15 -74q12 -32 38 -52t75 -20t75 20q27 20 39 52q12 33 14 74t2 83t-2 84q-2 41 -14 73q-12 33 -39 53q-26 20 -75 20t-75 -20t-38 -53q-13 -32 -15 -73q-2 -42 -2 -84zM265 -18q-54 0 -96 26q-41 26 -70 64q-28 39 -43 82q-15 44 -15 79t15 79
t43 82q29 39 70 65q42 26 96 26q53 0 95 -26t71 -65q29 -38 44 -82q14 -44 14 -79t-14 -79q-15 -43 -44 -82q-29 -38 -71 -64t-95 -26z" />
    <glyph glyph-name="p" unicode="p" horiz-adv-x="531" 
d="M156 240q0 -37 6 -79q7 -41 22 -76q17 -35 44 -58q28 -23 71 -23q37 0 57 20q21 20 30 52q9 33 11 74q1 41 1 83t-1 84q-2 41 -11 73q-9 33 -30 53q-20 20 -57 20q-35 0 -61 -17q-27 -16 -45 -46q-19 -29 -28 -70t-9 -90zM4 -188h74v632h-83v23h70q22 0 47 3q25 2 40 5
v-97h2q4 13 15 32q12 19 30 35q18 17 43 29q25 11 57 11q41 0 77 -26t61 -65q26 -38 41 -82t15 -79t-15 -79q-14 -43 -40 -82q-25 -38 -61 -64q-35 -26 -78 -26q-34 0 -58 11q-25 12 -41 29q-17 16 -27 32t-15 25h-2v-267h83v-23h-235v23z" />
    <glyph glyph-name="q" unicode="q" horiz-adv-x="531" 
d="M133 233q0 -42 2 -83q1 -41 10 -74q10 -32 30 -52q21 -20 57 -20q42 0 70 23t43 58q16 35 23 76q6 42 6 79q0 49 -9 90q-10 41 -28 70q-19 30 -45 46q-26 17 -60 17q-36 0 -57 -20q-20 -20 -30 -53q-9 -32 -10 -73q-2 -42 -2 -84zM291 -188h83v267h-2q-5 -9 -16 -25
q-10 -16 -26 -32q-17 -17 -40 -29q-24 -11 -58 -11q-43 0 -78 26t-61 64q-25 39 -40 82q-14 44 -14 79t15 79t40 82q26 39 61 65t77 26q31 0 56 -11q24 -12 42 -29q18 -16 29 -35q12 -19 17 -32h2v97q8 -2 17 -3t21 -2q21 -3 45 -3h74v-23h-83v-632h73v-23h-234v23z" />
    <glyph glyph-name="r" unicode="r" horiz-adv-x="398" 
d="M32 23h73v421h-82v23h73q23 0 46 3q23 2 37 5v-126h2q2 12 12 35t27 45q18 23 42 39q25 17 57 17q31 0 51 -18t20 -45q0 -26 -14 -41q-15 -14 -31 -14q-24 0 -36 12q-11 12 -11 33q0 8 2 13q2 6 2 11q0 10 -12 10q-22 0 -41 -20t-34 -52q-14 -32 -23 -71t-9 -75v-205h77
v-23h-228v23z" />
    <glyph glyph-name="s" unicode="s" horiz-adv-x="398" 
d="M55 174h19q3 -15 10 -44q8 -29 25 -57t45 -48q28 -21 71 -21q26 0 46 8q21 8 35 23q16 15 24 34t8 41q0 35 -22 54t-53 29t-63 14q-33 5 -55 12q-48 15 -68 45q-21 29 -21 89q0 22 10 45q9 24 26 43q19 20 44 32t58 12q40 0 62 -13q22 -14 36 -29q8 10 25 28h16v-130h-19
l-11 33q-7 20 -20 40q-14 20 -35 35q-22 14 -54 14q-24 0 -42 -8q-19 -8 -32 -21q-14 -13 -20 -30q-7 -16 -7 -34q0 -26 14 -39q14 -14 35 -22q22 -7 47 -11q25 -3 48 -8q22 -5 47 -14q24 -8 44 -23t33 -41q14 -25 14 -64q0 -33 -9 -64q-10 -30 -29 -53q-20 -23 -48 -36
q-29 -13 -67 -13q-24 0 -43 5q-18 6 -33 13q-14 8 -24 17q-10 10 -19 17q-10 -11 -32 -34h-16v174z" />
    <glyph glyph-name="t" unicode="t" horiz-adv-x="341" 
d="M343 80q-6 -13 -16 -30t-26 -33q-15 -15 -38 -25t-55 -10q-35 0 -54 9q-20 10 -29 27q-9 19 -11 43q-1 25 -1 56v327h-75v23h75v125q5 -1 9 -2h8q15 0 32 4q17 5 28 10v-137h122v-23h-122v-347q0 -24 4 -40q4 -15 10 -23q7 -8 17 -11t25 -3q17 0 30 8t22 18q9 11 16 23
q7 11 13 19q5 -3 16 -8z" />
    <glyph glyph-name="u" unicode="u" 
d="M389 123h-2q-8 -20 -22 -44q-15 -25 -36 -46q-21 -22 -49 -37q-28 -14 -65 -14q-40 0 -65 12q-26 12 -40 29t-19 36t-5 31v354h-77v6v17h155v-381q0 -12 1 -25q2 -13 8 -23t20 -17t38 -7q22 0 49 16q26 15 50 42q23 27 39 65t16 84v223h-85v23h163v-444h83v-23h-74
q-22 0 -46 -3q-23 -2 -37 -5v131z" />
    <glyph glyph-name="v" unicode="v" horiz-adv-x="512" 
d="M67 444h-64v9v14h220v-23h-75l140 -352q33 88 131 352h-80v23h170v-23h-65q-43 -115 -173 -462h-17q-47 115 -187 462z" />
    <glyph glyph-name="w" unicode="w" horiz-adv-x="721" 
d="M68 444h-67v14v9h218v-23h-72q29 -84 113 -336h2q30 89 120 359h20q32 -90 125 -362h2q27 85 107 339h-76v23h160v-23h-60q-36 -115 -146 -462h-17q-32 90 -128 363h-2q-31 -91 -121 -363h-18q-40 115 -160 462z" />
    <glyph glyph-name="x" unicode="x" horiz-adv-x="531" 
d="M12 23h71q38 51 150 207q-38 54 -152 214h-57v23h220v-23h-71q28 -39 111 -158q29 39 116 158h-77v23h177v-23h-69q-32 -44 -130 -178q43 -61 170 -243h61v-23h-223v23h70q-32 46 -129 187q-34 -47 -136 -187h82v-23h-184v23z" />
    <glyph glyph-name="y" unicode="y" horiz-adv-x="512" 
d="M220 -147q-3 -9 -9 -22q-5 -13 -15 -27q-11 -14 -27 -24q-15 -9 -39 -9t-41 14t-17 40q0 23 11 38q12 15 33 15q19 0 28 -10q10 -10 10 -22q0 -5 -1 -9v-7q0 -8 12 -8q10 0 19 14q10 14 23 49l48 129q-47 108 -187 430h-65v9v14h223v-23h-76q35 -82 142 -330
q30 82 122 330h-82v23h177v-23h-69q-55 -148 -220 -591z" />
    <glyph glyph-name="z" unicode="z" horiz-adv-x="455" 
d="M38 23q72 105 287 421h-96q-42 0 -66 -12q-25 -12 -38 -34q-13 -21 -20 -49q-6 -27 -12 -58h-19q1 44 6 176h333v-23q-72 -105 -287 -421h106q49 0 77 12t44 35q17 22 24 53q8 32 16 68h19q-1 -47 -4 -191h-370v23z" />
    <glyph glyph-name="braceleft" unicode="{" horiz-adv-x="265" 
d="M218 -123q-36 0 -56 9t-30 25t-13 41q-2 24 -2 55v140q0 34 -3 56q-3 21 -13 36q-8 15 -23 25t-39 22v22q24 11 39 22q15 10 23 24q10 16 13 37q3 22 3 55v141q0 30 2 55q3 25 13 41t30 25t56 9h19v-23h-19q-27 0 -41 -7q-14 -8 -21 -21q-6 -14 -8 -32q-1 -18 -1 -38
v-136q0 -40 -2 -66q-3 -25 -12 -43q-8 -17 -23 -29q-16 -13 -40 -25q24 -12 40 -25q15 -12 23 -29q9 -18 12 -43q2 -26 2 -66v-136q0 -21 1 -38q2 -18 8 -32q7 -13 21 -21q14 -7 41 -7h19v-23h-19z" />
    <glyph glyph-name="bar" unicode="|" horiz-adv-x="252" 
d="M152 717v-840h-52v525v315h52z" />
    <glyph glyph-name="braceright" unicode="}" horiz-adv-x="265" 
d="M29 -100h18q27 0 41 7q14 8 21 21q7 14 8 32q1 17 1 38v136q0 40 2 66q3 25 11 43q9 17 25 29q15 13 40 25q-25 12 -40 25q-16 12 -25 29q-8 18 -11 43q-2 26 -2 66v136q0 20 -1 38t-8 32q-7 13 -21 21q-14 7 -41 7h-18v23h18q35 0 55 -9q21 -9 31 -25t13 -41
q2 -25 2 -55v-141q0 -33 4 -55q3 -21 11 -37q9 -14 24 -24q15 -11 39 -22v-22q-24 -12 -39 -22t-24 -25q-8 -15 -11 -36q-4 -22 -4 -56v-140q0 -31 -2 -55q-3 -25 -13 -41t-31 -25q-20 -9 -55 -9h-18v23z" />
    <glyph glyph-name="asciitilde" unicode="~" 
d="M489 398q0 -14 -4 -35t-16 -40q-11 -19 -32 -32t-54 -13q-27 0 -51 9q-24 10 -46 23l-48 27q-20 10 -41 18q-22 9 -37 9q-21 0 -34 -8q-12 -7 -20 -18q-7 -10 -9 -23q-3 -13 -4 -23h-33q0 15 5 36q5 20 16 39q12 19 33 32q20 14 53 14q26 0 50 -11q24 -10 47 -22
q17 -9 49 -27q18 -9 40 -18q23 -8 37 -8q21 0 33 7q12 8 19 19q8 12 10 24q3 12 5 21h32z" />
    <glyph glyph-name="exclamdown" unicode="&#xa1;" horiz-adv-x="285" 
d="M142 385q-22 0 -36 14t-14 36q0 23 14 37q14 13 36 13q23 0 37 -13q14 -14 14 -37q0 -22 -14 -36t-37 -14zM154 246q0 -89 6 -165t13 -132q8 -58 15 -93q7 -36 7 -47q0 -12 -2 -26q-2 -13 -8 -25q-5 -11 -15 -19q-10 -7 -28 -7q-17 0 -28 7q-11 8 -16 19q-5 12 -6 25
q-2 14 -2 26q0 11 6 47q6 35 14 93q8 56 14 132q7 76 7 165h23z" />
    <glyph glyph-name="cent" unicode="&#xa2;" 
d="M8 79q33 36 133 145q-9 12 -18 26t-18 33q-7 19 -12 45q-5 25 -5 59q0 43 17 86q18 42 49 76q30 34 72 55q42 22 90 22q30 0 52 -6t39 -14t29 -17q11 -9 20 -18l72 78q5 -4 19 -16q-19 -21 -75 -83q5 -8 8 -17t3 -19q0 -16 -11 -35q-11 -18 -35 -18q-14 0 -20 4t-11 7
q-71 -74 -211 -222q4 -16 12 -33q9 -17 23 -33q16 -14 38 -24q22 -9 54 -9q30 0 55 8q24 8 43 19q18 12 32 25t24 22q6 -5 17 -16q-13 -11 -28 -25q-14 -14 -35 -26q-20 -13 -47 -21q-27 -9 -61 -9q-36 0 -62 8t-45 20t-33 25t-25 23q-44 -47 -130 -142q-5 5 -19 17z
M188 279l204 216q-3 9 -3 18q0 10 5 17q4 8 9 13q7 5 11 9q5 4 5 9q0 14 -30 28t-73 14q-42 0 -67 -15q-26 -16 -39 -42t-17 -61q-5 -35 -5 -74v-132z" />
    <glyph glyph-name="sterling" unicode="&#xa3;" 
d="M558 99q-5 -10 -15 -31q-9 -21 -27 -42q-16 -21 -40 -37t-58 -16q-19 0 -39 9t-38 20q-17 11 -32 23q-14 12 -22 17q-6 -7 -15 -17q-9 -11 -21 -21q-12 -9 -27 -16q-15 -6 -33 -6q-15 0 -30 5q-16 5 -28 14q-12 10 -19 25q-8 14 -8 32q0 32 29 55q28 23 71 23
q26 0 51 -10l35 -14q9 28 9 61q0 15 -3 30t-8 27q-4 14 -8 24t-8 15h-198v23h184q-5 6 -13 17q-8 10 -18 22q-8 11 -15 21q-8 9 -12 15h-126v22h111q-5 7 -15 20t-21 30q-11 18 -19 40q-8 23 -8 49q0 41 16 75q17 33 44 56q29 24 67 37t80 13q33 0 63 -10q30 -9 52 -24
q24 -15 37 -33q14 -19 14 -40q0 -23 -15 -40q-14 -16 -38 -16q-21 0 -33 13t-12 35q0 12 5 19q6 8 12 13t11 9t5 10q0 18 -32 29q-31 12 -74 12q-23 0 -45 -7q-22 -6 -40 -21q-18 -13 -29 -34q-10 -21 -10 -50q0 -23 12 -50q11 -27 27 -54q15 -26 31 -47q16 -22 24 -34h175
v-22h-161q15 -24 21 -40q7 -16 11 -35h129v-23h-124q3 -17 3 -31q0 -42 -13 -78q-12 -35 -23 -61q12 -6 29 -15q16 -8 36 -16q19 -8 40 -13q21 -6 42 -6q17 0 30 7q13 6 22 16t15 20q7 10 11 17q6 -4 19 -10zM132 54q0 -20 18 -35t38 -15q25 0 46 19q22 18 35 33
q-8 7 -16 16q-7 8 -17 15q-11 7 -23 12q-12 4 -29 4q-21 0 -37 -12q-15 -13 -15 -37z" />
    <glyph glyph-name="currency" unicode="&#xa4;" 
d="M34 135q17 17 68 69q-25 27 -36 65q-12 37 -12 74q0 38 13 75t36 66q-23 24 -71 72q8 8 33 32q17 -18 70 -70q30 22 66 34q37 13 74 13t74 -13q36 -12 66 -34l70 70q9 -8 33 -32l-72 -72q27 -27 38 -65q12 -38 12 -76q0 -37 -12 -74q-12 -38 -37 -65l69 -69l-31 -31
q-17 17 -67 68q-34 -26 -69 -37q-36 -11 -74 -11t-76 13t-67 35q-22 -22 -67 -68zM275 523q-36 0 -69 -14t-58 -39q-24 -25 -38 -57q-14 -33 -14 -70t15 -69q14 -32 37 -57q25 -23 58 -37t69 -14q37 0 70 14q32 14 55 37q25 25 39 57q15 32 15 69t-14 70q-14 32 -39 57
q-24 25 -56 39q-33 14 -70 14z" />
    <glyph glyph-name="yen" unicode="&#xa5;" 
d="M427 0h-275v23h92v200h-117v23h117v49h-158v22h158q-53 95 -211 377h-70v23h258v-23h-88q47 -82 190 -328l160 328h-91v23h189v-23h-65q-45 -91 -180 -363v-14h150v-22h-150v-49h109v-23h-109v-200h91v-23z" />
    <glyph glyph-name="brokenbar" unicode="&#xa6;" horiz-adv-x="252" 
d="M100 717h52v-336h-52v336zM100 213h52v-336h-52v336z" />
    <glyph glyph-name="section" unicode="&#xa7;" 
d="M256 -128q-38 0 -70 12t-56 31q-22 19 -36 45q-13 26 -13 53q0 31 15 48q16 18 40 18q29 0 41 -14q12 -15 12 -34q0 -17 -12 -29t-34 -15q-17 -1 -17 -14q0 -9 9 -23q9 -13 26 -26q17 -12 41 -21q23 -8 51 -8q32 0 59 8q28 9 47 24q20 16 31 37q11 22 11 47q0 35 -21 60
t-54 47t-75 45q-42 22 -84 52q-24 16 -42 31q-17 14 -30 29q-11 17 -17 35t-6 42q0 27 11 50t26 40q15 18 31 31q16 12 25 19q-10 12 -25 34q-15 23 -15 61q0 35 14 62q14 28 37 46q25 20 56 30t65 10q28 0 53 -7q26 -7 45 -20q20 -13 31 -32q12 -19 12 -42q0 -29 -15 -48
q-14 -20 -38 -20q-23 0 -35 14q-12 13 -12 29q0 23 12 32q11 8 20 10q20 5 20 19q0 18 -27 30q-27 13 -63 13q-25 0 -47 -6q-23 -7 -40 -18q-16 -11 -27 -27q-10 -16 -10 -36q0 -30 20 -53q19 -23 50 -45q30 -20 68 -42q37 -21 72 -46q39 -28 66 -58q26 -29 26 -71
q0 -23 -10 -46q-9 -22 -23 -42q-13 -19 -26 -34q-13 -14 -20 -21q7 -6 16 -15q9 -10 17 -24q9 -13 15 -33q6 -19 6 -47q0 -39 -15 -71t-42 -56q-25 -23 -62 -37q-36 -13 -78 -13zM212 295q46 -29 92 -57q46 -29 76 -51l12 12q7 8 15 18q8 11 14 25q6 13 6 27q0 29 -24 48
q-24 20 -60 44q-33 22 -54 35q-21 14 -38 24q-17 11 -33 23q-16 13 -39 33q-5 -4 -14 -12t-19 -20q-9 -10 -16 -24q-7 -13 -7 -28q0 -17 8 -31q7 -13 20 -25q13 -11 29 -21z" />
    <glyph glyph-name="dieresis" unicode="&#xa8;" horiz-adv-x="410" 
d="M135 530q-20 0 -34 14q-13 13 -13 34q0 20 13 33q14 14 34 14q21 0 34 -14q13 -13 13 -33q0 -21 -13 -34q-13 -14 -34 -14zM315 530q-20 0 -33 14q-14 13 -14 34q0 20 14 33q13 14 33 14q21 0 34 -14q13 -13 13 -33q0 -21 -13 -34q-13 -14 -34 -14z" />
    <glyph glyph-name="copyright" unicode="&#xa9;" horiz-adv-x="569" 
d="M395 465q-2 -12 -5 -29t-13 -33q-10 -15 -30 -26t-55 -11q-59 0 -95 38q-37 38 -37 99q0 32 11 59t29 46q18 20 41 31q22 11 45 11q15 0 26 -2q11 -3 19 -6t15 -6q6 -2 12 -2q7 0 10 5l8 10h15v-104q-4 -1 -15 -3q-5 12 -11 27q-7 16 -16 28q-8 13 -20 23q-13 9 -30 9
q-36 0 -54 -33q-19 -32 -19 -92q0 -52 19 -84q19 -31 57 -31q22 0 35 9t20 20q9 12 12 25t5 21q7 0 21 1zM285 274q-48 0 -92 18q-43 18 -76 49q-33 32 -52 74q-20 42 -20 90t20 90q19 42 52 73t76 49q44 18 92 18t91 -18q44 -18 77 -49q32 -31 52 -73q19 -42 19 -90
t-19 -90q-20 -42 -52 -74q-33 -31 -77 -49q-43 -18 -91 -18zM81 505q0 -41 16 -76q17 -36 44 -62q28 -26 65 -41q37 -16 79 -16q41 0 78 16q37 15 65 41t44 62q16 35 16 76t-16 77q-16 35 -44 61q-28 27 -65 42q-37 14 -78 14q-42 0 -79 -14q-37 -15 -65 -42
q-27 -26 -44 -61q-16 -36 -16 -77z" />
    <glyph glyph-name="ordfeminine" unicode="&#xaa;" horiz-adv-x="436" 
d="M403 381q-10 -12 -31 -26q-21 -13 -47 -13q-18 0 -30 6q-11 5 -20 13q-8 10 -13 19t-8 15q-10 -10 -21 -19q-10 -9 -23 -18q-12 -7 -29 -11q-17 -5 -41 -5q-51 0 -78 25q-26 25 -26 67q0 43 26 68q26 24 62 37q37 12 74 15q38 4 60 7v47q0 23 -1 38q-1 14 -7 22t-19 11
q-12 3 -34 3q-25 0 -45 -9q-20 -8 -20 -17q0 -10 7 -17t7 -27q0 -11 -9 -22q-10 -10 -32 -10q-17 0 -29 10q-11 11 -11 38q0 21 12 36q13 15 34 25q20 10 45 15t51 5q43 0 68 -6q25 -5 37 -16q13 -10 16 -28q4 -17 4 -42v-179v-22q1 -12 3 -21t7 -15q4 -5 12 -5q12 0 21 8
q10 8 15 13q5 -5 13 -15zM259 535q-20 -3 -46 -5t-48 -10t-36 -24q-15 -16 -15 -44q0 -10 2 -23t8 -26q6 -11 18 -20q12 -8 31 -8q11 0 26 6q15 7 28 19q14 14 23 32t9 41v62z" />
    <glyph glyph-name="guillemotleft" unicode="&#xab;" horiz-adv-x="474" 
d="M54 225v19q46 46 182 184q4 -3 16 -13q-31 -45 -123 -179q31 -47 123 -186q-4 -2 -16 -10q-46 46 -182 185zM239 225v19q45 46 181 184q4 -3 16 -13q-30 -45 -123 -179q31 -47 123 -186q-4 -2 -16 -10q-45 46 -181 185z" />
    <glyph glyph-name="logicalnot" unicode="&#xac;" 
d="M434 250v139h-371v51h422v-190h-51z" />
    <glyph glyph-name="registered" unicode="&#xae;" horiz-adv-x="569" 
d="M166 397q22 2 30 9q8 6 8 32v147q0 12 -2 19q-1 7 -6 10t-12 4q-7 2 -18 4v20h125q23 0 44 -3q20 -2 35 -9t24 -20q8 -13 8 -35q0 -18 -7 -30q-8 -11 -19 -19q-11 -7 -24 -10q-13 -4 -24 -7q23 -14 33 -31q11 -16 15 -31q5 -14 8 -23t13 -9q6 0 10 4q3 4 4 9q2 6 2 12
q1 5 1 9h20q0 -9 -2 -21t-8 -24q-6 -11 -17 -18q-11 -8 -27 -8q-22 0 -33 9q-12 9 -18 23q-5 14 -8 30q-3 17 -8 30q-4 14 -13 24q-10 9 -29 9h-11v-62q0 -15 1 -23q1 -7 5 -11q4 -5 12 -6q8 -2 21 -4v-19h-133v19zM260 524h22q11 0 21 2q10 1 19 6q8 6 13 15t5 23
q0 24 -9 38q-8 14 -35 14t-31 -10q-5 -10 -5 -29v-59zM285 274q-48 0 -92 18q-43 18 -76 49q-33 32 -52 74q-20 42 -20 90t20 90q19 42 52 73t76 49q44 18 92 18t91 -18q44 -18 77 -49q32 -31 52 -73q19 -42 19 -90t-19 -90q-20 -42 -52 -74q-33 -31 -77 -49
q-43 -18 -91 -18zM81 505q0 -41 16 -76q17 -36 44 -62q28 -26 65 -41q37 -16 79 -16q41 0 78 16q37 15 65 41t44 62q16 35 16 76t-16 76t-44 61q-28 27 -65 42t-78 15q-42 0 -79 -15t-65 -42q-27 -26 -44 -61q-16 -35 -16 -76z" />
    <glyph glyph-name="macron" unicode="&#xaf;" horiz-adv-x="410" 
d="M72 621h266v-41h-266v41z" />
    <glyph glyph-name="degree" unicode="&#xb0;" 
d="M274 494q-47 0 -77 30t-30 77t30 77q30 31 77 31q48 0 78 -31q30 -30 30 -77t-30 -77t-78 -30zM274 524q33 0 55 22t22 55t-22 55t-55 22q-32 0 -54 -22t-22 -55t22 -55t54 -22z" />
    <glyph glyph-name="plusminus" unicode="&#xb1;" 
d="M249 375h-184v51h184v145h51v-145h184v-51h-184v-146h-51v146zM65 170h419v-51h-419v51z" />
    <glyph glyph-name="twosuperior" unicode="&#xb2;" horiz-adv-x="398" 
d="M39 322q6 4 23 17q18 13 40 33q24 20 50 44q25 24 47 51q19 22 35 51t16 68q0 17 -5 34t-16 29q-10 14 -26 21q-17 8 -38 8q-19 0 -33 -6q-15 -5 -26 -15q-10 -8 -15 -18q-5 -9 -5 -17q0 -6 2 -12q1 -7 7 -7q8 0 14 5q6 4 19 4q16 0 26 -10q9 -10 9 -27t-13 -28
q-13 -10 -32 -10q-31 0 -44 21t-13 53q0 20 11 37q10 17 27 29q19 13 43 20q24 8 53 8q25 0 49 -9t43 -24q18 -15 29 -34q12 -20 12 -41q0 -25 -7 -45q-8 -20 -18 -35t-22 -28q-13 -12 -22 -22q-16 -15 -36 -31t-42 -32q-20 -15 -41 -29q-21 -15 -39 -27v-2h153q30 0 39 11
q10 12 10 38v20h21q-2 -33 -6 -132h-279v39z" />
    <glyph glyph-name="threesuperior" unicode="&#xb3;" horiz-adv-x="398" 
d="M172 268q-34 0 -58 10q-24 9 -39 21q-16 13 -23 29q-7 15 -7 27q0 48 41 48q17 0 27 -11t10 -21q0 -14 -3 -20q-3 -7 -11 -12t-12 -7q-5 -2 -5 -9q0 -11 8 -17q8 -7 19 -11q12 -3 26 -5q15 -1 28 -1q18 0 34 8t29 21q12 15 18 33q7 19 7 39q0 57 -28 83q-27 26 -65 26
q-18 0 -33 -1t-18 -1q-8 0 -13 1q-5 2 -5 10q0 11 17 11q8 0 16 -1t16 -1q37 0 63 22q27 21 27 70q0 34 -17 55q-17 20 -49 20q-21 0 -38 -8q-17 -7 -17 -19q0 -5 4 -8q4 -4 9 -8q5 -3 9 -9t4 -17q0 -16 -10 -25q-11 -8 -29 -8q-17 0 -28 12q-10 12 -10 34q0 15 9 29t24 24
q17 11 37 17q21 7 43 7q25 0 48 -6q24 -6 42 -17q20 -11 31 -29q11 -17 11 -42q0 -26 -11 -44q-12 -17 -29 -28q-15 -12 -33 -18t-30 -9v-2q15 -1 38 -6q22 -5 43 -18q20 -12 35 -33t15 -54q0 -31 -14 -56t-37 -41t-53 -25t-63 -9z" />
    <glyph glyph-name="acute" unicode="&#xb4;" horiz-adv-x="410" 
d="M82 547q61 31 245 123q5 -13 21 -50q-65 -23 -259 -90q-2 5 -7 17z" />
    <glyph glyph-name="mu" unicode="&#xb5;" horiz-adv-x="569" 
d="M179 467v-385q0 -12 2 -25q2 -12 9 -22q8 -9 21 -15t36 -6q21 0 48 16q27 15 50 42q24 27 40 65q15 38 15 84v246h78v-444h83v-23h-74q-22 0 -45 -3q-23 -2 -38 -5v131h-2q-8 -20 -22 -44q-14 -25 -36 -46q-20 -22 -49 -37q-28 -14 -65 -14t-62 13q-25 14 -40 34
q-14 19 -20 41t-6 40h-2q-1 -8 -5 -22q-4 -15 -8 -33l-8 -32q-3 -17 -3 -26q0 -23 9 -26q9 -4 18 -4q26 0 42 -14q16 -13 16 -41q0 -16 -14 -29q-14 -12 -38 -12q-27 0 -45 21t-18 61q0 17 9 56q8 39 19 88t19 99q8 49 8 85v186h78z" />
    <glyph glyph-name="paragraph" unicode="&#xb6;" horiz-adv-x="607" 
d="M487 81q0 -43 -13 -84q-13 -40 -40 -71q-25 -31 -63 -50t-87 -19q-31 0 -59 7q-28 8 -50 23q-21 15 -34 36q-12 21 -12 48q0 22 16 41q17 19 49 19q18 0 34 -15t16 -42q0 -16 -7 -25q-7 -8 -16 -14q-8 -6 -15 -10q-6 -4 -6 -11q0 -8 7 -15q8 -7 20 -11q13 -5 27 -7
q15 -2 30 -2q26 0 42 6q15 5 24 10v376h-25q-50 0 -99 10q-50 10 -90 35q-40 27 -64 73q-25 45 -25 116q0 61 25 102t65 66q40 24 90 34q49 10 98 10h258v-23h-96v-613zM379 -89q80 52 80 180v603h-80v-783z" />
    <glyph glyph-name="periodcentered" unicode="&#xb7;" 
d="M274 297q-21 0 -35 14t-14 35q0 22 14 35q14 14 35 14q22 0 36 -14q14 -13 14 -35q0 -21 -14 -35t-36 -14z" />
    <glyph glyph-name="cedilla" unicode="&#xb8;" horiz-adv-x="410" 
d="M158 -217q24 -3 50 -3q19 0 34 8q14 7 23 19t14 26q5 13 5 27q0 38 -19 56t-43 18h-6t-8 -2v68h14h6v-51q19 -2 39 -6q21 -4 37 -14q18 -10 28 -26q11 -17 11 -43q0 -27 -13 -46q-13 -20 -33 -32q-21 -12 -45 -19q-25 -6 -49 -6q-12 0 -23 2q-11 1 -22 3v21z" />
    <glyph glyph-name="onesuperior" unicode="&#xb9;" horiz-adv-x="398" 
d="M82 303h82v332q0 13 -3 20q-2 8 -10 11q-9 3 -23 3q-14 1 -38 1v20q7 0 25 1q17 0 38 1q21 2 44 4q22 1 41 4v-397h72v-20h-228v20z" />
    <glyph glyph-name="ordmasculine" unicode="&#xba;" horiz-adv-x="417" 
d="M208 342q-32 0 -63 14q-30 15 -55 39q-23 25 -38 58t-15 72q0 38 15 72t38 58q25 25 55 39q31 15 63 15t62 -15q31 -14 55 -39q24 -24 39 -58t15 -72q0 -39 -15 -72t-39 -58q-24 -24 -55 -39q-30 -14 -62 -14zM115 525q0 -32 2 -62t10 -52q9 -23 28 -36t53 -13t53 13
t27 36q9 22 11 52t2 62q0 33 -2 63q-2 29 -11 51q-8 23 -27 36t-53 13t-53 -13t-28 -36q-8 -22 -10 -51q-2 -30 -2 -63z" />
    <glyph glyph-name="guillemotright" unicode="&#xbb;" horiz-adv-x="474" 
d="M222 53q31 45 123 179q-31 47 -123 186q4 2 17 10q45 -46 181 -185v-19q-45 -46 -181 -184q-5 3 -17 13zM38 53q31 45 123 179q-31 47 -123 186q4 2 16 10q46 -46 182 -185v-19q-46 -46 -182 -184q-4 3 -16 13z" />
    <glyph glyph-name="onequarter" unicode="&#xbc;" horiz-adv-x="853" 
d="M743 0h-207v20h71v88h-184v20q45 75 103 148q59 74 117 138h38v-286h62v49h21v-120h-21v51h-62v-88h62v-20zM607 341h-2q-37 -49 -75 -98t-77 -115h154v213zM220 -14h-37q121 179 485 719h37q-122 -180 -485 -719zM330 283h-229v20h82v332q0 13 -2 20q-3 8 -11 11t-23 3
q-14 1 -37 1v20q7 0 24 1q18 0 38 1l44 4q23 1 41 4v-397h73v-20z" />
    <glyph glyph-name="onehalf" unicode="&#xbd;" horiz-adv-x="853" 
d="M71 303h82v332q0 13 -3 20q-3 8 -11 11t-22 3q-15 1 -38 1v20q7 0 24 1q18 0 38 1l44 4q23 1 41 4v-397h73v-20h-228v20zM477 39q6 4 24 17q17 14 40 33q23 21 49 45q25 24 47 50q19 23 35 52q16 28 16 67q0 18 -5 34q-5 17 -15 30q-11 13 -27 21q-16 7 -38 7
q-18 0 -33 -5q-15 -6 -25 -15q-10 -8 -16 -18q-5 -10 -5 -18q0 -5 2 -12q1 -6 8 -6q8 0 13 4q6 5 19 5q17 0 26 -11q9 -10 9 -26q0 -18 -13 -28q-13 -11 -32 -11q-30 0 -43 21t-13 54q0 19 10 36t29 29q18 14 42 21t52 7q25 0 49 -9q25 -9 43 -24q18 -14 30 -34
q11 -19 11 -41q0 -24 -7 -44t-18 -36q-10 -15 -22 -27t-22 -23q-16 -15 -36 -31t-41 -31q-21 -16 -42 -30t-38 -26v-3h152q30 0 40 12q9 11 9 38v19h21q-1 -33 -5 -132h-280v39zM641 705h37q-121 -180 -484 -719h-37q121 179 484 719z" />
    <glyph glyph-name="threequarters" unicode="&#xbe;" horiz-adv-x="853" 
d="M626 108h-185v20q45 75 104 148q58 74 117 138h37v-286h63v49h20v-120h-20v51h-63v-88h63v-20h-208v20h72v88zM626 128v213h-2q-37 -49 -76 -98q-38 -49 -77 -115h155zM686 705h37q-121 -180 -484 -719h-37q121 179 484 719zM259 512v-2q15 -1 38 -6q22 -5 43 -18
q20 -12 35 -33t15 -54q0 -31 -14 -56t-37 -41t-53 -25t-63 -9q-34 0 -58 10q-24 9 -39 22t-23 28q-7 15 -7 27q0 48 41 48q18 0 27 -10q10 -10 10 -28q0 -10 -5 -15q-4 -5 -10 -9t-11 -8t-5 -10q0 -10 8 -16t19 -10q12 -4 27 -6q14 -2 27 -2q19 0 35 8q15 8 28 21
q12 15 19 33q6 19 6 39q0 57 -27 83q-28 26 -66 26q-18 0 -33 -1t-18 -1q-8 0 -13 1q-4 2 -4 10q0 11 16 11q8 0 16 -1t17 -1q37 0 63 22q26 21 26 70q0 34 -17 55q-17 20 -49 20q-21 0 -38 -8q-17 -7 -17 -19q0 -5 4 -8q4 -4 9 -8q5 -3 9 -9q5 -6 5 -17q0 -16 -11 -25
q-11 -8 -28 -8q-18 0 -29 12q-10 12 -10 34q0 15 9 29t25 24q16 11 36 17q21 7 43 7q25 0 49 -6q23 -6 42 -17t30 -29q11 -17 11 -42q0 -26 -11 -44q-12 -17 -28 -28q-16 -12 -34 -18l-30 -10v1z" />
    <glyph glyph-name="questiondown" unicode="&#xbf;" horiz-adv-x="398" 
d="M266 246q2 -13 6 -32q3 -20 3 -55q0 -40 -14 -68q-15 -28 -37 -50q-21 -22 -47 -39q-26 -18 -48 -37q-21 -19 -36 -42t-15 -55q0 -26 11 -47t31 -35q19 -15 44 -24q25 -8 53 -8q43 0 70 16q26 16 26 31q0 11 -7 15q-8 5 -17 10q-8 4 -16 11t-8 22q0 17 11 31q12 15 34 15
q27 0 41 -18q15 -17 15 -43q0 -25 -13 -46t-35 -36q-20 -14 -47 -22q-26 -8 -54 -8q-36 0 -69 11t-60 34q-27 22 -42 56q-16 33 -16 77t16 75q15 31 39 54q25 23 52 41q28 17 51 35q25 17 41 38q16 20 16 49q0 12 -2 22q-1 10 -2 22h25zM253 385q-23 0 -36 14q-14 14 -14 36
q0 23 14 37q13 13 36 13q22 0 36 -13q14 -14 14 -37q0 -22 -14 -36t-36 -14z" />
    <glyph glyph-name="Agrave" unicode="&#xc0;" horiz-adv-x="645" 
d="M-5 23h68l248 704h23q58 -176 233 -704h78v-23h-267v23h95q-17 50 -66 202h-246q-17 -50 -69 -202h91v-23h-188v23zM170 248h227q-27 84 -109 336h-2zM184 869q6 13 22 51q61 -31 245 -123q-2 -4 -8 -17q-64 23 -259 89z" />
    <glyph glyph-name="Aacute" unicode="&#xc1;" horiz-adv-x="645" 
d="M-5 23h68l248 704h23q58 -176 233 -704h78v-23h-267v23h95q-17 50 -66 202h-246q-17 -50 -69 -202h91v-23h-188v23zM170 248h227q-27 84 -109 336h-2zM210 797q61 30 245 123q5 -13 21 -51q-65 -22 -259 -89q-2 4 -7 17z" />
    <glyph glyph-name="Acircumflex" unicode="&#xc2;" horiz-adv-x="645" 
d="M-5 23h68l248 704h23q58 -176 233 -704h78v-23h-267v23h95q-17 50 -66 202h-246q-17 -50 -69 -202h91v-23h-188v23zM170 248h227q-27 84 -109 336h-2zM348 905q40 -27 159 -109q-3 -4 -11 -16q-44 20 -173 80q-44 -20 -173 -80l-12 16q40 27 159 109h51z" />
    <glyph glyph-name="Atilde" unicode="&#xc3;" horiz-adv-x="645" 
d="M-5 23h68l248 704h23q58 -176 233 -704h78v-23h-267v23h95q-17 50 -66 202h-246q-17 -50 -69 -202h91v-23h-188v23zM170 248h227q-27 84 -109 336h-2zM157 819q7 10 15 25q8 14 19 27q13 14 29 23q17 10 40 10q14 0 37 -9q22 -9 48 -21q25 -11 49 -20t41 -9q11 0 20 5
t15 12q7 7 12 16q5 8 11 14q5 -4 15 -10q-4 -9 -13 -23q-10 -14 -22 -30q-12 -14 -27 -25q-15 -10 -28 -10q-23 0 -48 9t-49 20q-25 12 -47 21t-40 9q-11 0 -21 -5t-18 -12q-8 -8 -14 -15t-10 -11q-5 3 -14 9z" />
    <glyph glyph-name="Adieresis" unicode="&#xc4;" horiz-adv-x="645" 
d="M-5 23h68l248 704h23q58 -176 233 -704h78v-23h-267v23h95q-17 50 -66 202h-246q-17 -50 -69 -202h91v-23h-188v23zM170 248h227q-27 84 -109 336h-2zM232 780q-20 0 -33 14q-14 13 -14 33q0 21 14 34q13 13 33 13q21 0 34 -13q14 -13 14 -34q0 -20 -14 -33
q-13 -14 -34 -14zM413 780q-21 0 -34 14q-13 13 -13 33q0 21 13 34t34 13q20 0 33 -13q14 -13 14 -34q0 -20 -14 -33q-13 -14 -33 -14z" />
    <glyph glyph-name="Aring" unicode="&#xc5;" horiz-adv-x="645" 
d="M-5 23h68l248 704h23q58 -176 233 -704h78v-23h-267v23h95q-17 50 -66 202h-246q-17 -50 -69 -202h91v-23h-188v23zM170 248h227q-27 84 -109 336h-2zM323 780q-39 0 -62 23q-22 22 -22 61q0 36 22 60q23 24 62 24q35 0 59 -24q25 -24 25 -60q0 -39 -25 -61
q-24 -23 -59 -23zM261 864q0 -27 17 -44t45 -17q24 0 43 17q18 17 18 44q0 25 -18 43q-19 19 -43 19q-28 0 -45 -19q-17 -18 -17 -43z" />
    <glyph glyph-name="AE" unicode="&#xc6;" horiz-adv-x="967" 
d="M255 248h237v400h-3q-58 -100 -234 -400zM13 23h71q105 173 421 694h386l8 -200h-18q-5 30 -12 61q-6 31 -23 57q-17 27 -48 43q-32 16 -86 16h-128v-318h28q36 0 60 4q23 4 38 17q14 14 20 39t6 67h19v-288h-19q0 42 -6 69t-20 43q-15 15 -38 21q-24 5 -60 5h-28v-330
h122q65 0 102 15t56 42q20 26 28 62q9 36 18 78h19q-5 -55 -19 -220h-508v23h90v202h-252q-31 -50 -123 -202h93v-23h-197v23z" />
    <glyph glyph-name="Ccedilla" unicode="&#xc7;" horiz-adv-x="607" 
d="M497 47q-11 -9 -22 -20q-12 -12 -30 -22q-16 -10 -41 -17q-25 -6 -62 -6q-71 0 -126 36t-93 92q-37 56 -56 122q-20 67 -20 126q0 60 20 126q19 67 56 122q38 57 93 93t126 36q34 0 58 -6q24 -7 40 -17q18 -10 30 -20q11 -11 20 -18q13 17 39 50h17q1 -49 5 -196h-19
q-6 20 -16 51q-11 31 -33 61q-21 30 -55 51q-35 22 -86 22q-66 0 -103 -29t-56 -78q-18 -48 -23 -112q-4 -65 -4 -136q0 -70 4 -135q5 -64 23 -113q19 -49 56 -77q37 -29 103 -29q56 0 93 24q36 23 58 55q22 33 32 65q11 33 16 51h18q-1 -52 -3 -205h-16q-11 13 -43 53z
M257 -217q25 -3 50 -3q20 0 34 8q14 7 24 19q9 12 13 26q5 13 5 27q0 38 -19 56t-42 18h-7t-8 -2v68h14h7v-51q18 -2 39 -6q20 -4 36 -14q18 -10 29 -26q10 -17 10 -43q0 -27 -12 -46q-13 -20 -34 -32q-20 -12 -45 -19q-24 -6 -49 -6q-11 0 -22 2q-12 1 -23 3v21z" />
    <glyph glyph-name="Egrave" unicode="&#xc8;" horiz-adv-x="588" 
d="M32 23h86v671h-86v23h485l8 -200h-18q-5 30 -11 61q-7 31 -24 57q-16 27 -48 43t-86 16h-128v-318h29q35 0 59 4t38 17q14 14 20 39t6 67h19v-288h-19q0 42 -6 69t-20 43q-14 15 -38 21q-24 5 -59 5h-29v-330h122q65 0 102 15t56 42q20 26 29 62q8 36 18 78h18
q-5 -55 -18 -220h-505v23zM168 869q5 13 21 51q62 -31 245 -123q-2 -4 -7 -17q-65 23 -259 89z" />
    <glyph glyph-name="Eacute" unicode="&#xc9;" horiz-adv-x="588" 
d="M32 23h86v671h-86v23h485l8 -200h-18q-5 30 -11 61q-7 31 -24 57q-16 27 -48 43t-86 16h-128v-318h29q35 0 59 4t38 17q14 14 20 39t6 67h19v-288h-19q0 42 -6 69t-20 43q-14 15 -38 21q-24 5 -59 5h-29v-330h122q65 0 102 15t56 42q20 26 29 62q8 36 18 78h18
q-5 -55 -18 -220h-505v23zM191 797q62 30 245 123q6 -13 22 -51q-65 -22 -259 -89q-2 4 -8 17z" />
    <glyph glyph-name="Ecircumflex" unicode="&#xca;" horiz-adv-x="588" 
d="M32 23h86v671h-86v23h485l8 -200h-18q-5 30 -11 61q-7 31 -24 57q-16 27 -48 43t-86 16h-128v-318h29q35 0 59 4t38 17q14 14 20 39t6 67h19v-288h-19q0 42 -6 69t-20 43q-14 15 -38 21q-24 5 -59 5h-29v-330h122q65 0 102 15t56 42q20 26 29 62q8 36 18 78h18
q-5 -55 -18 -220h-505v23zM319 905q40 -27 159 -109q-3 -4 -11 -16q-43 20 -173 80q-43 -20 -173 -80q-3 4 -11 16q39 27 158 109h51z" />
    <glyph glyph-name="Edieresis" unicode="&#xcb;" horiz-adv-x="588" 
d="M32 23h86v671h-86v23h485l8 -200h-18q-5 30 -11 61q-7 31 -24 57q-16 27 -48 43t-86 16h-128v-318h29q35 0 59 4t38 17q14 14 20 39t6 67h19v-288h-19q0 42 -6 69t-20 43q-14 15 -38 21q-24 5 -59 5h-29v-330h122q65 0 102 15t56 42q20 26 29 62q8 36 18 78h18
q-5 -55 -18 -220h-505v23zM224 780q-20 0 -34 14q-13 13 -13 33q0 21 13 34q14 13 34 13q21 0 34 -13t13 -34q0 -20 -13 -33q-13 -14 -34 -14zM404 780q-20 0 -33 14q-14 13 -14 33q0 21 14 34q13 13 33 13q21 0 34 -13q14 -13 14 -34q0 -20 -14 -33q-13 -14 -34 -14z" />
    <glyph glyph-name="Igrave" unicode="&#xcc;" horiz-adv-x="341" 
d="M32 23h92v671h-92v23h276v-23h-92v-671h91v-23h-275v23zM33 869q5 13 21 51q61 -31 245 -123q-2 -4 -7 -17q-65 23 -259 89z" />
    <glyph glyph-name="Iacute" unicode="&#xcd;" horiz-adv-x="341" 
d="M32 23h92v671h-92v23h276v-23h-92v-671h91v-23h-275v23zM48 797q61 30 245 123q5 -13 21 -51q-64 -22 -259 -89q-1 4 -7 17z" />
    <glyph glyph-name="Icircumflex" unicode="&#xce;" horiz-adv-x="341" 
d="M32 23h92v671h-92v23h276v-23h-92v-671h91v-23h-275v23zM197 905q39 -27 158 -109q-2 -4 -11 -16q-43 20 -173 80q-43 -20 -173 -80q-3 4 -11 16q39 27 158 109h52z" />
    <glyph glyph-name="Idieresis" unicode="&#xcf;" horiz-adv-x="341" 
d="M32 23h92v671h-92v23h276v-23h-92v-671h91v-23h-275v23zM91 780q-20 0 -34 14q-13 13 -13 33q0 21 13 34q14 13 34 13q21 0 34 -13t13 -34q0 -20 -13 -33q-13 -14 -34 -14zM271 780q-20 0 -33 14q-14 13 -14 33q0 21 14 34q13 13 33 13q21 0 34 -13t13 -34q0 -20 -13 -33
q-13 -14 -34 -14z" />
    <glyph glyph-name="Eth" unicode="&#xd0;" horiz-adv-x="683" 
d="M35 23h86v329h-113v23h113v319h-86v23h247q13 0 35 -1t49 -5q26 -3 54 -12q29 -8 55 -22q37 -21 68 -53q31 -33 54 -74q24 -41 37 -89q13 -47 13 -100q0 -46 -10 -91t-30 -86q-19 -41 -47 -74q-28 -34 -62 -58q-29 -19 -56 -30t-54 -16q-27 -4 -54 -5t-55 -1h-244v23z
M213 23h55q87 0 141 18q53 18 81 59q29 41 39 106q10 64 10 155t-12 154q-11 63 -41 102q-28 40 -79 59q-51 18 -129 18h-65v-319h117v-23h-117v-329z" />
    <glyph glyph-name="Ntilde" unicode="&#xd1;" horiz-adv-x="721" 
d="M35 23h93v671h-91v23h199l336 -540h2v517h-88v23h200v-23h-83v-704h-22q-106 168 -422 673h-2v-640h98v-23h-220v23zM215 819q7 10 15 25q9 14 20 27q12 14 29 23q16 10 39 10q15 0 37 -9q23 -9 48 -21q25 -11 49 -20t42 -9q11 0 20 5q8 5 14 12q8 7 13 16q5 8 10 14
q5 -4 15 -10q-4 -9 -13 -23t-22 -30q-12 -14 -27 -25q-15 -10 -28 -10q-22 0 -47 9q-26 9 -50 20q-25 12 -47 21t-39 9q-11 0 -22 -5q-10 -5 -18 -12q-7 -8 -13 -15l-11 -11q-4 3 -14 9z" />
    <glyph glyph-name="Ograve" unicode="&#xd2;" horiz-adv-x="683" 
d="M341 -18q-71 0 -126 36t-93 92q-37 56 -56 122q-20 67 -20 126q0 60 20 126q19 67 56 122q38 57 93 93t126 36t126 -36t92 -93q38 -55 57 -122q20 -66 20 -126q0 -59 -20 -126q-19 -66 -57 -122q-37 -56 -92 -92t-126 -36zM155 358q0 -70 4 -135q5 -64 23 -113
q19 -49 56 -77q37 -29 103 -29t103 29q37 28 56 77q18 49 23 113q4 65 4 135q0 71 -4 136q-5 64 -23 112q-19 49 -56 78t-103 29t-103 -29t-56 -78q-18 -48 -23 -112q-4 -65 -4 -136zM204 869q5 13 21 51q61 -31 245 -123q-2 -4 -7 -17q-65 23 -259 89z" />
    <glyph glyph-name="Oacute" unicode="&#xd3;" horiz-adv-x="683" 
d="M341 -18q-71 0 -126 36t-93 92q-37 56 -56 122q-20 67 -20 126q0 60 20 126q19 67 56 122q38 57 93 93t126 36t126 -36t92 -93q38 -55 57 -122q20 -66 20 -126q0 -59 -20 -126q-19 -66 -57 -122q-37 -56 -92 -92t-126 -36zM155 358q0 -70 4 -135q5 -64 23 -113
q19 -49 56 -77q37 -29 103 -29t103 29q37 28 56 77q18 49 23 113q4 65 4 135q0 71 -4 136q-5 64 -23 112q-19 49 -56 78t-103 29t-103 -29t-56 -78q-18 -48 -23 -112q-4 -65 -4 -136zM227 797q62 30 245 123q5 -13 22 -51q-65 -22 -260 -89q-1 4 -7 17z" />
    <glyph glyph-name="Ocircumflex" unicode="&#xd4;" horiz-adv-x="683" 
d="M341 -18q-71 0 -126 36t-93 92q-37 56 -56 122q-20 67 -20 126q0 60 20 126q19 67 56 122q38 57 93 93t126 36t126 -36t92 -93q38 -55 57 -122q20 -66 20 -126q0 -59 -20 -126q-19 -66 -57 -122q-37 -56 -92 -92t-126 -36zM155 358q0 -70 4 -135q5 -64 23 -113
q19 -49 56 -77q37 -29 103 -29t103 29q37 28 56 77q18 49 23 113q4 65 4 135q0 71 -4 136q-5 64 -23 112q-19 49 -56 78t-103 29t-103 -29t-56 -78q-18 -48 -23 -112q-4 -65 -4 -136zM368 905q39 -27 158 -109q-2 -4 -11 -16q-43 20 -173 80q-43 -20 -173 -80q-3 4 -11 16
q39 27 158 109h52z" />
    <glyph glyph-name="Otilde" unicode="&#xd5;" horiz-adv-x="683" 
d="M341 -18q-71 0 -126 36t-93 92q-37 56 -56 122q-20 67 -20 126q0 60 20 126q19 67 56 122q38 57 93 93t126 36t126 -36t92 -93q38 -55 57 -122q20 -66 20 -126q0 -59 -20 -126q-19 -66 -57 -122q-37 -56 -92 -92t-126 -36zM155 358q0 -70 4 -135q5 -64 23 -113
q19 -49 56 -77q37 -29 103 -29t103 29q37 28 56 77q18 49 23 113q4 65 4 135q0 71 -4 136q-5 64 -23 112q-19 49 -56 78t-103 29t-103 -29t-56 -78q-18 -48 -23 -112q-4 -65 -4 -136zM186 819q8 10 16 25q8 14 19 27q12 14 29 23q16 10 40 10q14 0 37 -9q22 -9 48 -21
q24 -11 48 -20t42 -9q11 0 20 5t15 12q7 7 12 16q5 8 10 14q5 -4 16 -10q-4 -9 -14 -23q-9 -14 -21 -30q-13 -14 -27 -25q-15 -10 -29 -10q-22 0 -47 9t-50 20q-24 12 -46 21t-40 9q-11 0 -21 -5q-11 -5 -19 -12q-7 -8 -13 -15t-10 -11z" />
    <glyph glyph-name="Odieresis" unicode="&#xd6;" horiz-adv-x="683" 
d="M341 -18q-71 0 -126 36t-93 92q-37 56 -56 122q-20 67 -20 126q0 60 20 126q19 67 56 122q38 57 93 93t126 36t126 -36t92 -93q38 -55 57 -122q20 -66 20 -126q0 -59 -20 -126q-19 -66 -57 -122q-37 -56 -92 -92t-126 -36zM155 358q0 -70 4 -135q5 -64 23 -113
q19 -49 56 -77q37 -29 103 -29t103 29q37 28 56 77q18 49 23 113q4 65 4 135q0 71 -4 136q-5 64 -23 112q-19 49 -56 78t-103 29t-103 -29t-56 -78q-18 -48 -23 -112q-4 -65 -4 -136zM252 780q-21 0 -34 14q-13 13 -13 33q0 21 13 34t34 13q20 0 34 -13q13 -13 13 -34
q0 -20 -13 -33q-14 -14 -34 -14zM432 780q-20 0 -34 14q-13 13 -13 33q0 21 13 34q14 13 34 13q21 0 34 -13t13 -34q0 -20 -13 -33q-13 -14 -34 -14z" />
    <glyph glyph-name="multiply" unicode="&#xd7;" 
d="M109 214q33 33 132 131q-33 33 -132 131q8 9 34 35q33 -33 132 -131q33 33 132 131q8 -9 34 -35q-32 -33 -131 -131l131 -131q-8 -9 -34 -35q-33 33 -132 131q-33 -32 -132 -131q-8 9 -34 35z" />
    <glyph glyph-name="Oslash" unicode="&#xd8;" horiz-adv-x="683" 
d="M56 -35q21 30 83 120q-21 26 -39 58q-17 33 -29 69q-13 37 -19 74q-6 38 -6 72q0 60 20 126q19 67 56 122q38 57 93 93t126 36q33 0 59 -6q26 -7 47 -19q23 -12 41 -29q19 -16 37 -37l78 114q5 -4 21 -15q-21 -29 -82 -118q23 -29 41 -62q18 -34 29 -68q13 -34 18 -70
q6 -35 6 -67q0 -59 -20 -126q-19 -66 -57 -122q-37 -56 -92 -92t-126 -36q-35 0 -59 5q-25 5 -45 15q-21 11 -40 27q-19 15 -41 36q-27 -38 -79 -114q-5 3 -21 14zM502 610q-22 46 -61 75q-39 28 -100 28q-66 0 -103 -29t-56 -78q-18 -48 -23 -112q-4 -65 -4 -136
q0 -64 2 -126q3 -61 12 -104q111 161 333 482zM179 98q14 -19 29 -37q15 -17 35 -30q19 -13 43 -20t55 -7q66 0 103 29q37 28 56 77q18 49 23 113q4 65 4 135q0 62 -3 118t-12 106q-111 -161 -333 -484z" />
    <glyph glyph-name="Ugrave" unicode="&#xd9;" horiz-adv-x="683" 
d="M577 214q0 -31 -5 -71t-28 -76t-71 -61q-48 -24 -134 -24q-67 0 -111 19q-45 19 -71 52q-27 33 -38 74q-10 42 -10 87v480h-77v23h264v-23h-95v-480q0 -31 3 -66t19 -65q17 -30 52 -49q35 -20 99 -20q62 0 97 23t51 55q18 32 22 66q4 33 4 56v480h-93v23h204v-23h-82
v-480zM219 869q6 13 22 51q61 -31 244 -123q-1 -4 -7 -17q-65 23 -259 89z" />
    <glyph glyph-name="Uacute" unicode="&#xda;" horiz-adv-x="683" 
d="M577 214q0 -31 -5 -71t-28 -76t-71 -61q-48 -24 -134 -24q-67 0 -111 19q-45 19 -71 52q-27 33 -38 74q-10 42 -10 87v480h-77v23h264v-23h-95v-480q0 -31 3 -66t19 -65q17 -30 52 -49q35 -20 99 -20q62 0 97 23t51 55q18 32 22 66q4 33 4 56v480h-93v23h204v-23h-82
v-480zM240 797q61 30 244 123q6 -13 22 -51q-65 -22 -259 -89q-2 4 -7 17z" />
    <glyph glyph-name="Ucircumflex" unicode="&#xdb;" horiz-adv-x="683" 
d="M577 214q0 -31 -5 -71t-28 -76t-71 -61q-48 -24 -134 -24q-67 0 -111 19q-45 19 -71 52q-27 33 -38 74q-10 42 -10 87v480h-77v23h264v-23h-95v-480q0 -31 3 -66t19 -65q17 -30 52 -49q35 -20 99 -20q62 0 97 23t51 55q18 32 22 66q4 33 4 56v480h-93v23h204v-23h-82
v-480zM398 905q40 -27 159 -109q-3 -4 -11 -16q-43 20 -173 80q-44 -20 -173 -80l-12 16q40 27 159 109h51z" />
    <glyph glyph-name="Udieresis" unicode="&#xdc;" horiz-adv-x="683" 
d="M577 214q0 -31 -5 -71t-28 -76t-71 -61q-48 -24 -134 -24q-67 0 -111 19q-45 19 -71 52q-27 33 -38 74q-10 42 -10 87v480h-77v23h264v-23h-95v-480q0 -31 3 -66t19 -65q17 -30 52 -49q35 -20 99 -20q62 0 97 23t51 55q18 32 22 66q4 33 4 56v480h-93v23h204v-23h-82
v-480zM283 780q-21 0 -34 14q-13 13 -13 33q0 21 13 34t34 13q20 0 33 -13q14 -13 14 -34q0 -20 -14 -33q-13 -14 -33 -14zM463 780q-21 0 -34 14q-13 13 -13 33q0 21 13 34t34 13q20 0 34 -13q13 -13 13 -34q0 -20 -13 -33q-14 -14 -34 -14z" />
    <glyph glyph-name="Yacute" unicode="&#xdd;" horiz-adv-x="588" 
d="M168 23h92v302q-53 92 -211 369h-69v23h258v-23h-88q46 -82 187 -328q41 82 163 328h-91v23h188v-23h-65q-45 -90 -180 -359v-312h91v-23h-275v23zM186 797q62 30 245 123q5 -13 22 -51q-65 -22 -259 -89q-2 4 -8 17z" />
    <glyph glyph-name="Thorn" unicode="&#xde;" horiz-adv-x="607" 
d="M213 552h80q41 0 88 -6q47 -5 87 -24q41 -18 68 -53q26 -35 26 -93q0 -67 -26 -106q-27 -39 -68 -59q-40 -20 -88 -25q-48 -6 -90 -6h-77v-157h91v-23h-275v23h92v671h-92v23h275v-23h-91v-142zM213 203h54q45 0 81 3t62 19q25 17 39 50q13 33 13 94q0 57 -15 89
q-14 32 -39 48q-26 16 -60 20q-34 3 -72 3h-63v-326z" />
    <glyph glyph-name="germandbls" unicode="&#xdf;" 
d="M15 23h89v421h-103v14v9h103v30q0 53 10 96q9 44 30 76q23 31 60 49q37 17 93 17q32 0 64 -12t58 -35q26 -21 43 -52q16 -30 16 -67q0 -39 -14 -68t-37 -49q-23 -21 -49 -34q-26 -12 -49 -20v-2q30 -4 63 -16q32 -11 59 -35q27 -22 45 -58q17 -36 17 -89q0 -60 -22 -98
q-22 -39 -58 -61q-35 -22 -79 -30q-44 -9 -89 -9h-27v23h26q50 0 81 9t47 29q17 21 22 54t5 83q0 51 -6 87q-5 36 -23 58q-17 23 -50 33q-32 10 -84 10h-15v23h15q41 0 68 8t44 25q16 19 22 48q6 30 6 73q0 37 -3 65q-4 28 -16 47q-11 18 -33 28q-21 10 -56 10
q-40 0 -61 -16t-31 -43q-11 -26 -12 -60q-2 -34 -2 -71v-523h-167v23z" />
    <glyph glyph-name="agrave" unicode="&#xe0;" horiz-adv-x="493" 
d="M477 31q-13 -16 -34 -33q-20 -16 -52 -16q-22 0 -37 9q-14 10 -23 23q-8 15 -12 31t-4 29h-2q-6 -12 -18 -27q-11 -16 -30 -31q-17 -14 -41 -24q-23 -10 -54 -10t-54 11q-24 11 -39 29q-16 18 -23 40q-8 23 -8 46q0 34 16 60t41 43q26 18 57 30q31 11 61 17t55 9
q25 2 39 3v95q0 24 -1 43q-1 18 -7 30q-6 13 -19 19q-14 6 -38 6q-19 0 -36 -3q-18 -3 -33 -9q-13 -7 -21 -15q-8 -9 -8 -19q0 -7 3 -12l8 -10q4 -4 7 -10q4 -7 4 -19q0 -17 -12 -30q-11 -13 -36 -13q-22 0 -33 13q-11 14 -11 38q0 20 12 40t35 36q24 16 56 26q32 9 71 9
q11 0 25 -1q14 -2 26 -5q14 -2 24 -5q11 -3 17 -6q12 -6 21 -11q8 -5 13 -15q6 -9 9 -25q2 -16 2 -43v-264q0 -13 1 -29q0 -15 2 -29q3 -13 8 -22q6 -10 16 -10q17 0 28 10t15 14q5 -4 14 -13zM315 248q-24 -1 -56 -6q-33 -5 -62 -19q-29 -13 -49 -37t-20 -63q0 -45 20 -74
t59 -29q15 0 29 7q14 6 25 16t21 22q9 11 15 22q9 16 14 40q4 24 4 72v49zM109 620q5 12 21 50q61 -31 245 -123q-2 -4 -7 -17q-65 23 -259 90z" />
    <glyph glyph-name="aacute" unicode="&#xe1;" horiz-adv-x="493" 
d="M477 31q-13 -16 -34 -33q-20 -16 -52 -16q-22 0 -37 9q-14 10 -23 23q-8 15 -12 31t-4 29h-2q-6 -12 -18 -27q-11 -16 -30 -31q-17 -14 -41 -24q-23 -10 -54 -10t-54 11q-24 11 -39 29q-16 18 -23 40q-8 23 -8 46q0 34 16 60t41 43q26 18 57 30q31 11 61 17t55 9
q25 2 39 3v95q0 24 -1 43q-1 18 -7 30q-6 13 -19 19q-14 6 -38 6q-19 0 -36 -3q-18 -3 -33 -9q-13 -7 -21 -15q-8 -9 -8 -19q0 -7 3 -12l8 -10q4 -4 7 -10q4 -7 4 -19q0 -17 -12 -30q-11 -13 -36 -13q-22 0 -33 13q-11 14 -11 38q0 20 12 40t35 36q24 16 56 26q32 9 71 9
q11 0 25 -1q14 -2 26 -5q14 -2 24 -5q11 -3 17 -6q12 -6 21 -11q8 -5 13 -15q6 -9 9 -25q2 -16 2 -43v-264q0 -13 1 -29q0 -15 2 -29q3 -13 8 -22q6 -10 16 -10q17 0 28 10t15 14q5 -4 14 -13zM315 248q-24 -1 -56 -6q-33 -5 -62 -19q-29 -13 -49 -37t-20 -63q0 -45 20 -74
t59 -29q15 0 29 7q14 6 25 16t21 22q9 11 15 22q9 16 14 40q4 24 4 72v49zM119 547q61 31 245 123q5 -13 21 -50q-65 -23 -259 -90q-2 5 -7 17z" />
    <glyph glyph-name="acircumflex" unicode="&#xe2;" horiz-adv-x="493" 
d="M477 31q-13 -16 -34 -33q-20 -16 -52 -16q-22 0 -37 9q-14 10 -23 23q-8 15 -12 31t-4 29h-2q-6 -12 -18 -27q-11 -16 -30 -31q-17 -14 -41 -24q-23 -10 -54 -10t-54 11q-24 11 -39 29q-16 18 -23 40q-8 23 -8 46q0 34 16 60t41 43q26 18 57 30q31 11 61 17t55 9
q25 2 39 3v95q0 24 -1 43q-1 18 -7 30q-6 13 -19 19q-14 6 -38 6q-19 0 -36 -3q-18 -3 -33 -9q-13 -7 -21 -15q-8 -9 -8 -19q0 -7 3 -12l8 -10q4 -4 7 -10q4 -7 4 -19q0 -17 -12 -30q-11 -13 -36 -13q-22 0 -33 13q-11 14 -11 38q0 20 12 40t35 36q24 16 56 26q32 9 71 9
q11 0 25 -1q14 -2 26 -5q14 -2 24 -5q11 -3 17 -6q12 -6 21 -11q8 -5 13 -15q6 -9 9 -25q2 -16 2 -43v-264q0 -13 1 -29q0 -15 2 -29q3 -13 8 -22q6 -10 16 -10q17 0 28 10t15 14q5 -4 14 -13zM315 248q-24 -1 -56 -6q-33 -5 -62 -19q-29 -13 -49 -37t-20 -63q0 -45 20 -74
t59 -29q15 0 29 7q14 6 25 16t21 22q9 11 15 22q9 16 14 40q4 24 4 72v49zM272 655q40 -27 159 -109q-3 -4 -11 -16q-43 20 -173 80q-43 -20 -173 -80l-12 16q40 27 159 109h51z" />
    <glyph glyph-name="atilde" unicode="&#xe3;" horiz-adv-x="493" 
d="M477 31q-13 -16 -34 -33q-20 -16 -52 -16q-22 0 -37 9q-14 10 -23 23q-8 15 -12 31t-4 29h-2q-6 -12 -18 -27q-11 -16 -30 -31q-17 -14 -41 -24q-23 -10 -54 -10t-54 11q-24 11 -39 29q-16 18 -23 40q-8 23 -8 46q0 34 16 60t41 43q26 18 57 30q31 11 61 17t55 9
q25 2 39 3v95q0 24 -1 43q-1 18 -7 30q-6 13 -19 19q-14 6 -38 6q-19 0 -36 -3q-18 -3 -33 -9q-13 -7 -21 -15q-8 -9 -8 -19q0 -7 3 -12l8 -10q4 -4 7 -10q4 -7 4 -19q0 -17 -12 -30q-11 -13 -36 -13q-22 0 -33 13q-11 14 -11 38q0 20 12 40t35 36q24 16 56 26q32 9 71 9
q11 0 25 -1q14 -2 26 -5q14 -2 24 -5q11 -3 17 -6q12 -6 21 -11q8 -5 13 -15q6 -9 9 -25q2 -16 2 -43v-264q0 -13 1 -29q0 -15 2 -29q3 -13 8 -22q6 -10 16 -10q17 0 28 10t15 14q5 -4 14 -13zM315 248q-24 -1 -56 -6q-33 -5 -62 -19q-29 -13 -49 -37t-20 -63q0 -45 20 -74
t59 -29q15 0 29 7q14 6 25 16t21 22q9 11 15 22q9 16 14 40q4 24 4 72v49zM71 569q7 11 15 25t19 28q13 13 29 23q17 9 40 9q14 0 37 -9q22 -9 48 -20q25 -12 49 -21t41 -9q11 0 20 5t15 12q7 8 12 16t11 14q5 -3 15 -10q-4 -8 -13 -23q-10 -14 -22 -29t-27 -26
q-15 -10 -28 -10q-23 0 -48 9t-50 20q-24 12 -46 21t-40 9q-11 0 -21 -5t-18 -12t-14 -15q-6 -7 -10 -11q-5 3 -14 9z" />
    <glyph glyph-name="adieresis" unicode="&#xe4;" horiz-adv-x="493" 
d="M477 31q-13 -16 -34 -33q-20 -16 -52 -16q-22 0 -37 9q-14 10 -23 23q-8 15 -12 31t-4 29h-2q-6 -12 -18 -27q-11 -16 -30 -31q-17 -14 -41 -24q-23 -10 -54 -10t-54 11q-24 11 -39 29q-16 18 -23 40q-8 23 -8 46q0 34 16 60t41 43q26 18 57 30q31 11 61 17t55 9
q25 2 39 3v95q0 24 -1 43q-1 18 -7 30q-6 13 -19 19q-14 6 -38 6q-19 0 -36 -3q-18 -3 -33 -9q-13 -7 -21 -15q-8 -9 -8 -19q0 -7 3 -12l8 -10q4 -4 7 -10q4 -7 4 -19q0 -17 -12 -30q-11 -13 -36 -13q-22 0 -33 13q-11 14 -11 38q0 20 12 40t35 36q24 16 56 26q32 9 71 9
q11 0 25 -1q14 -2 26 -5q14 -2 24 -5q11 -3 17 -6q12 -6 21 -11q8 -5 13 -15q6 -9 9 -25q2 -16 2 -43v-264q0 -13 1 -29q0 -15 2 -29q3 -13 8 -22q6 -10 16 -10q17 0 28 10t15 14q5 -4 14 -13zM315 248q-24 -1 -56 -6q-33 -5 -62 -19q-29 -13 -49 -37t-20 -63q0 -45 20 -74
t59 -29q15 0 29 7q14 6 25 16t21 22q9 11 15 22q9 16 14 40q4 24 4 72v49zM157 530q-21 0 -34 14q-13 13 -13 34q0 20 13 33q13 14 34 14q20 0 33 -14q14 -13 14 -33q0 -21 -14 -34q-13 -14 -33 -14zM337 530q-21 0 -34 14q-13 13 -13 34q0 20 13 33q13 14 34 14
q20 0 34 -14q13 -13 13 -33q0 -21 -13 -34q-14 -14 -34 -14z" />
    <glyph glyph-name="aring" unicode="&#xe5;" horiz-adv-x="493" 
d="M477 31q-13 -16 -34 -33q-20 -16 -52 -16q-22 0 -37 9q-14 10 -23 23q-8 15 -12 31t-4 29h-2q-6 -12 -18 -27q-11 -16 -30 -31q-17 -14 -41 -24q-23 -10 -54 -10t-54 11q-24 11 -39 29q-16 18 -23 40q-8 23 -8 46q0 34 16 60t41 43q26 18 57 30q31 11 61 17t55 9
q25 2 39 3v95q0 24 -1 43q-1 18 -7 30q-6 13 -19 19q-14 6 -38 6q-19 0 -36 -3q-18 -3 -33 -9q-13 -7 -21 -15q-8 -9 -8 -19q0 -7 3 -12l8 -10q4 -4 7 -10q4 -7 4 -19q0 -17 -12 -30q-11 -13 -36 -13q-22 0 -33 13q-11 14 -11 38q0 20 12 40t35 36q24 16 56 26q32 9 71 9
q11 0 25 -1q14 -2 26 -5q14 -2 24 -5q11 -3 17 -6q12 -6 21 -11q8 -5 13 -15q6 -9 9 -25q2 -16 2 -43v-264q0 -13 1 -29q0 -15 2 -29q3 -13 8 -22q6 -10 16 -10q17 0 28 10t15 14q5 -4 14 -13zM315 248q-24 -1 -56 -6q-33 -5 -62 -19q-29 -13 -49 -37t-20 -63q0 -45 20 -74
t59 -29q15 0 29 7q14 6 25 16t21 22q9 11 15 22q9 16 14 40q4 24 4 72v49zM257 530q-39 0 -61 23q-23 22 -23 61q0 36 23 60q22 24 61 24q36 0 60 -24t24 -60q0 -39 -24 -61q-24 -23 -60 -23zM196 614q0 -27 16 -44q17 -17 45 -17q25 0 43 17t18 44q0 25 -18 43
q-18 19 -43 19q-28 0 -45 -19q-16 -18 -16 -43z" />
    <glyph glyph-name="ae" unicode="&#xe6;" horiz-adv-x="739" 
d="M702 142l-21 -49q-12 -27 -35 -53q-21 -25 -56 -42q-34 -16 -85 -16q-40 0 -70 14q-31 14 -52 34q-22 19 -36 40t-22 34q-7 -12 -20 -33t-34 -41q-19 -20 -46 -34t-61 -14q-31 0 -54 11q-24 11 -39 29q-16 18 -23 40q-8 23 -8 46q0 34 15 60q15 27 38 44q25 18 55 30
q30 11 60 17q30 7 57 9t44 2v95q0 24 -1 43q-1 18 -7 30q-6 13 -19 19q-14 6 -38 6q-19 0 -37 -3t-32 -9q-13 -7 -21 -15q-9 -9 -9 -19q0 -7 4 -12l8 -10q4 -4 7 -10q4 -7 4 -19q0 -17 -12 -30t-36 -13q-22 0 -33 13q-11 14 -11 38q0 20 12 40t35 36t56 26q32 9 71 9
q15 0 35 -2q20 -3 39 -10t33 -18q15 -12 20 -30q7 8 18 18q11 11 26 20q16 9 37 16q21 6 50 6q47 0 82 -20t57 -51q24 -31 35 -70q12 -40 12 -78h-307v-90q0 -26 3 -57q2 -30 14 -56q13 -25 38 -42t70 -17q42 0 71 17t49 39q19 24 31 49q12 24 19 39q7 -2 20 -6zM607 318
q0 28 -2 54q-3 26 -13 46t-31 33q-20 12 -57 12q-43 0 -67 -18q-23 -17 -35 -44q-11 -25 -13 -55q-2 -31 -2 -57h220v29zM309 248q-22 0 -55 -5q-32 -5 -61 -20q-29 -13 -50 -37t-21 -63q0 -45 20 -74t59 -29q15 0 29 7q14 6 25 16t20 22q10 11 16 22q9 16 14 40q4 24 4 72
v49z" />
    <glyph glyph-name="ccedilla" unicode="&#xe7;" horiz-adv-x="455" 
d="M441 152q-4 -21 -16 -50t-35 -56q-21 -27 -52 -45q-31 -19 -72 -19q-54 0 -96 22q-41 22 -70 56q-28 36 -43 82q-15 45 -15 91q0 43 16 89q17 45 46 80q30 37 71 60t91 23q34 0 63 -9q28 -10 49 -26q21 -17 33 -38q11 -21 11 -42q0 -54 -45 -54q-26 0 -37 14
q-10 13 -10 30q0 16 5 24q6 8 13 13q7 6 13 11t6 11q0 9 -9 17q-8 8 -22 15q-13 6 -32 9q-18 3 -38 3q-49 0 -75 -18t-38 -50q-13 -30 -15 -72t-2 -90q0 -47 2 -89t15 -73q12 -31 38 -49t75 -18q37 0 64 18q27 17 46 41q19 25 31 51q11 26 15 43q6 -2 19 -5zM180 -217
q25 -3 50 -3q20 0 34 8q15 7 24 19t14 26q4 13 4 27q0 38 -19 56t-42 18h-6t-9 -2v68h14h7v-51q18 -2 39 -6q20 -4 37 -14t28 -26q11 -17 11 -43q0 -27 -13 -46q-13 -20 -34 -32q-20 -12 -45 -19q-24 -6 -49 -6q-11 0 -22 2q-12 1 -23 3v21z" />
    <glyph glyph-name="egrave" unicode="&#xe8;" horiz-adv-x="474" 
d="M451 142q-10 -21 -22 -49q-12 -27 -35 -53q-21 -25 -56 -42q-34 -16 -85 -16q-46 0 -85 18t-68 52q-27 34 -43 81t-16 104q0 41 15 85q16 44 43 79q29 37 68 61q40 23 89 23q47 0 82 -20t57 -51q24 -31 36 -70q11 -40 11 -78h-307v-90q0 -26 3 -57q2 -30 15 -56
q12 -25 37 -42t70 -17q42 0 71 17t49 39q19 24 31 49q12 24 19 39zM355 318q0 28 -2 54q-3 26 -13 46t-31 33q-20 12 -57 12q-43 0 -67 -18q-23 -17 -34 -44q-12 -25 -14 -55q-2 -31 -2 -57h220v29zM104 620q6 12 22 50q61 -31 245 -123q-2 -4 -7 -17q-65 23 -260 90z" />
    <glyph glyph-name="eacute" unicode="&#xe9;" horiz-adv-x="474" 
d="M451 142q-10 -21 -22 -49q-12 -27 -35 -53q-21 -25 -56 -42q-34 -16 -85 -16q-46 0 -85 18t-68 52q-27 34 -43 81t-16 104q0 41 15 85q16 44 43 79q29 37 68 61q40 23 89 23q47 0 82 -20t57 -51q24 -31 36 -70q11 -40 11 -78h-307v-90q0 -26 3 -57q2 -30 15 -56
q12 -25 37 -42t70 -17q42 0 71 17t49 39q19 24 31 49q12 24 19 39zM355 318q0 28 -2 54q-3 26 -13 46t-31 33q-20 12 -57 12q-43 0 -67 -18q-23 -17 -34 -44q-12 -25 -14 -55q-2 -31 -2 -57h220v29zM125 547q61 31 245 123q5 -13 21 -50q-65 -23 -259 -90q-2 5 -7 17z" />
    <glyph glyph-name="ecircumflex" unicode="&#xea;" horiz-adv-x="474" 
d="M451 142q-10 -21 -22 -49q-12 -27 -35 -53q-21 -25 -56 -42q-34 -16 -85 -16q-46 0 -85 18t-68 52q-27 34 -43 81t-16 104q0 41 15 85q16 44 43 79q29 37 68 61q40 23 89 23q47 0 82 -20t57 -51q24 -31 36 -70q11 -40 11 -78h-307v-90q0 -26 3 -57q2 -30 15 -56
q12 -25 37 -42t70 -17q42 0 71 17t49 39q19 24 31 49q12 24 19 39zM355 318q0 28 -2 54q-3 26 -13 46t-31 33q-20 12 -57 12q-43 0 -67 -18q-23 -17 -34 -44q-12 -25 -14 -55q-2 -31 -2 -57h220v29zM273 655q40 -27 159 -109q-3 -4 -11 -16q-43 20 -173 80q-43 -20 -173 -80
l-12 16q40 27 159 109h51z" />
    <glyph glyph-name="edieresis" unicode="&#xeb;" horiz-adv-x="474" 
d="M451 142q-10 -21 -22 -49q-12 -27 -35 -53q-21 -25 -56 -42q-34 -16 -85 -16q-46 0 -85 18t-68 52q-27 34 -43 81t-16 104q0 41 15 85q16 44 43 79q29 37 68 61q40 23 89 23q47 0 82 -20t57 -51q24 -31 36 -70q11 -40 11 -78h-307v-90q0 -26 3 -57q2 -30 15 -56
q12 -25 37 -42t70 -17q42 0 71 17t49 39q19 24 31 49q12 24 19 39zM355 318q0 28 -2 54q-3 26 -13 46t-31 33q-20 12 -57 12q-43 0 -67 -18q-23 -17 -34 -44q-12 -25 -14 -55q-2 -31 -2 -57h220v29zM168 530q-21 0 -34 14q-13 13 -13 34q0 20 13 33q13 14 34 14q20 0 34 -14
q13 -13 13 -33q0 -21 -13 -34q-14 -14 -34 -14zM348 530q-20 0 -34 14q-13 13 -13 34q0 20 13 33q14 14 34 14q21 0 34 -14q13 -13 13 -33q0 -21 -13 -34q-13 -14 -34 -14z" />
    <glyph glyph-name="igrave" unicode="&#xec;" horiz-adv-x="285" 
d="M28 444v23h73q23 0 48 3q25 2 39 5v-452h77v-23h-228v23h74v421h-83zM-11 620q5 12 21 50q61 -31 245 -123q-2 -4 -7 -17q-65 23 -259 90z" />
    <glyph glyph-name="iacute" unicode="&#xed;" horiz-adv-x="285" 
d="M28 444v23h73q23 0 48 3q25 2 39 5v-452h77v-23h-228v23h74v421h-83zM19 547q62 31 245 123q6 -13 22 -50q-65 -23 -259 -90q-2 5 -8 17z" />
    <glyph glyph-name="icircumflex" unicode="&#xee;" horiz-adv-x="285" 
d="M28 444v23h73q23 0 48 3q25 2 39 5v-452h77v-23h-228v23h74v421h-83zM168 655q40 -27 159 -109l-12 -16q-43 20 -173 80q-43 -20 -173 -80q-3 4 -11 16q40 27 159 109h51z" />
    <glyph glyph-name="idieresis" unicode="&#xef;" horiz-adv-x="285" 
d="M28 444v23h73q23 0 48 3q25 2 39 5v-452h77v-23h-228v23h74v421h-83zM42 530q-20 0 -34 14q-13 13 -13 34q0 20 13 33q14 14 34 14t34 -14q13 -13 13 -33q0 -21 -13 -34q-14 -14 -34 -14zM222 530q-20 0 -34 14q-13 13 -13 34q0 20 13 33q14 14 34 14q21 0 34 -14
q13 -13 13 -33q0 -21 -13 -34q-13 -14 -34 -14z" />
    <glyph glyph-name="eth" unicode="&#xf0;" horiz-adv-x="531" 
d="M351 622q18 -21 42 -50t45 -70q22 -41 37 -94q15 -54 15 -121q0 -54 -14 -108q-15 -54 -45 -98t-73 -72q-44 -27 -102 -27q-43 0 -82 23q-39 24 -70 61q-29 36 -47 82q-17 47 -17 92q0 38 14 76q15 39 40 71q27 33 64 53q37 21 81 21q26 0 49 -7q22 -8 41 -18
q18 -10 32 -21l25 -20q-8 56 -29 107q-20 51 -56 100q-51 -23 -155 -70q-2 5 -9 20q38 17 153 68q-16 18 -29 31q-14 13 -28 23q-13 11 -27 21q-13 11 -30 24q4 5 10 16q37 -18 74 -41t73 -56q34 15 103 45q3 -5 9 -19q-23 -11 -94 -42zM134 240q0 -34 2 -76q2 -41 14 -77
q11 -35 36 -59t70 -24q52 0 81 24t42 59q13 36 15 76q2 41 2 74q0 29 -1 59q-1 31 -3 60q-10 10 -25 24t-34 27t-43 22t-51 9q-38 0 -59 -20q-21 -21 -32 -50q-10 -30 -12 -65t-2 -63z" />
    <glyph glyph-name="ntilde" unicode="&#xf1;" horiz-adv-x="588" 
d="M32 23h73v421h-82v23h73q23 0 46 3q23 2 37 5v-131h2q8 20 24 44q15 25 37 46q22 22 51 37q30 14 66 14q40 0 66 -12t39 -30q14 -16 19 -35t5 -31v-354h77v-23h-228v23h74v362q0 14 -2 29q-1 14 -8 24q-6 12 -19 18q-12 7 -35 7q-22 0 -51 -16t-54 -45q-25 -28 -42 -68
t-17 -88v-223h71v-23h-222v23zM108 569q7 11 15 25t19 28q13 13 29 23q16 9 40 9q14 0 37 -9q22 -9 48 -20q25 -12 49 -21t41 -9q11 0 20 5t15 12q7 8 12 16t10 14q6 -3 16 -10q-4 -8 -14 -23q-9 -14 -21 -29t-27 -26q-15 -10 -28 -10q-23 0 -48 9t-50 20q-24 12 -46 21
t-40 9q-11 0 -21 -5t-19 -12q-7 -7 -13 -15q-6 -7 -10 -11q-5 3 -14 9z" />
    <glyph glyph-name="ograve" unicode="&#xf2;" horiz-adv-x="531" 
d="M135 233q0 -42 2 -83t15 -74q12 -32 38 -52t75 -20t75 20q27 20 39 52q12 33 14 74t2 83t-2 84q-2 41 -14 73q-12 33 -39 53q-26 20 -75 20t-75 -20t-38 -53q-13 -32 -15 -73q-2 -42 -2 -84zM265 -18q-54 0 -96 26q-41 26 -70 64q-28 39 -43 82q-15 44 -15 79t15 79
t43 82q29 39 70 65q42 26 96 26q53 0 95 -26t71 -65q29 -38 44 -82q14 -44 14 -79t-14 -79q-15 -43 -44 -82q-29 -38 -71 -64t-95 -26zM128 620q5 12 22 50q61 -31 244 -123q-2 -4 -7 -17q-65 23 -259 90z" />
    <glyph glyph-name="oacute" unicode="&#xf3;" horiz-adv-x="531" 
d="M135 233q0 -42 2 -83t15 -74q12 -32 38 -52t75 -20t75 20q27 20 39 52q12 33 14 74t2 83t-2 84q-2 41 -14 73q-12 33 -39 53q-26 20 -75 20t-75 -20t-38 -53q-13 -32 -15 -73q-2 -42 -2 -84zM265 -18q-54 0 -96 26q-41 26 -70 64q-28 39 -43 82q-15 44 -15 79t15 79
t43 82q29 39 70 65q42 26 96 26q53 0 95 -26t71 -65q29 -38 44 -82q14 -44 14 -79t-14 -79q-15 -43 -44 -82q-29 -38 -71 -64t-95 -26zM133 547q61 31 245 123q5 -13 21 -50q-64 -23 -259 -90q-2 5 -7 17z" />
    <glyph glyph-name="ocircumflex" unicode="&#xf4;" horiz-adv-x="531" 
d="M135 233q0 -42 2 -83t15 -74q12 -32 38 -52t75 -20t75 20q27 20 39 52q12 33 14 74t2 83t-2 84q-2 41 -14 73q-12 33 -39 53q-26 20 -75 20t-75 -20t-38 -53q-13 -32 -15 -73q-2 -42 -2 -84zM265 -18q-54 0 -96 26q-41 26 -70 64q-28 39 -43 82q-15 44 -15 79t15 79
t43 82q29 39 70 65q42 26 96 26q53 0 95 -26t71 -65q29 -38 44 -82q14 -44 14 -79t-14 -79q-15 -43 -44 -82q-29 -38 -71 -64t-95 -26zM292 655q40 -27 159 -109l-12 -16q-43 20 -173 80q-43 -20 -173 -80q-3 4 -11 16q40 27 159 109h51z" />
    <glyph glyph-name="otilde" unicode="&#xf5;" horiz-adv-x="531" 
d="M135 233q0 -42 2 -83t15 -74q12 -32 38 -52t75 -20t75 20q27 20 39 52q12 33 14 74t2 83t-2 84q-2 41 -14 73q-12 33 -39 53q-26 20 -75 20t-75 -20t-38 -53q-13 -32 -15 -73q-2 -42 -2 -84zM265 -18q-54 0 -96 26q-41 26 -70 64q-28 39 -43 82q-15 44 -15 79t15 79
t43 82q29 39 70 65q42 26 96 26q53 0 95 -26t71 -65q29 -38 44 -82q14 -44 14 -79t-14 -79q-15 -43 -44 -82q-29 -38 -71 -64t-95 -26zM111 569q7 11 15 25t19 28q13 13 29 23q16 9 40 9q14 0 37 -9q22 -9 48 -20q25 -12 49 -21t41 -9q11 0 20 5t15 12q7 8 12 16t10 14
q6 -3 16 -10q-4 -8 -13 -23q-10 -14 -22 -29t-27 -26q-15 -10 -28 -10q-23 0 -48 9t-50 20q-24 12 -46 21t-40 9q-11 0 -21 -5t-19 -12q-7 -7 -13 -15q-6 -7 -10 -11q-5 3 -14 9z" />
    <glyph glyph-name="odieresis" unicode="&#xf6;" horiz-adv-x="531" 
d="M135 233q0 -42 2 -83t15 -74q12 -32 38 -52t75 -20t75 20q27 20 39 52q12 33 14 74t2 83t-2 84q-2 41 -14 73q-12 33 -39 53q-26 20 -75 20t-75 -20t-38 -53q-13 -32 -15 -73q-2 -42 -2 -84zM265 -18q-54 0 -96 26q-41 26 -70 64q-28 39 -43 82q-15 44 -15 79t15 79
t43 82q29 39 70 65q42 26 96 26q53 0 95 -26t71 -65q29 -38 44 -82q14 -44 14 -79t-14 -79q-15 -43 -44 -82q-29 -38 -71 -64t-95 -26zM171 530q-20 0 -34 14q-13 13 -13 34q0 20 13 33q14 14 34 14t34 -14q13 -13 13 -33q0 -21 -13 -34q-14 -14 -34 -14zM351 530
q-20 0 -34 14q-13 13 -13 34q0 20 13 33q14 14 34 14q21 0 34 -14q13 -13 13 -33q0 -21 -13 -34q-13 -14 -34 -14z" />
    <glyph glyph-name="divide" unicode="&#xf7;" 
d="M65 371h419v-52h-419v52zM274 193q-17 0 -28 11q-12 11 -12 28q0 18 12 29q11 11 28 11q18 0 29 -11t11 -29q0 -17 -11 -28t-29 -11zM274 418q-17 0 -28 11q-12 11 -12 29q0 17 12 28q11 12 28 12q18 0 29 -12q11 -11 11 -28q0 -18 -11 -29t-29 -11z" />
    <glyph glyph-name="oslash" unicode="&#xf8;" horiz-adv-x="531" 
d="M28 -45q19 25 78 98q-38 40 -55 90t-17 90q0 35 15 79q14 44 43 82q29 39 70 65q42 26 96 26q42 0 74 -13q33 -13 64 -47q24 30 72 91q5 -3 18 -13l-72 -96q33 -42 51 -89q17 -46 17 -85q0 -35 -15 -79q-14 -43 -43 -82q-29 -38 -71 -64t-95 -26q-42 0 -75 14t-60 40
q-26 -32 -77 -94q-5 3 -18 13zM148 69q15 -27 41 -46t69 -19q49 0 75 20t39 52q12 33 14 74t2 83q0 34 -1 68q-2 33 -9 64q-77 -99 -230 -296zM371 393q-16 35 -42 52q-26 18 -71 18q-49 0 -75 -20t-39 -53q-12 -32 -14 -73q-2 -42 -2 -84q0 -35 2 -72q2 -36 8 -68
q78 100 233 300z" />
    <glyph glyph-name="ugrave" unicode="&#xf9;" 
d="M389 123h-2q-8 -20 -22 -44q-15 -25 -36 -46q-21 -22 -49 -37q-28 -14 -65 -14q-40 0 -65 12q-26 12 -40 29t-19 36t-5 31v354h-77v6v17h155v-381q0 -12 1 -25q2 -13 8 -23t20 -17t38 -7q22 0 49 16q26 15 50 42q23 27 39 65t16 84v223h-85v23h163v-444h83v-23h-74
q-22 0 -46 -3q-23 -2 -37 -5v131zM132 620q5 12 22 50q61 -31 244 -123q-1 -4 -7 -17q-65 23 -259 90z" />
    <glyph glyph-name="uacute" unicode="&#xfa;" 
d="M389 123h-2q-8 -20 -22 -44q-15 -25 -36 -46q-21 -22 -49 -37q-28 -14 -65 -14q-40 0 -65 12q-26 12 -40 29t-19 36t-5 31v354h-77v6v17h155v-381q0 -12 1 -25q2 -13 8 -23t20 -17t38 -7q22 0 49 16q26 15 50 42q23 27 39 65t16 84v223h-85v23h163v-444h83v-23h-74
q-22 0 -46 -3q-23 -2 -37 -5v131zM158 547q61 31 244 123q6 -13 22 -50q-65 -23 -259 -90q-2 5 -7 17z" />
    <glyph glyph-name="ucircumflex" unicode="&#xfb;" 
d="M389 123h-2q-8 -20 -22 -44q-15 -25 -36 -46q-21 -22 -49 -37q-28 -14 -65 -14q-40 0 -65 12q-26 12 -40 29t-19 36t-5 31v354h-77v6v17h155v-381q0 -12 1 -25q2 -13 8 -23t20 -17t38 -7q22 0 49 16q26 15 50 42q23 27 39 65t16 84v223h-85v23h163v-444h83v-23h-74
q-22 0 -46 -3q-23 -2 -37 -5v131zM301 655q40 -27 159 -109q-3 -4 -11 -16q-44 20 -174 80q-43 -20 -173 -80q-2 4 -11 16q40 27 159 109h51z" />
    <glyph glyph-name="udieresis" unicode="&#xfc;" 
d="M389 123h-2q-8 -20 -22 -44q-15 -25 -36 -46q-21 -22 -49 -37q-28 -14 -65 -14q-40 0 -65 12q-26 12 -40 29t-19 36t-5 31v354h-77v6v17h155v-381q0 -12 1 -25q2 -13 8 -23t20 -17t38 -7q22 0 49 16q26 15 50 42q23 27 39 65t16 84v223h-85v23h163v-444h83v-23h-74
q-22 0 -46 -3q-23 -2 -37 -5v131zM175 530q-20 0 -34 14q-13 13 -13 34q0 20 13 33q14 14 34 14q21 0 34 -14q13 -13 13 -33q0 -21 -13 -34q-13 -14 -34 -14zM355 530q-20 0 -33 14q-14 13 -14 34q0 20 14 33q13 14 33 14q21 0 34 -14q13 -13 13 -33q0 -21 -13 -34
q-13 -14 -34 -14z" />
    <glyph glyph-name="yacute" unicode="&#xfd;" horiz-adv-x="512" 
d="M220 -147q-3 -9 -9 -22q-5 -13 -15 -27q-11 -14 -27 -24q-15 -9 -39 -9t-41 14t-17 40q0 23 11 38q12 15 33 15q19 0 28 -10q10 -10 10 -22q0 -5 -1 -9v-7q0 -8 12 -8q10 0 19 14q10 14 23 49l48 129q-47 108 -187 430h-65v9v14h223v-23h-76q35 -82 142 -330
q30 82 122 330h-82v23h177v-23h-69q-55 -148 -220 -591zM174 547q61 31 245 123q5 -13 21 -50q-64 -23 -259 -90q-2 5 -7 17z" />
    <glyph glyph-name="thorn" unicode="&#xfe;" horiz-adv-x="531" 
d="M171 240q0 -37 7 -79q6 -41 22 -76t44 -58q27 -23 70 -23q37 0 58 20q20 20 29 52q10 33 11 74q2 41 2 83t-2 84q-1 41 -11 73q-9 33 -29 53q-21 20 -58 20q-34 0 -61 -17q-27 -16 -45 -46q-19 -29 -28 -70t-9 -90zM19 -188h74v882h-83v23h70q22 0 50 2q27 3 41 6v-347h2
q4 13 16 32t29 35q18 17 42 29q24 11 54 11q41 0 77 -26t62 -65q25 -38 40 -82t15 -79t-14 -79q-15 -43 -40 -82q-26 -38 -61 -64q-36 -26 -79 -26q-33 0 -58 11q-25 12 -41 29q-16 16 -27 32q-10 16 -15 25h-2v-267h83v-23h-235v23z" />
    <glyph glyph-name="ydieresis" unicode="&#xff;" horiz-adv-x="512" 
d="M220 -147q-3 -9 -9 -22q-5 -13 -15 -27q-11 -14 -27 -24q-15 -9 -39 -9t-41 14t-17 40q0 23 11 38q12 15 33 15q19 0 28 -10q10 -10 10 -22q0 -5 -1 -9v-7q0 -8 12 -8q10 0 19 14q10 14 23 49l48 129q-47 108 -187 430h-65v9v14h223v-23h-76q35 -82 142 -330
q30 82 122 330h-82v23h177v-23h-69q-55 -148 -220 -591zM186 530q-20 0 -33 14q-14 13 -14 34q0 20 14 33q13 14 33 14q21 0 34 -14q13 -13 13 -33q0 -21 -13 -34q-13 -14 -34 -14zM367 530q-21 0 -34 14q-14 13 -14 34q0 20 14 33q13 14 34 14q20 0 33 -14q14 -13 14 -33
q0 -21 -14 -34q-13 -14 -33 -14z" />
    <glyph glyph-name="dotlessi" unicode="&#x131;" horiz-adv-x="285" 
d="M28 444v23h73q23 0 48 3q25 2 39 5v-452h77v-23h-228v23h74v421h-83z" />
    <glyph glyph-name="Lslash" unicode="&#x141;" horiz-adv-x="569" 
d="M52 23h92v278q-28 -26 -114 -103q-4 4 -17 16q33 30 131 120v360h-92v23h277v-23h-92v-276q30 27 122 110q5 -4 17 -16q-35 -32 -139 -127v-362h96q64 0 101 17q37 18 58 47q20 30 29 66q8 35 17 72h18q-5 -56 -19 -225h-485v23z" />
    <glyph glyph-name="lslash" unicode="&#x142;" horiz-adv-x="285" 
d="M25 23h84v296q-26 -22 -104 -90q-3 5 -14 18q29 26 118 105v342h-94v23h84q23 0 48 2q25 3 39 6v-302q29 25 113 101q4 -4 14 -17q-31 -28 -127 -113v-371h71v-23h-232v23z" />
    <glyph glyph-name="OE" unicode="&#x152;" horiz-adv-x="986" 
d="M520 83h-2q-9 -14 -22 -32q-14 -18 -35 -34q-21 -15 -52 -25t-77 -10q-71 0 -126 36t-93 92q-37 56 -57 122q-19 67 -19 126q0 60 19 126q20 67 57 122q38 57 93 93t126 36q41 0 72 -11t54 -28q23 -16 38 -34q14 -19 22 -32h2v87h400l8 -200h-19q-5 30 -11 61t-24 57
q-16 27 -48 43q-31 16 -86 16h-128v-318h29q36 0 59 4q24 4 38 17q15 14 21 39t6 67h18v-288h-18q0 42 -6 69t-21 43q-14 15 -38 21q-23 5 -59 5h-29v-330h122q66 0 103 15q36 15 56 42q19 26 28 62t18 78h18q-4 -55 -18 -220h-419v83zM145 358q0 -70 5 -135q5 -64 23 -113
t56 -77q37 -29 103 -29q70 0 109 30q38 29 56 79q17 49 20 112q3 64 3 132q0 65 -3 128q-4 64 -22 114q-19 51 -57 82q-38 32 -106 32q-66 0 -103 -29q-38 -29 -56 -78q-18 -48 -23 -112q-5 -65 -5 -136z" />
    <glyph glyph-name="oe" unicode="&#x153;" horiz-adv-x="815" 
d="M130 233q0 -42 2 -83t14 -74q13 -32 39 -52t75 -20q47 0 72 24t37 60t14 77q2 42 2 78q0 33 -2 72t-14 72t-37 54q-25 22 -72 22q-49 0 -75 -20t-39 -53q-12 -32 -14 -73q-2 -42 -2 -84zM778 142l-21 -49q-13 -27 -35 -53q-22 -25 -56 -42q-34 -16 -85 -16q-37 0 -64 11
t-46 26q-18 16 -31 32q-12 17 -19 28q-7 -12 -21 -29t-34 -33q-20 -14 -46 -25q-26 -10 -60 -10q-54 0 -96 26q-41 26 -70 64q-28 39 -43 82q-15 44 -15 79t15 79t43 82q29 39 70 65q42 26 96 26q36 0 62 -9q26 -10 45 -25t32 -32q14 -17 23 -30q9 13 22 30q14 16 33 31
q21 15 47 25t60 10q47 0 82 -20q34 -20 57 -51t35 -70q12 -40 12 -78h-307v-90q0 -26 2 -57q3 -30 15 -56q13 -25 38 -42t70 -17q42 0 71 17t49 39q19 24 31 49q12 24 19 39q7 -2 20 -6zM683 318q0 28 -3 54q-2 26 -12 46q-11 20 -31 33q-21 12 -57 12q-43 0 -67 -18
q-24 -17 -35 -44q-11 -25 -13 -55q-2 -31 -2 -57h220v29z" />
    <glyph glyph-name="Scaron" unicode="&#x160;" horiz-adv-x="531" 
d="M61 218h21q4 -18 13 -54q9 -35 31 -71q21 -36 58 -62q36 -27 95 -27q33 0 63 13q30 14 52 38q23 25 36 59q12 33 12 74q0 40 -12 66q-13 26 -35 40q-21 15 -48 22q-28 8 -57 12q-30 5 -59 9q-28 5 -52 15q-62 26 -91 70q-30 45 -30 116q0 36 15 72q14 35 39 63t60 45
q34 17 75 17q48 0 78 -16q30 -17 50 -34q11 14 33 43h18q1 -46 4 -183h-20q-6 16 -14 44t-26 56t-48 48t-77 20q-32 0 -59 -13q-27 -12 -47 -32q-19 -20 -30 -46q-12 -26 -12 -53q0 -49 24 -73t60 -35t79 -17q42 -6 78 -17q30 -9 56 -25q26 -15 45 -40q20 -23 31 -57
q11 -35 11 -83q0 -51 -14 -95t-41 -77q-27 -32 -65 -50q-37 -18 -83 -18q-37 0 -62 7t-42 16q-17 10 -29 22q-11 12 -21 21l-48 -51h-19q1 55 4 221zM241 780q-40 28 -159 110q3 4 11 15q43 -20 173 -80q44 20 173 80q3 -4 12 -15q-40 -28 -159 -110h-51z" />
    <glyph glyph-name="scaron" unicode="&#x161;" horiz-adv-x="398" 
d="M55 174h19q3 -15 10 -44q8 -29 25 -57t45 -48q28 -21 71 -21q26 0 46 8q21 8 35 23q16 15 24 34t8 41q0 35 -22 54t-53 29t-63 14q-33 5 -55 12q-48 15 -68 45q-21 29 -21 89q0 22 10 45q9 24 26 43q19 20 44 32t58 12q40 0 62 -13q22 -14 36 -29q8 10 25 28h16v-130h-19
l-11 33q-7 20 -20 40q-14 20 -35 35q-22 14 -54 14q-24 0 -42 -8q-19 -8 -32 -21q-14 -13 -20 -30q-7 -16 -7 -34q0 -26 14 -39q14 -14 35 -22q22 -7 47 -11q25 -3 48 -8q22 -5 47 -14q24 -8 44 -23t33 -41q14 -25 14 -64q0 -33 -9 -64q-10 -30 -29 -53q-20 -23 -48 -36
q-29 -13 -67 -13q-24 0 -43 5q-18 6 -33 13q-14 8 -24 17q-10 10 -19 17q-10 -11 -32 -34h-16v174zM174 530q-40 28 -159 110q3 4 12 15q43 -20 173 -80q43 20 173 80q3 -3 11 -15q-40 -27 -159 -110h-51z" />
    <glyph glyph-name="Ydieresis" unicode="&#x178;" horiz-adv-x="588" 
d="M168 23h92v302q-53 92 -211 369h-69v23h258v-23h-88q46 -82 187 -328q41 82 163 328h-91v23h188v-23h-65q-45 -90 -180 -359v-312h91v-23h-275v23zM224 780q-20 0 -34 14q-13 13 -13 33q0 21 13 34q14 13 34 13q21 0 34 -13t13 -34q0 -20 -13 -33q-13 -14 -34 -14z
M404 780q-20 0 -33 14q-14 13 -14 33q0 21 14 34q13 13 33 13q21 0 34 -13q14 -13 14 -34q0 -20 -14 -33q-13 -14 -34 -14z" />
    <glyph glyph-name="Zcaron" unicode="&#x17d;" horiz-adv-x="588" 
d="M26 20q103 169 411 674h-134q-66 0 -103 -12q-37 -11 -58 -36q-19 -23 -29 -60t-22 -86h-20q3 54 15 217h453v-21q-103 -168 -412 -673h206q58 0 90 10t50 34q19 23 30 63q11 39 27 97h21q-4 -57 -16 -227h-509v20zM289 780q-40 28 -159 110q3 4 11 15q44 -20 173 -80
q44 20 173 80q3 -4 12 -15q-40 -28 -159 -110h-51z" />
    <glyph glyph-name="zcaron" unicode="&#x17e;" horiz-adv-x="455" 
d="M38 23q72 105 287 421h-96q-42 0 -66 -12q-25 -12 -38 -34q-13 -21 -20 -49q-6 -27 -12 -58h-19q1 44 6 176h333v-23q-72 -105 -287 -421h106q49 0 77 12t44 35q17 22 24 53q8 32 16 68h19q-1 -47 -4 -191h-370v23zM212 530q-40 28 -159 110q3 4 12 15q43 -20 173 -80
q43 20 173 80q2 -3 11 -15q-40 -27 -159 -110h-51z" />
    <glyph glyph-name="florin" unicode="&#x192;" horiz-adv-x="531" 
d="M304 444q-9 -49 -20 -111q-12 -62 -27 -127q-14 -66 -33 -131q-19 -66 -44 -123q-11 -27 -29 -58q-19 -32 -45 -59q-25 -28 -57 -46q-33 -18 -72 -18q-13 0 -27 4q-13 4 -24 13q-11 8 -18 20q-6 12 -6 27t12 27q12 11 31 11q14 0 22 -6q8 -5 13 -13q3 -9 3 -18
q1 -10 1 -18q1 -13 3 -19t15 -6q27 0 48 19q22 18 37 44q16 25 26 52t15 44q19 66 31 122t22 111q10 57 21 118q11 62 28 141h-108q1 6 5 23h109q9 27 25 68q17 42 45 79q30 39 72 67q43 28 104 28q22 0 39 -8q17 -7 28 -17q12 -10 18 -22q5 -13 5 -23q0 -52 -44 -52
q-18 0 -28 11t-10 31q0 12 11 21q10 9 10 19t-12 13q-12 4 -26 4q-28 0 -50 -13t-39 -33q-16 -19 -29 -44q-12 -25 -21 -49q-9 -25 -15 -46t-10 -34h105q-2 -6 -5 -23h-105z" />
    <glyph glyph-name="circumflex" unicode="&#x2c6;" horiz-adv-x="410" 
d="M230 655q40 -27 159 -109q-3 -4 -11 -16q-43 20 -173 80q-43 -20 -173 -80l-12 16q40 27 159 109h51z" />
    <glyph glyph-name="caron" unicode="&#x2c7;" horiz-adv-x="410" 
d="M179 530q-39 28 -159 110q3 4 12 15q43 -20 173 -80q43 20 173 80q3 -3 11 -15q-40 -27 -159 -110h-51z" />
    <glyph glyph-name="breve" unicode="&#x2d8;" horiz-adv-x="410" 
d="M365 670q-6 -19 -15 -40q-10 -22 -28 -41q-19 -19 -47 -31q-28 -13 -70 -13t-70 13q-29 12 -47 31t-29 41q-10 21 -14 40h18q8 -16 18 -29t25 -24q17 -9 41 -15t58 -6t58 6t39 15q16 11 27 24q10 13 17 29h19z" />
    <glyph glyph-name="dotaccent" unicode="&#x2d9;" horiz-adv-x="410" 
d="M205 530q-21 0 -34 14q-13 13 -13 34q0 20 13 33q13 14 34 14q20 0 34 -14q13 -13 13 -33q0 -21 -13 -34q-14 -14 -34 -14z" />
    <glyph glyph-name="ring" unicode="&#x2da;" horiz-adv-x="410" 
d="M205 530q-39 0 -62 23q-22 22 -22 61q0 36 22 60q23 24 62 24q36 0 60 -24t24 -60q0 -39 -24 -61q-24 -23 -60 -23zM143 614q0 -27 17 -44t45 -17q24 0 43 17q18 17 18 44q0 25 -18 43q-19 19 -43 19q-28 0 -45 -19q-17 -18 -17 -43z" />
    <glyph glyph-name="ogonek" unicode="&#x2db;" horiz-adv-x="410" 
d="M291 -226q-25 -10 -51 -10q-24 0 -45 7t-37 20q-16 12 -25 31t-9 45q0 29 14 53q15 24 34 42t40 29t35 14h9q-33 -20 -55 -48q-23 -28 -23 -75q0 -48 21 -70q21 -23 60 -23q16 0 32 3v-18z" />
    <glyph glyph-name="tilde" unicode="&#x2dc;" horiz-adv-x="410" 
d="M49 569q7 11 16 25q8 14 19 28q12 13 29 23q16 9 40 9q14 0 36 -9q23 -9 49 -20q24 -12 48 -21t42 -9q11 0 20 5q8 5 14 12q8 8 13 16t10 14q5 -3 15 -10q-4 -8 -13 -23q-9 -14 -21 -29q-13 -15 -28 -26q-14 -10 -28 -10q-22 0 -47 9t-50 20q-25 12 -47 21t-39 9
q-11 0 -22 -5q-10 -5 -18 -12q-7 -7 -13 -15q-6 -7 -11 -11q-4 3 -14 9z" />
    <glyph glyph-name="hungarumlaut" unicode="&#x2dd;" horiz-adv-x="410" 
d="M50 549q47 32 187 129q6 -10 24 -38q-50 -27 -200 -110q-2 5 -11 19zM183 549q47 32 187 129q6 -10 24 -38q-50 -27 -199 -110q-3 5 -12 19z" />
    <glyph glyph-name="endash" unicode="&#x2013;" 
d="M45 262h460v-55h-460v55z" />
    <glyph glyph-name="emdash" unicode="&#x2014;" horiz-adv-x="1024" 
d="M41 262h942v-55h-942v55z" />
    <glyph glyph-name="quoteleft" unicode="&#x2018;" horiz-adv-x="265" 
d="M169 720q-9 -8 -23 -21q-13 -12 -25 -28q-12 -17 -21 -37q-9 -21 -9 -45q0 -15 4 -26t16 -11q7 0 9 6t4 13q3 9 10 15q7 7 25 7q15 0 28 -12t13 -35q0 -24 -18 -36q-17 -11 -43 -11q-29 0 -51 24t-22 70q0 25 10 48t24 41q15 18 30 32q15 13 26 21q4 -5 13 -15z" />
    <glyph glyph-name="quoteright" unicode="&#x2019;" horiz-adv-x="265" 
d="M96 514q9 8 23 21q13 12 25 28q13 17 21 37q9 21 9 45q0 14 -4 26q-4 11 -15 11q-8 0 -10 -7l-5 -15q-2 -7 -9 -13t-25 -6q-15 0 -28 12q-12 12 -12 35q0 24 17 35q17 12 43 12q30 0 52 -24t22 -70q0 -26 -11 -48q-10 -23 -24 -41t-30 -32q-15 -13 -25 -21q-5 5 -14 15z
" />
    <glyph glyph-name="quotesinglbase" unicode="&#x201a;" horiz-adv-x="265" 
d="M96 -141q9 8 23 20q13 12 25 29q13 16 21 37q9 20 9 45q0 14 -4 25q-4 12 -15 12q-8 0 -10 -7q-2 -6 -4 -14q-3 -8 -10 -14t-25 -6q-15 0 -28 11q-12 12 -12 36q0 23 17 35t43 12q30 0 52 -24t22 -70q0 -26 -11 -48q-10 -23 -24 -41q-14 -19 -30 -32q-15 -13 -25 -22
q-5 5 -14 16z" />
    <glyph glyph-name="quotedblleft" unicode="&#x201c;" horiz-adv-x="474" 
d="M384 720q-9 -8 -23 -21q-13 -12 -25 -28q-12 -17 -21 -37q-9 -21 -9 -45q0 -15 4 -26t16 -11q7 0 9 6t4 13q3 9 10 15q7 7 25 7q15 0 28 -12t13 -35q0 -24 -18 -36q-17 -11 -43 -11q-29 0 -51 24t-22 70q0 25 10 48t24 41q15 18 30 32q15 13 26 21q4 -5 13 -15zM181 720
q-9 -8 -22 -21q-14 -12 -26 -28q-12 -17 -21 -37q-9 -21 -9 -45q0 -15 5 -26q4 -11 15 -11q7 0 9 6t4 13q3 9 10 15q8 7 25 7q15 0 28 -12t13 -35q0 -24 -17 -36q-18 -11 -43 -11q-30 0 -52 24t-22 70q0 25 10 48t25 41q14 18 29 32q16 13 26 21q4 -5 13 -15z" />
    <glyph glyph-name="quotedblright" unicode="&#x201d;" horiz-adv-x="474" 
d="M109 514q9 8 22 21q13 12 26 28q12 17 21 37q8 21 8 45q0 14 -4 26q-4 11 -15 11q-7 0 -9 -7l-5 -15q-2 -7 -10 -13q-7 -6 -24 -6q-16 0 -28 12q-13 12 -13 35q0 24 17 35q18 12 43 12q30 0 52 -24t22 -70q0 -26 -10 -48q-11 -23 -25 -41t-30 -32q-15 -13 -25 -21
q-5 5 -13 15zM311 514q10 8 23 21q13 12 25 28q13 17 21 37q9 21 9 45q0 14 -4 26q-4 11 -15 11q-8 0 -10 -7l-5 -15q-2 -7 -9 -13t-24 -6q-16 0 -29 12q-12 12 -12 35q0 24 17 35q17 12 43 12q30 0 52 -24t22 -70q0 -26 -11 -48q-10 -23 -24 -41t-30 -32q-15 -13 -25 -21
q-5 5 -14 15z" />
    <glyph glyph-name="quotedblbase" unicode="&#x201e;" horiz-adv-x="474" 
d="M109 -139q9 8 22 20q13 13 26 29q12 16 21 37q8 20 8 45q0 14 -4 25q-4 12 -15 12q-7 0 -9 -6q-2 -7 -4 -15q-3 -8 -11 -14q-7 -6 -24 -6q-16 0 -28 11q-13 12 -13 36q0 23 17 35q18 12 43 12q30 0 52 -24t22 -70q0 -26 -10 -48q-11 -23 -25 -41q-14 -19 -30 -32
q-15 -13 -25 -22q-5 5 -13 16zM311 -139q10 8 23 20q13 13 25 29q13 16 21 37q9 20 9 45q0 14 -4 25q-4 12 -15 12q-8 0 -10 -6q-2 -7 -4 -15q-3 -8 -10 -14t-24 -6q-16 0 -29 11q-12 12 -12 36q0 23 17 35t43 12q30 0 52 -24t22 -70q0 -26 -11 -48q-10 -23 -24 -41
q-14 -19 -30 -32q-15 -13 -25 -22q-5 5 -14 16z" />
    <glyph glyph-name="dagger" unicode="&#x2020;" 
d="M263 -74q0 115 -11 196q-10 82 -28 131q15 31 22 56q8 25 11 46q3 23 4 44q0 22 2 46q-18 0 -42 -5t-49 -11q-24 -6 -45 -11q-22 -5 -34 -5q-21 0 -35 12q-13 12 -13 30q0 17 13 29q14 13 35 13q12 0 34 -5q21 -6 45 -12q25 -6 49 -11t42 -5q0 26 -5 61q-6 34 -12 66
t-12 56q-6 25 -6 31q0 27 12 42q11 15 34 15q24 0 35 -15q12 -15 12 -42q0 -6 -6 -31q-6 -24 -12 -56t-12 -66q-5 -35 -5 -61q18 0 42 5t48 11t46 12q21 5 34 5q21 0 34 -13q14 -12 14 -29q0 -18 -14 -30q-13 -12 -34 -12q-13 0 -34 5q-22 5 -46 11t-48 11t-42 5
q1 -24 2 -46q1 -21 4 -44q3 -21 11 -46q7 -25 22 -56q-18 -49 -29 -131q-10 -81 -10 -196v-72h-23v72z" />
    <glyph glyph-name="daggerdbl" unicode="&#x2021;" 
d="M274 -147q-23 0 -34 15q-12 15 -12 42q0 12 6 35q6 22 12 50t12 57q5 29 5 53q-18 0 -42 -5t-49 -11q-24 -6 -45 -11q-22 -5 -34 -5q-21 0 -35 12q-13 12 -13 30q0 17 13 29q14 13 35 13q12 0 34 -5q21 -6 45 -12q25 -6 49 -11t42 -5q0 56 -12 98t-27 72q15 30 27 72
t12 98q-18 0 -42 -5t-49 -12q-24 -6 -45 -11q-22 -5 -34 -5q-21 0 -35 12q-13 13 -13 30t13 30q14 12 35 12q12 0 34 -5q21 -5 45 -11q25 -6 49 -12q24 -5 42 -5q0 25 -5 54l-12 56t-12 51t-6 35q0 27 12 42q11 15 34 15q24 0 35 -15q12 -15 12 -42q0 -12 -6 -35t-12 -51
l-12 -56q-5 -29 -5 -54q18 0 42 5l48 12t46 11q21 5 34 5q21 0 34 -12q14 -13 14 -30t-14 -30q-13 -12 -34 -12q-13 0 -34 5q-22 5 -46 11q-24 7 -48 12t-42 5q0 -56 12 -98t27 -72q-15 -30 -27 -72t-12 -98q18 0 42 5t48 11t46 12q21 5 34 5q21 0 34 -13q14 -12 14 -29
q0 -18 -14 -30q-13 -12 -34 -12q-13 0 -34 5q-22 5 -46 11t-48 11t-42 5q0 -24 5 -53q6 -29 12 -57t12 -50q6 -23 6 -35q0 -27 -12 -42q-11 -15 -35 -15z" />
    <glyph glyph-name="bullet" unicode="&#x2022;" horiz-adv-x="512" 
d="M256 173q-39 0 -72 14q-33 15 -59 39q-26 26 -40 60q-14 33 -14 71t14 73q14 34 40 58q26 26 59 41t72 15q38 0 72 -15q33 -15 58 -41q26 -24 40 -58q15 -35 15 -73t-15 -71q-14 -34 -40 -60q-25 -24 -58 -39q-34 -14 -72 -14z" />
    <glyph glyph-name="ellipsis" unicode="&#x2026;" horiz-adv-x="1024" 
d="M512 -15q-20 0 -34 13q-13 13 -13 34q0 20 13 34q14 13 34 13t34 -13q13 -14 13 -34q0 -21 -13 -34q-14 -13 -34 -13zM853 -15q-20 0 -34 13q-13 13 -13 34q0 20 13 34q14 13 34 13t34 -13q13 -14 13 -34q0 -21 -13 -34q-14 -13 -34 -13zM171 -15q-20 0 -34 13
q-13 13 -13 34q0 20 13 34q14 13 34 13t34 -13q13 -14 13 -34q0 -21 -13 -34q-14 -13 -34 -13z" />
    <glyph glyph-name="perthousand" unicode="&#x2030;" horiz-adv-x="986" 
d="M486 6q25 0 38 12q14 13 20 34q6 22 7 52t1 66t-1 66t-7 52q-6 21 -20 34q-13 12 -38 12q-24 0 -37 -12q-14 -13 -20 -34q-6 -22 -7 -52t-1 -66t1 -66t7 -52q6 -21 20 -34q13 -12 37 -12zM486 -14q-28 0 -54 13q-25 14 -45 39q-18 24 -29 58t-11 74t11 74t29 58
q20 25 45 38q26 14 54 14q29 0 55 -14q25 -13 44 -38q19 -24 30 -58t11 -74t-11 -74t-30 -58q-19 -25 -44 -39q-26 -13 -55 -13zM106 520q0 -36 2 -66q1 -30 7 -52q6 -21 19 -33q13 -13 38 -13t38 13q13 12 19 33q7 22 8 52t1 66t-1 66t-8 52q-6 21 -19 34q-13 12 -38 12
t-38 -12q-13 -13 -19 -34q-6 -22 -7 -52q-2 -30 -2 -66zM172 336q-29 0 -54 14q-26 14 -45 38q-19 25 -29 58q-11 34 -11 74t11 74q10 34 29 58q19 25 45 39q25 14 54 14t54 -14q26 -14 44 -39q20 -24 31 -58q10 -34 10 -74t-10 -74q-11 -33 -31 -58q-18 -24 -44 -38
q-25 -14 -54 -14zM749 170q0 -36 1 -66t7 -52q6 -21 19 -34q14 -12 38 -12q25 0 38 12q13 13 19 34q7 22 8 52t1 66t-1 66t-8 52q-6 21 -19 34q-13 12 -38 12q-24 0 -38 -12q-13 -13 -19 -34q-6 -22 -7 -52t-1 -66zM814 -14q-29 0 -54 13q-26 14 -45 39q-19 24 -29 58
q-11 34 -11 74t11 74q10 34 29 58q19 25 45 38q25 14 54 14t54 -14q26 -13 44 -38q20 -24 31 -58q10 -34 10 -74t-10 -74q-11 -34 -31 -58q-18 -25 -44 -39q-25 -13 -54 -13zM546 705h37q-121 -180 -485 -719h-37q122 179 485 719z" />
    <glyph glyph-name="guilsinglleft" unicode="&#x2039;" horiz-adv-x="285" 
d="M54 225v19q46 46 182 184q4 -3 16 -13q-31 -45 -123 -179q31 -47 123 -186q-4 -2 -16 -10q-46 46 -182 185z" />
    <glyph glyph-name="guilsinglright" unicode="&#x203a;" horiz-adv-x="285" 
d="M33 53q30 45 123 179q-31 47 -123 186q4 2 16 10q45 -46 181 -185v-19q-45 -46 -181 -184q-4 3 -16 13z" />
    <glyph glyph-name="fraction" unicode="&#x2044;" horiz-adv-x="227" 
d="M248 709h37q-77 -182 -307 -727h-36q76 181 306 727z" />
    <glyph glyph-name="trademark" unicode="&#x2122;" horiz-adv-x="721" 
d="M98 433q14 1 23 2q10 1 17 5q7 5 11 15q4 9 4 26v216q-23 -4 -35 -10q-13 -6 -21 -16q-7 -11 -12 -25t-12 -34h-19q2 26 5 105h240q1 -26 5 -105h-18q-7 20 -13 34q-5 14 -13 25q-7 10 -19 16q-13 6 -35 10v-216q0 -17 2 -26q3 -9 8 -14q6 -4 15 -5q10 -2 24 -3v-17h-157
v17zM317 433q14 2 22 4q9 2 14 6q6 6 9 14q3 9 3 24v181q0 14 -1 21q-2 7 -6 10q-4 4 -10 5q-7 0 -18 1v18h102q14 -52 56 -206h2q17 51 65 206h111v-18q-13 -2 -21 -3t-13 -5t-7 -12t-2 -24v-174q0 -16 2 -25q2 -10 6 -15q4 -4 11 -5q7 -2 18 -3v-17h-126v17q9 2 15 4
q7 1 11 5q5 5 7 15q2 9 2 24v209h-2q-21 -68 -86 -274h-16q-19 66 -75 265h-2v-200q0 -15 2 -24q1 -10 4 -15q4 -4 10 -5q6 -2 14 -4v-17h-101v17z" />
    <glyph glyph-name="minus" unicode="&#x2212;" 
d="M65 371h419v-52h-419v52z" />
    <glyph glyph-name="fi" unicode="&#xfb01;" horiz-adv-x="588" 
d="M193 23h77v-23h-241v23h86v421h-100v23h100v28q0 42 13 85t39 76q27 35 66 57t92 22q33 0 62 -6q28 -7 48 -19q22 -13 33 -31q12 -19 12 -42t-12 -34q-11 -12 -30 -12q-14 0 -27 9q-13 8 -13 30q0 14 11 24q10 11 10 19q0 20 -26 30t-68 10q-22 0 -45 -10q-23 -9 -42 -28
q-20 -20 -33 -50q-12 -31 -12 -74v-84h215q22 0 47 3q25 2 40 5v-452h76v-23h-228v23h74v421h-224v-421z" />
    <glyph glyph-name="fl" unicode="&#xfb02;" horiz-adv-x="588" 
d="M416 594q-41 2 -41 40q1 10 4 17q3 6 6 11t6 9q2 5 2 12q0 14 -20 22q-21 8 -56 8q-48 0 -79 -38q-32 -38 -32 -124v-84h126v-23h-126v-421h78v-23h-246v23h90v421h-103v23h103v28q0 42 11 85t33 76q23 35 58 57q36 22 87 22q35 0 54 -6l38 -12q21 0 43 2l42 6v-702h76
v-23h-228v23h74v571z" />
  </font>
</defs>
</svg>
