<?xml version="1.0" standalone="no"?>
<!DOCTYPE svg PUBLIC "-//W3C//DTD SVG 1.1//EN" "http://www.w3.org/Graphics/SVG/1.1/DTD/svg11.dtd" >
<svg xmlns="http://www.w3.org/2000/svg" xmlns:xlink="http://www.w3.org/1999/xlink" version="1.1">
<metadata>
Created by FontForge 20170731 at Wed Nov 15 04:22:58 2017
 By Aleksey,,,
Copyright (c) 1990 Adobe Systems Incorporated.  All Rights Reserved.WTC Our Bodoni is a trademark of World Typeface Center, Incorporated.
</metadata>
<defs>
<font id="ATOurBodoni-LightItalic" horiz-adv-x="531" >
  <font-face 
    font-family="ATOurBodoni"
    font-weight="400"
    font-style="italic"
    font-stretch="normal"
    units-per-em="1024"
    panose-1="0 0 0 0 0 0 0 0 0 0"
    ascent="819"
    descent="-205"
    x-height="467"
    cap-height="717"
    bbox="-218 -268 969 936"
    underline-thickness="1"
    underline-position="-2"
    unicode-range="U+000D-FB02"
  />
<missing-glyph horiz-adv-x="543" 
d="M51 102h307v512h-307v-129v-383zM0 666h410v-615h-410v615z" />
    <glyph glyph-name=".notdef" horiz-adv-x="543" 
d="M51 102h307v512h-307v-129v-383zM0 666h410v-615h-410v615z" />
    <glyph glyph-name=".null" horiz-adv-x="0" 
 />
    <glyph glyph-name=".null" horiz-adv-x="0" 
 />
    <glyph glyph-name="nonmarkingreturn" unicode="&#xd;" horiz-adv-x="0" 
 />
    <glyph glyph-name="space" unicode=" " horiz-adv-x="285" 
 />
    <glyph glyph-name="exclam" unicode="!" horiz-adv-x="302" 
d="M114 229q2 16 11 66q10 50 20 120q3 18 7 40q3 22 5 50q3 29 4 64q2 36 2 82q0 37 17 61q17 23 37 23q27 0 37 -14q11 -13 11 -36q0 -32 -19 -80q-20 -48 -43 -115q-9 -27 -20 -65t-20 -76t-17 -70q-7 -33 -10 -50h-22zM84 -18q-21 0 -34 12q-13 13 -13 29q0 24 13 38
q13 15 34 15q20 0 34 -15q13 -14 13 -38q0 -16 -13 -29q-14 -12 -34 -12z" />
    <glyph glyph-name="quotedbl" unicode="&#x22;" horiz-adv-x="455" 
d="M303 615q-2 20 -5 39q-2 19 -2 38q0 22 11 32q11 11 32 11q43 0 43 -43q0 -19 -3 -38q-2 -19 -4 -39q-8 -65 -23 -195h-26q-6 49 -23 195zM152 615q-2 20 -5 39t-3 38q0 22 12 32q11 11 31 11q43 0 43 -43q0 -19 -2 -38q-3 -19 -5 -39q-7 -65 -22 -195h-27q-6 49 -22 195
z" />
    <glyph glyph-name="numbersign" unicode="#" horiz-adv-x="626" 
d="M229 370h-131q5 11 19 45h131q11 29 45 117h-132q5 12 19 46h131l44 112h27l-44 -112h111l44 112h26l-44 -112h128q-5 -12 -19 -46h-127q-12 -29 -45 -117h128q-5 -12 -19 -45h-128q-12 -32 -48 -125h-27q12 31 49 125h-111q-12 -32 -48 -125h-27q12 31 48 125zM274 415
h111q11 29 45 117h-111q-11 -29 -45 -117z" />
    <glyph glyph-name="dollar" unicode="$" 
d="M141 19q-19 7 -40 18q-20 11 -38 26q-17 17 -28 39t-11 50q0 29 16 48q17 19 47 19q17 0 30 -13q12 -13 12 -34q0 -19 -10 -28q-9 -9 -21 -13q-11 -4 -21 -8q-9 -3 -9 -12q0 -12 8 -22t19 -19q13 -9 26 -15q14 -7 25 -11q23 104 67 313q-18 9 -35 19q-17 11 -32 27
q-13 17 -21 40q-8 24 -8 58q0 43 17 74q17 32 41 55q26 22 54 36t52 19q6 31 19 93h23q-5 -22 -20 -90l18 2h17h15q6 -1 15 -2q6 30 19 90h23q-6 -23 -21 -94q12 -4 30 -12q17 -7 33 -21q16 -13 28 -33t12 -49q0 -8 -4 -18t-10 -19q-6 -8 -15 -13q-9 -6 -22 -6q-17 0 -31 13
q-15 13 -15 34q0 15 7 23t15 12q8 5 15 9q6 3 6 11q0 9 -6 16q-7 7 -16 12q-9 6 -19 10q-9 3 -13 4q-18 -87 -55 -262q21 -9 43 -22q21 -14 39 -33q17 -19 28 -48q11 -28 11 -67q0 -45 -20 -81q-19 -36 -49 -63q-29 -27 -64 -43q-34 -16 -65 -23q-8 -39 -25 -117h-22
q6 29 23 115q-8 -1 -17 -1q-9 -1 -18 -1t-15 1q-7 1 -15 2q-8 -39 -24 -116h-22q6 30 24 121zM274 658q-13 -4 -32 -12q-19 -9 -36 -23q-17 -15 -28 -36q-12 -22 -12 -50q0 -24 6 -40q5 -16 13 -27q10 -11 20 -18q11 -8 22 -14q16 74 47 220zM248 429q10 -5 30 -12t30 -11
l54 258q-7 2 -14 3q-8 1 -16 1q-19 0 -34 -4q-17 -79 -50 -235zM256 41q18 6 43 17t47 29q23 18 39 46q15 27 15 65q0 27 -8 46t-21 32q-13 15 -27 24q-15 9 -28 17zM168 38q15 -4 34 -4q16 0 31 3q21 96 61 290q-5 2 -13 5q-9 4 -18 7t-17 6q-8 2 -13 4q-21 -104 -65 -311z
" />
    <glyph glyph-name="percent" unicode="%" horiz-adv-x="645" 
d="M156 340q-29 0 -49 14t-33 35q-13 23 -19 50t-6 54q0 30 12 67q13 37 35 69q23 31 53 52t66 21q26 0 46 -11q21 -12 34 -33q14 -19 21 -45q8 -25 8 -54q0 -36 -13 -75t-37 -71q-22 -32 -53 -53q-31 -20 -65 -20zM111 431q0 -29 10 -50t40 -21q27 0 40 16q12 16 26 56
q10 26 16 54q7 28 11 54t6 48q2 21 2 35q0 29 -11 44q-10 15 -40 15q-31 0 -46 -21q-14 -21 -23 -51q-12 -47 -22 -92q-9 -46 -9 -87zM430 -14q-29 0 -49 13q-20 14 -33 36q-12 22 -18 49q-6 28 -6 54q0 31 12 68t35 68q22 32 52 53q31 21 66 21q26 0 47 -12q20 -11 33 -32
q15 -19 22 -45t7 -54q0 -36 -13 -75t-36 -72q-23 -31 -53 -52q-31 -20 -66 -20zM385 77q0 -29 10 -50q11 -21 40 -21q28 0 40 16t27 56q9 25 16 54q6 28 10 53q4 27 7 48q2 22 2 35q0 30 -11 45t-41 15t-45 -21t-23 -51q-13 -47 -22 -93q-10 -45 -10 -86zM530 702h33
q-111 -179 -446 -716h-33q112 179 446 716z" />
    <glyph glyph-name="ampersand" unicode="&#x26;" horiz-adv-x="759" 
d="M712 95q-12 -14 -27 -34q-16 -19 -39 -37q-21 -18 -50 -30q-28 -12 -62 -12q-30 0 -53 10q-22 10 -40 24q-17 15 -30 31q-13 15 -22 28q-14 -14 -31 -30t-40 -31q-22 -13 -51 -23q-29 -9 -67 -9q-36 0 -71 12q-36 13 -63 38q-28 24 -46 60q-17 36 -17 82q0 60 29 105
q28 44 67 73q40 31 82 49q41 19 67 27q-3 14 -6 25l-4 20q-1 11 -2 27v41q0 28 11 63q12 34 36 63q23 29 58 49q35 19 81 19q63 0 100 -35t37 -86q0 -30 -14 -55t-36 -46q-22 -19 -48 -35q-27 -15 -52 -26q-26 -11 -47 -17q-21 -7 -32 -9q5 -25 15 -57q9 -33 23 -69
q13 -36 30 -72q17 -35 35 -67q14 16 28 39t26 48q14 24 24 46t18 37q12 20 24 39q13 19 29 33q15 15 33 23q19 9 40 9q35 0 55 -19t20 -47q0 -20 -13 -33q-14 -13 -33 -13q-22 0 -34 11t-12 30q0 6 3 12q3 7 3 12t-5 8q-5 2 -12 2q-15 0 -25 -6q-10 -7 -24 -27
q-12 -17 -28 -49t-35 -68q-17 -35 -35 -66q-18 -30 -33 -43q7 -11 20 -29t31 -35t40 -28q22 -12 45 -12q19 0 37 9q17 8 31 19q16 12 27 24t18 21q5 -5 16 -13zM95 220q0 -39 9 -75q10 -36 27 -65q19 -28 45 -45q27 -17 63 -17q24 0 45 8q20 8 37 19t30 25q13 13 23 24
q-40 66 -71 147q-31 82 -51 166q-24 -10 -51 -24t-50 -36q-24 -21 -40 -52t-16 -75zM309 599q0 -24 1 -43q1 -20 3 -38l6 -34q4 -17 9 -35q30 6 59 22q28 16 49 40q23 24 36 52t13 57q0 42 -17 67q-16 26 -59 26q-51 0 -75 -34q-25 -33 -25 -80z" />
    <glyph glyph-name="quotesingle" unicode="'" horiz-adv-x="265" 
d="M141 615q-2 20 -4 39q-3 19 -3 38q0 22 11 32q12 11 32 11q43 0 43 -43q0 -19 -2 -38q-3 -19 -5 -39q-8 -65 -23 -195h-26q-6 49 -23 195z" />
    <glyph glyph-name="parenleft" unicode="(" horiz-adv-x="265" 
d="M135 -143q-15 21 -34 56t-35 82q-17 46 -28 102t-11 119q0 95 28 178t71 150q43 66 93 115t94 76q5 -5 14 -15q-33 -27 -79 -71t-89 -106q-42 -63 -72 -144q-30 -82 -30 -183q0 -63 10 -117q9 -53 22 -97q14 -43 31 -76q16 -34 31 -56q-6 -4 -16 -13z" />
    <glyph glyph-name="parenright" unicode=")" horiz-adv-x="265" 
d="M-88 -128q33 27 79 71t88 106q43 63 73 144q29 81 29 183q0 62 -9 116t-24 97q-13 44 -29 77q-17 33 -31 56q5 4 15 13q16 -21 35 -56t35 -82q16 -46 28 -102q11 -57 11 -119q0 -95 -28 -178t-71 -150q-43 -66 -94 -115q-50 -49 -94 -76q-4 5 -13 15z" />
    <glyph glyph-name="asterisk" unicode="*" horiz-adv-x="550" 
d="M295 426q-31 0 -31 34q0 23 9 43t12 45q1 5 1 15q-13 -8 -24 -20q-12 -13 -24 -24t-23 -20q-12 -9 -26 -9q-13 0 -21 7q-7 7 -7 18q0 13 9 23q9 9 21 15q14 6 29 10q14 4 27 7q8 2 15 4l14 7q-8 4 -14 6q-7 2 -15 4q-13 3 -27 7q-15 4 -29 10q-12 6 -21 15t-9 23
q0 11 7 18q8 7 21 7q14 0 26 -9q11 -9 23 -20t24 -24q11 -13 24 -20q0 10 -1 15q-3 25 -12 45t-9 43q0 34 31 34t31 -34q0 -23 -9 -43t-12 -45q-1 -5 -1 -15q12 7 24 20t23 24t24 20q12 9 25 9q14 0 21 -7q8 -7 8 -18q0 -14 -9 -23t-23 -15q-12 -6 -27 -10t-27 -7
q-8 -2 -15 -4q-6 -2 -15 -6q9 -4 15 -7q7 -2 15 -4q12 -3 27 -7t27 -10q14 -6 23 -15q9 -10 9 -23q0 -11 -8 -18q-7 -7 -21 -7q-13 0 -25 9q-13 9 -24 20t-23 24q-12 12 -24 20q0 -10 1 -15q3 -25 12 -45t9 -43q0 -34 -31 -34z" />
    <glyph glyph-name="plus" unicode="+" horiz-adv-x="550" 
d="M254 319h-184v52h184v196h51v-196h184v-52h-184v-196h-51v196z" />
    <glyph glyph-name="comma" unicode="," horiz-adv-x="285" 
d="M-2 -139q19 9 41 24q21 16 39 34q17 18 29 37t12 38q0 11 -1 17t-9 6q-4 0 -6 -5t-6 -10q-5 -6 -11 -11q-7 -5 -21 -5q-18 0 -29 12q-11 13 -11 29q0 21 14 35t41 14q30 0 45 -23q16 -23 16 -51q0 -32 -15 -58t-38 -45q-21 -20 -44 -34q-24 -13 -39 -21q-2 6 -7 17z" />
    <glyph glyph-name="hyphen" unicode="-" horiz-adv-x="341" 
d="M34 265h252q-5 -16 -18 -63h-252q5 16 18 63z" />
    <glyph glyph-name="period" unicode="." horiz-adv-x="285" 
d="M104 -18q-20 0 -33 12q-14 13 -14 29q0 24 14 38q13 15 33 15q21 0 34 -15q14 -14 14 -38q0 -16 -14 -29q-13 -12 -34 -12z" />
    <glyph glyph-name="slash" unicode="/" horiz-adv-x="512" 
d="M456 735h32q-108 -188 -432 -753h-32q108 188 432 753z" />
    <glyph glyph-name="zero" unicode="0" 
d="M199 -18q-45 0 -77 22t-52 57q-21 36 -30 82t-9 95q0 45 9 97q10 52 29 104q19 54 46 102q26 48 59 85q34 38 74 60q41 23 86 23t77 -22q32 -21 52 -57t30 -82q9 -46 9 -95q0 -45 -10 -98q-10 -52 -29 -105q-19 -52 -45 -100q-27 -49 -61 -87q-32 -36 -73 -59
q-40 -22 -85 -22zM104 108q0 -46 24 -75t76 -29q21 0 40 7q19 6 37 24q17 17 33 46q16 30 30 76q20 61 35 127q16 65 27 124t16 105q6 46 6 70q0 45 -21 74q-22 29 -76 29q-21 0 -39 -5q-19 -5 -35 -18q-16 -14 -31 -36q-14 -23 -26 -58q-26 -73 -44 -145t-30 -134
q-11 -62 -16 -110q-6 -48 -6 -72z" />
    <glyph glyph-name="one" unicode="1" 
d="M52 23h107q32 146 128 586q2 13 4 23q2 11 2 19q0 12 -13 14q-14 3 -27 3h-77q1 5 4 22h52q36 0 80 4q43 3 77 8q-49 -226 -148 -679h120q-1 -6 -5 -23h-310q2 6 6 23z" />
    <glyph glyph-name="two" unicode="2" 
d="M-4 58q13 13 48 39q35 27 79 64t92 81q47 45 86 94q40 49 66 100q25 50 25 100q0 64 -35 104t-102 40q-25 0 -47 -8t-39 -22q-17 -12 -28 -27q-10 -16 -10 -29q0 -11 11 -15t23 -8t23 -13t11 -32q0 -20 -13 -32q-13 -13 -34 -13q-32 0 -46 24q-14 23 -14 56q0 28 15 54
q15 27 41 48q28 20 65 33t82 13q33 0 65 -12q32 -11 57 -33t41 -54q16 -31 16 -71q0 -31 -7 -57t-22 -52q-14 -26 -36 -52q-23 -27 -55 -59q-87 -79 -164 -139q-77 -59 -139 -102v-2h275q21 0 34 2t20 9q8 7 14 21q5 13 12 35q2 9 7 26h22q-10 -42 -39 -169h-410q2 15 10 58
z" />
    <glyph glyph-name="three" unicode="3" 
d="M177 -18q-76 0 -120 36q-45 37 -45 94q0 21 15 42q15 20 44 20q23 0 35 -13q13 -14 13 -31q0 -20 -10 -29q-11 -9 -23 -14q-12 -4 -23 -7q-10 -3 -10 -11q0 -10 9 -21t24 -21q16 -10 38 -16q22 -7 48 -7q48 0 81 23q33 22 52 56q21 35 29 77q9 42 9 81q0 59 -31 93
q-30 34 -85 34q-20 0 -36 -2q-15 -2 -31 -2q-20 0 -20 12q0 10 6 13t18 3q13 0 29 -2q15 -2 37 -2q39 0 67 19q29 19 46 48q18 29 27 64t9 68q0 48 -31 73q-31 26 -80 26q-14 0 -29 -3t-27 -9q-12 -5 -20 -12q-8 -8 -8 -16q0 -7 6 -12q6 -4 13 -10t13 -13q5 -8 5 -22
q0 -21 -12 -32q-12 -12 -34 -12q-27 0 -37 17q-11 18 -11 44q0 21 11 40q12 19 31 32q20 14 48 22q28 9 61 9q40 0 74 -11t58 -30q24 -20 37 -47q14 -28 14 -62q0 -41 -21 -73q-20 -31 -49 -55q-27 -22 -56 -36t-45 -17v-2q25 -7 52 -18q26 -10 47 -28q22 -19 35 -48
q13 -30 13 -76q0 -43 -20 -84q-20 -40 -56 -72q-34 -31 -82 -49q-48 -19 -102 -19z" />
    <glyph glyph-name="four" unicode="4" 
d="M134 23h94q10 43 37 173h-281q1 4 4 18q41 53 95 118t112 131t116 128t106 109h40q-26 -120 -105 -482h101q4 19 17 75h20q-9 -46 -39 -183h-21q5 21 19 86h-102q-9 -44 -37 -173h93q-1 -6 -4 -23h-271q2 6 6 23zM352 597q0 1 -2 2q-16 -17 -43 -48q-26 -30 -58 -67
q-32 -35 -66 -75q-35 -40 -66 -77t-57 -67q-25 -31 -38 -47h248q21 95 82 379z" />
    <glyph glyph-name="five" unicode="5" 
d="M132 380q7 4 19 11q12 6 27 12q17 8 37 12q19 5 43 5q47 0 84 -16q36 -15 60 -40q25 -25 37 -58q13 -34 13 -69q0 -49 -21 -95q-20 -46 -57 -82q-36 -35 -84 -57q-48 -21 -104 -21q-40 0 -71 10q-31 11 -53 28q-20 19 -31 41q-11 23 -11 47q0 26 16 46q15 19 43 19
q24 0 36 -14t12 -33q0 -16 -10 -25q-9 -8 -22 -13q-12 -5 -22 -9t-10 -12q0 -10 10 -21q9 -11 24 -20q16 -10 37 -16t45 -6q50 0 85 25q34 25 55 63q22 38 31 81t9 80q0 27 -6 52q-7 25 -22 43q-15 20 -39 31q-25 12 -60 12q-18 0 -35 -4q-17 -5 -32 -12q-14 -7 -27 -15
q-12 -7 -20 -12h-19q18 70 71 278q4 17 7 29q3 13 7 20q5 8 15 12q9 3 25 3h194q17 0 28 1t18 4t12 9t11 15h17q-5 -18 -15 -39t-23 -37q-7 -9 -13 -15q-6 -5 -16 -8q-10 -4 -27 -5q-18 -1 -49 -1h-168q-16 -58 -61 -234z" />
    <glyph glyph-name="six" unicode="6" 
d="M504 699q-70 -20 -124 -50q-54 -31 -95 -69q-40 -38 -69 -84q-30 -46 -48 -99q1 0 2 -2q8 6 23 16q14 10 32 20q20 10 42 18q23 7 46 7q40 0 70 -17q31 -17 50 -46q21 -27 30 -65q10 -38 10 -80q0 -37 -18 -84q-19 -46 -53 -87q-32 -40 -78 -68q-46 -27 -103 -27
q-52 0 -88 20q-36 21 -59 54q-23 35 -33 79t-10 90q0 69 21 130q22 61 58 112q35 52 83 94t100 74t105 52q54 21 102 30q1 -6 4 -18zM113 128q0 -55 27 -90q28 -34 85 -34q35 0 61 20t45 51q18 31 30 69t18 74q7 37 10 67q2 30 2 47q0 47 -20 71q-21 24 -74 24q-22 0 -43 -8
q-22 -8 -40 -20q-18 -11 -33 -23t-24 -21q-5 -16 -13 -41t-15 -56t-12 -64q-4 -34 -4 -66z" />
    <glyph glyph-name="seven" unicode="7" 
d="M522 658q-8 -12 -31 -45t-52 -78q-28 -46 -60 -97t-58 -99q-27 -48 -44 -89t-17 -64q0 -22 2 -38q1 -15 2 -29l4 -28q1 -14 1 -34q0 -13 -2 -27q-3 -14 -10 -25q-6 -10 -17 -17q-11 -6 -27 -6q-14 0 -24 6q-9 6 -14 16q-5 11 -7 25q-1 14 -1 28q0 32 15 75q16 43 36 85
q21 42 41 77q21 36 32 53q55 89 166 267h-253q-34 0 -48 -12q-15 -12 -28 -43q-5 -12 -15 -37h-24q19 42 74 168h359v-32z" />
    <glyph glyph-name="eight" unicode="8" 
d="M177 472q0 -46 28 -75q28 -28 81 -28q41 0 67 21q26 22 41 53q16 32 21 68q6 37 6 66q0 57 -29 83q-28 26 -81 26q-42 0 -68 -22t-41 -55q-15 -31 -20 -69q-5 -37 -5 -68zM100 126q0 -122 132 -122q47 0 75 26q28 25 42 61q16 36 21 74q5 39 5 64q0 58 -32 87
q-33 30 -89 30q-46 0 -76 -23t-47 -57q-17 -33 -24 -71t-7 -69zM223 -18q-47 0 -86 13t-66 38q-28 24 -43 59q-16 34 -16 76q0 49 20 84q19 35 50 57q31 24 69 37q37 12 74 15v3q-19 5 -42 14q-22 10 -42 28q-19 17 -32 44q-14 27 -14 68q0 40 17 75t47 60q30 26 71 41
t89 15q37 0 70 -13q33 -12 58 -34q26 -23 41 -55t15 -71q0 -42 -18 -73q-17 -31 -45 -53q-26 -22 -58 -35q-32 -14 -60 -20v-2q23 -7 48 -19t46 -34q20 -20 34 -51q13 -31 13 -74q0 -41 -19 -76q-19 -36 -52 -62t-76 -41q-44 -14 -93 -14z" />
    <glyph glyph-name="nine" unicode="9" 
d="M25 -9q69 19 123 50q55 31 95 69q41 38 70 85q29 46 47 98q0 1 -2 2q-8 -6 -22 -16t-34 -20q-18 -10 -41 -17q-22 -8 -46 -8q-40 0 -70 17t-51 45q-19 29 -29 66q-10 38 -10 80q0 37 19 84q18 46 51 86q34 41 80 69t102 28q52 0 88 -21q36 -20 59 -55q23 -34 33 -78
q11 -44 11 -90q0 -69 -22 -130q-21 -61 -57 -113q-36 -51 -84 -93q-47 -42 -99 -74q-53 -31 -106 -52q-53 -20 -101 -30q-2 6 -4 18zM137 358q0 -47 21 -71q20 -24 73 -24q22 0 43 8q22 9 40 20q19 11 34 23q14 13 24 21q5 16 13 41q7 25 13 56q8 31 13 64t5 66q0 55 -28 90
q-28 34 -85 34q-35 0 -61 -20t-44 -52q-19 -30 -31 -68q-11 -38 -19 -75q-6 -36 -8 -67q-3 -30 -3 -46z" />
    <glyph glyph-name="colon" unicode=":" horiz-adv-x="285" 
d="M66 -18q-21 0 -34 12q-14 13 -14 29q0 24 14 38q13 15 34 15q20 0 33 -15q14 -14 14 -38q0 -16 -14 -29q-13 -12 -33 -12zM146 315q-20 0 -33 13q-14 13 -14 28q0 25 14 39q13 15 33 15q21 0 34 -15q14 -14 14 -39q0 -15 -14 -28q-13 -13 -34 -13z" />
    <glyph glyph-name="semicolon" unicode=";" horiz-adv-x="285" 
d="M-10 -139q19 9 41 24q21 16 39 34q17 18 29 37t12 38q0 11 -1 17t-10 6q-3 0 -5 -5t-6 -10q-5 -6 -12 -11q-6 -5 -21 -5q-17 0 -28 12q-12 13 -12 29q0 21 15 35q14 14 41 14q29 0 45 -23t16 -51q0 -32 -15 -58q-16 -26 -38 -45q-22 -20 -45 -34q-23 -13 -38 -21
q-2 6 -7 17zM150 315q-21 0 -34 13q-14 13 -14 28q0 25 14 39q13 15 34 15q20 0 33 -15q14 -14 14 -39q0 -15 -14 -28q-13 -13 -33 -13z" />
    <glyph glyph-name="less" unicode="&#x3c;" horiz-adv-x="550" 
d="M430 131q-92 54 -369 214q93 54 369 214v-55q-70 -40 -280 -159q70 -40 280 -159v-55z" />
    <glyph glyph-name="equal" unicode="=" horiz-adv-x="550" 
d="M70 301h419v-51h-419v51zM70 440h419v-51h-419v51z" />
    <glyph glyph-name="greater" unicode="&#x3e;" horiz-adv-x="550" 
d="M111 131v55q70 40 280 159q-70 40 -280 159v55q92 -53 368 -214q-92 -53 -368 -214z" />
    <glyph glyph-name="question" unicode="?" horiz-adv-x="397" 
d="M102 229q0 14 1 38q1 25 9 52q7 29 22 57q16 28 44 50q26 20 56 37t55 37q25 19 42 43t17 59q0 15 -8 34q-7 19 -24 36q-16 17 -41 29q-24 12 -59 12q-16 0 -33 -4q-16 -4 -30 -13q-14 -7 -22 -18q-9 -10 -9 -23q0 -9 8 -12q8 -4 17 -7q11 -3 19 -9q8 -5 8 -21t-10 -29
q-10 -14 -31 -14q-31 0 -43 18q-13 18 -13 42q0 47 39 79q40 33 108 33q36 0 67 -13t52 -37q23 -22 35 -54q13 -31 13 -66q0 -36 -12 -63q-12 -28 -33 -50q-19 -22 -45 -39q-26 -18 -52 -33t-51 -31q-25 -15 -43 -32q-12 -10 -18 -22t-9 -25q-2 -11 -3 -22q0 -10 -1 -19h-22
zM84 -18q-21 0 -34 12q-13 13 -13 29q0 24 13 38q13 15 34 15q20 0 34 -15q13 -14 13 -38q0 -16 -13 -29q-14 -12 -34 -12z" />
    <glyph glyph-name="at" unicode="@" horiz-adv-x="888" 
d="M639 -66q-8 -5 -27 -15t-47 -20q-27 -11 -64 -18q-36 -8 -80 -8q-85 0 -153 30q-67 29 -114 80q-48 50 -73 115q-26 66 -26 136q0 80 33 149t88 118q56 50 130 79q73 28 154 28q80 0 148 -24q68 -25 117 -69q50 -43 78 -102q28 -60 28 -128q0 -66 -24 -118
q-25 -51 -63 -87q-36 -35 -82 -54t-88 -19q-21 0 -35 9q-15 9 -24 21t-13 26q-4 15 -4 27q-9 -9 -20 -22q-12 -14 -28 -26q-17 -12 -37 -21q-21 -9 -45 -9q-30 0 -55 13q-24 13 -43 34q-18 22 -28 51q-11 28 -11 61q0 52 23 103q22 51 57 91q36 39 80 64q43 25 85 25
q26 0 43 -7q18 -6 29 -15q12 -9 20 -20q7 -12 13 -22q4 17 13 51h65q-18 -72 -74 -287q-5 -19 -10 -41q-4 -22 -4 -33q0 -9 7 -23q7 -13 25 -13q33 0 69 17q36 18 65 50q31 32 50 77q20 45 20 101q0 58 -26 112q-25 54 -71 95t-111 65q-65 25 -143 25q-75 0 -143 -28
q-68 -29 -120 -77t-82 -111q-31 -64 -31 -136q0 -69 25 -131t70 -108t108 -73q63 -26 139 -26q41 0 76 7q34 7 61 17q27 9 45 19q19 9 26 13zM305 115q0 -35 14 -58q15 -22 54 -22q28 0 54 15q26 16 46 42q21 27 36 64q15 38 26 83q14 45 21 74t7 46q0 27 -23 50
q-24 22 -64 22q-35 0 -60 -22q-26 -22 -45 -56q-19 -32 -32 -72q-12 -39 -21 -74q-7 -35 -10 -61t-3 -31z" />
    <glyph glyph-name="A" unicode="A" horiz-adv-x="588" 
d="M-93 23h65l508 704h21q-16 -176 -63 -704h88q-1 -6 -4 -23h-273q1 6 4 23h97q6 51 22 205h-219q-37 -51 -148 -205h100q-1 -6 -5 -23h-199q1 6 6 23zM170 251h204q8 81 33 326q-1 0 -3 2q-58 -82 -234 -328z" />
    <glyph glyph-name="B" unicode="B" horiz-adv-x="569" 
d="M210 385h47q55 0 94 10q38 9 63 33q24 24 36 63q11 39 11 100q0 39 -14 60q-13 21 -33 30q-21 10 -46 12q-25 1 -47 1h-43q-17 -77 -68 -309zM132 23h75q46 0 85 8q40 9 68 34q29 24 46 69q16 44 16 116q-1 42 -16 65t-38 33q-24 11 -53 13q-29 1 -57 1h-53
q-18 -84 -73 -339zM-48 23h92q36 167 145 671h-92q1 6 4 23h225q36 0 76 -6t72 -24q33 -16 54 -46q21 -31 21 -78q0 -51 -21 -85q-21 -35 -52 -56q-30 -22 -64 -32q-35 -10 -63 -14v-2q21 -3 49 -13q29 -10 55 -29q25 -20 43 -51t18 -75q-5 -77 -40 -119t-84 -61
q-48 -20 -101 -23t-95 -3h-247q1 6 5 23z" />
    <glyph glyph-name="C" unicode="C" horiz-adv-x="588" 
d="M450 47q-11 -9 -25 -20t-34 -21q-19 -10 -44 -17q-25 -6 -56 -6q-61 0 -108 23q-48 23 -81 63q-31 41 -48 95q-17 55 -17 119q0 84 33 164q33 81 86 145t118 104q66 39 132 39q31 0 54 -8q22 -8 37 -19q15 -12 24 -23q8 -11 14 -18q11 13 35 40h18q-11 -50 -45 -200h-22
q2 17 4 33t2 33q0 30 -6 56q-7 25 -22 44q-15 18 -38 29t-55 11q-53 0 -94 -28q-41 -29 -71 -74q-31 -44 -53 -100q-21 -56 -34 -113q-13 -56 -19 -108q-6 -51 -6 -86q0 -25 7 -59q7 -33 26 -65q18 -31 49 -53q32 -22 79 -22q55 0 95 25t66 59t41 68q14 34 20 52h20
q-11 -52 -46 -209h-14q-6 12 -22 47z" />
    <glyph glyph-name="D" unicode="D" horiz-adv-x="664" 
d="M132 23h68q49 0 89 6q41 7 73 23q33 18 58 46q25 29 44 74q16 39 29 82q13 44 22 88q9 45 14 88q6 42 6 79q0 52 -15 88t-41 57q-25 22 -60 31q-34 9 -72 9h-69q-37 -168 -146 -671zM-48 23h92q36 167 145 671h-93q2 6 5 23h224q60 0 115 -14q55 -13 96 -46
q42 -31 66 -85q25 -53 25 -133q0 -55 -11 -102t-27 -86q-16 -38 -34 -67t-33 -49q-59 -77 -137 -106q-79 -29 -182 -29h-256q1 6 5 23z" />
    <glyph glyph-name="E" unicode="E" horiz-adv-x="569" 
d="M-56 23h92q36 167 145 671h-92q1 6 4 23h480q-9 -47 -35 -187h-21l4 26q1 12 1 25q0 41 -12 64q-11 23 -32 33q-19 11 -46 14q-26 2 -56 2h-107q-17 -78 -67 -311h38q40 0 61 9q22 8 33 24q12 16 18 40t16 55h19q-16 -72 -63 -290h-20q3 16 7 36q4 19 4 45q0 20 -6 31
q-6 12 -16 18q-9 6 -23 8q-13 1 -27 1h-46q-19 -84 -73 -337h124q64 0 106 16q41 17 67 45q25 29 39 64q14 36 24 74h21q-12 -55 -47 -222h-519q1 6 5 23z" />
    <glyph glyph-name="F" unicode="F" horiz-adv-x="550" 
d="M190 694h-92q1 6 4 23h490q-9 -52 -36 -209h-22q2 16 4 36q3 19 3 37q0 41 -13 64t-34 33q-22 11 -50 14q-28 2 -60 2h-105q-18 -78 -69 -311h58q46 0 72 9q26 8 40 24t21 40q8 24 18 55h19q-16 -72 -63 -290h-20q3 16 7 36q5 19 5 45q0 20 -8 31q-8 12 -21 18t-30 8
q-17 1 -37 1h-66q-18 -84 -70 -337h103q-1 -6 -5 -23h-283q1 6 5 23h92q36 167 143 671z" />
    <glyph glyph-name="G" unicode="G" horiz-adv-x="645" 
d="M554 508h-18q1 11 2 20q1 10 1 18q0 21 -3 50q-4 29 -16 54q-12 27 -37 45t-69 18q-48 0 -88 -26q-40 -27 -72 -69q-32 -41 -55 -95q-24 -53 -40 -108q-16 -56 -23 -107q-8 -52 -8 -90q0 -46 9 -85q8 -40 28 -68q19 -28 50 -45q31 -16 75 -16q43 0 72 16q30 16 49 39
q19 25 30 54t16 56q6 28 7 49q2 22 4 30h-120q1 5 4 22h291q-1 -5 -4 -22h-79q-2 -17 -8 -43q-6 -27 -20 -57q-13 -29 -33 -59q-21 -30 -52 -54q-29 -24 -70 -39q-41 -14 -93 -14q-60 0 -106 23q-46 24 -78 65q-31 42 -48 97q-16 55 -16 119q0 48 14 100q13 52 38 101
q26 51 61 96t77 79q43 33 91 53q49 20 101 20q29 0 51 -7q21 -7 36 -18t25 -23t18 -21l42 48q3 -1 14 -2q-12 -51 -50 -204z" />
    <glyph glyph-name="H" unicode="H" horiz-adv-x="701" 
d="M135 23h92q-1 -6 -4 -23h-273q1 6 5 23h92q36 167 146 671h-93q1 6 4 23h274q-1 -6 -5 -23h-92q-18 -78 -69 -312h286l68 312h-92q1 6 4 23h274q-2 -6 -6 -23h-92q-36 -168 -145 -671h92q-1 -6 -4 -23h-273q1 6 5 23h92q18 84 73 336h-286q-18 -84 -73 -336z" />
    <glyph glyph-name="I" unicode="I" horiz-adv-x="341" 
d="M-43 23h92q37 167 146 671h-93q1 6 4 23h274q-1 -6 -5 -23h-92q-37 -168 -146 -671h92q-1 -6 -4 -23h-273q1 6 5 23z" />
    <glyph glyph-name="J" unicode="J" horiz-adv-x="379" 
d="M152 694q1 6 4 23h273q-1 -6 -5 -23h-92q-30 -139 -120 -557q-5 -23 -17 -61t-35 -75q-23 -36 -58 -62q-34 -27 -86 -27q-46 0 -72 23q-27 24 -27 57q0 25 12 41q13 16 38 16q21 0 31 -12q11 -11 11 -31q0 -12 -3 -20q-4 -8 -8 -13q-4 -6 -8 -11q-3 -5 -3 -11
q0 -11 10 -14t20 -3q28 0 46 24q19 23 30 54q12 33 19 67q7 35 12 58q40 186 120 557h-92z" />
    <glyph glyph-name="K" unicode="K" horiz-adv-x="664" 
d="M329 23h97q-52 90 -209 360q80 78 322 311h-101q2 6 5 23h217q-1 -6 -5 -23h-80q-70 -69 -282 -275q58 -99 231 -396h76q-1 -6 -4 -23h-271q1 6 4 23zM-59 23h92q36 167 145 671h-92q1 6 4 23h274q-2 -6 -6 -23h-92q-36 -168 -145 -671h92q-1 -6 -4 -23h-274q2 6 6 23z
" />
    <glyph glyph-name="L" unicode="L" 
d="M-43 23h92q35 167 141 671h-92q1 6 4 23h274q-1 -6 -5 -23h-92q-36 -168 -142 -671h101q64 0 106 16q41 17 67 45q25 29 39 64q14 36 24 74h21q-12 -55 -48 -222h-495q1 6 5 23z" />
    <glyph glyph-name="M" unicode="M" horiz-adv-x="777" 
d="M-53 23h91q36 167 145 671h-96q1 6 5 23h195q10 -142 42 -565h2q72 141 291 565h197q-1 -6 -5 -23h-92q-36 -168 -145 -671h93q-1 -6 -4 -23h-268q2 6 5 23h85q37 163 145 655q-1 0 -2 2q-87 -170 -346 -680h-23q-14 170 -55 680h-2q-35 -164 -140 -657h97q-1 -6 -5 -23
h-214q1 6 4 23z" />
    <glyph glyph-name="N" unicode="N" horiz-adv-x="664" 
d="M-50 23h96q36 167 142 671h-98q1 6 5 23h200q47 -137 189 -546h2q28 131 110 523h-91q1 6 4 23h202q-1 -6 -4 -23h-84q-38 -173 -149 -694h-20q-61 170 -241 680h-2q-35 -164 -138 -657h98q-1 -6 -5 -23h-221q1 6 5 23z" />
    <glyph glyph-name="O" unicode="O" horiz-adv-x="645" 
d="M269 -17q-61 0 -105 23t-73 63q-29 41 -42 95q-13 55 -13 119q0 49 13 101t36 102q24 51 56 96t69 78q38 35 80 55t85 20q61 0 105 -23t73 -64q29 -40 42 -95q13 -54 13 -119q0 -48 -13 -101q-13 -52 -37 -103q-22 -50 -55 -95q-32 -45 -70 -79q-37 -33 -79 -53t-85 -20z
M128 194q0 -38 6 -73q6 -34 22 -60q15 -25 42 -41q26 -15 67 -15q59 0 96 39q38 38 74 120q22 50 37 106q15 57 25 107q10 51 14 90q5 39 5 56q0 38 -6 73t-22 60q-15 26 -42 41q-26 16 -67 16q-46 0 -89 -33t-73 -99q-24 -56 -41 -116q-17 -61 -29 -116q-10 -54 -14 -96
q-5 -42 -5 -59z" />
    <glyph glyph-name="P" unicode="P" horiz-adv-x="569" 
d="M209 357h63q54 0 93 12q39 11 65 38q27 26 40 70q12 43 12 108q0 39 -12 61t-33 32q-19 11 -44 14q-24 2 -49 2h-61q-19 -84 -74 -337zM-43 23h92q37 167 146 671h-93q1 6 4 23h244q32 0 71 -5q39 -4 73 -21q34 -16 57 -47q23 -32 23 -84q0 -68 -29 -113q-29 -44 -74 -69
q-44 -25 -97 -34q-52 -9 -100 -9h-70q-17 -78 -67 -312h92q-1 -6 -4 -23h-273q1 6 5 23z" />
    <glyph glyph-name="Q" unicode="Q" horiz-adv-x="645" 
d="M442 -248q-58 0 -103 10q-44 10 -75 33q-31 24 -46 62q-15 39 -15 97q0 8 1 17q1 10 2 18q-37 9 -68 34q-30 24 -54 62q-23 38 -35 88q-13 49 -13 110q0 49 13 101t36 102q24 51 56 96t69 78q38 35 80 55t85 20q61 0 105 -23t73 -64q29 -40 42 -95q13 -54 13 -119
q0 -49 -13 -101t-37 -103q-22 -49 -53 -94q-30 -45 -65 -79q-33 -32 -69 -53q-36 -20 -70 -20q-2 -18 -4 -35q-2 -18 -2 -35q0 -69 35 -104t96 -35h71v-23h-55zM128 194q0 -38 6 -72t22 -60q15 -25 42 -40q26 -16 67 -16q59 0 96 39q38 38 74 119q22 50 37 106q15 57 25 107
q10 51 14 90q5 39 5 56q0 38 -6 73t-22 60q-15 26 -42 41q-26 16 -67 16q-46 0 -89 -33t-73 -99q-24 -56 -41 -116q-17 -61 -29 -116q-10 -54 -14 -96q-5 -42 -5 -59z" />
    <glyph glyph-name="R" unicode="R" horiz-adv-x="626" 
d="M212 399h48q42 0 80 7q39 6 68 25q28 21 45 58q17 38 17 103q0 36 -14 56q-14 21 -35 31q-22 10 -47 13q-26 2 -48 2h-50q-16 -73 -64 -295zM-49 23h92q36 167 145 671h-92q1 6 4 23h230q34 0 74 -4t75 -20q36 -15 60 -46q23 -31 23 -84q0 -54 -26 -88t-63 -53t-77 -26
q-41 -8 -68 -11v-2q55 -14 85 -39q30 -26 44 -56t17 -62q2 -32 2 -61q0 -38 1 -66q1 -27 5 -46q5 -17 16 -26t30 -9q15 0 24 4q10 3 18 5q2 -8 7 -23q-12 -3 -29 -9q-17 -5 -39 -5q-47 0 -72 19t-38 52q-11 34 -13 81q-2 46 -2 103q0 70 -36 101q-37 31 -94 31h-46
q-19 -89 -77 -354h92q-1 -6 -4 -23h-273q1 6 5 23z" />
    <glyph glyph-name="S" unicode="S" horiz-adv-x="512" 
d="M29 233h22q-1 -8 -1 -16q-1 -9 -1 -17q0 -36 10 -71q11 -36 32 -63q22 -28 54 -45q33 -17 78 -17q34 0 65 12q30 12 54 33q24 22 37 52q14 31 14 69q0 45 -25 77q-26 33 -63 58q-37 26 -77 48q-41 22 -70 47q-17 14 -28 27t-18 29q-7 15 -10 35t-3 48q0 36 15 72
q15 35 42 63q27 27 66 44q38 17 84 17q25 0 45 -7q21 -7 37 -17t28 -21q11 -11 19 -20q15 16 43 49h19q-12 -52 -48 -207h-20q2 17 3 36q1 18 1 36q0 30 -11 54t-31 40q-18 17 -42 26t-49 9q-29 0 -55 -10q-27 -10 -47 -28q-21 -19 -33 -44q-12 -26 -12 -58t12 -53
q13 -21 36 -39q23 -16 56 -32q32 -17 72 -41q26 -18 48 -35t38 -37q15 -21 23 -47q8 -27 8 -64q0 -44 -14 -87q-14 -44 -43 -79q-29 -34 -71 -56q-42 -21 -97 -21q-37 0 -63 8q-27 8 -46 20q-20 13 -33 26t-23 22q-19 -19 -57 -58h-16q11 58 46 233z" />
    <glyph glyph-name="T" unicode="T" horiz-adv-x="607" 
d="M82 23h102q36 167 145 671h-50q-53 0 -87 -21q-34 -22 -56 -52q-21 -31 -34 -66t-23 -62h-21q14 56 55 224h534q-11 -57 -46 -225h-20q4 20 8 44q4 23 4 49q0 40 -11 62q-12 22 -30 32q-18 11 -42 13t-47 2h-46q-36 -168 -145 -671h104q-1 -6 -5 -23h-292q1 6 3 23z" />
    <glyph glyph-name="U" unicode="U" horiz-adv-x="664" 
d="M524 236q-9 -39 -19 -84q-9 -44 -33 -82q-22 -38 -65 -63t-119 -25q-44 0 -83 11q-38 12 -67 35q-27 23 -43 56q-16 34 -16 78q0 17 4 42q4 24 9 46l96 444h-92q2 6 5 23h271q-1 -6 -4 -23h-92q-23 -109 -94 -437q-5 -26 -10 -55q-5 -30 -5 -66q0 -28 12 -52
q11 -23 32 -39t49 -26q28 -9 61 -9q55 0 88 29q32 29 51 67q19 39 27 79q9 39 14 61q32 149 97 448h-91q1 6 4 23h195q-2 -6 -6 -23h-75q-25 -114 -101 -458z" />
    <glyph glyph-name="V" unicode="V" horiz-adv-x="607" 
d="M175 694h-96q1 6 5 23h278q-1 -6 -4 -23h-95q-14 -137 -56 -550l2 -2l396 552h-99q1 6 3 23h201q-2 -6 -5 -23h-67q-128 -176 -510 -704h-20q16 176 67 704z" />
    <glyph glyph-name="W" unicode="W" horiz-adv-x="835" 
d="M144 694h-86q2 6 5 23h629q-1 -6 -4 -23h-60q-45 -63 -179 -252q-8 -75 -32 -301l2 -2q100 139 402 555h-79q1 6 4 23h177q-1 -6 -4 -23h-66q-128 -176 -513 -704h-21q9 89 35 355q0 1 -2 2q-65 -89 -259 -357h-20q18 176 71 704zM173 143q1 0 2 -2q46 65 184 257
q8 74 31 296h-158q-14 -137 -59 -551zM455 502q0 -1 2 -2q35 48 139 194h-118q-6 -48 -23 -192z" />
    <glyph glyph-name="X" unicode="X" horiz-adv-x="626" 
d="M-78 23h81q65 82 260 330q-30 86 -121 341h-90q2 6 5 23h279q-1 -6 -4 -23h-98q24 -66 94 -264l208 264h-107q1 6 4 23h217q-1 -6 -4 -23h-77q-58 -73 -232 -295q34 -94 135 -376h92q-1 -6 -4 -23h-284q2 6 5 23h99q-27 75 -108 303q-59 -76 -236 -303h105q-1 -6 -5 -23
h-219q1 6 5 23z" />
    <glyph glyph-name="Y" unicode="Y" horiz-adv-x="588" 
d="M111 23h92q16 77 66 308q-32 91 -130 363h-87q2 6 5 23h276q-1 -6 -4 -23h-98q29 -82 115 -327q53 82 210 327h-98q1 6 4 23h210q-2 -6 -5 -23h-80q-58 -89 -230 -358q-16 -78 -66 -313h92q-1 -6 -4 -23h-274q2 6 6 23z" />
    <glyph glyph-name="Z" unicode="Z" horiz-adv-x="550" 
d="M-39 22q122 168 489 672h-128q-56 0 -91 -13t-59 -36q-24 -22 -38 -54q-15 -31 -29 -66h-20q11 48 43 192h426v-22l-488 -672h149q67 0 108 14t66 40q26 26 41 63t31 82h20q-11 -55 -46 -222h-476q1 5 2 22z" />
    <glyph glyph-name="bracketleft" unicode="[" horiz-adv-x="265" 
d="M181 717h134q-1 -6 -4 -23h-105q-43 -198 -170 -794h110q-1 -6 -5 -23h-137q44 210 177 840z" />
    <glyph glyph-name="backslash" unicode="\" horiz-adv-x="512" 
d="M110 735h32q65 -188 260 -753h-32q-65 188 -260 753z" />
    <glyph glyph-name="bracketright" unicode="]" horiz-adv-x="265" 
d="M-75 -100h106q42 198 170 794h-111q1 6 5 23h137q-44 -210 -177 -840h-134q1 6 4 23z" />
    <glyph glyph-name="asciicircum" unicode="^" 
d="M422 348q-40 70 -158 280q-39 -70 -158 -280h-55q53 92 213 369q53 -92 213 -369h-55z" />
    <glyph glyph-name="underscore" unicode="_" horiz-adv-x="512" 
d="M-51 -67h384h128v-51h-512v51z" />
    <glyph glyph-name="grave" unicode="`" horiz-adv-x="348" 
d="M125 615q5 12 19 47q62 -29 246 -116q-2 -4 -7 -16q-65 22 -258 85z" />
    <glyph glyph-name="a" unicode="a" 
d="M80 111q0 -48 16 -77q17 -30 51 -30q35 0 65 21q30 20 53 53q24 33 42 73q18 39 29 78q12 40 18 75q6 34 6 54q0 45 -23 75t-62 30q-36 0 -65 -24t-50 -61q-22 -37 -37 -81q-15 -43 -26 -83q-9 -39 -13 -68q-4 -28 -4 -35zM506 119q-5 -9 -18 -32q-12 -22 -31 -46
t-44 -42q-26 -17 -58 -17t-44 20t-14 43q0 8 1 20q1 11 3 17l-2 2q-8 -12 -22 -30q-14 -17 -33 -34q-20 -16 -45 -27t-56 -11q-32 0 -58 15t-43 42q-17 28 -27 64q-9 37 -9 80q0 26 9 59q9 32 25 65q17 34 41 66q24 33 55 57q31 25 67 40t77 15q26 0 44 -9t29 -23
q13 -14 18 -29q6 -15 8 -29h2q4 18 17 72h74q-20 -79 -81 -317q-2 -10 -5 -22q-4 -12 -7 -26l-6 -24q-2 -11 -2 -20q0 -14 5 -27t16 -13q12 0 28 15q15 14 30 33q14 18 25 36q10 18 15 25z" />
    <glyph glyph-name="b" unicode="b" 
d="M110 109q0 -50 26 -77q26 -28 70 -28q84 0 127 90q17 34 30 76t21 80q9 39 13 68q4 30 4 38q0 47 -19 77q-18 30 -58 30q-28 0 -53 -11q-25 -12 -47 -29q-20 -17 -36 -39q-15 -22 -22 -41q-31 -89 -44 -145q-12 -56 -12 -89zM168 395l2 -2q9 11 24 27t34 31q21 14 45 24
q25 10 55 10q36 0 63 -15q28 -15 46 -43q19 -27 28 -63q10 -37 10 -80q0 -48 -23 -102q-23 -53 -61 -98q-38 -44 -87 -73t-102 -29q-37 0 -68 10q-31 11 -52 30q-22 18 -34 44q-12 25 -12 56q0 15 2 33q3 17 7 33q4 17 8 32q4 14 6 26q33 149 98 448h-97q2 6 7 23h52
q36 0 67 2t57 6z" />
    <glyph glyph-name="c" unicode="c" horiz-adv-x="474" 
d="M404 128q-8 -14 -26 -39q-19 -26 -45 -49q-27 -24 -62 -41q-34 -17 -76 -17q-39 0 -71 15t-54 42q-23 28 -35 64q-12 37 -12 80q0 48 21 102q22 53 58 97q38 45 89 74t109 29q31 0 57 -7q27 -8 45 -21q20 -13 31 -29q10 -17 10 -35q0 -22 -10 -36q-11 -13 -32 -13
q-16 0 -28 10q-12 11 -12 30q0 9 4 15q3 7 7 11q4 5 7 9q3 5 3 11q0 11 -8 18t-21 10q-12 3 -27 4q-16 1 -30 1q-41 0 -72 -24q-30 -24 -53 -61t-37 -81t-22 -83q-9 -39 -12 -68q-4 -29 -4 -35q0 -48 24 -77q24 -30 79 -30q33 0 64 15q30 16 54 37q25 22 43 45q19 23 28 37
q6 -3 16 -10z" />
    <glyph glyph-name="d" unicode="d" horiz-adv-x="550" 
d="M90 111q0 -48 19 -77q19 -30 59 -30q32 0 59 21q27 20 48 53q23 33 39 73q17 39 27 78q11 40 17 75q6 34 6 54q0 45 -21 75t-57 30q-47 0 -81 -27q-33 -27 -48 -68q-19 -46 -31 -89q-12 -42 -21 -76q-8 -34 -11 -58q-4 -24 -4 -34zM515 119q-6 -11 -18 -35
q-13 -23 -31 -46q-19 -23 -43 -40q-24 -16 -54 -16q-19 0 -30 6q-11 7 -17 17q-7 11 -9 24q-2 12 -2 23q0 8 1 17l2 18q0 1 -2 2q-12 -17 -25 -36t-30 -36q-17 -15 -42 -25q-26 -10 -61 -10q-33 0 -59 15q-25 15 -43 42q-17 28 -26 64q-10 37 -10 80q0 48 20 102
q20 53 56 97q36 45 86 74t112 29q37 0 59 -25q23 -25 29 -52h2q15 71 61 286h-96q2 6 6 23h52q36 0 68 2q31 2 56 6q-43 -199 -130 -597q-4 -17 -8 -40q-4 -22 -4 -37q0 -14 6 -23q6 -10 17 -10t25 15t28 34q13 19 23 37q11 18 15 24q5 -3 16 -9z" />
    <glyph glyph-name="e" unicode="e" horiz-adv-x="474" 
d="M300 463q-45 0 -77 -27q-33 -27 -54 -63q-22 -36 -33 -72q-12 -36 -16 -53l22 -2h23q28 0 63 4t66 18q31 16 52 45t21 78q0 36 -16 54q-15 18 -51 18zM407 129q-10 -14 -28 -39q-19 -25 -45 -50q-27 -24 -62 -41q-34 -17 -77 -17q-39 0 -71 16q-31 17 -53 46t-34 66
q-11 37 -11 79q0 57 26 110q27 53 68 94q42 42 92 67t98 25q29 0 53 -9t41 -24q18 -15 27 -34q9 -20 9 -41q0 -36 -15 -61t-41 -43q-25 -16 -56 -26q-32 -10 -65 -16q-32 -5 -62 -6q-31 -2 -54 -2q-7 0 -16 1t-16 2q-5 -17 -11 -43q-5 -26 -5 -61q0 -21 6 -42q7 -21 19 -38
q13 -16 33 -27t47 -11q35 0 65 18q31 17 55 39q24 24 41 47l24 33z" />
    <glyph glyph-name="f" unicode="f" horiz-adv-x="303" 
d="M203 444q-9 -49 -21 -111q-11 -62 -26 -127q-15 -66 -34 -131q-19 -66 -43 -123q-11 -27 -30 -58q-18 -32 -44 -59q-25 -28 -58 -46q-32 -18 -71 -18q-13 0 -27 4t-24 13q-11 8 -18 20t-7 27t13 27q12 11 30 11q15 0 23 -6q8 -5 12 -13q3 -9 4 -18v-18q1 -13 3 -19t16 -6
q26 0 48 19q21 18 38 44q15 25 25 52t15 44q19 66 31 122t22 111q10 57 21 118q11 62 28 141h-109q2 6 6 23h108q6 19 16 47q9 28 22 57q14 30 33 59t45 53q25 24 58 38q32 14 73 14q21 0 38 -7t28 -17q13 -11 18 -23q6 -12 6 -22q0 -53 -44 -53q-18 0 -28 12q-10 11 -10 30
q0 13 10 22q11 9 11 18q0 11 -12 14q-12 4 -26 4q-28 0 -50 -15q-22 -14 -39 -36q-17 -23 -29 -51t-22 -56q-9 -27 -14 -50q-6 -24 -10 -38h99q-1 -6 -5 -23h-99z" />
    <glyph glyph-name="g" unicode="g" horiz-adv-x="512" 
d="M109 40q-15 -5 -33 -14q-19 -10 -35 -24t-28 -35q-11 -21 -11 -51t13 -53t34 -38q23 -15 52 -24q29 -8 62 -8q46 0 84 15t65 38q28 24 43 53q16 29 16 59q0 26 -10 39q-9 14 -24 20q-15 8 -35 9t-41 3q-51 3 -152 11zM291 96q18 -2 39 -4q20 -3 38 -14q17 -10 28 -32
q12 -21 12 -60q0 -45 -19 -85q-19 -39 -54 -68q-34 -30 -82 -46t-108 -16q-42 0 -77 10q-35 11 -62 32q-25 19 -40 47t-15 62q0 31 16 53q16 23 37 37q23 15 45 23q22 9 34 12v2q-12 3 -25 9q-13 7 -24 16q-10 10 -18 24q-7 14 -7 32q0 25 10 42t23 30q14 13 30 21
q16 7 27 13q-14 16 -22 35t-8 56q0 31 15 60t41 50q26 23 59 36q34 12 72 12q33 0 56 -9q24 -10 40 -24q17 -14 26 -29q9 -14 14 -26h2q1 13 5 29q4 17 13 33q9 15 23 26t35 11q18 0 29 -11q11 -10 11 -23t-7 -22q-7 -8 -21 -8q-9 0 -14 4t-9 9q-3 6 -6 10t-9 4
q-12 0 -19 -17q-6 -16 -10 -39q-4 -21 -7 -44q-4 -23 -7 -35q-20 -72 -69 -107q-48 -35 -112 -35q-22 0 -39 4t-30 11q-14 6 -23 12t-15 11q-8 -3 -16 -8q-9 -5 -17 -13q-8 -9 -14 -19q-6 -11 -6 -25q0 -18 12 -27q11 -9 27 -14q17 -5 35 -7q19 -2 33 -3q41 -2 124 -8z
M138 279q0 -35 22 -55q22 -19 61 -19q34 0 56 20q22 21 34 48q14 29 19 60t5 52q0 39 -23 58q-22 20 -57 20t-57 -19q-23 -19 -36 -47q-14 -27 -19 -60q-5 -32 -5 -58z" />
    <glyph glyph-name="h" unicode="h" horiz-adv-x="550" 
d="M161 694h-85q1 6 4 23h46q33 0 59 1q26 2 56 7q-27 -122 -81 -365l2 -2q13 17 35 39q21 22 49 41q28 21 62 34q33 13 70 13q32 0 57 -17q26 -17 26 -53q0 -18 -4 -40q-4 -23 -10 -44l-45 -180q-6 -25 -14 -54q-8 -28 -8 -41q0 -17 5 -27q5 -11 23 -11t35 16t31 37
q14 20 24 41q10 20 15 29q6 -2 18 -8q-7 -16 -18 -42q-12 -25 -32 -50q-18 -25 -45 -42q-26 -17 -63 -17q-28 0 -47 18q-20 18 -20 51q0 21 6 47q6 27 12 48l51 204q4 15 8 32q4 18 4 33q0 17 -14 25q-14 9 -38 9q-26 0 -57 -19q-32 -18 -64 -48q-36 -33 -55 -73
q-19 -41 -29 -85q-16 -74 -48 -224h-74q38 174 153 694z" />
    <glyph glyph-name="i" unicode="i" horiz-adv-x="285" 
d="M258 133q-7 -14 -19 -40q-12 -25 -31 -50t-45 -43q-27 -18 -62 -18q-36 0 -53 19q-16 19 -16 56q0 15 2 27l7 28q24 111 72 332h-94q2 6 7 23h52q36 0 65 2q30 2 56 6q-25 -112 -74 -337q-2 -9 -6 -21q-3 -13 -6 -25t-5 -22q-3 -11 -3 -17q0 -35 31 -35q19 0 36 17
q16 16 30 38q14 21 24 41q11 20 14 27q6 -2 18 -8zM188 590q-18 0 -32 13q-14 12 -14 33q0 19 14 33q14 13 32 13q19 0 33 -13q13 -14 13 -33q0 -21 -13 -33q-14 -13 -33 -13z" />
    <glyph glyph-name="j" unicode="j" horiz-adv-x="284" 
d="M126 59q-4 -15 -10 -42t-18 -59q-10 -33 -26 -66t-38 -60q-22 -28 -51 -44q-29 -17 -66 -17q-30 0 -50 17q-21 16 -21 42q0 18 13 30q12 12 32 12q18 0 28 -11q9 -11 9 -25q0 -9 -2 -17q-3 -8 -3 -14t5 -9t12 -3q16 0 31 25q16 24 27 56t19 62t11 41q36 156 108 467h-106
q1 6 6 23h62q36 0 67 2q32 2 57 6q-32 -138 -96 -416zM212 590q-18 0 -32 13q-14 12 -14 33q0 19 14 33q14 13 32 13t32 -13q14 -14 14 -33q0 -21 -14 -33q-14 -13 -32 -13z" />
    <glyph glyph-name="k" unicode="k" 
d="M173 694h-96q1 6 6 23h52q35 0 65 2q29 2 53 6q-32 -145 -95 -436q11 6 23 9q12 4 30 4q13 0 22 -4q6 6 16 20t21 31q12 19 23 37q11 17 19 31q22 39 46 54q25 14 58 14q31 0 50 -18q19 -17 19 -47q0 -18 -11 -29q-12 -12 -30 -12q-41 0 -41 38q0 10 5 19q4 8 4 13
q0 6 -5 10t-11 4q-10 0 -20 -6q-10 -5 -20 -15q-9 -9 -17 -20q-7 -10 -12 -21q-15 -26 -33 -54q-18 -29 -36 -52q20 -8 35 -15q16 -7 28 -21q11 -13 17 -37q7 -23 7 -64q0 -28 -3 -54t-3 -50q0 -17 8 -26q7 -10 15 -10q20 0 39 19t33 43q16 24 26 47q11 24 14 33l18 -6
q-7 -16 -19 -44q-12 -29 -33 -58q-20 -28 -49 -49q-30 -21 -68 -21q-30 0 -48 19t-18 55q0 20 5 45q4 25 9 51q7 25 11 49q5 23 5 41q0 17 -16 27q-15 10 -29 12q-18 -13 -29 -18q-11 -6 -34 -6q-4 0 -13 2q-9 1 -14 1q-19 -87 -56 -260h-73q37 174 150 694z" />
    <glyph glyph-name="l" unicode="l" horiz-adv-x="285" 
d="M260 133q-6 -14 -18 -40q-12 -25 -31 -50q-20 -25 -46 -43q-27 -18 -62 -18q-36 0 -53 19q-16 19 -16 56q0 13 2 24q3 12 5 31l126 582h-102q1 6 6 23h58q36 0 68 2q31 2 56 6q-43 -196 -128 -587q-2 -11 -5 -23q-3 -13 -6 -25q-2 -11 -4 -21t-2 -16q0 -35 30 -35
q19 0 36 17q16 16 30 38q14 21 24 41q11 20 14 27q6 -2 18 -8z" />
    <glyph glyph-name="m" unicode="m" horiz-adv-x="835" 
d="M114 444h-96q1 6 5 23h46t64 1q29 2 61 7q-9 -38 -26 -115l2 -2q11 16 32 37q20 22 47 41q26 21 57 35t64 14q38 0 60 -19t22 -51q0 -15 -2 -28q-3 -14 -6 -27q1 0 2 -2q15 16 36 38t47 41q28 21 61 35q33 13 70 13q32 0 58 -17q25 -17 25 -53q0 -21 -4 -41t-9 -43
l-45 -180q-3 -13 -7 -28l-8 -28q-3 -13 -6 -24q-2 -11 -2 -15q0 -15 5 -26q5 -12 23 -12q19 0 36 16q16 16 31 37q14 20 24 41q10 20 15 29q6 -2 18 -8q-7 -16 -19 -42q-12 -25 -31 -50t-45 -42q-27 -17 -64 -17q-28 0 -48 18q-19 18 -19 51q0 21 6 47q7 27 12 48l51 204
q6 17 9 33q4 17 4 32q0 16 -14 25t-39 9q-19 0 -46 -17q-27 -16 -59 -44q-42 -40 -63 -78q-22 -38 -34 -86q-16 -74 -48 -224h-74q18 84 73 336q3 16 7 38q5 22 5 41q0 34 -42 34q-25 0 -52 -18t-53 -43q-46 -40 -65 -80q-20 -41 -28 -84q-16 -74 -48 -224h-74
q25 111 98 444z" />
    <glyph glyph-name="n" unicode="n" horiz-adv-x="550" 
d="M105 444h-85q2 6 5 23h46q32 0 59 1q26 2 55 7q-8 -38 -25 -115l2 -2q13 17 35 39q21 22 49 41q28 21 62 34q33 13 70 13q32 0 57 -17q26 -17 26 -53q0 -18 -4 -40q-4 -23 -10 -44l-45 -180q-6 -25 -14 -53t-8 -42q0 -15 5 -26q5 -12 23 -12t35 16t31 37q14 20 24 41
q10 20 15 29q6 -2 18 -8q-7 -16 -18 -42q-12 -25 -32 -50q-18 -25 -45 -42q-26 -17 -63 -17q-28 0 -47 18q-20 18 -20 51q0 21 6 47q6 27 12 48l51 204q4 15 8 32q4 18 4 33q0 17 -14 25q-14 9 -38 9q-26 0 -57 -19q-32 -18 -64 -48q-36 -33 -55 -73q-20 -41 -29 -85
q-16 -74 -48 -224h-74q25 111 97 444z" />
    <glyph glyph-name="o" unicode="o" horiz-adv-x="512" 
d="M184 -18q-38 0 -68 15q-31 15 -54 42q-21 28 -33 64q-13 37 -13 80q0 48 20 102q20 53 56 97q36 45 86 74t112 29q41 0 72 -15t53 -43q21 -27 32 -63q11 -37 11 -80q0 -48 -20 -102q-20 -53 -56 -98q-36 -44 -86 -73t-112 -29zM90 111q0 -48 24 -77q23 -30 74 -30
q23 0 42 3q20 3 35 12q17 10 30 27t26 46q15 38 27 79t20 78t12 65q4 29 4 42q0 47 -24 77q-23 30 -74 30q-45 0 -78 -18q-32 -17 -52 -63q-18 -39 -30 -81t-21 -80q-7 -38 -11 -67q-4 -30 -4 -43z" />
    <glyph glyph-name="p" unicode="p" 
d="M122 119q0 -20 7 -40q6 -21 18 -37q14 -16 33 -27t43 -11q46 0 79 32q32 32 50 76q14 33 24 70q11 36 18 69t11 60q4 28 4 45q0 47 -24 77q-25 30 -78 30q-31 0 -56 -17q-26 -17 -46 -45q-21 -27 -36 -63t-27 -75q-10 -38 -15 -76q-5 -37 -5 -68zM-133 -188h93l140 632
h-96q2 6 6 23h52q36 0 68 2q31 2 56 6q-6 -26 -18 -79l2 -2q8 13 20 28t28 30q18 14 40 24q23 9 53 9q41 0 73 -15t53 -43q23 -27 34 -63q11 -37 11 -80q0 -48 -19 -102q-19 -53 -53 -98q-35 -44 -84 -73q-48 -29 -107 -29q-32 0 -53 8t-34 20q-13 14 -21 29q-9 16 -14 31
h-2q-14 -65 -56 -258h101q-1 -6 -5 -23h-273q1 6 5 23z" />
    <glyph glyph-name="q" unicode="q" 
d="M90 111q0 -107 78 -107q34 0 62 21q29 20 52 53t40 73q17 39 28 78q12 40 18 75q6 34 6 54q0 45 -24 75q-23 30 -64 30q-38 0 -66 -19q-29 -19 -48 -52q-14 -23 -29 -66q-14 -42 -26 -86t-19 -81q-8 -36 -8 -48zM160 -188h103q14 65 56 261l-2 2q-9 -13 -23 -28
q-14 -16 -35 -32q-20 -14 -47 -24q-26 -9 -58 -9q-33 0 -59 15q-25 15 -43 42q-17 28 -26 64q-10 37 -10 80q0 48 20 102q20 53 56 97q36 45 86 74t112 29q24 0 41 -6q16 -7 27 -17q13 -10 20 -23q8 -12 14 -23q4 17 11 51h74q-35 -164 -140 -655h88q-1 -6 -5 -23h-265
q1 6 5 23z" />
    <glyph glyph-name="r" unicode="r" horiz-adv-x="379" 
d="M118 444h-102q1 6 4 23h62q34 0 63 2t53 6q-11 -49 -33 -146q0 -1 2 -2q9 15 27 42q17 26 40 52q24 26 51 45t55 19q27 0 37 -13q11 -14 11 -33q0 -17 -11 -29q-11 -13 -32 -13q-12 0 -19 6t-12 13t-9 13q-5 5 -13 5q-19 0 -39 -26q-21 -26 -49 -62q-32 -40 -47 -83
q-16 -44 -23 -78q-13 -61 -40 -185h-74q25 111 98 444z" />
    <glyph glyph-name="s" unicode="s" horiz-adv-x="379" 
d="M126 -18q-33 0 -59 8q-27 8 -47 21q-18 15 -29 32q-10 17 -10 37q0 17 10 31q10 13 28 13q16 0 26 -10q9 -11 9 -27q0 -13 -5 -24q-6 -11 -6 -22q0 -8 9 -15q9 -8 22 -13q13 -4 28 -6q16 -3 28 -3q21 0 42 6q22 6 39 18t29 29q11 17 11 38q0 19 -10 36q-11 16 -28 33
q-16 16 -37 32q-20 16 -41 32q-32 26 -55 55q-24 29 -24 68q0 28 14 52q14 25 36 43q24 19 54 29t63 10q25 0 46 -6t36 -16q16 -9 24 -23q9 -14 9 -29q0 -41 -38 -41q-14 0 -25 10t-11 28q0 11 5 19t5 13q0 6 -5 11q-6 5 -14 7q-8 3 -18 4t-19 1q-17 0 -36 -5
q-18 -5 -34 -15q-15 -9 -25 -22q-9 -12 -9 -28q0 -28 23 -50t53 -46q21 -15 42 -32q21 -16 37 -36q18 -19 28 -43q11 -23 11 -53q0 -33 -14 -61q-13 -28 -38 -48t-58 -31t-72 -11z" />
    <glyph glyph-name="t" unicode="t" horiz-adv-x="323" 
d="M255 133q-7 -16 -19 -42q-12 -25 -31 -50q-20 -25 -46 -42q-27 -17 -63 -17q-28 0 -48 18q-19 18 -19 51q0 19 6 43q7 24 15 52q25 100 74 298h-69q2 6 6 23h69q7 29 29 115h22t18 1l16 2q8 2 19 4q-10 -41 -30 -122h99q-1 -6 -6 -23h-98q-19 -73 -73 -293
q-8 -29 -16 -57t-8 -43q0 -13 6 -23q5 -10 23 -10q19 0 36 16q17 15 31 36t24 42q10 20 15 29q6 -2 18 -8z" />
    <glyph glyph-name="u" unicode="u" horiz-adv-x="550" 
d="M529 141q-6 -12 -18 -39q-11 -26 -32 -54q-19 -26 -47 -46t-64 -20q-30 0 -45 19q-16 18 -16 48q0 12 1 25t3 24q0 1 -2 2q-39 -56 -86 -87t-115 -31q-37 0 -61 21t-24 60q0 20 5 43t10 45q25 97 76 293h-96q1 6 5 23h173q-22 -86 -87 -342q-5 -15 -9 -33q-4 -17 -4 -29
q0 -45 46 -45q41 0 77 24q35 24 63 59q24 32 41 71t25 75q19 73 58 220h73q-20 -77 -80 -309q-10 -36 -14 -63t-4 -46q0 -31 28 -31q16 0 33 17t31 40q14 22 25 44q11 21 15 31q5 -3 16 -9z" />
    <glyph glyph-name="v" unicode="v" horiz-adv-x="512" 
d="M160 142q-6 -20 -13 -40q-6 -20 -6 -40q0 -27 19 -35q18 -9 42 -9q27 0 56 18t55 48q27 30 51 67q23 37 40 75q19 38 29 74t10 62q0 19 -4 27t-11 11q-6 3 -15 5t-18 7q-10 5 -15 14q-5 10 -5 18q0 20 12 31q11 10 27 10q27 0 42 -24q14 -25 14 -64q0 -36 -11 -81
q-10 -45 -30 -91q-19 -46 -47 -90q-27 -44 -59 -78q-32 -33 -70 -54q-37 -21 -76 -21q-51 0 -80 25q-29 26 -29 72q0 23 7 44t15 48q20 66 60 199q3 10 8 27t5 30q0 12 -5 17q-4 5 -15 5q-19 0 -38 -14q-18 -14 -33 -33q-16 -18 -27 -36q-11 -19 -17 -29q-6 3 -17 10
q6 13 20 36q14 24 35 46q21 23 49 39q27 17 61 17q33 0 47 -17t14 -41q0 -8 -3 -23q-3 -14 -7 -30l-8 -34q-5 -16 -9 -29q-17 -56 -50 -169z" />
    <glyph glyph-name="w" unicode="w" horiz-adv-x="759" 
d="M496 467q-3 -10 -10 -35t-16 -58q-8 -33 -18 -71t-18 -75q-7 -35 -12 -67q-5 -31 -5 -51q0 -44 13 -68t46 -24q25 0 49 18q25 17 47 46q24 30 43 66q20 36 34 74q16 39 23 75q8 37 8 65q0 19 -4 27t-11 11t-15 5q-9 2 -18 7q-10 5 -16 14q-5 10 -5 18q0 20 12 31
q12 10 27 10q28 0 42 -24q15 -25 15 -64q0 -52 -13 -101q-13 -48 -29 -90q-17 -39 -38 -79q-22 -40 -49 -73q-28 -31 -63 -52q-36 -20 -80 -20q-26 0 -44 10q-18 11 -30 30q-10 18 -14 43q-4 24 -4 51q0 29 5 58q5 28 7 42q0 1 -2 2l-15 -33q-9 -22 -24 -49q-13 -26 -31 -54
q-19 -27 -41 -49q-23 -23 -51 -37q-27 -14 -60 -14q-40 0 -59 25q-20 26 -20 72q0 23 7 44q8 21 16 48q20 66 59 199q1 4 3 11l4 16q3 10 5 18q1 8 1 12q0 12 -4 17q-5 5 -15 5q-19 0 -38 -14q-18 -14 -34 -33q-15 -18 -26 -36q-12 -19 -18 -29q-5 3 -16 10q6 13 20 36
q14 24 34 46q22 23 49 39q28 17 62 17q33 0 46 -17q14 -17 14 -41q0 -8 -2 -23q-3 -14 -7 -30q-4 -17 -9 -33q-4 -16 -8 -30q-17 -56 -51 -169l-12 -40t-6 -40q0 -27 9 -35q9 -9 21 -9q32 0 64 30q32 29 60 73q28 45 52 99q24 53 43 103q18 50 31 89q12 40 16 55h74z" />
    <glyph glyph-name="x" unicode="x" 
d="M218 201q-6 -11 -20 -31q-14 -19 -31 -44t-38 -50q-21 -26 -43 -47q-21 -21 -42 -34t-40 -13t-33 9t-14 33q0 17 11 28q12 11 30 11q10 0 17 -4t11 -9q5 -5 10 -9t13 -4q12 0 35 24q24 24 48 56q26 33 48 64q22 32 32 46q-12 45 -35 133q-3 11 -6 23t-8 23q-4 11 -10 18
q-6 8 -14 8q-12 0 -26 -13t-26 -31q-12 -16 -21 -32q-10 -16 -13 -21q-5 3 -16 8q6 10 18 34q13 24 30 48t39 42t47 18q20 0 33 -9q13 -10 21 -25q8 -16 14 -36q5 -20 10 -39q7 -28 20 -83q6 8 18 26t27 38q16 22 34 44q19 23 38 41q20 20 39 32q19 11 37 11q17 0 30 -10
q12 -11 12 -34q0 -13 -12 -25q-12 -13 -26 -13q-13 0 -20 4t-11 8q-4 5 -7 9q-4 4 -10 4q-15 0 -35 -20q-21 -21 -41 -49q-20 -26 -38 -53t-28 -41q9 -33 27 -100q4 -17 10 -39t14 -42q8 -21 18 -35q9 -14 22 -14q16 0 32 13q17 13 30 31q14 18 25 35q10 17 15 25
q6 -3 17 -10q-7 -14 -20 -39q-13 -24 -33 -49q-19 -24 -44 -42q-25 -17 -55 -17q-19 0 -33 11q-15 11 -27 30q-10 18 -18 41t-14 47z" />
    <glyph glyph-name="y" unicode="y" 
d="M287 138q23 47 49 110t53 123q10 24 21 45q10 21 22 37q13 15 29 24q16 8 38 8q17 0 29 -10q13 -11 13 -34q0 -13 -12 -25q-12 -13 -26 -13t-20 4q-7 4 -11 8q-4 5 -8 9q-3 4 -9 4q-11 0 -23 -22t-29 -57q-11 -25 -27 -63t-35 -83q-18 -45 -41 -93q-22 -49 -48 -96
q-26 -46 -55 -87t-62 -69q-13 -12 -30 -27t-38 -29q-22 -13 -48 -22q-25 -9 -54 -9q-30 0 -50 12q-20 13 -20 40q0 19 12 31q12 11 33 11q17 0 25 -9q7 -10 11 -20q4 -11 7 -20t12 -9q37 0 79 30q42 29 78 69q36 39 60 80q24 42 24 66q0 9 -4 22q-3 13 -8 25q-4 14 -8 25
q-5 11 -8 19q-26 73 -77 217q-4 11 -8 23q-4 13 -9 24t-12 18t-14 7q-13 0 -27 -13q-13 -13 -24 -31q-11 -16 -19 -32t-11 -21q-5 3 -16 8q5 12 16 36q10 23 27 47q16 25 39 42q22 17 52 17q16 0 28 -9q11 -10 19 -25q9 -16 16 -35q8 -20 15 -40q28 -79 84 -238z" />
    <glyph glyph-name="z" unicode="z" horiz-adv-x="474" 
d="M131 485q25 -7 54 -17q30 -9 63 -18t66 -15q34 -6 66 -6q20 0 32 6q11 5 11 17q0 4 -1 9q0 6 1 11q1 6 4 10q3 3 10 3q8 0 10 -6q3 -7 3 -15q0 -14 -11 -34q-11 -19 -38 -46q-30 -33 -69 -67t-81 -69t-85 -71t-82 -72q35 0 69 -11q33 -11 64 -24t57 -24q27 -11 49 -11
q29 0 45 18t16 36q0 11 -12 12t-16 1q-13 0 -21 9q-7 9 -7 20q0 16 10 25q10 8 26 8q12 0 27 -12q16 -12 16 -43q0 -22 -10 -44q-10 -23 -28 -41q-19 -19 -44 -31q-26 -11 -58 -11q-41 0 -74 11q-34 11 -63 23q-28 14 -53 25t-47 11q-15 0 -21 -9t-6 -20q0 -5 1 -8
q1 -4 1 -7q0 -26 -18 -26q-9 0 -12 7t-3 15q0 26 24 55q24 30 70 68q37 32 80 66q42 33 84 68q42 36 82 71q39 36 71 71q-1 1 -2 3q-14 -7 -32 -11q-17 -4 -35 -7q-17 -2 -33 -3q-17 -1 -27 -1q-25 0 -44 3q-20 3 -35 6q-14 4 -25 7q-12 3 -20 3q-9 0 -15 -5q-6 -6 -13 -17
q-5 -10 -12 -25q-8 -14 -20 -31q-5 3 -16 9q19 38 77 151z" />
    <glyph glyph-name="braceleft" unicode="{" horiz-adv-x="285" 
d="M146 -137q-17 0 -33 3t-28 11q-11 7 -18 21q-8 14 -8 35q0 11 3 26l6 28q7 37 22 110q4 21 10 44q6 24 6 55q0 20 -6 36q-7 16 -16 27q-9 12 -19 21q-11 9 -18 14q1 5 4 16q34 11 54 25q21 15 33 34q13 19 19 43q7 24 13 54q7 38 23 114q4 19 8 43t15 45t33 35t62 14h27
q-1 -6 -5 -23h-19q-25 0 -41 -7q-15 -7 -24 -20q-9 -14 -15 -32q-5 -18 -9 -40q-9 -43 -26 -129q-6 -29 -13 -54q-6 -25 -18 -46q-12 -22 -34 -39q-21 -17 -58 -29q9 -7 20 -16q10 -10 20 -23q9 -12 15 -28t6 -37q0 -22 -4 -43q-5 -21 -9 -41q-9 -44 -28 -130q-3 -12 -5 -25
q-3 -12 -3 -24q0 -15 6 -24t15 -13q9 -6 20 -7q10 -2 19 -2h22q-1 -5 -4 -22h-20z" />
    <glyph glyph-name="bar" unicode="|" horiz-adv-x="247" 
d="M148 -123h-51v525v315h51v-840z" />
    <glyph glyph-name="braceright" unicode="}" horiz-adv-x="285" 
d="M-74 -115h19q25 0 41 7q15 8 24 21q9 12 15 31q5 18 9 41q9 43 26 129q7 28 13 53q6 26 18 47q12 22 34 38q21 17 58 30q-9 7 -20 16q-10 9 -20 21q-9 14 -15 30t-6 37q0 22 4 43t9 41q9 43 28 130q3 11 5 24q3 13 3 24q0 16 -6 25t-15 13q-9 5 -19 7q-11 1 -20 1h-22
q1 6 4 23h20q17 0 33 -3t27 -12q12 -7 20 -21q7 -13 7 -35q0 -13 -3 -26q-2 -14 -6 -27q-7 -37 -22 -111q-4 -20 -10 -43q-6 -22 -6 -55q0 -20 6 -36q7 -16 16 -29q9 -11 20 -19q10 -9 17 -14q-1 -6 -4 -17q-34 -11 -54 -25q-21 -15 -33 -34t-19 -43t-13 -53
q-7 -38 -22 -114q-5 -20 -9 -44t-15 -44q-11 -22 -33 -35q-22 -14 -62 -14h-27q1 5 5 22z" />
    <glyph glyph-name="asciitilde" unicode="~" horiz-adv-x="550" 
d="M69 292q0 15 4 36q5 20 16 39q12 19 33 32q20 14 53 14q26 0 50 -11q24 -10 47 -22q17 -9 50 -27q17 -9 39 -18q23 -8 37 -8q21 0 33 7q12 8 20 19q7 12 9 24q3 12 5 21h33q0 -14 -4 -35q-5 -21 -17 -40q-11 -19 -32 -32t-54 -13q-26 0 -51 9q-24 10 -46 23l-48 27
q-20 10 -41 18q-22 9 -37 9q-21 0 -33 -8q-13 -7 -20 -18q-7 -10 -10 -23t-4 -23h-32z" />
    <glyph glyph-name="exclamdown" unicode="&#xa1;" horiz-adv-x="302" 
d="M143 238q-2 -16 -11 -65q-10 -50 -20 -121q-3 -18 -7 -40q-3 -22 -6 -50q-2 -29 -3 -64q-2 -36 -2 -82q0 -37 -17 -61q-17 -23 -37 -23q-27 0 -37 14q-11 13 -11 36q0 32 19 80q20 48 43 114q9 28 20 66q10 38 19 76t17 70t11 50h22zM173 391q-20 0 -34 15q-13 14 -13 38
q0 16 13 29q14 12 34 12q21 0 34 -12q13 -13 13 -29q0 -24 -13 -38q-13 -15 -34 -15z" />
    <glyph glyph-name="cent" unicode="&#xa2;" 
d="M-10 67l124 124q-5 7 -13 16q-7 10 -13 24q-6 16 -11 37q-4 22 -4 51q0 47 24 95q25 49 65 89t92 65q52 26 107 26q26 0 45 -5q18 -4 31 -11q14 -7 22 -14q9 -8 16 -14q24 22 71 66q4 -3 16 -15q-18 -18 -74 -72q6 -8 8 -15t2 -14q0 -19 -13 -32t-33 -13q-11 0 -17 3
q-6 4 -11 8q-86 -86 -259 -258q4 -8 11 -19q7 -10 19 -19t28 -16q17 -7 39 -7q35 0 64 15q28 15 51 35q22 20 39 41q16 21 26 33q6 -3 18 -10q-8 -14 -26 -38t-45 -48q-25 -22 -59 -39t-74 -17q-28 0 -48 5q-21 6 -36 14t-26 18q-10 9 -17 16q-41 -40 -123 -121zM413 486
q-3 8 -3 20q0 6 3 11l8 8q5 4 9 9q3 4 3 9q0 10 -18 19q-19 9 -48 9q-41 0 -73 -18q-31 -17 -54 -46q-24 -28 -40 -63q-17 -35 -27 -69q-9 -34 -14 -63q-4 -28 -4 -45v-18l2 -18q85 85 256 255z" />
    <glyph glyph-name="sterling" unicode="&#xa3;" 
d="M497 86q-5 -9 -19 -29q-13 -19 -32 -39q-18 -18 -41 -33t-49 -15q-21 0 -48 13q-26 12 -53 27q-26 17 -48 33t-33 25q-8 -10 -17 -21q-10 -12 -23 -22q-13 -11 -31 -18t-43 -7q-32 0 -58 20q-27 20 -27 54q0 21 10 38t25 28q17 13 36 19q20 6 38 6q28 0 55 -13
q28 -13 47 -21q4 7 11 19t12 25q5 14 9 29t4 30v13q-1 7 -2 13h-160q2 6 8 23h149q-3 20 -8 40t-11 37h-138q2 6 8 23h125q-6 14 -17 46q-12 32 -12 76q0 45 18 82q18 38 48 64q32 28 73 43t87 15q39 0 68 -12t48 -30q19 -19 29 -40q10 -22 10 -41q0 -31 -17 -51
q-16 -20 -41 -20q-24 0 -36 14q-12 15 -12 35q0 19 10 27q9 8 20 12t20 7q10 3 10 12q0 23 -28 44q-28 20 -80 20q-31 0 -57 -11q-27 -11 -46 -32q-20 -20 -31 -48t-11 -61q0 -20 4 -43q5 -23 11 -46q6 -21 12 -38t8 -24h147q-2 -6 -7 -23h-135q1 -9 1 -18q1 -9 1 -18
q0 -12 -1 -21q-1 -10 -3 -20h144q-2 -6 -7 -23h-141q-6 -21 -12 -39q-6 -17 -15 -34q-8 -15 -20 -31q-12 -17 -28 -35q13 -7 38 -22q25 -14 53 -29q29 -15 56 -25q27 -11 46 -11q13 0 25 8q13 8 24 18q12 12 20 22q9 10 12 15q6 -3 18 -11zM2 72q0 -23 18 -36q19 -13 45 -13
q31 0 53 19q22 20 37 39q-15 10 -40 24q-25 15 -55 15q-26 0 -42 -15t-16 -33z" />
    <glyph glyph-name="currency" unicode="&#xa4;" 
d="M20 135q18 17 69 69q-26 27 -37 65q-11 37 -11 74q0 38 13 75t36 66l-72 72q9 8 33 32q18 -18 71 -70q30 22 66 34q36 13 74 13q37 0 73 -13q37 -12 66 -34q24 23 71 70q8 -8 33 -32l-72 -72q27 -27 38 -65t11 -76q0 -37 -11 -74q-12 -38 -37 -65l69 -69l-31 -31l-68 68
q-33 -26 -69 -37q-35 -11 -73 -11q-39 0 -77 13t-66 35q-23 -22 -68 -68q-7 8 -31 31zM262 523q-37 0 -69 -14q-33 -14 -58 -39q-24 -25 -38 -57q-14 -33 -14 -70t14 -69q15 -32 38 -57q25 -23 58 -37q32 -14 69 -14t69 14q33 14 56 37q25 25 39 57t14 69t-14 70
q-13 32 -38 57q-24 25 -57 39q-32 14 -69 14z" />
    <glyph glyph-name="yen" unicode="&#xa5;" 
d="M90 220q1 6 5 23h113q3 13 11 52h-158q2 6 6 22h157q-32 95 -128 377h-87q1 6 5 23h276q-1 -6 -4 -23h-98q29 -82 115 -327q53 82 210 327h-99q1 6 5 23h210q-2 -6 -5 -23h-80q-57 -89 -228 -357q-1 -5 -5 -20h151q-1 -5 -5 -22h-151q-3 -13 -11 -52h109q-1 -6 -5 -23
h-109q-11 -49 -43 -197h92q-1 -6 -4 -23h-274q2 6 6 23h92q11 49 44 197h-113z" />
    <glyph glyph-name="brokenbar" unicode="&#xa6;" horiz-adv-x="247" 
d="M97 717h51v-336h-51v336zM97 213h51v-336h-51v336z" />
    <glyph glyph-name="section" unicode="&#xa7;" horiz-adv-x="493" 
d="M169 -134q-42 0 -73 12t-52 31q-20 18 -31 40q-10 22 -10 43q0 27 14 45t37 18q18 0 29 -13q12 -13 12 -32q0 -15 -7 -22q-8 -7 -18 -12t-17 -8q-8 -4 -8 -11q0 -12 10 -24q11 -12 28 -22t40 -16q23 -7 50 -7q29 0 54 10t43 27q19 17 30 38q10 22 10 46t-8 43t-23 36
q-15 18 -35 36q-21 17 -45 38q-27 22 -53 42t-47 41q-19 20 -31 43q-13 22 -13 51q0 30 12 53q12 24 28 42q18 19 36 32q19 13 32 22q-8 11 -20 33t-12 54q0 30 13 59t35 51q24 23 55 36q32 14 69 14q57 0 95 -28q37 -29 37 -73q0 -21 -14 -37q-13 -16 -37 -16q-17 0 -29 11
q-12 12 -12 32q0 13 7 20t16 11q8 5 15 9q7 3 7 9q0 7 -8 15q-7 7 -20 12q-11 6 -26 9q-15 4 -30 4q-20 0 -41 -7t-39 -20q-17 -13 -28 -33q-12 -19 -12 -45q0 -24 12 -44t31 -40q21 -18 47 -38q27 -20 56 -46q19 -17 37 -32q17 -16 29 -32q14 -16 21 -34q8 -19 8 -44
q0 -27 -12 -50t-29 -42q-16 -19 -34 -32q-17 -14 -27 -23q7 -10 14 -18q7 -9 13 -21t10 -28t4 -40q0 -37 -16 -69q-15 -32 -42 -56q-25 -24 -61 -39q-36 -14 -76 -14zM183 272q18 -14 36 -29q19 -16 35 -30q17 -13 31 -25q13 -12 21 -19q6 5 17 14q11 10 21 22q11 12 20 27
q8 16 8 33t-5 29q-6 13 -16 23q-9 12 -22 22q-13 11 -28 25q-36 29 -71 59q-34 30 -54 48q-9 -6 -21 -15q-12 -10 -22 -22q-10 -11 -17 -26q-7 -16 -7 -34q0 -16 6 -29t16 -26q10 -11 24 -23q14 -11 28 -24z" />
    <glyph glyph-name="dieresis" unicode="&#xa8;" horiz-adv-x="348" 
d="M156 530q-21 0 -34 14q-13 13 -13 34q0 20 13 33q13 14 34 14q20 0 33 -14q14 -13 14 -33q0 -21 -14 -34q-13 -14 -33 -14zM336 530q-21 0 -34 14q-13 13 -13 34q0 20 13 33q13 14 34 14q20 0 34 -14q13 -13 13 -33q0 -21 -13 -34q-14 -14 -34 -14z" />
    <glyph glyph-name="copyright" unicode="&#xa9;" horiz-adv-x="569" 
d="M413 444q-2 -12 -5 -29q-4 -17 -14 -32t-30 -27q-20 -11 -55 -11q-58 0 -95 38q-37 39 -37 99q0 37 11 68q12 31 29 52q19 23 41 35q23 13 45 13q15 0 26 -2q11 -3 19 -6t15 -6q7 -2 13 -2t10 5q3 5 7 10h16v-104q-4 -1 -16 -3q-5 12 -11 27q-6 16 -15 28q-9 13 -21 23
q-12 9 -30 9q-35 0 -54 -38q-18 -38 -18 -108q0 -52 19 -83t56 -31q22 0 35 8q14 9 21 20q8 13 11 25q3 13 5 21q7 1 22 1zM302 254q-48 0 -92 18q-43 18 -76 49t-52 73q-20 42 -20 90q0 54 20 99q19 46 52 80q33 33 76 53q44 19 92 19t92 -19q43 -20 76 -53q33 -34 52 -80
q20 -45 20 -99q0 -48 -20 -90q-19 -42 -52 -73t-76 -49q-44 -18 -92 -18zM98 484q0 -41 17 -76q16 -35 44 -62q27 -25 64 -41q37 -15 79 -15q41 0 78 15q38 16 65 41q28 27 44 62q17 35 17 76q0 46 -17 85q-16 39 -44 68q-27 30 -65 46q-37 16 -78 16q-42 0 -79 -16t-64 -46
q-28 -29 -44 -68q-17 -39 -17 -85z" />
    <glyph glyph-name="ordfeminine" unicode="&#xaa;" horiz-adv-x="455" 
d="M425 696q-14 -57 -55 -230l-8 -32q-2 -12 -2 -22t5 -16q4 -7 13 -7q10 0 20 8q11 9 20 20q9 12 16 24t12 20l18 -9q-5 -12 -16 -30t-26 -35q-14 -16 -32 -29q-18 -12 -37 -12q-20 0 -33 7q-13 6 -20 17q-6 10 -9 22q-3 11 -4 22q-7 -8 -17 -20t-24 -23q-15 -11 -34 -18
t-45 -7q-27 0 -47 12q-21 12 -35 32q-13 21 -20 48q-8 27 -8 58q0 43 19 81q18 38 47 67q29 30 63 47q35 18 67 18q22 0 38 -6t26 -14q12 -8 19 -18q7 -11 12 -20q4 15 10 45h67zM253 688q-27 0 -47 -17t-35 -43q-14 -26 -24 -57q-10 -30 -16 -58q-5 -28 -8 -48
q-2 -21 -2 -25q0 -31 13 -52q12 -21 45 -21q37 0 65 27q28 28 48 67q19 40 29 82t10 69q0 33 -24 55q-23 21 -54 21z" />
    <glyph glyph-name="guillemotleft" unicode="&#xab;" horiz-adv-x="493" 
d="M45 233q2 6 7 22q49 43 195 173q3 -4 13 -14q-36 -46 -143 -184q18 -45 71 -183q-4 -2 -17 -8q-31 49 -126 194zM225 233q2 6 7 22q49 43 195 173q3 -4 13 -14q-36 -46 -143 -184q18 -45 72 -183q-5 -2 -18 -8q-31 49 -126 194z" />
    <glyph glyph-name="logicalnot" unicode="&#xac;" horiz-adv-x="550" 
d="M441 389h-368v51h420v-190h-52v139z" />
    <glyph glyph-name="registered" unicode="&#xae;" horiz-adv-x="569" 
d="M183 377q23 2 31 8q7 6 7 33v167q0 12 -1 19q-2 7 -7 10q-4 3 -11 4q-7 2 -19 4v20h125q24 0 44 -3q21 -2 35 -9q15 -7 24 -20t9 -35q0 -21 -8 -35t-19 -22t-24 -12t-24 -7q24 -16 34 -34q10 -19 14 -35q5 -15 8 -26q3 -10 14 -10q6 0 9 4t4 10q2 6 3 11v9h21
q0 -8 -2 -20q-3 -13 -9 -24t-17 -19q-10 -8 -27 -8q-21 0 -33 11q-12 10 -18 24q-5 16 -8 33q-2 17 -7 32q-4 15 -14 25q-10 11 -28 11h-11v-72q0 -15 1 -23t5 -12t11 -6q8 -1 21 -3v-20h-133v20zM278 514h21q11 0 22 2q10 2 18 8t13 18q5 11 5 28q0 24 -8 38q-9 14 -36 14
q-26 0 -31 -10q-4 -10 -4 -29v-69zM302 254q-48 0 -92 18q-43 19 -76 52q-33 32 -52 76q-20 43 -20 95q0 50 20 94q19 44 52 77q33 32 76 51q44 18 92 18t92 -18q43 -19 76 -51q33 -33 52 -77q20 -44 20 -94q0 -52 -20 -95q-19 -44 -52 -76q-33 -33 -76 -52q-44 -18 -92 -18
zM98 495q0 -43 17 -81q16 -37 44 -65q27 -27 64 -43t79 -16q41 0 78 16q38 16 65 43q28 28 44 65q17 38 17 81t-17 80q-16 37 -44 65q-27 28 -65 44q-37 15 -78 15q-42 0 -79 -15q-37 -16 -64 -44q-28 -28 -44 -65q-17 -37 -17 -80z" />
    <glyph glyph-name="macron" unicode="&#xaf;" horiz-adv-x="348" 
d="M133 617h257l-8 -40h-257z" />
    <glyph glyph-name="degree" unicode="&#xb0;" 
d="M299 494q-47 0 -77 30q-31 30 -31 77t31 77q30 31 77 31t77 -31q31 -30 31 -77t-31 -77q-30 -30 -77 -30zM299 524q33 0 55 22t22 55t-22 55t-55 22t-55 -22t-22 -55t22 -55t55 -22z" />
    <glyph glyph-name="plusminus" unicode="&#xb1;" horiz-adv-x="550" 
d="M254 375h-184v51h184v145h51v-145h184v-51h-184v-146h-51v146zM70 170h419v-51h-419v51z" />
    <glyph glyph-name="twosuperior" unicode="&#xb2;" horiz-adv-x="379" 
d="M43 332q13 8 36 24q22 16 49 36q27 22 54 47q28 25 49 53q23 27 37 56q15 30 15 58q0 38 -23 57q-22 19 -58 19q-30 0 -49 -14q-20 -15 -20 -28q0 -8 7 -11t16 -6q8 -3 15 -10t7 -23q0 -11 -11 -21q-10 -9 -28 -9q-19 0 -29 17q-11 16 -11 37q0 17 9 33q8 17 23 29
q16 13 39 21t51 8q60 0 94 -29q35 -29 35 -78q0 -26 -15 -52q-16 -26 -40 -51q-25 -26 -54 -50q-30 -24 -59 -44q-27 -19 -51 -33q-23 -15 -35 -22v-2h157q12 0 20 1t13 4t8 10t7 18q3 8 8 24h19q-8 -29 -30 -118h-263q2 12 8 49z" />
    <glyph glyph-name="threesuperior" unicode="&#xb3;" horiz-adv-x="379" 
d="M172 268q-61 0 -90 27t-29 63q0 15 10 27q11 12 29 12q35 0 35 -29q0 -15 -6 -21q-5 -6 -12 -10q-7 -3 -12 -5q-6 -2 -6 -6q0 -15 23 -26q22 -11 48 -11q31 0 51 13t32 33t17 44q5 23 5 45q0 21 -6 35t-17 22t-24 12q-14 4 -30 4q-9 0 -17 -1q-9 -1 -17 -1q-16 0 -16 10
q0 8 5 10t12 2q8 0 20 -1q11 -1 23 -1q26 0 43 11q17 12 26 28q10 17 13 38t3 41q0 26 -19 39q-18 12 -42 12q-26 0 -41 -8t-15 -14q0 -8 3 -11q3 -4 7 -8q4 -3 7 -9q3 -5 3 -16t-9 -19q-9 -9 -26 -9q-15 0 -23 10q-9 10 -9 27q0 32 32 55t85 23q21 0 42 -7q20 -7 35 -19
q17 -11 27 -29q10 -17 10 -39q0 -25 -11 -43t-29 -30q-16 -12 -35 -19t-33 -11v-2q17 -5 35 -12q17 -7 30 -19q15 -11 23 -28q9 -17 9 -43t-13 -51q-13 -24 -35 -44q-22 -18 -53 -29q-31 -12 -68 -12z" />
    <glyph glyph-name="acute" unicode="&#xb4;" horiz-adv-x="344" 
d="M116 546q61 29 245 116q5 -12 20 -47q-65 -21 -258 -85q-2 4 -7 16z" />
    <glyph glyph-name="mu" unicode="&#xb5;" horiz-adv-x="550" 
d="M531 141q-6 -12 -18 -39q-12 -26 -32 -54q-19 -26 -47 -46q-27 -20 -64 -20q-61 0 -61 67q0 12 1 25t3 24q0 1 -2 2q-36 -55 -84 -87q-49 -31 -117 -31q-37 0 -61 21t-24 60q0 10 1 23q2 12 4 23q-1 0 -2 2q-5 -13 -14 -33t-17 -42t-14 -43q-7 -21 -7 -33q0 -10 4 -16
q4 -5 10 -9q5 -3 12 -5t13 -5q12 -5 21 -13t9 -31q0 -18 -12 -31q-13 -12 -35 -12q-25 0 -38 25q-14 25 -14 70q0 26 13 61q13 36 28 72q17 43 32 78q16 35 29 69q14 34 26 69t23 78q9 36 27 107h74q-22 -86 -87 -342q-5 -15 -9 -33q-4 -17 -4 -29q0 -45 46 -45t85 29
q38 29 67 72q20 29 34 63q13 33 20 65q19 73 58 220h73q-20 -77 -80 -309q-10 -39 -14 -65q-4 -25 -4 -44q0 -31 28 -31q16 0 32 17q17 17 31 40q15 22 26 44q11 21 15 31q6 -3 16 -9z" />
    <glyph glyph-name="paragraph" unicode="&#xb6;" horiz-adv-x="626" 
d="M430 108q-6 -29 -16 -71q-11 -42 -35 -81q-24 -40 -66 -68q-42 -27 -110 -27q-31 0 -57 9q-25 10 -44 27q-18 15 -29 35q-11 21 -11 43q0 24 15 44q15 21 45 21q17 0 32 -12q15 -13 15 -33t-8 -28t-18 -12q-9 -5 -17 -9t-8 -15q0 -8 8 -17q8 -8 20 -14q14 -8 31 -12
q17 -5 34 -5q19 0 36 8q27 128 83 383h-19q-33 0 -72 11q-39 10 -72 33q-33 25 -54 64q-22 39 -22 97t17 97t45 66t64 42q35 14 72 22t71 9q34 2 61 2h224q-1 -6 -5 -23h-83q-32 -146 -127 -586zM275 -99q27 13 46 28t32 38q15 23 26 58q11 34 23 89q42 193 126 580h-81
q-43 -198 -172 -793z" />
    <glyph glyph-name="periodcentered" unicode="&#xb7;" 
d="M265 301q-20 0 -34 13q-13 13 -13 28q0 25 13 39q14 14 34 14q21 0 34 -14t13 -39q0 -15 -13 -28t-34 -13z" />
    <glyph glyph-name="cedilla" unicode="&#xb8;" horiz-adv-x="348" 
d="M27 -223h20q22 0 42 4q21 5 37 16q16 10 26 27t10 43q0 33 -17 46q-16 14 -42 14q-8 0 -13 -1q7 26 20 76h9h14q-4 -14 -15 -57q15 0 33 -4q17 -4 31 -14q16 -10 25 -26t9 -38q0 -27 -13 -47q-14 -20 -34 -33q-21 -13 -45 -20q-25 -7 -48 -7q-20 0 -30 1q-10 0 -22 2z
" />
    <glyph glyph-name="onesuperior" unicode="&#xb9;" horiz-adv-x="379" 
d="M75 303h72q17 80 66 322q1 6 3 13q2 8 2 13q0 14 -10 16q-9 3 -25 3h-36q1 5 5 20h29q31 0 59 2q27 2 57 6q-27 -131 -82 -395h73q-2 -5 -5 -20h-213q1 5 5 20z" />
    <glyph glyph-name="ordmasculine" unicode="&#xba;" horiz-adv-x="398" 
d="M249 688q-30 0 -50 -13q-20 -12 -33 -43q-8 -19 -16 -44t-14 -50t-10 -48q-4 -22 -4 -36q0 -87 77 -87q16 0 29 2q14 2 26 11q12 10 24 30q11 20 22 56q7 23 13 48q5 25 10 46q4 22 6 38q2 15 2 22q0 34 -22 51q-21 17 -60 17zM58 508q0 39 17 75q16 37 43 64
q26 28 62 45q35 17 74 17q35 0 61 -13q27 -12 44 -32q18 -20 27 -46q8 -25 8 -51q0 -42 -15 -82q-14 -40 -41 -70q-26 -31 -63 -50q-36 -19 -79 -19q-68 0 -103 45t-35 117z" />
    <glyph glyph-name="guillemotright" unicode="&#xbb;" horiz-adv-x="493" 
d="M232 53l144 184q-18 45 -72 183q4 2 18 8q31 -49 125 -195q-1 -5 -7 -21q-48 -43 -194 -173q-4 3 -14 14zM52 53l144 184q-18 45 -72 183q4 2 17 8q32 -49 126 -195q-2 -5 -7 -21q-49 -43 -194 -173q-4 3 -14 14z" />
    <glyph glyph-name="onequarter" unicode="&#xbc;" horiz-adv-x="777" 
d="M459 20h63q5 24 20 94h-184q1 4 4 18q60 67 133 141q73 75 149 142h27q-16 -70 -62 -281h63q3 12 11 49h20q-6 -30 -25 -122h-21q3 13 11 53h-63q-5 -24 -19 -94h59q0 -5 -2 -20h-188zM547 134q11 50 43 199q-1 0 -2 2l-46 -46l-53 -53q-26 -27 -51 -54q-25 -26 -44 -48
h153zM69 303h72q17 80 66 322q1 6 3 13q2 8 2 13q0 14 -10 16q-9 3 -25 3h-36l4 20h30q31 0 58 2q28 2 58 6q-27 -131 -82 -395h73q-2 -5 -6 -20h-213q2 5 6 20zM647 705h33q-127 -180 -508 -719h-33q127 179 508 719z" />
    <glyph glyph-name="onehalf" unicode="&#xbd;" horiz-adv-x="777" 
d="M43 303h73q16 80 65 322q1 6 3 13q2 8 2 13q0 14 -9 16q-10 3 -25 3h-36l4 20h30q30 0 58 2t57 6q-27 -131 -82 -395h73q-1 -5 -5 -20h-213q1 5 5 20zM428 49q13 8 36 24q22 16 49 37t54 46q28 25 49 53q23 28 37 57q15 29 15 58q0 37 -23 56q-22 19 -58 19
q-30 0 -49 -14q-20 -14 -20 -28q0 -8 7 -11t16 -6q8 -3 15 -10q7 -6 7 -23q0 -11 -11 -20q-10 -9 -28 -9q-19 0 -29 16q-11 16 -11 38q0 16 9 33q8 16 23 28q16 14 39 21q23 8 51 8q60 0 94 -29q35 -28 35 -78q0 -24 -15 -51q-15 -26 -40 -52t-54 -50q-30 -24 -59 -43
q-27 -20 -51 -34q-23 -14 -35 -22v-2h157q12 0 20 1t13 5q5 3 8 9q3 7 7 18q3 8 8 25h19q-8 -30 -30 -119h-263q2 12 8 49zM625 705h32q-127 -180 -507 -719h-33q127 179 508 719z" />
    <glyph glyph-name="threequarters" unicode="&#xbe;" horiz-adv-x="777" 
d="M467 20h63q5 24 20 94h-183q1 4 4 18q59 67 132 141q74 75 149 142h27q-15 -70 -62 -281h63q3 12 11 49h21q-7 -30 -26 -122h-20q2 13 10 53h-63q-4 -24 -19 -94h59q0 -5 -2 -20h-188zM555 134q11 50 43 199l-2 2q-19 -20 -46 -46q-26 -26 -52 -53q-27 -27 -52 -54
q-25 -26 -44 -48h153zM176 268q-61 0 -90 27t-29 63q0 15 11 27q10 12 28 12q35 0 35 -29q0 -15 -6 -21q-5 -6 -12 -10q-7 -3 -12 -5q-6 -2 -6 -6q0 -15 23 -26q22 -11 48 -11q31 0 51 13q21 13 32 33q12 20 17 44q5 23 5 45q0 21 -6 35t-17 22q-10 8 -24 12t-29 4
q-10 0 -18 -1q-9 -1 -17 -1q-16 0 -16 10q0 8 5 10t12 2q8 0 20 -1t23 -1q26 0 43 11q17 12 26 28q10 17 13 38t3 41q0 26 -19 39q-18 12 -42 12q-26 0 -41 -8t-15 -14q0 -8 3 -11q3 -4 7 -8q4 -3 7 -9q4 -5 4 -16t-10 -19q-9 -9 -26 -9q-15 0 -23 10q-9 10 -9 27
q0 32 32 55t85 23q21 0 42 -7q20 -7 35 -19q17 -11 27 -29q10 -17 10 -39q0 -25 -11 -43t-29 -30q-16 -12 -35 -19t-33 -11v-2q17 -5 35 -12q17 -7 30 -19q15 -11 23 -28q9 -17 9 -43t-13 -51q-13 -24 -35 -44q-22 -18 -53 -29q-31 -12 -68 -12zM655 705h33
q-127 -180 -508 -719h-33q127 179 508 719z" />
    <glyph glyph-name="questiondown" unicode="&#xbf;" horiz-adv-x="397" 
d="M260 238q0 -14 -1 -38q-1 -25 -8 -54q-7 -27 -23 -55q-15 -29 -44 -50q-26 -21 -56 -37q-30 -17 -55 -37q-25 -19 -42 -43t-17 -59q0 -16 8 -35t23 -36q16 -17 42 -28q25 -12 59 -12q17 0 33 4q17 4 30 13q14 7 23 18q9 10 9 23q0 9 -9 12q-8 4 -18 7q-9 3 -17 9
q-9 5 -9 21t11 29q10 14 30 14q31 0 44 -18t13 -42q0 -47 -40 -80q-39 -32 -108 -32q-36 0 -66 13q-31 13 -54 37q-22 22 -34 53q-13 31 -13 67t13 63q12 28 31 49q21 23 46 40q26 18 52 33t51 30t44 33q11 10 17 22t8 24q4 12 4 23q1 10 2 19h21zM279 391q-21 0 -34 15
q-14 14 -14 38q0 16 14 29q13 12 34 12q20 0 33 -12q14 -13 14 -29q0 -24 -14 -38q-13 -15 -33 -15z" />
    <glyph glyph-name="Agrave" unicode="&#xc0;" horiz-adv-x="588" 
d="M-93 23h65l508 704h21q-16 -176 -63 -704h88q-1 -6 -4 -23h-273q1 6 4 23h97q6 51 22 205h-219q-37 -51 -148 -205h100q-1 -6 -5 -23h-199q1 6 6 23zM170 251h204q8 81 33 326q-1 0 -3 2q-58 -82 -234 -328zM337 847q5 11 19 46q62 -29 246 -116q-2 -4 -7 -15
q-65 21 -258 85z" />
    <glyph glyph-name="Aacute" unicode="&#xc1;" horiz-adv-x="588" 
d="M-93 23h65l508 704h21q-16 -176 -63 -704h88q-1 -6 -4 -23h-273q1 6 4 23h97q6 51 22 205h-219q-37 -51 -148 -205h100q-1 -6 -5 -23h-199q1 6 6 23zM170 251h204q8 81 33 326q-1 0 -3 2q-58 -82 -234 -328zM391 777q62 29 246 116q5 -12 19 -46q-64 -21 -258 -85
q-1 4 -7 15z" />
    <glyph glyph-name="Acircumflex" unicode="&#xc2;" horiz-adv-x="588" 
d="M-93 23h65l508 704h21q-16 -176 -63 -704h88q-1 -6 -4 -23h-273q1 6 4 23h97q6 51 22 205h-219q-37 -51 -148 -205h100q-1 -6 -5 -23h-199q1 6 6 23zM170 251h204q8 81 33 326q-1 0 -3 2q-58 -82 -234 -328zM314 777l168 112h48l128 -112q-2 -4 -11 -15q-36 21 -144 86
q-46 -22 -181 -86q-2 4 -8 15z" />
    <glyph glyph-name="Atilde" unicode="&#xc3;" horiz-adv-x="588" 
d="M-93 23h65l508 704h21q-16 -176 -63 -704h88q-1 -6 -4 -23h-273q1 6 4 23h97q6 51 22 205h-219q-37 -51 -148 -205h100q-1 -6 -5 -23h-199q1 6 6 23zM170 251h204q8 81 33 326q-1 0 -3 2q-58 -82 -234 -328zM346 788q7 10 18 25q11 14 24 28t29 24q15 11 33 11
q20 0 42 -11q21 -10 42 -22q20 -13 40 -23t38 -10q11 0 20 6q10 6 18 14q9 10 16 18t10 13l15 -12q-6 -10 -17 -25q-10 -15 -25 -29q-13 -14 -31 -23q-17 -10 -37 -10q-15 0 -34 10q-20 10 -42 23q-22 12 -43 22q-22 10 -40 10q-8 0 -18 -6q-10 -7 -18 -15t-15 -17
q-6 -9 -10 -12q-5 4 -15 11z" />
    <glyph glyph-name="Adieresis" unicode="&#xc4;" horiz-adv-x="588" 
d="M-93 23h65l508 704h21q-16 -176 -63 -704h88q-1 -6 -4 -23h-273q1 6 4 23h97q6 51 22 205h-219q-37 -51 -148 -205h100q-1 -6 -5 -23h-199q1 6 6 23zM170 251h204q8 81 33 326q-1 0 -3 2q-58 -82 -234 -328zM401 762q-20 0 -33 13q-14 13 -14 34q0 20 14 34q13 13 33 13
q21 0 34 -13q14 -14 14 -34q0 -21 -14 -34q-13 -13 -34 -13zM582 762q-21 0 -34 13t-13 34q0 20 13 34q13 13 34 13q20 0 33 -13q14 -14 14 -34q0 -21 -14 -34q-13 -13 -33 -13z" />
    <glyph glyph-name="Aring" unicode="&#xc5;" horiz-adv-x="588" 
d="M-93 23h65l508 704h21q-16 -176 -63 -704h88q-1 -6 -4 -23h-273q1 6 4 23h97q6 51 22 205h-219q-37 -51 -148 -205h100q-1 -6 -5 -23h-199q1 6 6 23zM170 251h204q8 81 33 326q-1 0 -3 2q-58 -82 -234 -328zM514 762q-38 0 -62 24q-25 25 -25 63t25 62q24 25 62 25
t63 -25q24 -24 24 -62t-24 -63q-25 -24 -63 -24zM458 849q0 -24 16 -40t40 -16t40 16t16 40q0 23 -16 40q-16 16 -40 16t-40 -16q-16 -17 -16 -40z" />
    <glyph glyph-name="AE" unicode="&#xc6;" horiz-adv-x="853" 
d="M177 250h206q22 100 88 402q0 1 -2 2zM242 0q1 6 4 23h88l44 204h-218l-152 -204h96q-1 -6 -4 -23h-194q1 6 3 23h67q127 173 508 694h387q-9 -47 -35 -187h-21l4 26q1 12 1 25q0 41 -12 64q-11 23 -32 33q-19 11 -46 14q-27 2 -56 2h-107q-17 -78 -67 -311h38q40 0 61 9
q22 8 33 24q12 16 18 40t16 55h19q-16 -72 -63 -290h-20q3 16 7 36q4 19 4 45q0 20 -6 31q-6 12 -16 18q-9 6 -23 8q-13 1 -27 1h-46q-19 -84 -73 -337h124q64 0 106 16q41 17 67 45q25 29 39 64q14 36 24 74h21q-12 -55 -47 -222h-514z" />
    <glyph glyph-name="Ccedilla" unicode="&#xc7;" horiz-adv-x="588" 
d="M450 47q-11 -9 -25 -20t-34 -21q-19 -10 -44 -17q-25 -6 -56 -6q-61 0 -108 23q-48 23 -81 63q-31 41 -48 95q-17 55 -17 119q0 84 33 164q33 81 86 145t118 104q66 39 132 39q31 0 54 -8q22 -8 37 -19q15 -12 24 -23q8 -11 14 -18q11 13 35 40h18q-11 -50 -45 -200h-22
q2 17 4 33t2 33q0 30 -6 56q-7 25 -22 44q-15 18 -38 29t-55 11q-53 0 -94 -28q-41 -29 -71 -74q-31 -44 -53 -100q-21 -56 -34 -113q-13 -56 -19 -108q-6 -51 -6 -86q0 -25 7 -59q7 -33 26 -65q18 -31 49 -53q32 -22 79 -22q55 0 95 25t66 59t41 68q14 34 20 52h20
q-11 -52 -46 -209h-14q-6 12 -22 47zM167 -223h20q22 0 42 4q21 5 37 16q17 10 26 27q10 17 10 43q0 33 -16 46q-17 14 -42 14q-8 0 -14 -1q7 26 20 76h9h14q-3 -14 -15 -57q15 0 33 -4q17 -4 32 -14t24 -26t9 -38q0 -27 -13 -47t-34 -33q-20 -13 -45 -20q-24 -7 -48 -7
q-19 0 -30 1q-10 0 -22 2z" />
    <glyph glyph-name="Egrave" unicode="&#xc8;" horiz-adv-x="569" 
d="M-56 23h92q36 167 145 671h-92q1 6 4 23h480q-9 -47 -35 -187h-21l4 26q1 12 1 25q0 41 -12 64q-11 23 -32 33q-19 11 -46 14q-26 2 -56 2h-107q-17 -78 -67 -311h38q40 0 61 9q22 8 33 24q12 16 18 40t16 55h19q-16 -72 -63 -290h-20q3 16 7 36q4 19 4 45q0 20 -6 31
q-6 12 -16 18q-9 6 -23 8q-13 1 -27 1h-46q-19 -84 -73 -337h124q64 0 106 16q41 17 67 45q25 29 39 64q14 36 24 74h21q-12 -55 -47 -222h-519q1 6 5 23zM236 847q4 11 19 46q61 -29 246 -116q-2 -4 -7 -15q-65 21 -258 85z" />
    <glyph glyph-name="Eacute" unicode="&#xc9;" horiz-adv-x="569" 
d="M-56 23h92q36 167 145 671h-92q1 6 4 23h480q-9 -47 -35 -187h-21l4 26q1 12 1 25q0 41 -12 64q-11 23 -32 33q-19 11 -46 14q-26 2 -56 2h-107q-17 -78 -67 -311h38q40 0 61 9q22 8 33 24q12 16 18 40t16 55h19q-16 -72 -63 -290h-20q3 16 7 36q4 19 4 45q0 20 -6 31
q-6 12 -16 18q-9 6 -23 8q-13 1 -27 1h-46q-19 -84 -73 -337h124q64 0 106 16q41 17 67 45q25 29 39 64q14 36 24 74h21q-12 -55 -47 -222h-519q1 6 5 23zM259 777q62 29 246 116q5 -12 19 -46q-64 -21 -258 -85q-2 4 -7 15z" />
    <glyph glyph-name="Ecircumflex" unicode="&#xca;" horiz-adv-x="569" 
d="M-56 23h92q36 167 145 671h-92q1 6 4 23h480q-9 -47 -35 -187h-21l4 26q1 12 1 25q0 41 -12 64q-11 23 -32 33q-19 11 -46 14q-26 2 -56 2h-107q-17 -78 -67 -311h38q40 0 61 9q22 8 33 24q12 16 18 40t16 55h19q-16 -72 -63 -290h-20q3 16 7 36q4 19 4 45q0 20 -6 31
q-6 12 -16 18q-9 6 -23 8q-13 1 -27 1h-46q-19 -84 -73 -337h124q64 0 106 16q41 17 67 45q25 29 39 64q14 36 24 74h21q-12 -55 -47 -222h-519q1 6 5 23zM203 777l168 112h48l128 -112q-3 -4 -11 -15q-37 21 -145 86q-45 -22 -181 -86q-2 4 -7 15z" />
    <glyph glyph-name="Edieresis" unicode="&#xcb;" horiz-adv-x="569" 
d="M-56 23h92q36 167 145 671h-92q1 6 4 23h480q-9 -47 -35 -187h-21l4 26q1 12 1 25q0 41 -12 64q-11 23 -32 33q-19 11 -46 14q-26 2 -56 2h-107q-17 -78 -67 -311h38q40 0 61 9q22 8 33 24q12 16 18 40t16 55h19q-16 -72 -63 -290h-20q3 16 7 36q4 19 4 45q0 20 -6 31
q-6 12 -16 18q-9 6 -23 8q-13 1 -27 1h-46q-19 -84 -73 -337h124q64 0 106 16q41 17 67 45q25 29 39 64q14 36 24 74h21q-12 -55 -47 -222h-519q1 6 5 23zM297 762q-21 0 -34 13t-13 34q0 20 13 34q13 13 34 13q20 0 34 -13q13 -14 13 -34q0 -21 -13 -34q-14 -13 -34 -13z
M477 762q-20 0 -34 13q-13 13 -13 34q0 20 13 34q14 13 34 13q21 0 34 -13q13 -14 13 -34q0 -21 -13 -34t-34 -13z" />
    <glyph glyph-name="Igrave" unicode="&#xcc;" horiz-adv-x="341" 
d="M-43 23h92q37 167 146 671h-93q1 6 4 23h274q-1 -6 -5 -23h-92q-37 -168 -146 -671h92q-1 -6 -4 -23h-273q1 6 5 23zM122 847q5 11 19 46q62 -29 246 -116q-2 -4 -7 -15q-65 21 -258 85z" />
    <glyph glyph-name="Iacute" unicode="&#xcd;" horiz-adv-x="341" 
d="M-43 23h92q37 167 146 671h-93q1 6 4 23h274q-1 -6 -5 -23h-92q-37 -168 -146 -671h92q-1 -6 -4 -23h-273q1 6 5 23zM140 777q62 29 246 116q5 -12 20 -46q-65 -21 -259 -85q-1 4 -7 15z" />
    <glyph glyph-name="Icircumflex" unicode="&#xce;" horiz-adv-x="341" 
d="M-43 23h92q37 167 146 671h-93q1 6 4 23h274q-1 -6 -5 -23h-92q-37 -168 -146 -671h92q-1 -6 -4 -23h-273q1 6 5 23zM79 777l168 112h48l128 -112q-3 -4 -11 -15q-36 21 -145 86q-45 -22 -181 -86q-2 4 -7 15z" />
    <glyph glyph-name="Idieresis" unicode="&#xcf;" horiz-adv-x="341" 
d="M-43 23h92q37 167 146 671h-93q1 6 4 23h274q-1 -6 -5 -23h-92q-37 -168 -146 -671h92q-1 -6 -4 -23h-273q1 6 5 23zM163 762q-21 0 -34 13t-13 34q0 20 13 34q13 13 34 13q20 0 34 -13q13 -14 13 -34q0 -21 -13 -34q-14 -13 -34 -13zM343 762q-20 0 -34 13
q-13 13 -13 34q0 20 13 34q14 13 34 13q21 0 34 -13q13 -14 13 -34q0 -21 -13 -34t-34 -13z" />
    <glyph glyph-name="Eth" unicode="&#xd0;" horiz-adv-x="664" 
d="M-49 23h92q18 82 71 329h-119q1 6 4 23h120q17 80 69 319h-93q2 6 5 23h224q56 0 111 -12q54 -12 96 -42q42 -31 69 -85q26 -54 26 -139q0 -101 -31 -182q-31 -82 -87 -139q-55 -57 -134 -87q-78 -31 -172 -31h-256q1 6 5 23zM131 23h68q69 0 121 21q52 22 89 58
q37 38 62 87q24 49 37 102q14 54 20 110q6 57 6 108q0 52 -15 88t-41 57q-25 22 -60 31q-34 9 -72 9h-70q-17 -80 -69 -319h120q-2 -6 -5 -23h-120q-18 -82 -71 -329z" />
    <glyph glyph-name="Ntilde" unicode="&#xd1;" horiz-adv-x="664" 
d="M-50 23h96q36 167 142 671h-98q1 6 5 23h200q47 -137 189 -546h2q28 131 110 523h-91q1 6 4 23h202q-1 -6 -4 -23h-84q-38 -173 -149 -694h-20q-61 170 -241 680h-2q-35 -164 -138 -657h98q-1 -6 -5 -23h-221q1 6 5 23zM261 788q7 10 18 25q11 14 24 28t29 24
q15 11 33 11q20 0 42 -11q21 -10 42 -22q20 -13 40 -23t38 -10q11 0 20 6q10 6 18 14q9 10 16 18t10 13l15 -12q-6 -10 -17 -25q-10 -15 -25 -29q-13 -14 -30 -23q-18 -10 -38 -10q-15 0 -34 10q-20 10 -42 23q-22 12 -43 22q-22 10 -40 10q-8 0 -18 -6q-10 -7 -18 -15
t-15 -17q-6 -9 -10 -12q-5 4 -15 11z" />
    <glyph glyph-name="Ograve" unicode="&#xd2;" horiz-adv-x="645" 
d="M269 -17q-61 0 -105 23t-73 63q-29 41 -42 95q-13 55 -13 119q0 49 13 101t36 102q24 51 56 96t69 78q38 35 80 55t85 20q61 0 105 -23t73 -64q29 -40 42 -95q13 -54 13 -119q0 -48 -13 -101q-13 -52 -37 -103q-22 -50 -55 -95q-32 -45 -70 -79q-37 -33 -79 -53t-85 -20z
M128 194q0 -38 6 -73q6 -34 22 -60q15 -25 42 -41q26 -15 67 -15q59 0 96 39q38 38 74 120q22 50 37 106q15 57 25 107q10 51 14 90q5 39 5 56q0 38 -6 73t-22 60q-15 26 -42 41q-26 16 -67 16q-46 0 -89 -33t-73 -99q-24 -56 -41 -116q-17 -61 -29 -116q-10 -54 -14 -96
q-5 -42 -5 -59zM273 847q5 11 20 46q61 -29 246 -116q-2 -4 -8 -15q-64 21 -258 85z" />
    <glyph glyph-name="Oacute" unicode="&#xd3;" horiz-adv-x="645" 
d="M269 -17q-61 0 -105 23t-73 63q-29 41 -42 95q-13 55 -13 119q0 49 13 101t36 102q24 51 56 96t69 78q38 35 80 55t85 20q61 0 105 -23t73 -64q29 -40 42 -95q13 -54 13 -119q0 -48 -13 -101q-13 -52 -37 -103q-22 -50 -55 -95q-32 -45 -70 -79q-37 -33 -79 -53t-85 -20z
M128 194q0 -38 6 -73q6 -34 22 -60q15 -25 42 -41q26 -15 67 -15q59 0 96 39q38 38 74 120q22 50 37 106q15 57 25 107q10 51 14 90q5 39 5 56q0 38 -6 73t-22 60q-15 26 -42 41q-26 16 -67 16q-46 0 -89 -33t-73 -99q-24 -56 -41 -116q-17 -61 -29 -116q-10 -54 -14 -96
q-5 -42 -5 -59zM282 777q61 29 245 116q5 -12 20 -46q-65 -21 -258 -85q-2 4 -7 15z" />
    <glyph glyph-name="Ocircumflex" unicode="&#xd4;" horiz-adv-x="645" 
d="M269 -17q-61 0 -105 23t-73 63q-29 41 -42 95q-13 55 -13 119q0 49 13 101t36 102q24 51 56 96t69 78q38 35 80 55t85 20q61 0 105 -23t73 -64q29 -40 42 -95q13 -54 13 -119q0 -48 -13 -101q-13 -52 -37 -103q-22 -50 -55 -95q-32 -45 -70 -79q-37 -33 -79 -53t-85 -20z
M128 194q0 -38 6 -73q6 -34 22 -60q15 -25 42 -41q26 -15 67 -15q59 0 96 39q38 38 74 120q22 50 37 106q15 57 25 107q10 51 14 90q5 39 5 56q0 38 -6 73t-22 60q-15 26 -42 41q-26 16 -67 16q-46 0 -89 -33t-73 -99q-24 -56 -41 -116q-17 -61 -29 -116q-10 -54 -14 -96
q-5 -42 -5 -59zM225 777l168 112h48l128 -112q-2 -4 -11 -15q-36 21 -144 86q-46 -22 -182 -86q-1 4 -7 15z" />
    <glyph glyph-name="Otilde" unicode="&#xd5;" horiz-adv-x="645" 
d="M269 -17q-61 0 -105 23t-73 63q-29 41 -42 95q-13 55 -13 119q0 49 13 101t36 102q24 51 56 96t69 78q38 35 80 55t85 20q61 0 105 -23t73 -64q29 -40 42 -95q13 -54 13 -119q0 -48 -13 -101q-13 -52 -37 -103q-22 -50 -55 -95q-32 -45 -70 -79q-37 -33 -79 -53t-85 -20z
M128 194q0 -38 6 -73q6 -34 22 -60q15 -25 42 -41q26 -15 67 -15q59 0 96 39q38 38 74 120q22 50 37 106q15 57 25 107q10 51 14 90q5 39 5 56q0 38 -6 73t-22 60q-15 26 -42 41q-26 16 -67 16q-46 0 -89 -33t-73 -99q-24 -56 -41 -116q-17 -61 -29 -116q-10 -54 -14 -96
q-5 -42 -5 -59zM242 788q7 10 18 25q10 14 24 28q13 14 28 24q16 11 33 11q21 0 42 -11q22 -10 42 -22q21 -13 41 -23q19 -10 38 -10q10 0 20 6t18 14q9 10 16 18q6 8 9 13q6 -4 16 -12q-6 -10 -17 -25t-25 -29t-31 -23q-17 -10 -38 -10q-14 0 -34 10q-19 10 -42 23
q-21 12 -43 22q-21 10 -40 10q-8 0 -17 -6q-10 -7 -18 -15q-9 -8 -15 -17q-7 -9 -10 -12q-5 4 -15 11z" />
    <glyph glyph-name="Odieresis" unicode="&#xd6;" horiz-adv-x="645" 
d="M269 -17q-61 0 -105 23t-73 63q-29 41 -42 95q-13 55 -13 119q0 49 13 101t36 102q24 51 56 96t69 78q38 35 80 55t85 20q61 0 105 -23t73 -64q29 -40 42 -95q13 -54 13 -119q0 -48 -13 -101q-13 -52 -37 -103q-22 -50 -55 -95q-32 -45 -70 -79q-37 -33 -79 -53t-85 -20z
M128 194q0 -38 6 -73q6 -34 22 -60q15 -25 42 -41q26 -15 67 -15q59 0 96 39q38 38 74 120q22 50 37 106q15 57 25 107q10 51 14 90q5 39 5 56q0 38 -6 73t-22 60q-15 26 -42 41q-26 16 -67 16q-46 0 -89 -33t-73 -99q-24 -56 -41 -116q-17 -61 -29 -116q-10 -54 -14 -96
q-5 -42 -5 -59zM304 762q-20 0 -34 13q-13 13 -13 34q0 20 13 34q14 13 34 13q21 0 34 -13q13 -14 13 -34q0 -21 -13 -34t-34 -13zM484 762q-20 0 -33 13q-14 13 -14 34q0 20 14 34q13 13 33 13q21 0 34 -13q13 -14 13 -34q0 -21 -13 -34t-34 -13z" />
    <glyph glyph-name="multiply" unicode="&#xd7;" horiz-adv-x="550" 
d="M111 214q33 33 132 131q-33 33 -132 131q8 9 34 35q33 -33 133 -131q32 33 131 131q8 -9 34 -35q-32 -33 -131 -131l131 -131q-8 -9 -34 -35l-131 131q-34 -32 -133 -131q-8 9 -34 35z" />
    <glyph glyph-name="Oslash" unicode="&#xd8;" horiz-adv-x="645" 
d="M-12 -10q22 26 89 103q-24 41 -35 88q-10 46 -10 102q0 49 13 101t37 102q23 51 55 96t70 78q39 35 81 55q43 20 87 20q61 0 106 -26t74 -70q25 29 76 88q4 -4 16 -14l-80 -96q22 -38 33 -85q10 -47 10 -98q0 -48 -13 -101q-13 -52 -37 -103q-22 -50 -55 -95
q-32 -45 -70 -79q-38 -33 -80 -53q-43 -20 -86 -20q-60 0 -101 23q-40 23 -78 68q-29 -33 -86 -99q-4 4 -16 15zM516 595q-24 118 -137 118q-46 0 -89 -33t-73 -99q-26 -56 -43 -116q-18 -61 -30 -116q-10 -54 -15 -96t-5 -59q3 -14 3 -24q1 -9 1 -20q129 148 388 445z
M132 122q3 -22 13 -43q11 -21 27 -37q17 -16 40 -27q24 -10 53 -10q59 0 96 39q38 38 74 120q23 50 38 106q15 57 26 107q10 51 15 90q4 39 4 56q0 12 1 22l2 20q0 1 -2 2q-97 -111 -387 -445z" />
    <glyph glyph-name="Ugrave" unicode="&#xd9;" horiz-adv-x="664" 
d="M524 236q-9 -39 -19 -84q-9 -44 -33 -82q-22 -38 -65 -63t-119 -25q-44 0 -83 11q-38 12 -67 35q-27 23 -43 56q-16 34 -16 78q0 17 4 42q4 24 9 46l96 444h-92q2 6 5 23h271q-1 -6 -4 -23h-92q-23 -109 -94 -437q-5 -26 -10 -55q-5 -30 -5 -66q0 -28 12 -52
q11 -23 32 -39t49 -26q28 -9 61 -9q55 0 88 29q32 29 51 67q19 39 27 79q9 39 14 61q32 149 97 448h-91q1 6 4 23h195q-2 -6 -6 -23h-75q-25 -114 -101 -458zM303 847q5 11 20 46q61 -29 245 -116q-1 -4 -7 -15q-64 21 -258 85z" />
    <glyph glyph-name="Uacute" unicode="&#xda;" horiz-adv-x="664" 
d="M524 236q-9 -39 -19 -84q-9 -44 -33 -82q-22 -38 -65 -63t-119 -25q-44 0 -83 11q-38 12 -67 35q-27 23 -43 56q-16 34 -16 78q0 17 4 42q4 24 9 46l96 444h-92q2 6 5 23h271q-1 -6 -4 -23h-92q-23 -109 -94 -437q-5 -26 -10 -55q-5 -30 -5 -66q0 -28 12 -52
q11 -23 32 -39t49 -26q28 -9 61 -9q55 0 88 29q32 29 51 67q19 39 27 79q9 39 14 61q32 149 97 448h-91q1 6 4 23h195q-2 -6 -6 -23h-75q-25 -114 -101 -458zM306 777q62 29 246 116q5 -12 19 -46q-64 -21 -258 -85q-1 4 -7 15z" />
    <glyph glyph-name="Ucircumflex" unicode="&#xdb;" horiz-adv-x="664" 
d="M524 236q-9 -39 -19 -84q-9 -44 -33 -82q-22 -38 -65 -63t-119 -25q-44 0 -83 11q-38 12 -67 35q-27 23 -43 56q-16 34 -16 78q0 17 4 42q4 24 9 46l96 444h-92q2 6 5 23h271q-1 -6 -4 -23h-92q-23 -109 -94 -437q-5 -26 -10 -55q-5 -30 -5 -66q0 -28 12 -52
q11 -23 32 -39t49 -26q28 -9 61 -9q55 0 88 29q32 29 51 67q19 39 27 79q9 39 14 61q32 149 97 448h-91q1 6 4 23h195q-2 -6 -6 -23h-75q-25 -114 -101 -458zM250 777l168 112h48l128 -112q-3 -4 -11 -15q-36 21 -145 86q-45 -22 -181 -86q-2 4 -7 15z" />
    <glyph glyph-name="Udieresis" unicode="&#xdc;" horiz-adv-x="664" 
d="M524 236q-9 -39 -19 -84q-9 -44 -33 -82q-22 -38 -65 -63t-119 -25q-44 0 -83 11q-38 12 -67 35q-27 23 -43 56q-16 34 -16 78q0 17 4 42q4 24 9 46l96 444h-92q2 6 5 23h271q-1 -6 -4 -23h-92q-23 -109 -94 -437q-5 -26 -10 -55q-5 -30 -5 -66q0 -28 12 -52
q11 -23 32 -39t49 -26q28 -9 61 -9q55 0 88 29q32 29 51 67q19 39 27 79q9 39 14 61q32 149 97 448h-91q1 6 4 23h195q-2 -6 -6 -23h-75q-25 -114 -101 -458zM344 762q-20 0 -34 13q-13 13 -13 34q0 20 13 34q14 13 34 13q21 0 34 -13q13 -14 13 -34q0 -21 -13 -34t-34 -13z
M524 762q-20 0 -34 13q-13 13 -13 34q0 20 13 34q14 13 34 13q21 0 34 -13q13 -14 13 -34q0 -21 -13 -34t-34 -13z" />
    <glyph glyph-name="Yacute" unicode="&#xdd;" horiz-adv-x="588" 
d="M111 23h92q16 77 66 308q-32 91 -130 363h-87q2 6 5 23h276q-1 -6 -4 -23h-98q29 -82 115 -327q53 82 210 327h-98q1 6 4 23h210q-2 -6 -5 -23h-80q-58 -89 -230 -358q-16 -78 -66 -313h92q-1 -6 -4 -23h-274q2 6 6 23zM258 777q61 29 246 116q5 -12 19 -46
q-64 -21 -258 -85q-2 4 -7 15z" />
    <glyph glyph-name="Thorn" unicode="&#xde;" horiz-adv-x="588" 
d="M180 224h62q53 0 92 11q40 11 65 34q27 25 40 64q13 40 13 98q0 38 -13 60q-12 22 -32 32q-20 11 -45 13q-24 3 -49 3h-64q-17 -79 -69 -315zM-43 23h92q37 167 146 671h-93q1 6 4 23h274q-1 -6 -5 -23h-92q-8 -33 -30 -133h74q31 0 69 -5q38 -6 71 -22q33 -17 55 -47
t22 -80q0 -66 -29 -106q-30 -40 -75 -62q-44 -22 -96 -30q-53 -7 -100 -7h-69q-9 -45 -38 -179h92q-1 -6 -4 -23h-273q1 6 5 23z" />
    <glyph glyph-name="germandbls" unicode="&#xdf;" 
d="M230 420q106 0 150 48q45 49 45 161q0 39 -22 61q-21 23 -63 23q-60 0 -101 -89q-40 -88 -71 -252q-8 -44 -20 -106q-12 -61 -28 -129q-17 -66 -40 -132q-23 -65 -54 -118q-32 -52 -74 -84q-41 -32 -94 -32q-13 0 -26 4q-14 5 -25 14q-11 8 -18 20t-7 26q0 18 12 29
q11 12 30 12q21 0 31 -14q9 -14 9 -31q0 -5 -1 -10q-1 -4 -1 -9q0 -6 3 -12q3 -7 14 -7q28 0 50 21q23 20 39 48q16 26 26 53t13 39q17 55 29 116q13 61 24 124q13 63 24 127q12 63 28 123h-108q1 6 5 23h109q4 18 11 46q7 27 18 56q13 30 30 60q17 29 41 53q26 24 59 38
q33 15 78 15q32 0 60 -12q27 -11 48 -32q20 -20 32 -48t12 -59q0 -46 -21 -77q-20 -31 -51 -51q-29 -21 -63 -33q-33 -11 -59 -17v-3q24 -6 52 -17q28 -12 53 -34q24 -21 41 -55q16 -33 16 -81q0 -45 -17 -87q-18 -42 -48 -75q-30 -32 -70 -52q-39 -20 -83 -20q-27 0 -47 8
q-21 8 -35 21q-14 14 -21 30q-8 16 -8 33q0 18 13 33t35 15q13 0 24 -10q10 -11 10 -30q0 -12 -4 -20q-5 -7 -11 -12t-11 -9q-4 -3 -4 -8q0 -11 18 -20q17 -9 41 -9q41 0 67 27q26 26 42 65q15 40 21 85t6 82q0 48 -18 75q-19 28 -45 40q-27 13 -57 16t-53 3q4 8 10 23z" />
    <glyph glyph-name="agrave" unicode="&#xe0;" 
d="M80 111q0 -48 16 -77q17 -30 51 -30q35 0 65 21q30 20 53 53q24 33 42 73q18 39 29 78q12 40 18 75q6 34 6 54q0 45 -23 75t-62 30q-36 0 -65 -24t-50 -61q-22 -37 -37 -81q-15 -43 -26 -83q-9 -39 -13 -68q-4 -28 -4 -35zM506 119q-5 -9 -18 -32q-12 -22 -31 -46
t-44 -42q-26 -17 -58 -17t-44 20t-14 43q0 8 1 20q1 11 3 17l-2 2q-8 -12 -22 -30q-14 -17 -33 -34q-20 -16 -45 -27t-56 -11q-32 0 -58 15t-43 42q-17 28 -27 64q-9 37 -9 80q0 26 9 59q9 32 25 65q17 34 41 66q24 33 55 57q31 25 67 40t77 15q26 0 44 -9t29 -23
q13 -14 18 -29q6 -15 8 -29h2q4 18 17 72h74q-20 -79 -81 -317q-2 -10 -5 -22q-4 -12 -7 -26l-6 -24q-2 -11 -2 -20q0 -14 5 -27t16 -13q12 0 28 15q15 14 30 33q14 18 25 36q10 18 15 25zM217 615q5 12 20 47q61 -29 245 -116q-1 -4 -7 -16q-64 22 -258 85z" />
    <glyph glyph-name="aacute" unicode="&#xe1;" 
d="M80 111q0 -48 16 -77q17 -30 51 -30q35 0 65 21q30 20 53 53q24 33 42 73q18 39 29 78q12 40 18 75q6 34 6 54q0 45 -23 75t-62 30q-36 0 -65 -24t-50 -61q-22 -37 -37 -81q-15 -43 -26 -83q-9 -39 -13 -68q-4 -28 -4 -35zM506 119q-5 -9 -18 -32q-12 -22 -31 -46
t-44 -42q-26 -17 -58 -17t-44 20t-14 43q0 8 1 20q1 11 3 17l-2 2q-8 -12 -22 -30q-14 -17 -33 -34q-20 -16 -45 -27t-56 -11q-32 0 -58 15t-43 42q-17 28 -27 64q-9 37 -9 80q0 26 9 59q9 32 25 65q17 34 41 66q24 33 55 57q31 25 67 40t77 15q26 0 44 -9t29 -23
q13 -14 18 -29q6 -15 8 -29h2q4 18 17 72h74q-20 -79 -81 -317q-2 -10 -5 -22q-4 -12 -7 -26l-6 -24q-2 -11 -2 -20q0 -14 5 -27t16 -13q12 0 28 15q15 14 30 33q14 18 25 36q10 18 15 25zM215 546q61 29 246 116q5 -12 19 -47q-64 -21 -258 -85q-2 4 -7 16z" />
    <glyph glyph-name="acircumflex" unicode="&#xe2;" 
d="M80 111q0 -48 16 -77q17 -30 51 -30q35 0 65 21q30 20 53 53q24 33 42 73q18 39 29 78q12 40 18 75q6 34 6 54q0 45 -23 75t-62 30q-36 0 -65 -24t-50 -61q-22 -37 -37 -81q-15 -43 -26 -83q-9 -39 -13 -68q-4 -28 -4 -35zM506 119q-5 -9 -18 -32q-12 -22 -31 -46
t-44 -42q-26 -17 -58 -17t-44 20t-14 43q0 8 1 20q1 11 3 17l-2 2q-8 -12 -22 -30q-14 -17 -33 -34q-20 -16 -45 -27t-56 -11q-32 0 -58 15t-43 42q-17 28 -27 64q-9 37 -9 80q0 26 9 59q9 32 25 65q17 34 41 66q24 33 55 57q31 25 67 40t77 15q26 0 44 -9t29 -23
q13 -14 18 -29q6 -15 8 -29h2q4 18 17 72h74q-20 -79 -81 -317q-2 -10 -5 -22q-4 -12 -7 -26l-6 -24q-2 -11 -2 -20q0 -14 5 -27t16 -13q12 0 28 15q15 14 30 33q14 18 25 36q10 18 15 25zM133 546q42 28 168 111h48q32 -27 128 -111q-3 -4 -11 -16q-36 22 -144 86
q-46 -21 -182 -86q-2 4 -7 16z" />
    <glyph glyph-name="atilde" unicode="&#xe3;" 
d="M80 111q0 -48 16 -77q17 -30 51 -30q35 0 65 21q30 20 53 53q24 33 42 73q18 39 29 78q12 40 18 75q6 34 6 54q0 45 -23 75t-62 30q-36 0 -65 -24t-50 -61q-22 -37 -37 -81q-15 -43 -26 -83q-9 -39 -13 -68q-4 -28 -4 -35zM506 119q-5 -9 -18 -32q-12 -22 -31 -46
t-44 -42q-26 -17 -58 -17t-44 20t-14 43q0 8 1 20q1 11 3 17l-2 2q-8 -12 -22 -30q-14 -17 -33 -34q-20 -16 -45 -27t-56 -11q-32 0 -58 15t-43 42q-17 28 -27 64q-9 37 -9 80q0 26 9 59q9 32 25 65q17 34 41 66q24 33 55 57q31 25 67 40t77 15q26 0 44 -9t29 -23
q13 -14 18 -29q6 -15 8 -29h2q4 18 17 72h74q-20 -79 -81 -317q-2 -10 -5 -22q-4 -12 -7 -26l-6 -24q-2 -11 -2 -20q0 -14 5 -27t16 -13q12 0 28 15q15 14 30 33q14 18 25 36q10 18 15 25zM165 557q7 9 18 24t24 28q13 15 29 25q15 10 32 10q21 0 42 -10q22 -10 42 -23
q21 -12 41 -22t38 -10q10 0 20 6t18 14q9 9 16 17q7 9 10 14q5 -4 15 -13q-6 -10 -17 -25q-11 -14 -25 -29q-13 -13 -31 -23q-17 -10 -38 -10q-14 0 -33 11q-20 10 -42 22t-43 23q-22 10 -40 10q-9 0 -18 -7q-10 -6 -18 -15q-8 -8 -15 -16q-7 -9 -10 -12q-5 4 -15 11z" />
    <glyph glyph-name="adieresis" unicode="&#xe4;" 
d="M80 111q0 -48 16 -77q17 -30 51 -30q35 0 65 21q30 20 53 53q24 33 42 73q18 39 29 78q12 40 18 75q6 34 6 54q0 45 -23 75t-62 30q-36 0 -65 -24t-50 -61q-22 -37 -37 -81q-15 -43 -26 -83q-9 -39 -13 -68q-4 -28 -4 -35zM506 119q-5 -9 -18 -32q-12 -22 -31 -46
t-44 -42q-26 -17 -58 -17t-44 20t-14 43q0 8 1 20q1 11 3 17l-2 2q-8 -12 -22 -30q-14 -17 -33 -34q-20 -16 -45 -27t-56 -11q-32 0 -58 15t-43 42q-17 28 -27 64q-9 37 -9 80q0 26 9 59q9 32 25 65q17 34 41 66q24 33 55 57q31 25 67 40t77 15q26 0 44 -9t29 -23
q13 -14 18 -29q6 -15 8 -29h2q4 18 17 72h74q-20 -79 -81 -317q-2 -10 -5 -22q-4 -12 -7 -26l-6 -24q-2 -11 -2 -20q0 -14 5 -27t16 -13q12 0 28 15q15 14 30 33q14 18 25 36q10 18 15 25zM227 530q-20 0 -33 14q-14 13 -14 34q0 20 14 33q13 14 33 14q21 0 34 -14
q13 -13 13 -33q0 -21 -13 -34q-13 -14 -34 -14zM408 530q-21 0 -34 14q-14 13 -14 34q0 20 14 33q13 14 34 14q20 0 33 -14q14 -13 14 -33q0 -21 -14 -34q-13 -14 -33 -14z" />
    <glyph glyph-name="aring" unicode="&#xe5;" 
d="M80 111q0 -48 16 -77q17 -30 51 -30q35 0 65 21q30 20 53 53q24 33 42 73q18 39 29 78q12 40 18 75q6 34 6 54q0 45 -23 75t-62 30q-36 0 -65 -24t-50 -61q-22 -37 -37 -81q-15 -43 -26 -83q-9 -39 -13 -68q-4 -28 -4 -35zM506 119q-5 -9 -18 -32q-12 -22 -31 -46
t-44 -42q-26 -17 -58 -17t-44 20t-14 43q0 8 1 20q1 11 3 17l-2 2q-8 -12 -22 -30q-14 -17 -33 -34q-20 -16 -45 -27t-56 -11q-32 0 -58 15t-43 42q-17 28 -27 64q-9 37 -9 80q0 26 9 59q9 32 25 65q17 34 41 66q24 33 55 57q31 25 67 40t77 15q26 0 44 -9t29 -23
q13 -14 18 -29q6 -15 8 -29h2q4 18 17 72h74q-20 -79 -81 -317q-2 -10 -5 -22q-4 -12 -7 -26l-6 -24q-2 -11 -2 -20q0 -14 5 -27t16 -13q12 0 28 15q15 14 30 33q14 18 25 36q10 18 15 25zM307 530q-38 0 -62 25q-25 25 -25 62q0 38 25 63q24 25 62 25t63 -25q24 -25 24 -63
q0 -37 -24 -62q-25 -25 -63 -25zM251 617q0 -23 16 -39q17 -17 40 -17q24 0 40 17q17 16 17 39q0 24 -17 40q-16 17 -40 17q-23 0 -40 -17q-16 -16 -16 -40z" />
    <glyph glyph-name="ae" unicode="&#xe6;" horiz-adv-x="759" 
d="M81 111q0 -48 16 -77q17 -30 51 -30q35 0 65 21q30 20 53 53q24 33 42 73q18 39 29 78q12 40 18 75q6 34 6 54q0 45 -23 75t-62 30q-36 0 -65 -24t-50 -61q-22 -37 -37 -81q-15 -43 -26 -83q-9 -39 -13 -68q-4 -28 -4 -35zM595 463q-45 0 -77 -27q-33 -26 -54 -62
q-22 -36 -33 -72q-12 -36 -16 -53q21 -3 45 -3q27 0 63 4q35 4 66 18q31 16 52 45t21 78q0 36 -16 54q-15 18 -51 18zM701 129q-9 -14 -27 -39q-19 -25 -45 -50q-27 -24 -62 -41t-78 -17q-49 0 -78 15q-30 15 -49 38q-17 22 -25 46q-7 24 -11 42q-9 -12 -22 -36t-35 -47
q-21 -24 -51 -41q-31 -17 -74 -17q-32 0 -58 15t-43 42q-17 28 -27 64q-9 37 -9 80q0 26 9 59q9 32 25 65q17 34 41 66q24 33 55 57q31 25 67 40t77 15q19 0 34 -6t26 -15q12 -9 20 -21q9 -12 15 -24h2l8 48h74q-3 -12 -9 -46q0 -1 2 -2q11 10 26 22t33 22t41 16q24 6 52 6
q29 0 53 -9t41 -24q18 -15 27 -34q9 -20 9 -41q0 -36 -15 -61t-41 -43q-25 -16 -56 -26q-32 -10 -65 -16q-32 -5 -62 -6q-31 -2 -54 -2q-7 0 -16 1q-9 0 -16 2q-6 -17 -11 -43t-5 -61q0 -21 6 -42t18 -38q13 -16 33 -27t48 -11q35 0 65 18q31 17 54 39q25 24 41 47
q17 22 25 33q6 -4 17 -12z" />
    <glyph glyph-name="ccedilla" unicode="&#xe7;" horiz-adv-x="474" 
d="M404 128q-8 -14 -26 -39q-19 -26 -45 -49q-27 -24 -62 -41q-34 -17 -76 -17q-39 0 -71 15t-54 42q-23 28 -35 64q-12 37 -12 80q0 48 21 102q22 53 58 97q38 45 89 74t109 29q31 0 57 -7q27 -8 45 -21q20 -13 31 -29q10 -17 10 -35q0 -22 -10 -36q-11 -13 -32 -13
q-16 0 -28 10q-12 11 -12 30q0 9 4 15q3 7 7 11q4 5 7 9q3 5 3 11q0 11 -8 18t-21 10q-12 3 -27 4q-16 1 -30 1q-41 0 -72 -24q-30 -24 -53 -61t-37 -81t-22 -83q-9 -39 -12 -68q-4 -29 -4 -35q0 -48 24 -77q24 -30 79 -30q33 0 64 15q30 16 54 37q25 22 43 45q19 23 28 37
q6 -3 16 -10zM90 -223h21q21 0 42 4q20 5 36 16q17 10 27 27q9 17 9 43q0 33 -16 46q-16 14 -42 14q-8 0 -13 -1q6 26 19 76h9h15q-4 -14 -16 -57q16 0 33 -4t32 -14t24 -26q10 -16 10 -38q0 -27 -14 -47q-13 -20 -34 -33q-20 -13 -45 -20q-24 -7 -48 -7q-19 0 -29 1
q-11 0 -23 2z" />
    <glyph glyph-name="egrave" unicode="&#xe8;" horiz-adv-x="474" 
d="M300 463q-45 0 -77 -27q-33 -27 -54 -63q-22 -36 -33 -72q-12 -36 -16 -53l22 -2h23q28 0 63 4t66 18q31 16 52 45t21 78q0 36 -16 54q-15 18 -51 18zM407 129q-10 -14 -28 -39q-19 -25 -45 -50q-27 -24 -62 -41q-34 -17 -77 -17q-39 0 -71 16q-31 17 -53 46t-34 66
q-11 37 -11 79q0 57 26 110q27 53 68 94q42 42 92 67t98 25q29 0 53 -9t41 -24q18 -15 27 -34q9 -20 9 -41q0 -36 -15 -61t-41 -43q-25 -16 -56 -26q-32 -10 -65 -16q-32 -5 -62 -6q-31 -2 -54 -2q-7 0 -16 1t-16 2q-5 -17 -11 -43q-5 -26 -5 -61q0 -21 6 -42q7 -21 19 -38
q13 -16 33 -27t47 -11q35 0 65 18q31 17 55 39q24 24 41 47l24 33zM188 615q5 12 20 47q61 -29 246 -116l-8 -16q-64 22 -258 85z" />
    <glyph glyph-name="eacute" unicode="&#xe9;" horiz-adv-x="474" 
d="M300 463q-45 0 -77 -27q-33 -27 -54 -63q-22 -36 -33 -72q-12 -36 -16 -53l22 -2h23q28 0 63 4t66 18q31 16 52 45t21 78q0 36 -16 54q-15 18 -51 18zM407 129q-10 -14 -28 -39q-19 -25 -45 -50q-27 -24 -62 -41q-34 -17 -77 -17q-39 0 -71 16q-31 17 -53 46t-34 66
q-11 37 -11 79q0 57 26 110q27 53 68 94q42 42 92 67t98 25q29 0 53 -9t41 -24q18 -15 27 -34q9 -20 9 -41q0 -36 -15 -61t-41 -43q-25 -16 -56 -26q-32 -10 -65 -16q-32 -5 -62 -6q-31 -2 -54 -2q-7 0 -16 1t-16 2q-5 -17 -11 -43q-5 -26 -5 -61q0 -21 6 -42q7 -21 19 -38
q13 -16 33 -27t47 -11q35 0 65 18q31 17 55 39q24 24 41 47l24 33zM212 546q61 29 246 116q5 -12 19 -47q-64 -21 -258 -85q-2 4 -7 16z" />
    <glyph glyph-name="ecircumflex" unicode="&#xea;" horiz-adv-x="474" 
d="M300 463q-45 0 -77 -27q-33 -27 -54 -63q-22 -36 -33 -72q-12 -36 -16 -53l22 -2h23q28 0 63 4t66 18q31 16 52 45t21 78q0 36 -16 54q-15 18 -51 18zM407 129q-10 -14 -28 -39q-19 -25 -45 -50q-27 -24 -62 -41q-34 -17 -77 -17q-39 0 -71 16q-31 17 -53 46t-34 66
q-11 37 -11 79q0 57 26 110q27 53 68 94q42 42 92 67t98 25q29 0 53 -9t41 -24q18 -15 27 -34q9 -20 9 -41q0 -36 -15 -61t-41 -43q-25 -16 -56 -26q-32 -10 -65 -16q-32 -5 -62 -6q-31 -2 -54 -2q-7 0 -16 1t-16 2q-5 -17 -11 -43q-5 -26 -5 -61q0 -21 6 -42q7 -21 19 -38
q13 -16 33 -27t47 -11q35 0 65 18q31 17 55 39q24 24 41 47l24 33zM125 546q42 28 168 111h48q32 -27 128 -111q-3 -4 -11 -16q-36 22 -145 86q-45 -21 -181 -86q-2 4 -7 16z" />
    <glyph glyph-name="edieresis" unicode="&#xeb;" horiz-adv-x="474" 
d="M300 463q-45 0 -77 -27q-33 -27 -54 -63q-22 -36 -33 -72q-12 -36 -16 -53l22 -2h23q28 0 63 4t66 18q31 16 52 45t21 78q0 36 -16 54q-15 18 -51 18zM407 129q-10 -14 -28 -39q-19 -25 -45 -50q-27 -24 -62 -41q-34 -17 -77 -17q-39 0 -71 16q-31 17 -53 46t-34 66
q-11 37 -11 79q0 57 26 110q27 53 68 94q42 42 92 67t98 25q29 0 53 -9t41 -24q18 -15 27 -34q9 -20 9 -41q0 -36 -15 -61t-41 -43q-25 -16 -56 -26q-32 -10 -65 -16q-32 -5 -62 -6q-31 -2 -54 -2q-7 0 -16 1t-16 2q-5 -17 -11 -43q-5 -26 -5 -61q0 -21 6 -42q7 -21 19 -38
q13 -16 33 -27t47 -11q35 0 65 18q31 17 55 39q24 24 41 47l24 33zM219 530q-20 0 -34 14q-13 13 -13 34q0 20 13 33q14 14 34 14q21 0 34 -14q13 -13 13 -33q0 -21 -13 -34q-13 -14 -34 -14zM399 530q-20 0 -33 14q-14 13 -14 34q0 20 14 33q13 14 33 14q21 0 34 -14
q13 -13 13 -33q0 -21 -13 -34q-13 -14 -34 -14z" />
    <glyph glyph-name="igrave" unicode="&#xec;" horiz-adv-x="285" 
d="M263 133q-7 -14 -19 -40q-12 -25 -31 -50q-18 -25 -45 -43t-62 -18q-36 0 -53 19q-16 19 -16 56q0 15 2 27l7 28q24 111 72 332h-96q1 6 6 23h52q36 0 67 2t57 6q-25 -112 -74 -337q-2 -9 -6 -21q-3 -13 -6 -25t-5 -22q-2 -11 -2 -17q0 -35 30 -35q19 0 36 17
q17 16 30 38q14 21 24 41q11 20 14 27q6 -2 18 -8zM42 615q5 12 19 47q62 -29 246 -116q-2 -4 -7 -16q-64 22 -258 85z" />
    <glyph glyph-name="iacute" unicode="&#xed;" horiz-adv-x="285" 
d="M263 133q-7 -14 -19 -40q-12 -25 -31 -50q-18 -25 -45 -43t-62 -18q-36 0 -53 19q-16 19 -16 56q0 15 2 27l7 28q24 111 72 332h-96q1 6 6 23h52q36 0 67 2t57 6q-25 -112 -74 -337q-2 -9 -6 -21q-3 -13 -6 -25t-5 -22q-2 -11 -2 -17q0 -35 30 -35q19 0 36 17
q17 16 30 38q14 21 24 41q11 20 14 27q6 -2 18 -8zM45 546q61 29 246 116q5 -12 19 -47q-64 -21 -258 -85q-2 4 -7 16z" />
    <glyph glyph-name="icircumflex" unicode="&#xee;" horiz-adv-x="285" 
d="M263 133q-7 -14 -19 -40q-12 -25 -31 -50q-18 -25 -45 -43t-62 -18q-36 0 -53 19q-16 19 -16 56q0 15 2 27l7 28q24 111 72 332h-96q1 6 6 23h52q36 0 67 2t57 6q-25 -112 -74 -337q-2 -9 -6 -21q-3 -13 -6 -25t-5 -22q-2 -11 -2 -17q0 -35 30 -35q19 0 36 17
q17 16 30 38q14 21 24 41q11 20 14 27q6 -2 18 -8zM-22 546q42 28 168 111h49q32 -27 128 -111l-12 -16q-36 22 -144 86q-45 -21 -181 -86z" />
    <glyph glyph-name="idieresis" unicode="&#xef;" horiz-adv-x="285" 
d="M263 133q-7 -14 -19 -40q-12 -25 -31 -50q-18 -25 -45 -43t-62 -18q-36 0 -53 19q-16 19 -16 56q0 15 2 27l7 28q24 111 72 332h-96q1 6 6 23h52q36 0 67 2t57 6q-25 -112 -74 -337q-2 -9 -6 -21q-3 -13 -6 -25t-5 -22q-2 -11 -2 -17q0 -35 30 -35q19 0 36 17
q17 16 30 38q14 21 24 41q11 20 14 27q6 -2 18 -8zM62 530q-20 0 -33 14q-14 13 -14 34q0 20 14 33q13 14 33 14q21 0 34 -14q14 -13 14 -33q0 -21 -14 -34q-13 -14 -34 -14zM243 530q-21 0 -34 14q-13 13 -13 34q0 20 13 33q13 14 34 14q20 0 33 -14q14 -13 14 -33
q0 -21 -14 -34q-13 -14 -33 -14z" />
    <glyph glyph-name="eth" unicode="&#xf0;" horiz-adv-x="493" 
d="M400 602q7 -17 16 -39q10 -22 18 -52q8 -29 15 -67q6 -38 6 -88q0 -62 -19 -128q-18 -66 -54 -122q-35 -54 -85 -89t-115 -35q-80 0 -127 55q-47 56 -47 154q0 48 21 95q20 48 55 86q35 39 79 62q45 24 94 24q24 0 42 -7t32 -17t24 -21q11 -12 18 -21q4 17 6 31
q2 15 2 33q0 9 -2 26t-5 35q-3 20 -8 39q-5 18 -10 33q-51 -18 -152 -52q-2 5 -7 20q38 13 153 51q-7 31 -23 65t-31 64q6 4 17 11q23 -25 44 -61q22 -36 33 -65l102 33q1 -5 7 -20q-25 -8 -99 -33zM82 111q0 -46 24 -77q24 -30 80 -30q38 0 67 23q30 22 50 57q21 36 34 78
t21 81q9 40 12 71t3 44q-5 9 -16 22q-10 13 -24 26q-15 12 -33 20q-18 9 -41 9q-36 0 -62 -20q-27 -20 -47 -51t-33 -69t-21 -74t-11 -66t-3 -44z" />
    <glyph glyph-name="ntilde" unicode="&#xf1;" horiz-adv-x="550" 
d="M105 444h-85q2 6 5 23h46q32 0 59 1q26 2 55 7q-8 -38 -25 -115l2 -2q13 17 35 39q21 22 49 41q28 21 62 34q33 13 70 13q32 0 57 -17q26 -17 26 -53q0 -18 -4 -40q-4 -23 -10 -44l-45 -180q-6 -25 -14 -53t-8 -42q0 -15 5 -26q5 -12 23 -12t35 16t31 37q14 20 24 41
q10 20 15 29q6 -2 18 -8q-7 -16 -18 -42q-12 -25 -32 -50q-18 -25 -45 -42q-26 -17 -63 -17q-28 0 -47 18q-20 18 -20 51q0 21 6 47q6 27 12 48l51 204q4 15 8 32q4 18 4 33q0 17 -14 25q-14 9 -38 9q-26 0 -57 -19q-32 -18 -64 -48q-36 -33 -55 -73q-20 -41 -29 -85
q-16 -74 -48 -224h-74q25 111 97 444zM164 557q7 9 18 24t24 28q13 15 28 25q16 10 33 10q21 0 42 -10q22 -10 42 -23q21 -12 41 -22t38 -10q10 0 20 6t18 14q9 9 16 17q6 9 10 14q5 -4 15 -13q-6 -10 -17 -25q-11 -14 -25 -29q-13 -13 -31 -23q-17 -10 -38 -10
q-14 0 -33 11q-20 10 -42 22t-43 23q-22 10 -40 10q-9 0 -18 -7q-10 -6 -18 -15q-8 -8 -15 -16q-7 -9 -10 -12q-5 4 -15 11z" />
    <glyph glyph-name="ograve" unicode="&#xf2;" horiz-adv-x="512" 
d="M184 -18q-38 0 -68 15q-31 15 -54 42q-21 28 -33 64q-13 37 -13 80q0 48 20 102q20 53 56 97q36 45 86 74t112 29q41 0 72 -15t53 -43q21 -27 32 -63q11 -37 11 -80q0 -48 -20 -102q-20 -53 -56 -98q-36 -44 -86 -73t-112 -29zM90 111q0 -48 24 -77q23 -30 74 -30
q23 0 42 3q20 3 35 12q17 10 30 27t26 46q15 38 27 79t20 78t12 65q4 29 4 42q0 47 -24 77q-23 30 -74 30q-45 0 -78 -18q-32 -17 -52 -63q-18 -39 -30 -81t-21 -80q-7 -38 -11 -67q-4 -30 -4 -43zM197 615q4 12 19 47q62 -29 246 -116q-2 -4 -7 -16q-65 22 -258 85z" />
    <glyph glyph-name="oacute" unicode="&#xf3;" horiz-adv-x="512" 
d="M184 -18q-38 0 -68 15q-31 15 -54 42q-21 28 -33 64q-13 37 -13 80q0 48 20 102q20 53 56 97q36 45 86 74t112 29q41 0 72 -15t53 -43q21 -27 32 -63q11 -37 11 -80q0 -48 -20 -102q-20 -53 -56 -98q-36 -44 -86 -73t-112 -29zM90 111q0 -48 24 -77q23 -30 74 -30
q23 0 42 3q20 3 35 12q17 10 30 27t26 46q15 38 27 79t20 78t12 65q4 29 4 42q0 47 -24 77q-23 30 -74 30q-45 0 -78 -18q-32 -17 -52 -63q-18 -39 -30 -81t-21 -80q-7 -38 -11 -67q-4 -30 -4 -43zM189 546q62 29 246 116q5 -12 20 -47q-65 -21 -258 -85z" />
    <glyph glyph-name="ocircumflex" unicode="&#xf4;" horiz-adv-x="512" 
d="M184 -18q-38 0 -68 15q-31 15 -54 42q-21 28 -33 64q-13 37 -13 80q0 48 20 102q20 53 56 97q36 45 86 74t112 29q41 0 72 -15t53 -43q21 -27 32 -63q11 -37 11 -80q0 -48 -20 -102q-20 -53 -56 -98q-36 -44 -86 -73t-112 -29zM90 111q0 -48 24 -77q23 -30 74 -30
q23 0 42 3q20 3 35 12q17 10 30 27t26 46q15 38 27 79t20 78t12 65q4 29 4 42q0 47 -24 77q-23 30 -74 30q-45 0 -78 -18q-32 -17 -52 -63q-18 -39 -30 -81t-21 -80q-7 -38 -11 -67q-4 -30 -4 -43zM123 546q42 28 168 111h48q32 -27 128 -111q-3 -4 -11 -16q-36 22 -145 86
q-45 -21 -181 -86q-2 4 -7 16z" />
    <glyph glyph-name="otilde" unicode="&#xf5;" horiz-adv-x="512" 
d="M184 -18q-38 0 -68 15q-31 15 -54 42q-21 28 -33 64q-13 37 -13 80q0 48 20 102q20 53 56 97q36 45 86 74t112 29q41 0 72 -15t53 -43q21 -27 32 -63q11 -37 11 -80q0 -48 -20 -102q-20 -53 -56 -98q-36 -44 -86 -73t-112 -29zM90 111q0 -48 24 -77q23 -30 74 -30
q23 0 42 3q20 3 35 12q17 10 30 27t26 46q15 38 27 79t20 78t12 65q4 29 4 42q0 47 -24 77q-23 30 -74 30q-45 0 -78 -18q-32 -17 -52 -63q-18 -39 -30 -81t-21 -80q-7 -38 -11 -67q-4 -30 -4 -43zM144 557q8 9 18 24q11 15 24 28q14 15 29 25t33 10q20 0 42 -10
q21 -10 42 -23q20 -12 40 -22t39 -10q10 0 20 6q9 6 18 14q9 9 15 17q7 9 10 14q5 -4 15 -13q-6 -10 -16 -25q-11 -14 -26 -29q-13 -13 -30 -23q-18 -10 -38 -10q-14 0 -34 11q-19 10 -42 22q-21 12 -43 23q-21 10 -40 10q-8 0 -18 -7q-9 -6 -18 -15q-8 -8 -15 -16
q-6 -9 -9 -12q-5 4 -16 11z" />
    <glyph glyph-name="odieresis" unicode="&#xf6;" horiz-adv-x="512" 
d="M184 -18q-38 0 -68 15q-31 15 -54 42q-21 28 -33 64q-13 37 -13 80q0 48 20 102q20 53 56 97q36 45 86 74t112 29q41 0 72 -15t53 -43q21 -27 32 -63q11 -37 11 -80q0 -48 -20 -102q-20 -53 -56 -98q-36 -44 -86 -73t-112 -29zM90 111q0 -48 24 -77q23 -30 74 -30
q23 0 42 3q20 3 35 12q17 10 30 27t26 46q15 38 27 79t20 78t12 65q4 29 4 42q0 47 -24 77q-23 30 -74 30q-45 0 -78 -18q-32 -17 -52 -63q-18 -39 -30 -81t-21 -80q-7 -38 -11 -67q-4 -30 -4 -43zM217 530q-20 0 -34 14q-13 13 -13 34q0 20 13 33q14 14 34 14q21 0 34 -14
q13 -13 13 -33q0 -21 -13 -34q-13 -14 -34 -14zM397 530q-20 0 -33 14q-14 13 -14 34q0 20 14 33q13 14 33 14q21 0 34 -14q13 -13 13 -33q0 -21 -13 -34q-13 -14 -34 -14z" />
    <glyph glyph-name="divide" unicode="&#xf7;" horiz-adv-x="550" 
d="M70 371h419v-52h-419v52zM280 193q-18 0 -29 11t-11 28q0 18 11 29t29 11q17 0 28 -11t11 -29q0 -17 -11 -28t-28 -11zM280 418q-18 0 -29 11t-11 29q0 17 11 28q11 12 29 12q17 0 28 -12q11 -11 11 -28q0 -18 -11 -29t-28 -11z" />
    <glyph glyph-name="oslash" unicode="&#xf8;" horiz-adv-x="512" 
d="M-24 -46q21 24 84 97q-9 8 -16 23q-8 14 -14 31q-6 19 -10 39t-4 39q0 48 20 102q20 53 56 97q36 45 86 74t112 29q32 0 57 -11q26 -11 47 -32q23 27 69 80q4 -3 18 -14q-17 -21 -70 -82q22 -28 34 -64q13 -35 13 -78q0 -48 -20 -102q-20 -53 -56 -98q-36 -44 -86 -73
t-112 -29q-32 0 -60 13q-27 14 -48 39q-28 -32 -83 -94q-4 3 -17 14zM373 416q-14 20 -35 34q-22 13 -52 13q-44 0 -78 -20q-33 -20 -53 -63q-14 -28 -25 -67q-12 -39 -21 -76q-9 -38 -14 -70t-5 -44q0 -8 1 -17l2 -18q93 109 280 328zM100 61q12 -22 36 -39q24 -18 52 -18
q22 0 41 4q20 3 36 12q18 11 31 29q14 18 26 47q15 43 27 85q11 41 19 75q8 35 12 61t4 39q0 11 -1 19t-2 17q-94 -110 -281 -331z" />
    <glyph glyph-name="ugrave" unicode="&#xf9;" horiz-adv-x="550" 
d="M529 141q-6 -12 -18 -39q-11 -26 -32 -54q-19 -26 -47 -46t-64 -20q-30 0 -45 19q-16 18 -16 48q0 12 1 25t3 24q0 1 -2 2q-39 -56 -86 -87t-115 -31q-37 0 -61 21t-24 60q0 20 5 43t10 45q25 97 76 293h-96q1 6 5 23h173q-22 -86 -87 -342q-5 -15 -9 -33q-4 -17 -4 -29
q0 -45 46 -45q41 0 77 24q35 24 63 59q24 32 41 71t25 75q19 73 58 220h73q-20 -77 -80 -309q-10 -36 -14 -63t-4 -46q0 -31 28 -31q16 0 33 17t31 40q14 22 25 44q11 21 15 31q5 -3 16 -9zM155 615q4 12 19 47q62 -29 246 -116q-2 -4 -7 -16q-65 22 -258 85z" />
    <glyph glyph-name="uacute" unicode="&#xfa;" horiz-adv-x="550" 
d="M529 141q-6 -12 -18 -39q-11 -26 -32 -54q-19 -26 -47 -46t-64 -20q-30 0 -45 19q-16 18 -16 48q0 12 1 25t3 24q0 1 -2 2q-39 -56 -86 -87t-115 -31q-37 0 -61 21t-24 60q0 20 5 43t10 45q25 97 76 293h-96q1 6 5 23h173q-22 -86 -87 -342q-5 -15 -9 -33q-4 -17 -4 -29
q0 -45 46 -45q41 0 77 24q35 24 63 59q24 32 41 71t25 75q19 73 58 220h73q-20 -77 -80 -309q-10 -36 -14 -63t-4 -46q0 -31 28 -31q16 0 33 17t31 40q14 22 25 44q11 21 15 31q5 -3 16 -9zM199 546q61 29 245 116q5 -12 20 -47q-65 -21 -258 -85q-2 4 -7 16z" />
    <glyph glyph-name="ucircumflex" unicode="&#xfb;" horiz-adv-x="550" 
d="M529 141q-6 -12 -18 -39q-11 -26 -32 -54q-19 -26 -47 -46t-64 -20q-30 0 -45 19q-16 18 -16 48q0 12 1 25t3 24q0 1 -2 2q-39 -56 -86 -87t-115 -31q-37 0 -61 21t-24 60q0 20 5 43t10 45q25 97 76 293h-96q1 6 5 23h173q-22 -86 -87 -342q-5 -15 -9 -33q-4 -17 -4 -29
q0 -45 46 -45q41 0 77 24q35 24 63 59q24 32 41 71t25 75q19 73 58 220h73q-20 -77 -80 -309q-10 -36 -14 -63t-4 -46q0 -31 28 -31q16 0 33 17t31 40q14 22 25 44q11 21 15 31q5 -3 16 -9zM142 546q42 28 168 111h48q32 -27 128 -111q-2 -4 -11 -16q-36 22 -144 86
q-46 -21 -181 -86z" />
    <glyph glyph-name="udieresis" unicode="&#xfc;" horiz-adv-x="550" 
d="M529 141q-6 -12 -18 -39q-11 -26 -32 -54q-19 -26 -47 -46t-64 -20q-30 0 -45 19q-16 18 -16 48q0 12 1 25t3 24q0 1 -2 2q-39 -56 -86 -87t-115 -31q-37 0 -61 21t-24 60q0 20 5 43t10 45q25 97 76 293h-96q1 6 5 23h173q-22 -86 -87 -342q-5 -15 -9 -33q-4 -17 -4 -29
q0 -45 46 -45q41 0 77 24q35 24 63 59q24 32 41 71t25 75q19 73 58 220h73q-20 -77 -80 -309q-10 -36 -14 -63t-4 -46q0 -31 28 -31q16 0 33 17t31 40q14 22 25 44q11 21 15 31q5 -3 16 -9zM226 530q-20 0 -33 14q-14 13 -14 34q0 20 14 33q13 14 33 14q21 0 34 -14
q13 -13 13 -33q0 -21 -13 -34q-13 -14 -34 -14zM407 530q-21 0 -34 14q-14 13 -14 34q0 20 14 33q13 14 34 14q20 0 33 -14q14 -13 14 -33q0 -21 -14 -34q-13 -14 -33 -14z" />
    <glyph glyph-name="yacute" unicode="&#xfd;" 
d="M287 138q23 47 49 110t53 123q10 24 21 45q10 21 22 37q13 15 29 24q16 8 38 8q17 0 29 -10q13 -11 13 -34q0 -13 -12 -25q-12 -13 -26 -13t-20 4q-7 4 -11 8q-4 5 -8 9q-3 4 -9 4q-11 0 -23 -22t-29 -57q-11 -25 -27 -63t-35 -83q-18 -45 -41 -93q-22 -49 -48 -96
q-26 -46 -55 -87t-62 -69q-13 -12 -30 -27t-38 -29q-22 -13 -48 -22q-25 -9 -54 -9q-30 0 -50 12q-20 13 -20 40q0 19 12 31q12 11 33 11q17 0 25 -9q7 -10 11 -20q4 -11 7 -20t12 -9q37 0 79 30q42 29 78 69q36 39 60 80q24 42 24 66q0 9 -4 22q-3 13 -8 25q-4 14 -8 25
q-5 11 -8 19q-26 73 -77 217q-4 11 -8 23q-4 13 -9 24t-12 18t-14 7q-13 0 -27 -13q-13 -13 -24 -31q-11 -16 -19 -32t-11 -21q-5 3 -16 8q5 12 16 36q10 23 27 47q16 25 39 42q22 17 52 17q16 0 28 -9q11 -10 19 -25q9 -16 16 -35q8 -20 15 -40q28 -79 84 -238zM210 546
q61 29 246 116q5 -12 19 -47q-64 -21 -258 -85q-2 4 -7 16z" />
    <glyph glyph-name="thorn" unicode="&#xfe;" 
d="M125 119q0 -22 7 -42q6 -21 19 -37t32 -26t43 -10q39 0 68 22t49 57q22 35 34 77q13 42 20 81q9 39 12 70t3 45q0 47 -24 77t-78 30q-30 0 -56 -17t-46 -45q-21 -27 -36 -63t-27 -75q-10 -38 -15 -76q-5 -37 -5 -68zM-130 -188h93q49 220 194 882h-97q2 6 7 23h52
q36 0 67 2t57 6q-24 -110 -72 -329q1 0 2 -2q8 13 20 28t28 30q18 14 40 24q23 9 53 9q41 0 73 -15t53 -43q23 -27 34 -63q11 -37 11 -80q0 -48 -19 -102q-19 -53 -53 -98q-35 -44 -84 -73q-48 -29 -107 -29q-32 0 -52 8t-34 20q-13 13 -21 28q-9 16 -15 32h-2
q-14 -65 -56 -258h101q-1 -6 -5 -23h-273q1 6 5 23z" />
    <glyph glyph-name="ydieresis" unicode="&#xff;" 
d="M287 138q23 47 49 110t53 123q10 24 21 45q10 21 22 37q13 15 29 24q16 8 38 8q17 0 29 -10q13 -11 13 -34q0 -13 -12 -25q-12 -13 -26 -13t-20 4q-7 4 -11 8q-4 5 -8 9q-3 4 -9 4q-11 0 -23 -22t-29 -57q-11 -25 -27 -63t-35 -83q-18 -45 -41 -93q-22 -49 -48 -96
q-26 -46 -55 -87t-62 -69q-13 -12 -30 -27t-38 -29q-22 -13 -48 -22q-25 -9 -54 -9q-30 0 -50 12q-20 13 -20 40q0 19 12 31q12 11 33 11q17 0 25 -9q7 -10 11 -20q4 -11 7 -20t12 -9q37 0 79 30q42 29 78 69q36 39 60 80q24 42 24 66q0 9 -4 22q-3 13 -8 25q-4 14 -8 25
q-5 11 -8 19q-26 73 -77 217q-4 11 -8 23q-4 13 -9 24t-12 18t-14 7q-13 0 -27 -13q-13 -13 -24 -31q-11 -16 -19 -32t-11 -21q-5 3 -16 8q5 12 16 36q10 23 27 47q16 25 39 42q22 17 52 17q16 0 28 -9q11 -10 19 -25q9 -16 16 -35q8 -20 15 -40q28 -79 84 -238zM248 530
q-21 0 -34 14q-13 13 -13 34q0 20 13 33q13 14 34 14q20 0 34 -14q13 -13 13 -33q0 -21 -13 -34q-14 -14 -34 -14zM428 530q-20 0 -34 14q-13 13 -13 34q0 20 13 33q14 14 34 14q21 0 34 -14q13 -13 13 -33q0 -21 -13 -34q-13 -14 -34 -14z" />
    <glyph glyph-name="dotlessi" unicode="&#x131;" horiz-adv-x="285" 
d="M263 133q-7 -14 -19 -40q-12 -25 -31 -50q-18 -25 -45 -43t-62 -18q-36 0 -53 19q-16 19 -16 56q0 15 2 27l7 28q24 111 72 332h-96q1 6 6 23h52q36 0 67 2t57 6q-25 -112 -74 -337q-2 -9 -6 -21q-3 -13 -6 -25t-5 -22q-2 -11 -2 -17q0 -35 30 -35q19 0 36 17
q17 16 30 38q14 21 24 41q11 20 14 27q6 -2 18 -8z" />
    <glyph glyph-name="Lslash" unicode="&#x141;" 
d="M-27 222l-12 20l156 104q18 87 73 348h-92q1 6 4 23h274q-1 -6 -5 -23h-92q-16 -72 -63 -291q36 25 144 98q4 -5 13 -20q-41 -28 -164 -111q-18 -87 -72 -347h101q64 0 106 16q41 17 67 45q25 29 39 64q14 36 24 74h21q-12 -55 -48 -222h-495q1 6 5 23h92q15 72 61 288
q-34 -22 -137 -89z" />
    <glyph glyph-name="lslash" unicode="&#x142;" horiz-adv-x="360" 
d="M294 133q-6 -14 -18 -40q-12 -25 -31 -50q-20 -25 -46 -43q-27 -18 -62 -18q-37 0 -53 18t-16 53q0 14 2 26t7 33q14 67 43 201q-35 -22 -139 -91q-4 5 -14 20l160 104l76 348h-97q2 6 7 23h52q36 0 67 2q32 2 57 6q-24 -107 -71 -319q34 22 135 89q4 -5 14 -20
q-39 -25 -156 -102q-13 -59 -50 -235q-3 -11 -6 -23q-3 -13 -7 -25q-3 -11 -5 -21t-2 -16q0 -35 31 -35q18 0 35 17q17 16 31 38q14 21 24 41t13 27q7 -2 19 -8z" />
    <glyph glyph-name="OE" unicode="&#x152;" horiz-adv-x="948" 
d="M437 62q0 1 -2 3q-17 -18 -32 -33q-14 -16 -31 -27t-39 -17t-54 -6q-62 0 -106 23t-73 63q-28 41 -42 95q-13 55 -13 120q0 49 13 101q14 52 36 102q24 51 56 96t69 78q38 35 80 55t85 20q44 0 75 -11q30 -10 51 -27q21 -15 33 -33t18 -31h2q5 21 18 84h381
q-9 -47 -36 -187h-21l4 26q1 12 1 25q0 41 -11 64q-12 23 -33 33q-19 11 -46 14q-26 2 -56 2h-107q-16 -78 -67 -311h38q40 0 61 9q22 8 33 24q12 16 18 40t16 55h19q-16 -72 -63 -290h-20q3 16 7 36q4 19 4 45q0 20 -6 31q-6 12 -16 18q-9 6 -23 8q-13 1 -27 1h-46
q-18 -84 -73 -337h124q64 0 106 16q41 17 67 45q26 29 39 64q14 36 24 74h21q-12 -55 -47 -222h-422q3 16 13 62zM274 4q59 0 97 38q38 39 73 122q23 50 38 106q16 57 26 107q10 51 15 90q4 39 4 56q0 38 -6 73t-22 60q-16 26 -43 41q-27 16 -68 16q-46 0 -89 -33t-73 -99
q-24 -56 -41 -116q-17 -61 -28 -116q-11 -54 -15 -96q-5 -42 -5 -59q0 -39 6 -74q7 -34 22 -60q15 -25 42 -41q26 -15 67 -15z" />
    <glyph glyph-name="oe" unicode="&#x153;" horiz-adv-x="797" 
d="M617 463q-45 0 -77 -27q-32 -26 -54 -62q-21 -36 -33 -72t-16 -53q22 -3 45 -3q28 0 63 4q36 4 66 18q31 16 52 45t21 78q0 36 -15 54q-16 18 -52 18zM724 129q-9 -14 -28 -39q-18 -25 -45 -50q-26 -24 -61 -41t-78 -17q-37 0 -61 10q-25 10 -41 24q-17 16 -27 33
q-9 17 -15 31q-12 -14 -27 -31t-37 -33q-21 -14 -51 -24q-29 -10 -69 -10q-38 0 -68 15q-31 15 -54 42q-21 28 -33 64q-13 37 -13 80q0 48 20 102q20 53 56 97q36 45 86 74t112 29q34 0 58 -9q24 -10 40 -25q16 -16 27 -34q10 -19 17 -35q10 11 27 29q17 17 41 33
q24 18 56 30q32 11 72 11q28 0 52 -9q25 -9 42 -24t27 -34q9 -20 9 -41q0 -36 -16 -61q-15 -25 -41 -43q-24 -16 -56 -26t-64 -16q-32 -5 -63 -6q-31 -2 -53 -2q-7 0 -16 1q-10 0 -17 2q-5 -17 -10 -43t-5 -61q0 -21 6 -42t18 -38q14 -16 34 -27t46 -11q35 0 66 18
q30 17 54 39q25 24 41 47q16 22 25 33q5 -4 17 -12zM90 111q0 -48 24 -77q23 -30 74 -30q23 0 42 3q20 3 35 12q17 10 30 27t26 46q15 38 27 79t20 78t12 65q4 29 4 42q0 47 -24 77q-23 30 -74 30q-45 0 -78 -18q-32 -17 -52 -63q-18 -39 -30 -81t-21 -80q-7 -38 -11 -67
q-4 -30 -4 -43z" />
    <glyph glyph-name="Scaron" unicode="&#x160;" horiz-adv-x="512" 
d="M29 233h22q-1 -8 -1 -16q-1 -9 -1 -17q0 -36 10 -71q11 -36 32 -63q22 -28 54 -45q33 -17 78 -17q34 0 65 12q30 12 54 33q24 22 37 52q14 31 14 69q0 45 -25 77q-26 33 -63 58q-37 26 -77 48q-41 22 -70 47q-17 14 -28 27t-18 29q-7 15 -10 35t-3 48q0 36 15 72
q15 35 42 63q27 27 66 44q38 17 84 17q25 0 45 -7q21 -7 37 -17t28 -21q11 -11 19 -20q15 16 43 49h19q-12 -52 -48 -207h-20q2 17 3 36q1 18 1 36q0 30 -11 54t-31 40q-18 17 -42 26t-49 9q-29 0 -55 -10q-27 -10 -47 -28q-21 -19 -33 -44q-12 -26 -12 -58t12 -53
q13 -21 36 -39q23 -16 56 -32q32 -17 72 -41q26 -18 48 -35t38 -37q15 -21 23 -47q8 -27 8 -64q0 -44 -14 -87q-14 -44 -43 -79q-29 -34 -71 -56q-42 -21 -97 -21q-37 0 -63 8q-27 8 -46 20q-20 13 -33 26t-23 22q-19 -19 -57 -58h-16q11 58 46 233zM174 873q3 4 11 16
q36 -22 145 -86q45 21 181 86q2 -4 7 -16q-42 -27 -168 -111h-48q-32 28 -128 111z" />
    <glyph glyph-name="scaron" unicode="&#x161;" horiz-adv-x="379" 
d="M126 -18q-33 0 -59 8q-27 8 -47 21q-18 15 -29 32q-10 17 -10 37q0 17 10 31q10 13 28 13q16 0 26 -10q9 -11 9 -27q0 -13 -5 -24q-6 -11 -6 -22q0 -8 9 -15q9 -8 22 -13q13 -4 28 -6q16 -3 28 -3q21 0 42 6q22 6 39 18t29 29q11 17 11 38q0 19 -10 36q-11 16 -28 33
q-16 16 -37 32q-20 16 -41 32q-32 26 -55 55q-24 29 -24 68q0 28 14 52q14 25 36 43q24 19 54 29t63 10q25 0 46 -6t36 -16q16 -9 24 -23q9 -14 9 -29q0 -41 -38 -41q-14 0 -25 10t-11 28q0 11 5 19t5 13q0 6 -5 11q-6 5 -14 7q-8 3 -18 4t-19 1q-17 0 -36 -5
q-18 -5 -34 -15q-15 -9 -25 -22q-9 -12 -9 -28q0 -28 23 -50t53 -46q21 -15 42 -32q21 -16 37 -36q18 -19 28 -43q11 -23 11 -53q0 -33 -14 -61q-13 -28 -38 -48t-58 -31t-72 -11zM67 642q2 4 11 15q36 -21 144 -86q46 22 181 86q2 -3 8 -15l-168 -112h-48z" />
    <glyph glyph-name="Ydieresis" unicode="&#x178;" horiz-adv-x="588" 
d="M111 23h92q16 77 66 308q-32 91 -130 363h-87q2 6 5 23h276q-1 -6 -4 -23h-98q29 -82 115 -327q53 82 210 327h-98q1 6 4 23h210q-2 -6 -5 -23h-80q-58 -89 -230 -358q-16 -78 -66 -313h92q-1 -6 -4 -23h-274q2 6 6 23zM306 762q-20 0 -34 13q-13 13 -13 34q0 20 13 34
q14 13 34 13q21 0 34 -13q13 -14 13 -34q0 -21 -13 -34t-34 -13zM486 762q-20 0 -33 13q-14 13 -14 34q0 20 14 34q13 13 33 13q21 0 34 -13q14 -14 14 -34q0 -21 -14 -34q-13 -13 -34 -13z" />
    <glyph glyph-name="Zcaron" unicode="&#x17d;" horiz-adv-x="550" 
d="M-39 22q122 168 489 672h-128q-56 0 -91 -13t-59 -36q-24 -22 -38 -54q-15 -31 -29 -66h-20q11 48 43 192h426v-22l-488 -672h149q67 0 108 14t66 40q26 26 41 63t31 82h20q-11 -55 -46 -222h-476q1 5 2 22zM224 873l12 16q36 -22 144 -86q45 21 181 86q2 -4 7 -16
q-42 -27 -168 -111h-48q-32 28 -128 111z" />
    <glyph glyph-name="zcaron" unicode="&#x17e;" horiz-adv-x="474" 
d="M131 485q25 -7 54 -17q30 -9 63 -18t66 -15q34 -6 66 -6q20 0 32 6q11 5 11 17q0 4 -1 9q0 6 1 11q1 6 4 10q3 3 10 3q8 0 10 -6q3 -7 3 -15q0 -14 -11 -34q-11 -19 -38 -46q-30 -33 -69 -67t-81 -69t-85 -71t-82 -72q35 0 69 -11q33 -11 64 -24t57 -24q27 -11 49 -11
q29 0 45 18t16 36q0 11 -12 12t-16 1q-13 0 -21 9q-7 9 -7 20q0 16 10 25q10 8 26 8q12 0 27 -12q16 -12 16 -43q0 -22 -10 -44q-10 -23 -28 -41q-19 -19 -44 -31q-26 -11 -58 -11q-41 0 -74 11q-34 11 -63 23q-28 14 -53 25t-47 11q-15 0 -21 -9t-6 -20q0 -5 1 -8
q1 -4 1 -7q0 -26 -18 -26q-9 0 -12 7t-3 15q0 26 24 55q24 30 70 68q37 32 80 66q42 33 84 68q42 36 82 71q39 36 71 71q-1 1 -2 3q-14 -7 -32 -11q-17 -4 -35 -7q-17 -2 -33 -3q-17 -1 -27 -1q-25 0 -44 3q-20 3 -35 6q-14 4 -25 7q-12 3 -20 3q-9 0 -15 -5q-6 -6 -13 -17
q-5 -10 -12 -25q-8 -14 -20 -31q-5 3 -16 9q19 38 77 151zM145 642q3 4 12 15q36 -21 144 -86q45 22 181 86q2 -3 7 -15q-42 -28 -167 -112h-49z" />
    <glyph glyph-name="florin" unicode="&#x192;" 
d="M310 444q-9 -49 -20 -111t-27 -127q-14 -66 -33 -131q-19 -66 -44 -123q-11 -27 -30 -58q-20 -32 -47 -59q-27 -28 -61 -46t-75 -18q-13 0 -27 4t-24 13q-11 8 -18 20q-6 12 -6 27t12 27q12 11 31 11q14 0 22 -6q8 -5 12 -13q3 -9 4 -18q1 -10 1 -18q1 -13 3 -19t15 -6
q27 0 48 19q22 18 37 44q16 25 26 52t15 44q19 66 32 122t23 111q10 57 21 118q11 62 28 141h-108q1 6 5 23h108q10 27 26 68q16 42 45 79q29 39 71 67q43 28 103 28q25 0 43 -8q19 -7 31 -17q13 -10 20 -22q7 -13 7 -23q0 -52 -44 -52q-19 0 -29 11q-9 11 -9 31q0 12 10 21
t10 19t-12 13q-11 4 -26 4q-27 0 -49 -13t-40 -33q-16 -19 -29 -44q-12 -25 -21 -49q-9 -25 -15 -46t-10 -34h105q-1 -6 -5 -23h-105z" />
    <glyph glyph-name="circumflex" unicode="&#x2c6;" horiz-adv-x="348" 
d="M61 546q42 28 168 111h49q32 -27 128 -111l-12 -16q-36 22 -144 86q-45 -21 -181 -86z" />
    <glyph glyph-name="caron" unicode="&#x2c7;" horiz-adv-x="348" 
d="M154 642q2 4 11 15q36 -21 144 -86q46 22 181 86q2 -3 8 -15l-168 -112h-48z" />
    <glyph glyph-name="breve" unicode="&#x2d8;" horiz-adv-x="348" 
d="M427 660q-10 -26 -24 -49q-13 -22 -34 -39q-22 -16 -53 -26q-31 -9 -75 -9q-36 0 -60 12t-40 31q-14 18 -22 40q-8 21 -13 40h20q5 -12 14 -25q8 -13 23 -26q14 -11 37 -18q22 -7 56 -7q37 0 61 6q25 7 41 17q18 11 29 25l20 28h20z" />
    <glyph glyph-name="dotaccent" unicode="&#x2d9;" horiz-adv-x="348" 
d="M248 530q-21 0 -34 14q-13 13 -13 34q0 20 13 33q13 14 34 14q20 0 34 -14q13 -13 13 -33q0 -21 -13 -34q-14 -14 -34 -14z" />
    <glyph glyph-name="ring" unicode="&#x2da;" horiz-adv-x="348" 
d="M225 530q-38 0 -62 25q-25 25 -25 62q0 38 25 63q24 25 62 25t63 -25q24 -25 24 -63q0 -37 -24 -62q-25 -25 -63 -25zM169 617q0 -23 16 -39q17 -17 40 -17q24 0 40 17q17 16 17 39q0 24 -17 40q-16 17 -40 17q-23 0 -40 -17q-16 -16 -16 -40z" />
    <glyph glyph-name="ogonek" unicode="&#x2db;" horiz-adv-x="348" 
d="M191 -227q-14 -3 -29 -6q-15 -4 -29 -4q-17 0 -33 6q-16 5 -29 16q-14 10 -21 26q-8 16 -8 37q0 31 14 57t33 49q21 21 43 39q23 18 41 32h6q-10 -13 -25 -30q-16 -18 -30 -38q-13 -22 -23 -45t-10 -46q0 -30 20 -53q19 -23 58 -23q7 0 14 1q6 1 14 2q-2 -7 -6 -20z" />
    <glyph glyph-name="tilde" unicode="&#x2dc;" horiz-adv-x="348" 
d="M93 557q7 9 18 24t24 28q13 15 29 25q15 10 33 10q20 0 42 -10q21 -10 42 -23q20 -12 40 -22t38 -10q11 0 20 6q10 6 18 14q10 9 16 17q7 9 10 14q5 -4 15 -13q-6 -10 -17 -25q-10 -14 -25 -29q-13 -13 -30 -23q-18 -10 -38 -10q-15 0 -34 11q-20 10 -42 22t-43 23
q-22 10 -40 10q-8 0 -18 -7q-10 -6 -18 -15q-8 -8 -15 -16q-6 -9 -9 -12q-6 4 -16 11z" />
    <glyph glyph-name="hungarumlaut" unicode="&#x2dd;" horiz-adv-x="348" 
d="M115 549q46 32 185 129q6 -10 25 -38q-50 -27 -200 -110q-3 5 -10 19zM242 549q46 32 186 129q6 -10 25 -38q-51 -27 -201 -110q-3 5 -10 19z" />
    <glyph glyph-name="endash" unicode="&#x2013;" 
d="M42 260h458q-3 -13 -12 -53h-457q3 13 11 53z" />
    <glyph glyph-name="emdash" unicode="&#x2014;" horiz-adv-x="1024" 
d="M30 260h939q-3 -13 -13 -53h-939q3 13 13 53z" />
    <glyph glyph-name="quoteleft" unicode="&#x2018;" horiz-adv-x="265" 
d="M257 719q-19 -9 -41 -25q-21 -15 -39 -34q-17 -17 -29 -36q-12 -20 -12 -38q0 -12 1 -18t9 -6q4 0 6 5t6 11t11 11q8 5 21 5q18 0 29 -13t11 -28q0 -22 -14 -35q-14 -14 -41 -14q-30 0 -45 23q-16 23 -16 51q0 31 15 57q15 27 37 46t45 33t39 21q2 -5 7 -16z" />
    <glyph glyph-name="quoteright" unicode="&#x2019;" horiz-adv-x="265" 
d="M110 520q19 9 41 25q21 15 38 33q18 18 30 37q11 20 11 38q0 12 -1 18t-9 6q-3 0 -5 -5t-6 -12q-4 -5 -12 -10t-21 -5q-17 0 -29 13q-11 13 -11 28q0 22 15 35q14 14 40 14q30 0 46 -23t16 -50q0 -32 -15 -58q-16 -26 -38 -46q-22 -19 -45 -33t-38 -21q-3 5 -7 16z" />
    <glyph glyph-name="quotesinglbase" unicode="&#x201a;" horiz-adv-x="265" 
d="M3 -139q20 9 41 24q22 16 39 34t29 37t12 38q0 11 -1 17t-9 6q-3 0 -5 -5q-3 -5 -7 -10q-5 -6 -11 -11q-7 -5 -21 -5q-18 0 -29 12q-11 13 -11 29q0 21 14 35t41 14q30 0 46 -23q15 -23 15 -51q0 -32 -15 -58t-38 -45q-21 -20 -44 -34q-23 -13 -39 -21q-2 6 -7 17z" />
    <glyph glyph-name="quotedblleft" unicode="&#x201c;" horiz-adv-x="436" 
d="M413 719q-20 -9 -41 -25q-22 -15 -39 -34q-18 -17 -29 -36q-12 -20 -12 -38q0 -12 1 -18t9 -6q3 0 5 5t6 11t12 11t21 5q18 0 29 -13t11 -28q0 -22 -14 -35q-15 -14 -41 -14q-30 0 -46 23t-16 51q0 31 16 57q15 27 37 46t45 33t39 21q2 -5 7 -16zM233 719q-19 -9 -40 -25
q-22 -15 -39 -34q-18 -17 -30 -36q-11 -20 -11 -38q0 -12 1 -18t9 -6q3 0 5 5t6 11t12 11t21 5q17 0 29 -13q11 -13 11 -28q0 -22 -14 -35q-15 -14 -41 -14q-30 0 -46 23t-16 51q0 31 15 57q16 27 37 46q23 19 46 33t38 21q3 -5 7 -16z" />
    <glyph glyph-name="quotedblright" unicode="&#x201d;" horiz-adv-x="436" 
d="M110 520q19 9 41 25q21 15 38 33q18 18 30 37q11 20 11 38q0 12 -1 18t-9 6q-3 0 -5 -5t-6 -12q-4 -5 -12 -10t-21 -5q-17 0 -29 13q-11 13 -11 28q0 22 15 35q14 14 40 14q30 0 46 -23t16 -50q0 -32 -15 -58q-16 -26 -38 -46q-22 -19 -45 -33t-38 -21q-3 5 -7 16z
M289 520q19 9 41 25q21 15 39 33q17 18 29 37q12 20 12 38q0 12 -1 18t-10 6q-3 0 -5 -5t-6 -12q-4 -5 -12 -10q-7 -5 -21 -5q-17 0 -28 13q-12 13 -12 28q0 22 15 35q14 14 41 14q29 0 45 -23t16 -50q0 -32 -15 -58q-16 -26 -38 -46q-22 -19 -45 -33t-38 -21q-2 5 -7 16z
" />
    <glyph glyph-name="quotedblbase" unicode="&#x201e;" horiz-adv-x="436" 
d="M-7 -139q19 9 41 24q21 16 39 34q17 18 29 37t12 38q0 11 -1 17t-10 6q-3 0 -5 -5t-6 -10q-5 -6 -12 -11q-6 -5 -21 -5q-17 0 -28 12q-12 13 -12 29q0 21 15 35q14 14 41 14q29 0 45 -23t16 -51q0 -32 -15 -58q-16 -26 -38 -45q-22 -20 -45 -34q-23 -13 -38 -21
q-2 6 -7 17zM172 -139q19 9 41 24q21 16 39 34q17 18 29 37t12 38q0 11 -1 17t-9 6q-3 0 -5 -5q-3 -5 -7 -10q-5 -6 -11 -11q-7 -5 -21 -5q-18 0 -29 12q-11 13 -11 29q0 21 14 35t41 14q30 0 46 -23q15 -23 15 -51q0 -32 -15 -58t-38 -45q-21 -20 -44 -34q-23 -13 -39 -21
q-2 6 -7 17z" />
    <glyph glyph-name="dagger" unicode="&#x2020;" 
d="M142 -143q5 22 14 67q9 44 17 98q9 54 15 112q7 57 7 109q0 6 -1 12q0 6 -1 13q29 44 46 86q17 41 29 97q-13 0 -38 -6q-24 -5 -51 -11q-25 -5 -48 -10q-23 -4 -33 -4q-23 0 -35 12q-11 12 -11 31q0 18 16 29q16 10 38 10q13 0 33 -5q21 -4 43 -11q24 -6 47 -10
q24 -5 43 -5q4 22 6 38q2 17 3 34t1 37v48q0 16 1 35q1 18 6 34q5 17 15 27q9 11 28 11q24 0 33 -14q8 -13 8 -36q0 -9 -5 -25q-6 -15 -14 -34q-8 -20 -18 -41q-9 -22 -19 -43q-6 -16 -10 -33q-5 -17 -12 -38q21 1 47 6q25 5 48 10q24 7 44 11t32 4q45 0 45 -41
q0 -19 -15 -30q-16 -11 -36 -11q-13 0 -37 5q-25 5 -51 10q-26 6 -49 11q-23 6 -32 6q-3 -15 -5 -26q-1 -11 -3 -24q-1 -12 -2 -28v-38q0 -18 3 -34q3 -17 7 -35q-20 -46 -38 -98q-19 -51 -35 -104q-15 -53 -28 -106t-21 -102h-27z" />
    <glyph glyph-name="daggerdbl" unicode="&#x2021;" 
d="M165 -143q-25 0 -33 13q-8 14 -8 37q0 8 5 23t13 33q10 18 19 38q10 21 19 40t13 32q4 12 9 32q-22 -2 -47 -6q-25 -5 -49 -11q-23 -5 -43 -9t-32 -4q-45 0 -45 41q0 18 15 29q15 12 36 12q12 0 37 -5q24 -6 50 -12q27 -5 50 -10t32 -5q3 14 5 28q2 13 2 22v36
q0 16 -1 31q-1 14 -3 28q-2 15 -6 32q15 24 26 42t19 37q8 18 15 38t13 47q-13 0 -37 -5q-25 -5 -52 -11q-25 -6 -48 -10q-23 -5 -33 -5q-23 0 -34 12q-12 13 -12 31q0 19 16 29t39 10q12 0 32 -4q21 -5 43 -11q24 -6 48 -11q23 -5 43 -5q8 40 8 76q1 36 1 66q0 16 1 35
q1 18 6 34q5 17 15 27q10 11 28 11q25 0 33 -14q8 -13 8 -36q0 -8 -5 -23t-15 -33q-8 -18 -17 -38q-10 -21 -19 -40q-10 -20 -13 -32q-4 -12 -9 -33q22 1 47 7q25 5 48 10q24 6 44 10t32 4q45 0 45 -41q0 -18 -15 -30q-16 -11 -36 -11q-12 0 -37 5q-24 5 -51 11
q-26 6 -49 11t-32 5q-3 -14 -5 -28q-2 -13 -2 -22q0 -37 1 -61t6 -55q-14 -27 -25 -46q-10 -19 -18 -39q-8 -18 -15 -40q-7 -21 -13 -50q14 0 38 5l50 10q27 6 50 11t32 5q24 0 35 -13q11 -12 11 -30q0 -19 -15 -29q-16 -10 -39 -10q-12 0 -33 4l-44 11q-22 6 -46 11
q-23 4 -43 4q-8 -39 -8 -75q-1 -36 -1 -66q0 -16 -1 -35t-6 -34q-5 -17 -15 -28q-10 -10 -28 -10z" />
    <glyph glyph-name="bullet" unicode="&#x2022;" horiz-adv-x="512" 
d="M256 173q-39 0 -72 14q-33 15 -59 39q-26 26 -40 60q-14 33 -14 71t14 73q14 34 40 58q26 26 59 41t72 15q38 0 72 -15q33 -15 58 -41q26 -24 40 -58q15 -35 15 -73t-15 -71q-14 -34 -40 -60q-25 -24 -58 -39q-34 -14 -72 -14z" />
    <glyph glyph-name="ellipsis" unicode="&#x2026;" horiz-adv-x="1024" 
d="M105 -15q-17 0 -30 11q-14 12 -14 33q0 17 14 30q13 14 30 14q18 0 31 -14q14 -13 14 -30q0 -21 -14 -33q-13 -11 -31 -11zM445 -15q-17 0 -30 11q-14 12 -14 33q0 17 14 30q13 14 30 14q18 0 31 -14q13 -13 13 -30q0 -21 -13 -33q-13 -11 -31 -11zM785 -15q-17 0 -30 11
q-14 12 -14 33q0 17 14 30q13 14 30 14q18 0 31 -14q13 -13 13 -30q0 -21 -13 -33q-13 -11 -31 -11z" />
    <glyph glyph-name="perthousand" unicode="&#x2030;" horiz-adv-x="967" 
d="M156 340q-29 0 -49 14t-33 35q-13 23 -19 50t-6 54q0 30 12 67q13 37 35 69q23 31 53 52t66 21q26 0 46 -11q21 -12 34 -33q14 -19 21 -45q8 -25 8 -54q0 -36 -13 -75t-37 -71q-22 -32 -53 -53q-31 -20 -65 -20zM111 431q0 -29 10 -50t40 -21q27 0 40 16q12 16 26 56
q10 26 16 54q7 28 11 54t6 48q2 21 2 35q0 29 -11 44q-10 15 -40 15q-31 0 -46 -21q-14 -21 -23 -51q-12 -47 -22 -92q-9 -46 -9 -87zM430 -14q-29 0 -49 13q-20 14 -33 36q-12 22 -18 49q-6 28 -6 54q0 31 12 68t35 68q22 32 52 53q31 21 66 21q26 0 47 -12q20 -11 33 -32
q15 -19 22 -45t7 -54q0 -36 -13 -75t-36 -72q-23 -31 -53 -52q-31 -20 -66 -20zM385 77q0 -29 10 -50q11 -21 40 -21q28 0 40 16t27 56q9 25 16 54q6 28 10 53q4 27 7 48q2 22 2 35q0 30 -11 45t-41 15t-45 -21t-23 -51q-13 -47 -22 -93q-10 -45 -10 -86zM752 -14
q-29 0 -49 13q-20 14 -33 36t-19 49q-6 28 -6 54q0 31 12 68q13 37 35 68q23 32 53 53t66 21q26 0 46 -12q21 -11 34 -32q14 -19 21 -45q8 -26 8 -54q0 -36 -13 -75t-37 -72q-22 -31 -53 -52q-31 -20 -65 -20zM707 77q0 -29 10 -50t40 -21q27 0 40 16q12 16 26 56
q10 25 16 54q7 28 11 53q4 27 6 48q2 22 2 35q0 30 -11 45q-10 15 -40 15q-31 0 -46 -21t-23 -51q-12 -47 -22 -93q-9 -45 -9 -86zM530 702h33q-111 -179 -446 -716h-33q112 179 446 716z" />
    <glyph glyph-name="guilsinglleft" unicode="&#x2039;" horiz-adv-x="303" 
d="M39 233q2 6 7 22q49 43 195 173q3 -4 13 -14q-36 -46 -143 -184q18 -45 71 -183q-4 -2 -17 -8q-32 49 -126 194z" />
    <glyph glyph-name="guilsinglright" unicode="&#x203a;" horiz-adv-x="303" 
d="M11 53l144 184q-18 45 -72 183q4 2 17 8q32 -49 126 -195q-1 -5 -7 -21q-49 -43 -194 -173q-4 3 -14 14z" />
    <glyph glyph-name="fraction" unicode="&#x2044;" horiz-adv-x="247" 
d="M309 709h33q-101 -182 -405 -727h-33q101 181 405 727z" />
    <glyph glyph-name="trademark" unicode="&#x2122;" horiz-adv-x="721" 
d="M133 433q13 1 23 2t17 5q7 5 11 15q3 9 3 26v216q-22 -4 -34 -10q-13 -6 -21 -16q-7 -11 -12 -25t-12 -34h-19q1 26 5 105h240q1 -26 5 -105h-18q-8 20 -13 34t-13 25q-7 10 -20 16q-12 6 -34 10v-216q0 -17 2 -26q3 -9 8 -14q6 -4 15 -5q9 -2 24 -3v-17h-157v17z
M352 433q14 2 22 4q9 2 14 6q6 6 9 14q2 9 2 24v181q0 13 -1 20t-5 10t-11 4q-6 0 -17 1v20h102q14 -52 56 -206h2q16 51 65 206h110v-20q-12 -2 -20 -3t-13 -5t-8 -12q-2 -7 -2 -22v-174q0 -16 2 -25q3 -10 7 -15q4 -4 11 -5q7 -2 18 -3v-17h-127v17q10 2 16 4q7 1 11 5
q5 5 7 15q2 9 2 24v209h-2q-21 -68 -86 -274h-16q-19 66 -75 265h-2v-200q0 -15 1 -24q2 -10 5 -15q4 -4 10 -5q5 -2 14 -4v-17h-101v17z" />
    <glyph glyph-name="minus" unicode="&#x2212;" horiz-adv-x="550" 
d="M70 371h419v-52h-419v52z" />
    <glyph glyph-name="fi" unicode="&#xfb01;" horiz-adv-x="569" 
d="M187 444q-9 -49 -20 -111t-27 -127q-14 -66 -33 -131q-19 -66 -44 -123q-11 -27 -29 -58q-19 -32 -44 -59q-26 -28 -58 -46t-71 -18q-14 0 -27 4q-14 4 -24 13q-12 8 -18 20q-7 12 -7 27t12 27q13 11 31 11q14 0 22 -6q9 -5 13 -13q3 -9 3 -18q1 -10 1 -18q1 -13 3 -19
t15 -6q27 0 48 19q22 18 38 44q16 25 25 52q10 27 15 44q20 66 31 122q12 56 23 111q10 57 21 118q10 62 28 141h-109q1 6 5 23h109q6 19 16 47t25 57q15 30 36 59q20 29 48 53q27 24 63 38q35 14 79 14q34 0 57 -7t36 -17q15 -11 20 -23q6 -12 6 -22q0 -53 -44 -53
q-19 0 -28 12q-10 11 -10 30q0 13 10 22t10 18q0 11 -20 14q-21 4 -46 4q-32 0 -56 -15q-25 -14 -45 -36q-18 -23 -32 -51t-24 -56q-10 -27 -17 -50q-6 -24 -10 -38h179q36 0 67 2t57 6q-28 -112 -84 -337q-2 -9 -6 -21q-4 -13 -7 -25t-5 -22q-2 -11 -2 -17q0 -35 31 -35
q18 0 35 17q17 16 30 38q15 21 25 41t13 27q6 -2 19 -8q-7 -14 -19 -40q-12 -25 -31 -50t-45 -43q-27 -18 -62 -18q-37 0 -53 19q-17 19 -17 56q0 15 3 27l7 28q27 111 83 332h-224z" />
    <glyph glyph-name="fl" unicode="&#xfb02;" horiz-adv-x="569" 
d="M187 444q-9 -49 -20 -111t-27 -127q-14 -66 -33 -131q-19 -66 -44 -123q-11 -27 -29 -58q-19 -32 -44 -59q-26 -28 -58 -46t-71 -18q-14 0 -27 4q-14 4 -24 13q-12 8 -18 20q-7 12 -7 27t12 27q13 11 31 11q14 0 22 -6q9 -5 13 -13q3 -9 3 -18q1 -10 1 -18q1 -13 3 -19
t15 -6q27 0 48 19q22 18 38 44q16 25 25 52q10 27 15 44q20 66 31 122q12 56 23 111q10 57 21 118q10 62 28 141h-109q1 6 5 23h109q6 19 15 47t23 57q14 30 33 59t44 53q26 24 58 38q33 14 74 14q20 0 33 -2q14 -2 23 -5q10 -3 18 -8q9 -4 19 -9q25 3 42 6t37 8
q-43 -196 -128 -587q-2 -11 -6 -23q-3 -13 -6 -25q-2 -11 -4 -21t-2 -16q0 -35 31 -35q18 0 35 17q17 16 30 38q15 21 25 41t13 27q6 -2 19 -8q-6 -14 -18 -40q-12 -25 -31 -50q-20 -25 -46 -43q-27 -18 -62 -18q-37 0 -53 19q-17 19 -17 56q0 13 3 24q3 12 5 31l114 501
q-17 0 -27 11q-11 11 -11 27q0 14 11 23q10 9 10 18q0 11 -17 16q-18 5 -39 5q-30 0 -54 -15q-23 -14 -42 -36q-17 -23 -30 -51t-23 -56q-9 -27 -15 -50q-6 -24 -10 -38h104q-1 -6 -5 -23h-105z" />
  </font>
</defs>
</svg>
