<?xml version="1.0" standalone="no"?>
<!DOCTYPE svg PUBLIC "-//W3C//DTD SVG 1.1//EN" "http://www.w3.org/Graphics/SVG/1.1/DTD/svg11.dtd" >
<svg xmlns="http://www.w3.org/2000/svg" xmlns:xlink="http://www.w3.org/1999/xlink" version="1.1">
<metadata>
Created by FontForge 20170731 at Wed Mar 10 17:51:15 2021
 By Aleksey,,,
(c) 1988, 1995, 2002 Adobe Systems Incorporated. All rights reserved.
</metadata>
<defs>
<font id="CenturyExpandedLTStd" horiz-adv-x="1024" >
  <font-face 
    font-family="Century Expanded LT Std"
    font-weight="400"
    font-stretch="normal"
    units-per-em="2048"
    panose-1="2 4 6 4 6 7 5 2 3 4"
    ascent="1507"
    descent="-541"
    x-height="979"
    cap-height="1475"
    bbox="-342 -512 2048 1980"
    underline-thickness="102"
    underline-position="-307"
    unicode-range="U+0020-FB02"
  />
<missing-glyph 
d="M0 0v1434h1024v-1434h-1024zM512 809l348 522h-696zM573 717l349 -522v1044zM164 102h696l-348 523zM102 1239v-1044l349 522z" />
    <glyph glyph-name="f_i" unicode="fi" horiz-adv-x="1138" 
d="M25 893v86h180q0 102 22.5 192t69.5 167.5t131 123t197 45.5q68 0 133 -22.5t113.5 -74t48.5 -122.5q0 -57 -34 -93t-91 -36q-53 0 -87 29.5t-34 81.5q0 38 21 66t42 41.5t21 15.5q0 16 -48.5 30.5t-88.5 14.5q-49 0 -93.5 -17.5t-81.5 -52.5t-59 -94t-22 -135v-160h589
v-795q0 -48 10.5 -69.5t42 -31t101.5 -9.5v-74h-467v74q56 2 84 6t45.5 21.5t21 41.5t3.5 74v676h-430v-723q0 -55 32 -75.5t119 -20.5v-74h-471v74q98 0 129 21t31 98v700h-180z" />
    <glyph glyph-name="f_l" unicode="fl" horiz-adv-x="1138" 
d="M365 979h430v203q-62 -9 -96.5 25.5t-34.5 95.5q0 20 10 38.5t22.5 29t22.5 20t10 14.5q0 17 -49.5 25t-81.5 8q-63 0 -110 -25t-73 -67.5t-38 -91.5t-12 -105v-170zM25 893v86h180q0 113 20.5 204.5t64.5 166t122 116t186 41.5q24 0 94 -16q66 -12 84 -12q21 0 46.5 3
t40.5 6t48.5 10t42.5 9v-1323q0 -48 10.5 -69.5t42 -31t101.5 -9.5v-74h-467v74q56 2 84 6t45.5 21.5t21 41.5t3.5 74v676h-430v-723q0 -55 32 -75.5t119 -20.5v-74h-471v74q98 0 129 21t31 98v700h-180z" />
    <glyph glyph-name=".notdef" 
d="M0 0v1434h1024v-1434h-1024zM512 809l348 522h-696zM573 717l349 -522v1044zM164 102h696l-348 523zM102 1239v-1044l349 522z" />
    <glyph glyph-name=".null" horiz-adv-x="0" 
 />
    <glyph glyph-name="nonmarkingreturn" horiz-adv-x="682" 
 />
    <glyph glyph-name="space" unicode=" " horiz-adv-x="512" 
 />
    <glyph glyph-name="exclam" unicode="!" horiz-adv-x="681" 
d="M371 430h-62v176q0 127 -27 289t-54 288.5t-27 166.5q0 71 33.5 118.5t105.5 47.5t105.5 -47.5t33.5 -118.5q0 -40 -27 -166.5t-54 -288.5t-27 -289v-176zM340 238q60 0 99.5 -39t39.5 -99t-39.5 -98.5t-99.5 -38.5t-99.5 38.5t-39.5 98.5t39.5 99t99.5 39z" />
    <glyph glyph-name="quotedbl" unicode="&#x22;" horiz-adv-x="681" 
d="M559 1350l-37 -418q0 -1 -1 -10t-1.5 -14t-3 -13.5t-5.5 -13.5t-9 -9t-13 -4q-8 0 -14 4t-9 9t-5.5 13.5t-3 13.5t-1.5 13.5t-1 10.5l-35 418q0 24 0.5 38t4 41.5t10 43.5t20.5 29.5t34 13.5q70 0 70 -166zM262 1350l-37 -418q0 -1 -1 -12.5t-2.5 -17.5t-4.5 -15.5
t-9 -14t-15 -4.5q-8 0 -14 4t-9.5 9t-6 13.5t-3 13.5t-1.5 14t-1 10l-35 418q0 166 70 166q20 0 34 -13.5t20.5 -29.5t10 -43.5t4 -41.5t0.5 -38z" />
    <glyph glyph-name="numbersign" unicode="#" 
d="M956 557l-4 -102h-211l-63 -455h-115l66 455h-279l-63 -455h-115l66 455h-232l4 102h242l43 311h-229l4 103h239l64 459h114l-65 -459h278l64 459h115l-66 -459h203l-4 -103h-213l-43 -311h200zM686 868h-278l-43 -311h278z" />
    <glyph glyph-name="dollar" unicode="$" 
d="M561 602v-571q132 16 204.5 77.5t72.5 182.5q0 45 -18 86.5t-44 72.5t-66 61.5t-73 49.5t-76 41zM479 29v612q-68 34 -115 60.5t-100 68.5t-85 85t-53.5 104.5t-21.5 132.5q0 148 113 249t262 107v129h82v-129q65 -1 125.5 -15.5t115 -44t87.5 -82.5t33 -122
q0 -60 -39.5 -110t-98.5 -50q-65 0 -103 37.5t-38 101.5q0 41 24.5 69.5t53.5 38t53.5 16.5t24.5 11q0 22 -77 51.5t-161 32.5v-569q52 -26 85 -44t80 -47.5t77 -55t63.5 -62t53 -73t32.5 -84t13 -99.5q0 -167 -111 -271.5t-293 -113.5v-237h-82v237q-197 6 -308.5 95
t-111.5 247q0 63 39 114.5t101 51.5t100.5 -40.5t38.5 -96.5q0 -66 -46 -101.5t-97 -35.5q-37 0 -37 -13q0 -10 7.5 -26.5t29.5 -39t55.5 -42t93.5 -33t135 -14.5zM479 856v526q-102 -7 -185 -72t-83 -163q0 -44 18 -83.5t41.5 -67t66 -57t69.5 -44.5t73 -39z" />
    <glyph glyph-name="percent" unicode="%" horiz-adv-x="1705" 
d="M1395 788q106 0 166.5 -74t60.5 -182q0 -85 -35 -179t-92 -172t-138 -129.5t-165 -51.5q-283 0 -283 266q0 119 68.5 240.5t182.5 201.5t235 80zM1204 61q74 0 143 50t115.5 124.5t74.5 158t28 151.5q0 67 -41.5 124.5t-114.5 57.5q-47 0 -108.5 -63t-111.5 -148.5
t-85 -175.5t-35 -141q0 -62 37 -100t98 -38zM485 -25h-100l758 1315l-4 4q-57 -41 -110.5 -59t-123.5 -18q-51 0 -121 28q11 -38 11 -106q0 -79 -36 -169.5t-94.5 -167t-141 -127t-167.5 -50.5q-118 0 -190 75t-72 209q0 89 42 182t108.5 165t155.5 118.5t178 46.5
q38 0 72.5 -14.5t53 -31.5t36 -35.5t20.5 -20.5q27 -19 80 -30t94 -11q85 0 169.5 49t135.5 127h92zM588 1360q-70 -7 -151.5 -114t-132 -228t-50.5 -184t33 -105.5t92 -42.5q71 0 139 48t115 120t75.5 155.5t28.5 155.5q0 54 -14 103q-91 32 -135 92z" />
    <glyph glyph-name="ampersand" unicode="&#x26;" horiz-adv-x="1593" 
d="M901 793v73h545v-73q-44 0 -70 -1.5t-52 -9.5t-40.5 -19t-31.5 -35t-29.5 -54t-30.5 -78q-43 -120 -80 -194.5t-100 -172.5q28 -41 50.5 -68t62.5 -53t81 -26q52 0 89.5 18t58.5 52t32 72t17 89h53q-2 -89 -38.5 -168.5t-108.5 -132.5t-164 -53q-168 0 -262 131
q-170 -131 -365 -131q-112 0 -203.5 58t-142.5 153t-51 205q0 156 98 281.5t254 217.5q-49 138 -49 232q0 80 23.5 153t67 131t112 92t153.5 34q60 0 118.5 -24t100 -73t41.5 -110q0 -44 -22 -88.5t-50.5 -77.5t-79 -72.5t-83.5 -61t-90 -56.5t-74 -46q126 -334 322 -618
q137 202 137 340q0 55 -11.5 88.5t-40 50t-60 21t-87.5 4.5zM487 819q-94 -67 -146 -135.5t-52 -163.5q0 -55 27 -132t71 -150.5t111 -125t137 -51.5q110 0 207 80q-216 277 -355 678zM766 1442q-92 0 -139 -55t-47 -160q0 -50 10 -126.5t28 -133.5q43 22 91.5 57.5
t95.5 79.5t77.5 96t30.5 98q0 61 -42.5 102.5t-104.5 41.5z" />
    <glyph glyph-name="quotesingle" unicode="'" horiz-adv-x="454" 
d="M297 1350l-37 -418q0 -1 -1 -10t-1.5 -14t-3 -13.5t-5.5 -13.5t-9 -9t-13 -4q-8 0 -14 4t-9 9t-5.5 13.5t-3 13.5t-1.5 13.5t-1 10.5l-35 418q0 24 0.5 38t4 41.5t10 43.5t20.5 29.5t34 13.5q70 0 70 -166z" />
    <glyph glyph-name="parenleft" unicode="(" horiz-adv-x="681" 
d="M612 -250v-61q-117 78 -204 161t-159.5 191t-110.5 244t-38 297q0 299 132 538.5t380 395.5v-62q-195 -179 -273.5 -381t-78.5 -481q0 -166 35 -319t116.5 -293.5t200.5 -229.5z" />
    <glyph glyph-name="parenright" unicode=")" horiz-adv-x="681" 
d="M70 -311v61q195 179 273.5 381t78.5 481q0 166 -35 319t-116.5 293.5t-200.5 229.5v62q117 -78 204 -161t159.5 -191t110.5 -244t38 -297q0 -299 -132 -538.5t-380 -395.5z" />
    <glyph glyph-name="asterisk" unicode="*" 
d="M512 1516q35 0 55.5 -24.5t20.5 -59.5q0 -20 -14 -56.5t-28 -101t-14 -152.5q58 33 105.5 76t70 73t47 51t48.5 21q40 0 60 -19.5t20 -63.5q0 -25 -14.5 -41t-45.5 -29q-17 -7 -63.5 -14t-101.5 -25.5t-109 -58.5q54 -38 109 -56t101.5 -25t63.5 -14q31 -13 45.5 -28.5
t14.5 -40.5q0 -46 -20 -65t-60 -19q-24 0 -48.5 21t-47 50.5t-70 72.5t-105.5 77q0 -88 14 -152.5t28 -101t14 -55.5q0 -35 -20.5 -59.5t-55.5 -24.5q-34 0 -55 24.5t-21 59.5q0 19 14 55.5t28 101t14 152.5q-58 -34 -104.5 -77t-69 -72.5t-47.5 -50.5t-50 -21q-40 0 -60 19
t-20 65q0 25 15 40.5t45 28.5q19 8 65 15t100.5 24.5t108.5 55.5q-54 40 -108.5 58t-101 25t-64.5 15q-60 26 -60 70t20 63.5t60 19.5q25 0 50 -21t47.5 -51t69 -73t104.5 -76q0 88 -14 152.5t-28 101t-14 56.5q0 35 21 59.5t55 24.5z" />
    <glyph glyph-name="plus" unicode="+" horiz-adv-x="1228" 
d="M553 551v428h123v-428h428v-123h-428v-428h-123v428h-428v123h428z" />
    <glyph glyph-name="comma" unicode="," horiz-adv-x="512" 
d="M141 -410l-47 35q191 199 191 291q0 8 -24.5 20.5t-53.5 27t-53.5 50.5t-24.5 86q0 53 38.5 95.5t88.5 42.5q81 0 120.5 -57t39.5 -142q0 -60 -26.5 -126.5t-71 -126.5t-87.5 -107t-90 -89z" />
    <glyph glyph-name="hyphen" unicode="-" horiz-adv-x="681" 
d="M606 420h-549v139h549v-139z" />
    <glyph glyph-name="period" unicode="." horiz-adv-x="512" 
d="M256 238q60 0 99.5 -39t39.5 -99t-39.5 -98.5t-99.5 -38.5t-99.5 38.5t-39.5 98.5t39.5 99t99.5 39z" />
    <glyph glyph-name="slash" unicode="/" horiz-adv-x="569" 
d="M594 1516l-496 -1557h-123l496 1557h123z" />
    <glyph glyph-name="zero" unicode="0" 
d="M506 45q47 0 80 14.5t63.5 57t48.5 116t28.5 193.5t10.5 289t-10.5 289t-28.5 193.5t-48.5 115.5t-63.5 56.5t-80 14.5t-80.5 -14.5t-64 -56.5t-49 -115.5t-29.5 -194t-11 -288.5t11 -288.5t29.5 -194t49 -116t64 -57t80.5 -14.5zM506 -25q-61 0 -125 31.5t-123 95.5
t-105.5 151t-74 207t-27.5 255t27.5 255t74 206.5t105.5 150.5t123 95.5t125 31.5q77 0 156.5 -51.5t145.5 -142.5t108 -234.5t42 -310.5t-42 -310.5t-108 -235t-145.5 -143t-156.5 -51.5z" />
    <glyph glyph-name="one" unicode="1" 
d="M877 0h-711v74q162 0 217 29t55 130v832q0 66 -21.5 98.5t-78 46t-172.5 13.5v82q63 0 112.5 5t106.5 19.5t104 46t80 78.5h58v-1221q0 -100 52 -129.5t198 -29.5v-74z" />
    <glyph glyph-name="two" unicode="2" 
d="M178 197h432q61 0 91 1t62.5 10t45.5 20t29.5 41t24.5 62.5t22 94.5h61l-28 -426h-900v94q0 9 3.5 21t12 28t16.5 30t22.5 35t25 35.5t29 39t29.5 38.5t31.5 40t29.5 38q63 80 144.5 163.5t139.5 140t112 118t82 126t28 136.5q0 160 -71 230.5t-201 70.5q-113 0 -204 -81
t-91 -156q0 -19 18 -19q6 0 20 3.5t19 3.5q61 0 99 -39t38 -101q0 -55 -38 -94t-93 -39q-162 0 -162 203q0 155 127.5 272t311.5 117q198 0 323 -109.5t125 -291.5q0 -66 -33.5 -128.5t-90.5 -116.5t-127 -107.5t-147 -110.5t-146 -114.5t-129.5 -130t-92.5 -148.5z" />
    <glyph glyph-name="three" unicode="3" 
d="M940 373q0 -173 -140.5 -285.5t-346.5 -112.5q-184 0 -300 95t-116 239q0 72 37 127.5t112 55.5q55 0 95.5 -38.5t40.5 -93.5q0 -59 -37 -88.5t-74 -29.5q-51 0 -92 8q1 -24 20.5 -58t55.5 -69.5t99 -60.5t138 -25q156 0 221.5 87.5t65.5 250.5t-69.5 241t-233.5 78
q-14 0 -45 -4t-47 -4q-66 0 -66 47q0 49 61 49q15 0 45 -3t44 -3q280 0 280 326q0 291 -266 291q-100 0 -168 -44t-82 -137q25 5 37 5q65 0 98 -43t33 -89q0 -45 -33.5 -81.5t-87.5 -36.5q-68 0 -104.5 45t-36.5 114q0 142 101.5 235t266.5 93q125 0 227.5 -43t163 -124
t60.5 -185q0 -70 -31.5 -129.5t-77 -97.5t-107.5 -68t-112.5 -45t-103.5 -25v-2q203 -11 339 -112.5t136 -249.5z" />
    <glyph glyph-name="four" unicode="4" 
d="M102 451h471v723h-4zM934 0h-584v74q76 0 117.5 4.5t66.5 19.5t32 38t7 65v147h-553v103l646 1003h88v-1003h198v-103h-198v-164q0 -65 36.5 -87.5t143.5 -22.5v-74z" />
    <glyph glyph-name="five" unicode="5" 
d="M260 1247l-24 -426q61 51 124.5 69.5t155.5 18.5q179 0 306.5 -134.5t127.5 -319.5q0 -94 -38 -181.5t-104 -153.5t-162 -105.5t-204 -39.5q-171 0 -278 96.5t-107 225.5q0 77 40.5 132.5t113.5 55.5q50 0 87.5 -35.5t37.5 -84.5q0 -65 -42.5 -101.5t-109.5 -36.5
q-14 0 -34 4q17 -80 97.5 -133t176.5 -53q76 0 131.5 23t88.5 60.5t52.5 94.5t26 114.5t6.5 131.5q0 371 -278 371q-55 0 -122.5 -23t-90.5 -47q0 -9 2 -27.5t2 -27.5q0 -34 -17.5 -63t-48.5 -29q-23 0 -40 16.5t-17 38.5q0 34 24.5 76.5t24.5 46.5l37 653h37
q67 -20 182.5 -40.5t171.5 -20.5q58 0 130 15.5t122 31.5t57 16q6 0 6 -8q0 -13 -20 -38.5t-62 -58t-96 -61.5t-132 -49t-161 -20q-70 0 -180 26z" />
    <glyph glyph-name="six" unicode="6" 
d="M954 430q0 -195 -123 -325t-321 -130q-91 0 -168.5 44.5t-129 116t-88 163t-53 184.5t-16.5 181q0 114 22.5 225.5t70 213.5t114 180t161.5 124.5t206 46.5q114 0 197 -66t83 -176q0 -54 -39 -93.5t-92 -39.5q-62 0 -98.5 32.5t-36.5 92.5q0 32 14.5 58.5t32.5 40.5
t32.5 27.5t14.5 23.5q0 17 -49 28t-76 11q-336 0 -336 -639q0 -46 5 -95h4q25 91 109.5 156.5t178.5 65.5q104 0 192 -61.5t138.5 -165t50.5 -224.5zM272 401q0 -55 7 -103.5t25.5 -97.5t47.5 -84t76 -57t107 -22q215 0 215 387q0 44 -0.5 71t-5 72t-12.5 74t-24 63.5
t-38.5 54.5t-57.5 34t-80 14q-65 0 -117 -37.5t-82 -98t-45.5 -130t-15.5 -140.5z" />
    <glyph glyph-name="seven" unicode="7" 
d="M78 868l53 562h854v-60q-62 -96 -121.5 -205.5t-117 -238t-93 -260t-35.5 -236.5q0 -42 16.5 -144.5t16.5 -150.5q0 -71 -31 -115.5t-100 -44.5q-123 0 -123 209q0 78 17.5 165.5t55.5 183.5t72 173t93.5 182t91.5 159t92 153q17 28 25 41h-451q-58 0 -94 -8.5t-65 -29.5
t-46.5 -65.5t-30 -106.5t-24.5 -163h-55z" />
    <glyph glyph-name="eight" unicode="8" 
d="M657 788q130 -61 218 -164.5t88 -211.5q0 -66 -12 -124t-44.5 -117t-85 -101t-140 -68.5t-202.5 -26.5q-110 0 -197 29t-140.5 79t-81 114t-27.5 139q0 42 21 85.5t50 77t72.5 69.5t76 57.5t73 47.5t51.5 34q-283 138 -283 374q0 168 122.5 270.5t324.5 102.5
q70 0 138.5 -22.5t124 -63t90 -103.5t34.5 -137q0 -56 -24 -108.5t-66.5 -95t-85 -74t-95.5 -62.5zM436 676q-51 -36 -78.5 -56.5t-67 -57.5t-59.5 -68.5t-35.5 -76.5t-15.5 -95q0 -142 88 -213.5t234 -71.5q66 0 126 16t110.5 47.5t80 85t29.5 123.5q0 50 -21 94t-52 75
t-78.5 61.5t-87.5 50t-92.5 45t-80.5 41.5zM596 819q51 37 83.5 64.5t66.5 67t50.5 86.5t16.5 102q0 123 -85 188.5t-210 65.5q-60 0 -113.5 -14t-98.5 -42t-71 -77t-26 -113q0 -40 22.5 -79.5t55 -68.5t79.5 -59t84.5 -49t83 -41t62.5 -31z" />
    <glyph glyph-name="nine" unicode="9" 
d="M61 999q0 195 123.5 325t321.5 130q91 0 168.5 -44.5t129 -115.5t88 -162.5t53 -184.5t16.5 -181q0 -114 -22.5 -225.5t-70 -214t-114 -180.5t-161.5 -124.5t-206 -46.5q-114 0 -197.5 66t-83.5 176q0 54 39.5 93.5t92.5 39.5q62 0 98.5 -32.5t36.5 -92.5
q0 -32 -14.5 -58.5t-32.5 -40t-32.5 -27t-14.5 -23.5q0 -17 49 -28t75 -11q336 0 336 639q0 55 -4 94h-4q-25 -91 -110 -156t-179 -65q-104 0 -192 61.5t-138.5 165t-50.5 223.5zM743 1028q0 55 -7 104t-25.5 98t-47 84t-75.5 57t-107 22q-215 0 -215 -387q0 -45 0.5 -71.5
t5 -72t12 -74t23.5 -63t38.5 -54.5t57.5 -34t80 -14q53 0 97 24.5t73.5 65.5t50 94t30 109t9.5 112z" />
    <glyph glyph-name="colon" unicode=":" horiz-adv-x="512" 
d="M256 238q60 0 99.5 -39t39.5 -99t-39.5 -98.5t-99.5 -38.5t-99.5 38.5t-39.5 98.5t39.5 99t99.5 39zM256 1001q60 0 99.5 -38.5t39.5 -98.5t-39.5 -98.5t-99.5 -38.5t-99.5 38.5t-39.5 98.5t39.5 98.5t99.5 38.5z" />
    <glyph glyph-name="semicolon" unicode=";" horiz-adv-x="512" 
d="M141 -410l-47 35q191 199 191 291q0 8 -24.5 20.5t-53.5 27t-53.5 50.5t-24.5 86q0 53 38.5 95.5t88.5 42.5q81 0 120.5 -57t39.5 -142q0 -60 -26.5 -126.5t-71 -126.5t-87.5 -107t-90 -89zM256 1001q60 0 99.5 -38.5t39.5 -98.5t-39.5 -98.5t-99.5 -38.5t-99.5 38.5
t-39.5 98.5t39.5 98.5t99.5 38.5z" />
    <glyph glyph-name="less" unicode="&#x3c;" horiz-adv-x="1228" 
d="M1135 102v-127l-1041 476v118l1041 435v-127l-893 -367z" />
    <glyph glyph-name="equal" unicode="=" horiz-adv-x="1228" 
d="M1104 748v-123h-979v123h979zM1104 354v-123h-979v123h979z" />
    <glyph glyph-name="greater" unicode="&#x3e;" horiz-adv-x="1228" 
d="M94 102l893 408l-893 367v127l1041 -435v-118l-1041 -476v127z" />
    <glyph glyph-name="question" unicode="?" horiz-adv-x="909" 
d="M463 406h-70v122q0 110 21 205t51.5 160.5t60.5 123t51 117t21 117.5q0 89 -48.5 140t-139.5 51q-80 0 -132.5 -38t-52.5 -79q0 -6 14 -12t33.5 -14t39.5 -20.5t34 -37t14 -57.5q0 -58 -34 -89.5t-93 -31.5q-62 0 -94.5 48t-32.5 124q0 111 91.5 196t220.5 85
q64 0 127 -18.5t118 -55t89 -99t34 -141.5q0 -54 -18 -102t-46.5 -85.5t-63 -75t-68.5 -78t-62.5 -85t-46.5 -105.5t-18 -132v-133zM430 238q60 0 99.5 -39t39.5 -99t-39.5 -98.5t-99.5 -38.5t-99.5 38.5t-39.5 98.5t39.5 99t99.5 39z" />
    <glyph glyph-name="at" unicode="@" horiz-adv-x="1638" 
d="M1071 897q0 143 -98 143q-44 0 -97.5 -31t-103.5 -85t-83.5 -142t-33.5 -188q0 -97 40 -142.5t106 -45.5q36 0 78 32t81.5 91t70 155.5t40.5 212.5zM1106 1016l22 92h154l-137 -512q-3 -10 -8 -28t-7.5 -28.5t-5 -24t-2.5 -23.5q0 -41 24 -74t73 -33q71 0 131 44
t97.5 113t58 149t20.5 157q0 80 -28 164t-85 164t-135 143t-187 101t-231 38q-136 0 -253 -52t-204.5 -149t-137.5 -245.5t-50 -331.5q0 -122 47.5 -237t131.5 -205.5t211.5 -145.5t277.5 -55q137 0 234 26.5t212 79.5l31 -59q-138 -60 -247.5 -92.5t-227.5 -32.5
q-142 0 -267 34t-216 91.5t-162.5 132t-115.5 158.5t-66.5 166.5t-22.5 160.5q0 142 42.5 270t119.5 226.5t179.5 170.5t226.5 109.5t257 37.5q207 0 377 -86t268.5 -239t98.5 -341q0 -88 -28.5 -180.5t-80.5 -172.5t-134 -131t-179 -51q-51 0 -93 20t-64 47.5t-33.5 51.5
t-10.5 37h-4q-13 -19 -34.5 -41.5t-55.5 -50.5t-79 -46t-91 -18q-15 0 -30 1.5t-37.5 8t-42 17.5t-40 32.5t-34.5 49.5t-23.5 72t-9.5 98q0 41 12 94.5t35.5 115t61.5 120t85 106t112 76.5t138 29q16 0 30 -2t24.5 -4.5t21.5 -9t17.5 -9.5t15.5 -13.5t13 -13.5t12 -16.5
t9.5 -16t9.5 -17.5t9 -17z" />
    <glyph glyph-name="A" unicode="A" horiz-adv-x="1593" 
d="M508 594h453l-220 661h-4zM743 1516h111l436 -1258q18 -53 38 -87t39.5 -54t51 -29t59 -11.5t78.5 -2.5v-74h-686v74q61 0 97 2t71.5 10t51.5 24.5t16 43.5q0 11 -5 30.5t-11 37t-19 54t-20 58.5l-54 158h-524l-61 -197q-23 -71 -23 -100q0 -121 209 -121v-74h-561v74
q56 0 101 15t71.5 34.5t49 52.5t32.5 55t22 56z" />
    <glyph glyph-name="B" unicode="B" horiz-adv-x="1478" 
d="M74 0v74q62 0 103.5 7t66.5 19.5t38 36t17 48.5t4 65v1024q0 31 -2 48.5t-10.5 33.5t-22 23.5t-41 13t-62 7t-91.5 1.5v74h661q279 0 423.5 -97.5t144.5 -257.5q0 -69 -28.5 -126.5t-74 -95.5t-107 -66t-121.5 -43t-124 -21v-4q132 -15 243.5 -63t181.5 -127.5t70 -174.5
q0 -88 -32 -158.5t-101 -125.5t-188 -85t-283 -30h-665zM508 729v-491q0 -32 1 -49.5t5.5 -39t14 -32t26 -22.5t42.5 -17t62 -8.5t86 -3.5q100 0 165 13t113 48.5t69.5 99t21.5 162.5q0 92 -31 159.5t-86 106t-122.5 56.5t-149.5 18h-217zM508 1235v-432h84q116 0 199.5 13
t137 36.5t85 61.5t43.5 82.5t12 105.5q0 79 -14.5 133t-39 87t-69.5 50.5t-93.5 23t-123.5 5.5q-52 0 -83.5 -1.5t-59 -8.5t-40.5 -16.5t-23 -30t-12.5 -45t-2.5 -64.5z" />
    <glyph glyph-name="C" unicode="C" horiz-adv-x="1478" 
d="M1268 1516h51l8 -584h-49q-28 87 -58 156t-74 137.5t-95 114t-121 74t-152 28.5q-79 0 -144 -25t-109.5 -66t-78.5 -100.5t-53.5 -121.5t-32 -136.5t-16.5 -138t-4 -133.5q0 -71 6 -136.5t20.5 -135.5t38 -129.5t60.5 -113.5t85 -91.5t114.5 -59.5t146.5 -22
q113 0 205 42t151 114.5t91 167t32 202.5h70q0 -175 -66 -310t-196 -212.5t-307 -77.5q-126 0 -237 43t-193 118t-142 174.5t-90.5 214t-30.5 234.5q0 91 22.5 184.5t63 179t101 160.5t132.5 130t162.5 87t186.5 32q64 0 133 -19.5t114 -43t81.5 -43t44.5 -19.5q14 0 25.5 2
t22 7.5t17.5 9t15 14.5t12 15t11 18.5t9 18.5t9 21t8 19z" />
    <glyph glyph-name="D" unicode="D" horiz-adv-x="1593" 
d="M80 0v74q34 0 54 0.5t47 3.5t43 9t34 17t27 27t15.5 39.5t6.5 54.5v1039q0 45 -7.5 69.5t-33.5 41t-68 21.5t-118 5v74h751q293 0 474.5 -208.5t181.5 -553.5q0 -61 -10.5 -125t-36 -134.5t-63 -134.5t-95.5 -123t-130 -102t-171 -68.5t-213 -25.5h-688zM512 1235v-1010
q0 -151 242 -151q120 0 208.5 35.5t142 94t85.5 150t43.5 188.5t11.5 224q0 322 -116 478.5t-324 156.5q-84 0 -134 -4.5t-84.5 -13t-49 -30t-20 -46.5t-5.5 -72z" />
    <glyph glyph-name="E" unicode="E" horiz-adv-x="1593" 
d="M1358 1475l10 -523h-57q-18 82 -30.5 131.5t-31.5 102t-36 80t-46.5 56t-61 40.5t-81 23t-104.5 13.5t-134 2.5q-61 0 -102 -2.5t-71 -9.5t-46.5 -16.5t-26 -27t-12 -36t-2.5 -49.5v-457q51 0 86 1.5t74.5 6t65 13t53 23t44 36t31.5 51.5t22.5 69.5t10.5 90.5h54v-693
h-52q-9 103 -33.5 166.5t-73 99.5t-113.5 49t-169 13v-498q0 -64 15.5 -95t66.5 -46.5t156 -15.5q86 0 147.5 3.5t116.5 15t91.5 27t70 45.5t54.5 64t41 89t34.5 114.5t30.5 145.5h63l-33 -578h-1292v74q141 0 187.5 26.5t46.5 114.5v1045q0 52 -15.5 80t-68 44.5
t-152.5 16.5v74h1272z" />
    <glyph glyph-name="F" unicode="F" horiz-adv-x="1478" 
d="M756 0h-680v74q61 0 97.5 2t67 9.5t45 17.5t24.5 32.5t12 47t2 67.5v954q0 41 -0.5 63t-5 47t-9 35.5t-19.5 23t-29.5 16t-45 7.5t-59.5 4.5t-80 0.5v74h1265l11 -566h-45q-48 211 -77 283q-49 120 -140 168q-95 49 -273 49q-56 0 -92.5 -0.5t-70 -4.5t-52 -7.5
t-34.5 -14.5t-22.5 -20.5t-11.5 -30t-5.5 -38t-0.5 -50.5v-440q62 0 102 2t82.5 9t68 20.5t49.5 36t36.5 55.5t19.5 79.5t7 108.5h53v-725h-53q0 77 -6.5 130t-25 92t-43 61t-69 35.5t-94.5 17.5t-127 4v-493q0 -38 4 -64t16 -44.5t26.5 -29t43.5 -16t58.5 -7t79.5 -1.5v-74
z" />
    <glyph glyph-name="G" unicode="G" horiz-adv-x="1478" 
d="M1192 1516h55l8 -572h-57q-23 60 -38.5 98t-44 95.5t-54 95.5t-64 81t-78.5 68.5t-94 42.5t-114 17t-110 -15t-87 -39t-66.5 -62.5t-49 -78t-34 -93t-22 -100t-12 -107.5t-5.5 -106t-1 -104q0 -78 2 -135t10.5 -135t24 -134.5t44.5 -116.5t69 -97.5t100.5 -61.5
t136.5 -24q155 0 249.5 86.5t94.5 247.5q0 41 -1.5 69t-7.5 51.5t-11.5 37.5t-21.5 25t-28.5 16t-41.5 8t-52 3.5t-68 0.5v73h619v-73q-41 0 -70 -4t-58.5 -16t-45 -39t-15.5 -68v-492h-61q-1 5 -2.5 20.5t-2 20.5t-2.5 18.5t-4 18t-5.5 15t-7.5 14.5t-10 10.5t-13 9
t-16.5 4.5t-20.5 2q-24 0 -61.5 -21t-75 -45.5t-108 -45.5t-152.5 -21q-104 0 -201 42t-173.5 117t-134.5 172.5t-89 213t-31 233.5q0 148 49 290t132 249.5t201 173.5t247 66q71 0 135 -18.5t101 -41t71.5 -41t52.5 -18.5q42 0 73.5 36t47.5 83z" />
    <glyph glyph-name="H" unicode="H" horiz-adv-x="1705" 
d="M528 799h648v461q0 89 -43 115t-183 26v74h664v-74q-146 0 -190 -25.5t-44 -115.5v-1045q0 -90 44 -115.5t190 -25.5v-74h-664v74q140 0 183 26t43 115v481h-648v-481q0 -89 43 -115t183 -26v-74h-664v74q146 0 190 25.5t44 115.5v1045q0 90 -44 115.5t-190 25.5v74h664
v-74q-140 0 -183 -26t-43 -115v-461z" />
    <glyph glyph-name="I" unicode="I" horiz-adv-x="909" 
d="M115 0v74q146 0 189.5 25.5t43.5 115.5v1045q0 90 -43.5 115.5t-189.5 25.5v74h673v-74q-148 0 -191.5 -25.5t-43.5 -115.5v-1045q0 -90 44.5 -115.5t195.5 -25.5v-74h-678z" />
    <glyph glyph-name="J" unicode="J" 
d="M252 1401v74h704v-74q-60 0 -95.5 -1.5t-64 -8t-41 -13.5t-21 -26t-10 -37.5t-1.5 -54.5v-861q0 -91 -25 -165.5t-67 -125t-99 -84.5t-119 -49.5t-128 -15.5q-164 0 -249 82t-85 233q0 79 53.5 133t110.5 54q54 0 95.5 -36.5t41.5 -96.5t-36.5 -97.5t-100.5 -37.5
q-13 0 -26.5 2.5t-29 6.5t-20.5 5q6 -79 62 -126.5t143 -47.5q68 0 118 19t79.5 49.5t47 79t23.5 99t6 117.5v863q0 34 -2 53t-12 37t-25.5 26t-47.5 15t-73 8.5t-106 1.5z" />
    <glyph glyph-name="K" unicode="K" horiz-adv-x="1593" 
d="M748 74v-74h-660v74q133 3 181 28t48 113v1045q0 40 -5.5 63t-17.5 40t-40 24.5t-65 10.5t-101 3v74h668v-74q-149 0 -191.5 -24.5t-42.5 -116.5v-633l465 503q57 64 87 107t30 76q0 53 -42.5 70.5t-131.5 17.5v74h571v-74q-120 0 -192.5 -51t-231.5 -226q-5 -5 -7.5 -8
t-6.5 -7.5t-8 -8.5l-197 -217l447 -674q38 -57 67.5 -82.5t80 -39t138.5 -13.5v-74h-684v74q84 0 126 6.5t54.5 18.5t12.5 36q0 12 -39 74t-99 150t-67 98l-178 268l-195 -201v-309q0 -38 10 -63.5t25.5 -40.5t47.5 -23t61 -10.5t82 -3.5z" />
    <glyph glyph-name="L" unicode="L" horiz-adv-x="1478" 
d="M1329 0h-1220v74h71t52.5 4.5t41.5 9.5t27 19.5t19.5 30t9 46.5t6 63t0.5 85v866q0 49 -4 82t-16.5 56t-27 35.5t-44.5 19.5t-58.5 8.5t-79.5 1.5v74h689v-74q-118 0 -169.5 -13t-68 -44.5t-16.5 -104.5v-936v-52.5t1 -43t3 -37t6 -29t9.5 -24t14 -16.5t19.5 -13.5
t26 -7.5t33 -5t41 -1h178q77 0 134 17.5t101 53t79 99t62.5 144t56.5 200.5h55z" />
    <glyph glyph-name="M" unicode="M" horiz-adv-x="1820" 
d="M70 0v74q60 0 102 12.5t75.5 44t49.5 91.5t16 149v870q0 40 -2.5 63.5t-13 43t-24 29t-44.5 15.5t-65 7.5t-94 1.5v74h540l297 -1057h4l314 1057h522v-74q-107 0 -156 -12t-66.5 -41t-17.5 -93v-1017q0 -43 8.5 -71t23 -46t47 -27.5t67.5 -13t98 -6.5v-74h-680v74
q146 3 193 28t47 111v1188h-27l-418 -1442h-39l-397 1442h-31v-1067q0 -142 51.5 -194t178.5 -66v-74h-559z" />
    <glyph glyph-name="N" unicode="N" horiz-adv-x="1705" 
d="M672 0h-578v74q67 0 114 20.5t72.5 50.5t39.5 81.5t17 94.5t3 109v821q0 150 -244 150v74h365l833 -1141l4 4v838q0 206 -227 225v74h541v-74q-107 0 -169.5 -52.5t-62.5 -183.5v-1206h-53l-901 1231l-4 -4v-815q0 -155 61 -226t189 -71v-74z" />
    <glyph glyph-name="O" unicode="O" horiz-adv-x="1478" 
d="M739 1516q119 0 224 -46.5t180 -125t129.5 -179.5t81 -210.5t26.5 -217.5t-26.5 -217.5t-81 -210t-129.5 -179t-180 -125t-224 -46.5t-224 46.5t-180 125t-129.5 179t-81 210t-26.5 217.5t26.5 217.5t81 210.5t129.5 179.5t180 125t224 46.5zM739 1442
q-71 0 -129.5 -22.5t-99.5 -59.5t-71.5 -92.5t-49 -115t-30 -133t-15.5 -140t-4 -142.5t4 -142.5t15.5 -140t30 -133t49 -114.5t71.5 -92.5t99.5 -59.5t129.5 -22t129.5 22t99.5 59.5t72 92.5t49.5 114.5t30 133t15.5 140t4 142.5q0 90 -6 167t-21.5 161t-44.5 148.5
t-72 118t-108 82t-148 28.5z" />
    <glyph glyph-name="P" unicode="P" horiz-adv-x="1366" 
d="M739 0h-684v74q73 0 113.5 7t70 30.5t40 65.5t10.5 114v932q0 111 -44.5 144.5t-187.5 33.5v74h711q238 0 383 -111.5t145 -300.5q0 -81 -36 -147t-94 -108t-134.5 -71t-153 -41t-153.5 -12h-231v-389q0 -42 1.5 -70.5t8 -53t12 -39t22.5 -26t30 -17t44 -9t55 -4.5t72 -2
v-74zM494 1274v-516q99 0 165.5 2t129.5 8.5t100.5 16t71.5 28.5t51 42.5t30 60.5t17 79.5t4 102.5q0 177 -71.5 240t-250.5 63q-153 0 -200 -22.5t-47 -104.5z" />
    <glyph glyph-name="Q" unicode="Q" horiz-adv-x="1478" 
d="M496 211q0 112 65 186t168 74q60 0 106.5 -17t75.5 -44t50 -69t32 -82t19 -93q127 170 127 571q0 90 -6 167t-21.5 161t-44.5 148.5t-72 118t-108 82t-148 28.5q-71 0 -129.5 -22.5t-99.5 -59.5t-71.5 -92.5t-49 -115t-30 -133t-15.5 -140t-4 -142.5q0 -474 172 -626l4 4
q-20 48 -20 96zM1370 -2h57q-1 -7 -3.5 -33t-4.5 -47t-7.5 -54.5t-12 -61t-18.5 -61t-26.5 -59.5t-36.5 -52t-47.5 -43t-60.5 -27.5t-75 -10.5q-65 0 -116.5 32.5t-81.5 85t-45 113t-15 122.5v73q-12 -2 -35.5 -6t-34.5 -6q-46 -4 -68 -4q-119 0 -224 46.5t-180 125
t-129.5 179t-81 210t-26.5 217.5t26.5 217.5t81 210.5t129.5 179.5t180 125t224 46.5t224 -46.5t180 -125t129.5 -179.5t81 -210.5t26.5 -217.5q0 -206 -93 -401.5t-257 -294.5q7 -49 14 -82.5t21 -70t33 -58.5t49 -36.5t70 -14.5q34 0 60.5 15.5t41 34.5t26 54t15.5 56
t10 59zM569 227q0 -76 48 -135t122 -59q85 0 146 28q16 90 16 132q0 91 -40 147.5t-128 56.5q-72 0 -118 -48t-46 -122z" />
    <glyph glyph-name="R" unicode="R" horiz-adv-x="1593" 
d="M764 0h-664v74q56 0 87.5 2t61.5 10t43 21t24 39.5t13.5 60.5t2.5 88v958q0 35 -3 58t-14 40.5t-25.5 26.5t-43.5 14.5t-61 7t-85 1.5v74h695q54 0 102.5 -3.5t104 -14t101 -27.5t88.5 -45t72.5 -65t47.5 -90t18 -118q0 -147 -136 -244.5t-341 -117.5v-5
q82 -31 144.5 -81.5t97.5 -106t60 -116t40.5 -114.5t31 -97.5t38.5 -69t57 -25.5q24 0 40.5 14.5t30 63t17.5 133.5h61q-6 -147 -34.5 -233.5t-75 -120t-119.5 -33.5q-36 0 -62.5 5.5t-59.5 29.5t-55.5 66t-42 120.5t-28.5 188.5q-9 111 -26.5 176t-57 107.5t-99 57.5
t-159.5 15h-114v-459q0 -35 2.5 -61.5t9.5 -47t14 -34t23 -23t30 -14.5t40.5 -8t48 -3.5t59.5 -0.5v-74zM537 1266v-467h143q67 0 114 2.5t94 10.5t78 23t58.5 38.5t43 57.5t24 81t8.5 108q0 89 -20 145.5t-65.5 86t-102 39.5t-146.5 10q-101 0 -150 -13.5t-64 -40
t-15 -81.5z" />
    <glyph glyph-name="S" unicode="S" horiz-adv-x="1251" 
d="M109 582h53q21 -102 68 -198.5t114 -175.5t159.5 -127t194.5 -48q99 0 176.5 29.5t127 96t49.5 163.5q0 65 -32 114t-86 80.5t-124 57.5t-147.5 49t-155 49.5t-147.5 65.5t-124 90t-86 130t-32 179q0 170 114.5 274.5t300.5 104.5q62 0 125 -20.5t104.5 -45.5t85 -45.5
t71.5 -20.5q57 0 102 132h55q0 -52 -5 -151t-5 -146q0 -48 5 -144.5t5 -144.5h-55q-19 78 -47.5 149.5t-72.5 138.5t-98.5 116t-129 78.5t-158.5 29.5q-120 0 -201.5 -71t-81.5 -191q0 -72 32.5 -125.5t87 -86t125 -57.5t148.5 -46.5t156.5 -45.5t149 -61.5t125 -87.5
t87 -131t32.5 -185q0 -97 -39 -174t-106.5 -124.5t-152 -72t-180.5 -24.5q-65 0 -122.5 14.5t-96 34.5t-70.5 40.5t-59.5 35t-48.5 14.5q-49 0 -82.5 -43t-48.5 -96h-57q8 106 8 277q0 58 -5 173t-5 173z" />
    <glyph glyph-name="T" unicode="T" horiz-adv-x="1366" 
d="M51 905l17 570h1226l21 -570h-64q-10 65 -19 111t-23 97t-31.5 86t-42.5 70t-57.5 57.5t-75 40.5t-97 26t-121.5 8v-1147q0 -44 3 -70.5t14 -48.5t26.5 -32.5t48 -18t69 -9t99.5 -1.5v-74h-725v74q63 0 99.5 1.5t69.5 9t48 18t26.5 32.5t14.5 48.5t3 70.5v1147
q-77 0 -137 -10.5t-105.5 -29t-79.5 -51t-57 -69.5t-40.5 -92t-27.5 -110.5t-20 -133.5h-62z" />
    <glyph glyph-name="U" unicode="U" horiz-adv-x="1705" 
d="M1612 1475v-74q-57 0 -98 -12t-67 -34t-41 -59t-20.5 -80.5t-5.5 -105.5v-680q0 -122 -40 -214t-113 -147.5t-168.5 -82.5t-212.5 -27q-103 0 -195.5 30t-168 88.5t-119.5 156t-44 221.5v798q0 92 -47 120t-178 28v74h664v-74q-59 0 -93 -1.5t-63.5 -10t-42.5 -19.5
t-22 -36.5t-11 -54t-2 -79.5v-764q0 -185 93.5 -290t283.5 -105q191 0 294 106.5t103 278.5v657q0 171 -46.5 244.5t-176.5 73.5v74h537z" />
    <glyph glyph-name="V" unicode="V" horiz-adv-x="1593" 
d="M823 -41h-63l-459 1260q-17 46 -28 73t-27 49.5t-29.5 32.5t-40.5 17t-53.5 8.5t-73.5 1.5v74h664v-74q-96 0 -145 -6.5t-66 -20t-17 -39.5q0 -12 1.5 -24t6.5 -29t7 -25t11 -33t11 -32l326 -934h4l319 870q29 74 29 123q0 27 -6 48.5t-13 36t-25 25.5t-29 17t-38.5 11
t-40.5 6.5t-47 5.5v74h541v-74q-43 -3 -79.5 -15.5t-63 -30.5t-50 -47t-39 -55.5t-32 -65t-26 -68t-24 -72t-24.5 -68.5z" />
    <glyph glyph-name="W" unicode="W" horiz-adv-x="2048" 
d="M668 -41h-45l-373 1272q-13 45 -23 70t-26 47.5t-40 32t-59 15t-88 5.5v74h588v-74q-168 0 -168 -58q0 -19 27 -114l239 -871h5l270 813l-33 129q-11 41 -43.5 64.5t-68.5 30t-85 6.5v74h603v-74h-115q-50 0 -71 -15t-21 -51q0 -17 12 -53l285 -934h4l272 869q1 5 4.5 16
t5.5 18t3.5 20t1.5 27q0 51 -45 77t-109 26v74h459v-74q-56 0 -106.5 -37.5t-81 -85.5t-46.5 -98l-399 -1221h-45l-336 1069h-4z" />
    <glyph glyph-name="X" unicode="X" horiz-adv-x="1593" 
d="M649 0h-588v74q104 0 176.5 38.5t131.5 123.5l342 491l-342 528q-59 90 -123 118t-170 28v74h672v-74q-87 0 -124.5 -14t-37.5 -54q0 -15 6 -30.5t12.5 -27t21 -33.5t23.5 -36l182 -305l213 299q54 75 54 125q0 24 -15.5 39.5t-44.5 23t-59 10.5t-70 3v74h559v-74
q-83 0 -164.5 -37t-127.5 -102l-308 -428l404 -637q46 -72 102.5 -97.5t155.5 -25.5v-74h-668v74q103 -3 152 9.5t49 51.5q0 17 -11 44t-31 60.5t-36 58.5t-39 58.5t-28 40.5l-166 262l-271 -401q-26 -37 -26 -78q0 -29 12 -49.5t28.5 -31t45 -16.5t51.5 -7.5t57 -1.5v-74z
" />
    <glyph glyph-name="Y" unicode="Y" horiz-adv-x="1593" 
d="M424 0v74q53 0 83.5 0.5t64 4t50 8t34 15.5t24 24t13 35.5t8 47.5t1.5 63v346l-325 558q-64 109 -92 141q-58 67 -156 80q-32 4 -72 4v74h670v-74q-131 0 -167 -7t-36 -36q0 -7 1.5 -14.5t5 -17t6.5 -17t10 -20t11.5 -21t15 -26t16.5 -28.5l276 -495l275 506q18 35 18 86
q0 90 -168 90v74h545v-74q-59 0 -108.5 -15.5t-83.5 -37t-67 -60t-52.5 -69.5t-46.5 -80l-271 -494v-373q0 -52 2 -81t13.5 -54t24.5 -35.5t48.5 -18t71 -8.5t104.5 -1v-74h-747z" />
    <glyph glyph-name="Z" unicode="Z" horiz-adv-x="1366" 
d="M217 938h-51l16 537h1051v-54l-911 -1347h337q57 0 101 2t84 9.5t69 15.5t56.5 26.5t46 36t39 50.5t34 62.5t30.5 80t30 96t33 116.5h57l-33 -569h-1136v66l913 1335h-403q-57 0 -105.5 -17t-82 -42.5t-62 -66.5t-45.5 -78.5t-31.5 -89t-21.5 -86.5t-15 -83z" />
    <glyph glyph-name="bracketleft" unicode="[" horiz-adv-x="681" 
d="M612 -270h-483v1745h483v-66h-331v-1614h331v-65z" />
    <glyph glyph-name="backslash" unicode="\" horiz-adv-x="569" 
d="M-152 1516h127l746 -1557h-127z" />
    <glyph glyph-name="bracketright" unicode="]" horiz-adv-x="681" 
d="M553 -270h-483v65h331v1614h-331v66h483v-1745z" />
    <glyph glyph-name="asciicircum" unicode="^" horiz-adv-x="1228" 
d="M313 682h-127l375 748h107l374 -748h-127l-301 604z" />
    <glyph glyph-name="underscore" unicode="_" 
d="M1024 -256h-1024v102h1024v-102z" />
    <glyph glyph-name="grave" unicode="`" horiz-adv-x="569" 
d="M438 1096h-82l-293 184q-1 0 -11.5 7l-12 8t-11 7.5t-11.5 9t-9.5 9t-9.5 10t-7 10.5t-6.5 12.5t-3 13t-1.5 15.5q0 32 21 48t52 16q14 0 24 -2t22.5 -11t17.5 -13t22 -22t23 -24z" />
    <glyph glyph-name="a" unicode="a" 
d="M946 274h49q-5 -303 -168 -303q-43 0 -73.5 12.5t-48 31.5t-28 51.5t-14 62t-4.5 72.5h-4q-123 -230 -348 -230q-101 0 -174.5 64t-73.5 164q0 53 21 98t60.5 78.5t84 60t106 49t111.5 38.5t114 35.5t101 33.5v108q0 63 -8.5 105.5t-31 77t-64.5 51t-107 16.5
q-57 0 -117.5 -16.5t-78.5 -52.5q47 -14 74.5 -47.5t27.5 -81.5q0 -55 -37.5 -90t-93.5 -35q-48 0 -83.5 42.5t-35.5 94.5q0 72 53 129t135 86t173 29q52 0 99.5 -6.5t95 -23t82 -41.5t56 -65.5t21.5 -91.5v-540q0 -47 1 -66.5t5.5 -42.5t14.5 -30t28 -7q12 0 21.5 4.5
t17 13.5t13.5 19t10 24.5t6.5 25.5t5 27.5t3.5 25t2 23t1 17.5zM657 422v104q-41 -14 -67.5 -23.5t-73.5 -28.5t-78.5 -36t-69.5 -43.5t-61 -53t-39 -61.5t-16 -73q0 -58 40 -95.5t89 -37.5q124 0 200 95.5t76 252.5z" />
    <glyph glyph-name="b" unicode="b" horiz-adv-x="1138" 
d="M854 489q0 429 -219 429q-56 0 -102 -21.5t-77 -58.5t-54 -83t-35.5 -98.5t-18.5 -101t-6 -94.5q0 -58 8.5 -113.5t29.5 -111.5t53 -97.5t82.5 -67.5t113.5 -26q44 0 80 17t59 43.5t40 66.5t25.5 77t13.5 85.5t6 81t1 73.5zM190 -33h-47q39 157 39 414v887q0 87 -30 111
t-140 30v72l330 26v-731h4q12 39 35.5 77.5t58.5 74t85.5 58t107.5 22.5q120 0 217 -73t149 -191.5t52 -254.5q0 -134 -50 -250t-153.5 -192t-241.5 -76q-106 0 -188.5 65t-124.5 167h-4q-19 -87 -99 -236z" />
    <glyph glyph-name="c" unicode="c" horiz-adv-x="909" 
d="M825 246l41 -33q-65 -123 -148.5 -182.5t-213.5 -59.5q-123 0 -222.5 73t-152.5 190.5t-53 252.5q0 133 62 254t166 194t220 73q129 0 224.5 -79t95.5 -188q0 -66 -33.5 -116t-97.5 -50q-58 0 -94.5 33t-36.5 90q0 62 40.5 95.5t100.5 33.5q10 0 10 11q0 34 -68 67
t-126 33q-74 0 -130.5 -42.5t-86 -109.5t-44 -136.5t-14.5 -137.5q0 -75 13 -145.5t42 -139.5t86.5 -111t135.5 -42q169 0 284 172z" />
    <glyph glyph-name="d" unicode="d" horiz-adv-x="1138" 
d="M258 489q0 -240 61 -346t160 -106q117 0 202 117t85 335q0 116 -25.5 207t-67 142.5t-88 77.5t-93.5 26t-87 -24t-74 -75t-53.5 -141.5t-19.5 -212.5zM1065 74v-74q-171 0 -299 -37v283h-4q-3 -27 -15 -61t-38 -72t-60.5 -69.5t-86 -52t-111.5 -20.5q-157 0 -273.5 149
t-116.5 361q0 95 25.5 181t67.5 147.5t95 107.5t108 68.5t106 22.5q121 0 201.5 -80.5t97.5 -179.5h4v520q0 47 -6 71t-29.5 40t-59.5 21.5t-108 8.5v72l371 26v-1341q0 -52 25 -72t106 -20z" />
    <glyph glyph-name="e" unicode="e" 
d="M938 475h-674q0 -89 17.5 -162t54.5 -131.5t101.5 -91.5t152.5 -33q42 0 78.5 12t62 26.5t57 47.5t48.5 54t51 67l59 -28q-73 -131 -169 -198t-238 -67q-137 0 -245.5 65.5t-167 177t-58.5 247.5q0 101 32.5 198.5t89.5 175.5t143 125.5t185 47.5q80 0 148.5 -30.5
t118 -82.5t84.5 -120.5t52 -145t17 -154.5zM264 553h342q74 0 104.5 25.5t30.5 99.5q0 115 -56 187.5t-167 72.5q-114 0 -184 -106t-70 -279z" />
    <glyph glyph-name="f" unicode="f" horiz-adv-x="681" 
d="M231 893h-192v86h192q0 528 369 528q85 0 150 -51t65 -139q0 -62 -36 -99.5t-97 -37.5q-50 0 -81.5 33t-31.5 81q0 39 18.5 64.5t37 37.5t18.5 17q0 12 -25.5 20.5t-56.5 8.5q-24 0 -51 -14t-55 -43.5t-46 -86.5t-18 -131v-188h246v-86h-246v-692q0 -80 40 -103.5
t173 -23.5v-74h-569v74q70 0 106.5 5t58 24t26.5 45t5 79v666z" />
    <glyph glyph-name="g" unicode="g" horiz-adv-x="1138" 
d="M512 274q-56 0 -103 14.5t-57 14.5q-30 0 -51.5 -28.5t-21.5 -57.5q0 -40 40 -62.5t104.5 -30t142.5 -12t155.5 -17t142 -36.5t104.5 -78t40 -135q0 -55 -18.5 -99.5t-48 -75t-72 -53.5t-84.5 -35.5t-92 -20.5t-88.5 -10.5t-78.5 -2.5q-41 0 -84 2.5t-103 10t-111 23.5
t-96.5 39t-72 61t-26.5 86q0 147 338 211v4q-260 36 -260 178q0 27 17 55t41 49t48.5 38t41.5 26l17 10q-80 58 -118.5 127t-38.5 168q0 147 118.5 259t280.5 112q83 0 160.5 -39.5t132.5 -106.5q7 8 29 34t31 36t29 28.5t35 26t37 14.5t46 7q55 0 83.5 -35.5t28.5 -91.5
q0 -41 -27.5 -77t-68.5 -36t-60.5 20t-19.5 64q0 15 9 40.5t18 37.5q-10 0 -20 -3t-19 -7t-18.5 -11t-16.5 -13.5t-15.5 -15.5t-13.5 -15t-12 -15.5t-9.5 -13.5l-7.5 -12l-5 -7q43 -88 43 -168q0 -165 -107.5 -270t-267.5 -105zM547 -53q-47 0 -100.5 -7t-113 -23.5
t-98 -51.5t-38.5 -82q0 -41 23.5 -72.5t57.5 -49t79.5 -28.5t82 -14.5t72.5 -3.5q31 0 69.5 2.5t101 13.5t110.5 29t84 54t36 83q0 40 -28.5 69t-67.5 44t-94 24t-94 11t-82 2zM516 344q44 0 77 14t53.5 41t33.5 56t18.5 71.5t7 73.5t1.5 74q0 26 -4 55.5t-17 69t-33.5 70
t-58 52t-86.5 21.5q-59 0 -101.5 -25t-64 -68t-30.5 -90.5t-9 -103.5q0 -51 4.5 -92.5t18.5 -84t37 -70.5t62 -46t91 -18z" />
    <glyph glyph-name="h" unicode="h" horiz-adv-x="1138" 
d="M365 1507v-774h6q23 60 49 105.5t61.5 86t84 62t106.5 21.5q130 0 204 -91.5t74 -273.5v-489q0 -25 11.5 -42t33 -24.5t43.5 -10.5t52 -3v-74h-424v74q76 0 100.5 22t24.5 99v530q0 79 -43 129.5t-107 50.5q-72 0 -128 -49.5t-86.5 -126.5t-46 -155t-15.5 -148v-229
q0 -42 3 -62.5t16 -36.5t36 -20t67 -4v-74h-442v74q91 0 125.5 23t34.5 104v1067q0 87 -30 111t-140 30v72z" />
    <glyph glyph-name="i" unicode="i" horiz-adv-x="569" 
d="M516 0h-481v74q113 0 141.5 25t28.5 124v527q0 38 -2 61t-11 41t-19 26.5t-34.5 14t-48.5 6.5t-70 2v74l345 33v-805q0 -79 25.5 -101t125.5 -28v-74zM412 1370q0 -54 -37 -91.5t-90 -37.5t-90 37.5t-37 91.5q0 52 37 88.5t90 36.5t90 -36.5t37 -88.5z" />
    <glyph glyph-name="j" unicode="j" horiz-adv-x="681" 
d="M59 901v74l420 33v-1002q3 -212 -96.5 -334.5t-257.5 -122.5q-94 0 -162.5 63.5t-68.5 160.5q0 47 32 85t86 38q56 0 89.5 -28.5t33.5 -82.5q0 -36 -14 -62.5t-31 -38.5t-31 -21.5t-14 -14.5q0 -16 33 -22.5t59 -6.5q41 0 73 13.5t51 40t31.5 54.5t18 68t7 69t1.5 68v822
q0 29 -0.5 45t-5 34.5t-10 26.5t-20.5 17.5t-30.5 12t-46.5 6t-63 4.5t-84 1zM494 1366q0 -54 -37 -91.5t-90 -37.5t-90 37.5t-37 91.5q0 52 37 88.5t90 36.5t90 -36.5t37 -88.5z" />
    <glyph glyph-name="k" unicode="k" horiz-adv-x="1138" 
d="M45 0v74q106 0 133 29t27 135v1030q0 87 -30 111t-144 30v72l334 26v-1038h2l276 268q41 41 59.5 67.5t18.5 51.5q0 15 -6 26t-11.5 17t-22 10t-23.5 5t-29 4v61h440v-74q-52 0 -86.5 -5.5t-69 -25.5t-54 -36.5t-68.5 -61.5l-154 -139l303 -475q28 -44 77.5 -66t94.5 -22
v-74h-453v74q67 0 93 8.5t26 28.5q0 30 -55 120l-188 306l-170 -162v-180q0 -78 25 -99.5t116 -21.5v-74h-461z" />
    <glyph glyph-name="l" unicode="l" horiz-adv-x="569" 
d="M512 0h-461v74q100 0 127 28t27 131v1035q0 87 -30 111t-144 30v72l334 26v-1290q0 -83 28 -113t119 -30v-74z" />
    <glyph glyph-name="m" unicode="m" horiz-adv-x="1705" 
d="M487 0h-438v74q90 0 123 23t33 104v561q0 34 -1.5 53t-8.5 36.5t-16.5 25t-30.5 13.5t-45.5 8t-67.5 3v72l323 35v-291h4q53 141 124 216t186 75q112 0 181 -68.5t81 -208.5h4q105 277 319 277q130 0 204.5 -91.5t74.5 -273.5v-489q0 -80 123 -80v-74h-424v74
q88 0 114.5 21.5t26.5 99.5v530q0 79 -42.5 129.5t-106.5 50.5q-58 0 -106.5 -33.5t-79 -85.5t-52 -117.5t-30.5 -126.5t-9 -116v-229q0 -40 11 -66.5t31.5 -38t38.5 -15t42 -3.5v-74h-422v74q87 0 113.5 21.5t26.5 99.5v530q0 79 -43 129.5t-107 50.5q-72 0 -128 -49.5
t-86.5 -126.5t-46 -155t-15.5 -148v-229q0 -42 3 -62.5t16 -36.5t36 -20t67 -4v-74z" />
    <glyph glyph-name="n" unicode="n" horiz-adv-x="1138" 
d="M487 74v-74h-438v74q90 0 123 23t33 104v561q0 34 -1.5 53t-8.5 36.5t-16.5 25t-30.5 13.5t-45.5 8t-67.5 3v72l323 35v-291h4q53 141 124 216t186 75q130 0 204 -91.5t74 -273.5v-489q0 -25 11.5 -42t33 -24.5t43.5 -10.5t52 -3v-74h-424v74q76 0 100.5 22t24.5 99v530
q0 79 -43 129.5t-107 50.5q-72 0 -128 -49.5t-86.5 -126.5t-46 -155t-15.5 -148v-229q0 -42 3 -62.5t16 -36.5t36 -20t67 -4z" />
    <glyph glyph-name="o" unicode="o" 
d="M272 489q0 -46 1 -79t4 -77.5t10.5 -76.5t18.5 -68t29.5 -60.5t42.5 -45.5t58 -31t76 -10t76 10t58 31t42.5 45.5t29.5 60.5t18.5 68t10.5 76.5t4 77.5t1 79q0 53 -1 90.5t-6.5 88.5t-15 85.5t-27 72t-42.5 60.5t-62.5 37.5t-85.5 14.5t-85.5 -14.5t-62.5 -37.5
t-42.5 -60.5t-27 -72t-15 -85.5t-6.5 -88.5t-1 -90.5zM76 489q0 130 52 247.5t153.5 194.5t230.5 77t230.5 -77t153.5 -194.5t52 -247.5t-52 -247.5t-153.5 -194t-230.5 -76.5t-230.5 76.5t-153.5 194t-52 247.5z" />
    <glyph glyph-name="p" unicode="p" horiz-adv-x="1138" 
d="M870 479q0 104 -13.5 185.5t-36 132t-54 83t-64.5 45.5t-71 13q-47 0 -93.5 -29t-87 -83.5t-65.5 -145t-25 -201.5q0 -193 83 -311.5t188 -118.5q134 0 186.5 97t52.5 333zM539 -381v-70h-506v70q40 3 60 5t43 8t32.5 14t18.5 23t11.5 35.5t2.5 51.5v1012q0 87 -30 111
t-140 30v72l329 27v-283h5v8q14 51 39 98t60.5 87.5t84.5 65t104 24.5q94 0 174 -48t130 -124t78 -166t28 -178q0 -133 -56.5 -254.5t-147 -194t-187.5 -72.5q-56 0 -103 17t-78 41.5t-57.5 61.5t-40.5 66.5t-28 67.5h-5v-442q0 -39 1.5 -62t8.5 -43.5t17.5 -30.5t32.5 -17
t48.5 -9t70.5 -2z" />
    <glyph glyph-name="q" unicode="q" horiz-adv-x="1138" 
d="M786 494q0 234 -65 339t-197 105q-60 0 -106 -28t-73 -71t-44 -103.5t-23 -118t-6 -121.5q0 -41 1 -72t6 -81.5t13.5 -88t26 -80t41.5 -70t61.5 -45.5t84.5 -18q127 0 203.5 117t76.5 336zM827 795l121 204h41q-43 -184 -43 -362v-873q0 -35 1.5 -56t8 -38.5t14.5 -25.5
t27 -13.5t39 -6.5t56 -1v-74h-480v74q106 0 140 17.5t34 74.5v471h-4q-51 -105 -122.5 -160t-184.5 -55q-95 0 -173 49t-126 126.5t-74 167.5t-26 178q0 123 59.5 241t167 196.5t232.5 78.5q92 0 175.5 -62.5t116.5 -150.5z" />
    <glyph glyph-name="r" unicode="r" horiz-adv-x="909" 
d="M578 0h-551v74q119 0 152.5 21.5t33.5 97.5v512q0 39 -0.5 63t-4.5 47.5t-8 35.5t-16 24.5t-23 17.5t-33.5 9.5t-44 6.5t-58.5 4v72l348 23v-396h4q13 48 31.5 96t49 104t65.5 98t84 70t102 28q78 0 131 -50t53 -135q0 -63 -33.5 -102t-95.5 -39q-54 0 -89.5 33t-35.5 86
q0 31 11.5 55.5t24.5 36t24.5 22t11.5 17.5q0 14 -25 14q-69 0 -130.5 -78t-100 -191.5t-60.5 -231.5t-22 -207q0 -43 1.5 -65.5t9.5 -44t18.5 -30t37 -15.5t56 -8t82.5 -1v-74z" />
    <glyph glyph-name="s" unicode="s" horiz-adv-x="909" 
d="M133 -33h-45v420h51q27 -93 78 -171.5t132.5 -132.5t176.5 -54q78 0 139.5 45t61.5 129q0 62 -35 103t-90.5 62t-123.5 36.5t-135.5 36t-123 51.5t-90.5 92t-35 149q0 127 74.5 201t200.5 74q56 0 137.5 -31t103.5 -31q62 0 84 62h45v-367h-49q-34 133 -119.5 221
t-212.5 88q-64 0 -117 -39t-53 -102q0 -62 35 -103t90.5 -62.5t123 -38.5t135.5 -38t123.5 -51.5t90.5 -89.5t35 -143q0 -135 -83.5 -223.5t-215.5 -88.5q-64 0 -123.5 19.5t-107.5 39t-86 19.5q-8 0 -14.5 -1t-12 -5t-9.5 -6.5t-8.5 -9.5t-7 -9.5t-6.5 -12t-5 -12t-4.5 -14
t-4.5 -12.5z" />
    <glyph glyph-name="t" unicode="t" horiz-adv-x="796" 
d="M645 979v-86h-303v-633q0 -174 143 -174q35 0 63.5 9t47.5 22t34.5 37.5t24 45.5t15.5 56t10.5 59t7.5 64h49q0 -97 -14.5 -168.5t-48.5 -127t-95 -84t-149 -28.5q-9 0 -25 3t-45.5 10.5t-57.5 25.5t-54 44.5t-42 71.5t-16 101v666h-165v86q39 5 71.5 20t55 32t41.5 48
t30 53t22 63.5t15.5 64t13 69t11.5 64.5h57v-414h303z" />
    <glyph glyph-name="u" unicode="u" horiz-adv-x="1138" 
d="M573 905v78l365 25v-813q0 -72 28.5 -94.5t120.5 -22.5v-70q-134 -3 -313 -37v291h-4q-39 -122 -128.5 -206.5t-215.5 -84.5q-127 0 -188.5 74.5t-61.5 204.5v543q0 68 -34 90t-122 22v78l316 25v-717q0 -104 33.5 -160.5t119.5 -56.5q76 0 135 56t91 143t47.5 176.5
t15.5 173.5v172q0 70 -43.5 90t-161.5 20z" />
    <glyph glyph-name="v" unicode="v" horiz-adv-x="1138" 
d="M596 -29h-57l-340 838q-25 62 -55 79t-97 17v74h440v-74q-77 0 -102 -6t-25 -31q0 -6 6.5 -23t20 -49t21.5 -53l206 -536h4l175 465q34 87 34 159q0 43 -33 58.5t-130 15.5v74h407v-74q-35 0 -62 -9.5t-45.5 -23.5t-34.5 -40t-26 -48.5t-24 -60.5z" />
    <glyph glyph-name="w" unicode="w" horiz-adv-x="1593" 
d="M553 -29h-68l-301 840q-23 67 -51.5 80.5t-114.5 13.5v74h445v-74h-34.5t-29.5 -1t-26.5 -3.5t-18 -6t-13 -9.5t-3.5 -15q0 -5 2.5 -13t7.5 -20.5t8 -21.5l213 -608q1 1 98 273t97 274q0 6 -16 53.5t-23 56.5q-19 26 -53.5 33.5t-98.5 7.5v74h457v-74q-75 0 -100 -6.5
t-25 -32.5q0 -16 27 -102l174 -567h4l180 491q31 80 31 141q0 42 -41 59t-125 17v74h408v-74q-78 0 -116.5 -32.5t-66.5 -110.5l-286 -791h-70l-225 676h-4z" />
    <glyph glyph-name="x" unicode="x" horiz-adv-x="1138" 
d="M446 0h-411v74q81 0 121.5 21t93.5 85l235 291l-235 328q-53 75 -83.5 90.5t-107.5 15.5v74h437v-74q-28 0 -40.5 -1t-24 -8.5t-11.5 -23.5q0 -21 29 -61l143 -203l143 189q23 33 23 67q0 26 -30 33.5t-79 7.5v74h393v-74q-89 0 -129.5 -14t-87.5 -72l-198 -252l266 -374
q48 -69 83.5 -94t108.5 -25v-74h-436v74q105 0 105 22q0 16 -47 84l-181 252l-129 -168q-5 -7 -23.5 -29t-29.5 -36t-21 -34t-10 -34q0 -20 12.5 -32.5t37 -17.5t40.5 -6t43 -1v-74z" />
    <glyph glyph-name="y" unicode="y" horiz-adv-x="1138" 
d="M29 905v74h454v-74q-67 0 -87.5 -7t-20.5 -36q0 -14 22 -78l224 -612h4l168 473q34 90 34 158q0 63 -30.5 82.5t-104.5 19.5v74h412v-74q-39 0 -70.5 -12t-52.5 -29t-40 -47t-29.5 -55t-24.5 -64l-289 -798q-29 -82 -63.5 -144.5t-69 -99t-65 -60t-63 -33t-50.5 -12
t-39 -2.5q-41 0 -78 9t-71 29t-54 58t-20 89q0 64 38 108.5t113 44.5q55 0 85 -30t30 -86q0 -31 -12 -53.5t-27 -32.5t-27 -22.5t-12 -24.5q0 -13 16.5 -20t32.5 -7q48 0 92.5 30.5t74 70t55.5 93t37 83.5t20 59l-281 772q-13 36 -23.5 61.5t-23 46t-21 33t-24 22t-25.5 14
t-32 6.5t-36 2.5t-46 0.5z" />
    <glyph glyph-name="z" unicode="z" horiz-adv-x="909" 
d="M86 606l20 373h730v-57l-609 -848h217q145 0 236 93t125 251h49l-27 -418h-792v74l600 831h-174q-71 0 -126 -22.5t-92 -66t-61.5 -93t-44.5 -117.5h-51z" />
    <glyph glyph-name="braceleft" unicode="{" horiz-adv-x="681" 
d="M260 -14v374q0 107 -32 160.5t-124 81.5q92 28 124 81.5t32 160.5v375q0 93 19.5 153t63 91t96.5 42t136 11v-62q-92 -25 -127.5 -86.5t-35.5 -175.5v-318q0 -122 -33 -183t-133 -87v-4q100 -26 133 -87t33 -183v-318q0 -114 35.5 -175.5t127.5 -86.5v-61q-83 0 -136 11
t-96.5 42t-63 91t-19.5 153z" />
    <glyph glyph-name="bar" unicode="|" horiz-adv-x="454" 
d="M166 1536h123v-2048h-123v2048z" />
    <glyph glyph-name="braceright" unicode="}" horiz-adv-x="681" 
d="M422 1219v-375q0 -107 32 -160.5t124 -81.5q-92 -28 -124 -81.5t-32 -160.5v-374q0 -75 -14 -128.5t-38 -86t-65.5 -51t-87 -25t-111.5 -6.5v61q92 25 128 87t36 175v318q0 122 33 183t133 87v4q-100 26 -133 87t-33 183v318q0 113 -36 175t-128 87v62q66 0 111.5 -6.5
t87 -25t65.5 -51t38 -86t14 -128.5z" />
    <glyph glyph-name="asciitilde" unicode="~" horiz-adv-x="1228" 
d="M1014 625l73 -86q-29 -41 -49 -65.5t-52.5 -54t-71 -43.5t-83.5 -14q-38 0 -80 12.5t-62.5 22t-70.5 35.5q-45 23 -71.5 35t-71 23.5t-88.5 11.5q-61 0 -101.5 -41t-70.5 -107l-74 86q92 176 256 176q86 0 236 -69q7 -3 25.5 -11.5t26 -12t23.5 -10.5t24.5 -10t22 -8
t22.5 -7.5t20 -5.5t20 -4t17 -1q29 0 55 11.5t49.5 36.5t38 45t37.5 55z" />
    <glyph glyph-name="uni00A0" unicode="&#xa0;" horiz-adv-x="512" 
 />
    <glyph glyph-name="exclamdown" unicode="&#xa1;" horiz-adv-x="681" 
d="M311 635h62v-176q0 -127 27 -289t54 -288.5t27 -166.5q0 -71 -33.5 -118.5t-105.5 -47.5t-105.5 47.5t-33.5 118.5q0 40 27 166.5t54 288.5t27 289v176zM342 827q-60 0 -99.5 39t-39.5 99t39.5 98.5t99.5 38.5t99.5 -38.5t39.5 -98.5t-39.5 -99t-99.5 -39z" />
    <glyph glyph-name="cent" unicode="&#xa2;" 
d="M825 1217h76l-106 -283q42 -33 72 -90t30 -109q0 -63 -39 -112.5t-100 -49.5q-56 0 -82 35l-195 -502q52 -28 123 -28q95 0 159 44t124 132l47 -31q-53 -112 -147 -180t-224 -68q-46 0 -123 25l-100 -270h-80l113 297q-111 52 -186.5 178.5t-75.5 267.5q0 98 34 193.5
t94 171.5t151 123t196 47q53 0 141 -37zM422 154l219 587q12 33 38.5 53.5t48 26.5t42.5 6q10 0 10 13q0 26 -61.5 60t-128.5 34q-66 0 -117 -25.5t-81.5 -65.5t-50.5 -96t-27 -110.5t-7 -114.5q0 -267 115 -368z" />
    <glyph glyph-name="sterling" unicode="&#xa3;" 
d="M377 666h-248v102h213q-5 19 -18 68t-19 75t-12 67.5t-6 78.5q0 72 26 142t74 128.5t125.5 94.5t171.5 36q132 0 214.5 -76.5t82.5 -199.5q0 -73 -36.5 -127t-106.5 -54q-59 0 -96 37t-37 95t37.5 96.5t95.5 38.5q9 0 23 -5.5t16 -5.5q10 0 10 11q0 43 -61 77.5
t-132 34.5q-99 0 -169 -71.5t-70 -171.5q0 -47 16 -110t47 -151t37 -108h274v-102h-245q1 -21 7.5 -68t6.5 -74q0 -78 -19 -145.5t-57 -149.5q104 -45 191 -45q58 0 100 22.5t64.5 62.5t32.5 85.5t10 100.5h61q0 -61 -3 -109t-12 -106.5t-28.5 -101.5t-48.5 -80.5t-76 -57.5
t-108 -20q-122 0 -267 122q-122 -122 -248 -122q-69 0 -116 48t-47 117q0 80 53.5 123t142.5 43q16 0 34.5 -2.5t30.5 -5t35 -10t29.5 -9.5t34 -12.5t29.5 -11.5q26 76 26 129q0 34 -7 73.5t-14.5 65t-23 73t-20.5 65.5zM362 152q-40 37 -77 55t-88 18q-39 0 -63.5 -23.5
t-24.5 -62.5t22.5 -64.5t58.5 -25.5q50 0 95 29t77 74z" />
    <glyph glyph-name="currency" unicode="&#xa4;" 
d="M901 1180l74 -78l-105 -105q103 -109 103 -282q0 -161 -99 -283l101 -106l-74 -74l-100 108q-117 -106 -289 -106t-289 106l-100 -108l-74 74l101 106q-99 122 -99 283q0 173 103 282l-105 105l74 78l106 -105q57 49 132 75t151 26t151 -26t132 -75zM170 715
q0 -144 99.5 -247t242.5 -103t242.5 103t99.5 247q0 143 -99.5 246.5t-242.5 103.5t-242.5 -103.5t-99.5 -246.5z" />
    <glyph glyph-name="yen" unicode="&#xa5;" 
d="M862 631v-103h-260v-256q0 -37 1 -61t5 -46t8.5 -34.5t16.5 -24t24 -16.5t35 -9t45.5 -5t59.5 -2v-74h-572v74q37 1 59.5 2t45.5 5t35 9t24 16.5t16.5 24t8.5 34.5t5 46t1 61v256h-258v103h252l-60 155h-192v103h155l-92 244q-20 55 -31.5 82.5t-30 60t-37.5 46.5t-48 24
t-68 10v74h473v-74q-62 0 -93 -5.5t-37.5 -14t-4.5 -23.5q0 -5 0.5 -11t1 -10.5t2.5 -12t3 -12t4.5 -14t5 -14t5.5 -16t6 -17t7.5 -19.5t7.5 -20l170 -454l170 467q14 31 14 86q0 90 -127 90v74h396v-74q-22 0 -42.5 -5.5t-36.5 -11.5t-33 -22t-27 -25t-25 -34t-21.5 -35
t-21 -42t-18.5 -41.5t-19 -45.5l-76 -205h168v-103h-203l-57 -155h260z" />
    <glyph glyph-name="brokenbar" unicode="&#xa6;" horiz-adv-x="454" 
d="M166 1382h123v-716h-123v716zM166 358h123v-716h-123v716z" />
    <glyph glyph-name="section" unicode="&#xa7;" 
d="M872 639q0 -249 -274 -252v-4q59 -36 126 -123t67 -172q0 -118 -82.5 -189t-200.5 -71q-68 0 -132.5 20.5t-113.5 70t-49 118.5q0 39 31.5 73.5t81.5 34.5q36 0 64 -29.5t28 -68.5q0 -23 -16.5 -43.5t-33 -35.5t-16.5 -25q0 -35 54.5 -54.5t95.5 -19.5q73 0 123.5 41
t50.5 123q0 43 -29.5 87t-76.5 84t-103.5 82.5t-113.5 89t-104 96t-76.5 111.5t-29.5 128q0 120 77.5 182.5t203.5 64.5v5q-49 38 -76.5 62.5t-60 63t-47.5 82.5t-15 97q0 121 84 184.5t207 63.5q94 0 177 -54.5t83 -142.5q0 -47 -29 -80t-77 -33q-42 0 -70.5 25t-28.5 67
q0 26 17.5 48t35 38t17.5 27q0 30 -47 47t-82 17q-71 0 -121.5 -42t-50.5 -116q0 -40 29.5 -82.5t76.5 -83t103.5 -84t113 -91.5t103.5 -98.5t76.5 -112.5t29.5 -126zM381 918q-52 0 -91.5 -43t-39.5 -95q0 -61 65.5 -145t152.5 -144.5t146 -60.5q70 0 111 43t41 111
q0 53 -69 133t-162 140.5t-154 60.5z" />
    <glyph glyph-name="dieresis" unicode="&#xa8;" horiz-adv-x="569" 
d="M80 1331q44 0 72 -29t28 -71t-28.5 -71.5t-71.5 -29.5t-71.5 29.5t-28.5 71.5t28 71t72 29zM487 1331q44 0 72.5 -29t28.5 -71t-28.5 -71.5t-72.5 -29.5q-43 0 -71.5 29.5t-28.5 71.5t28 71t72 29z" />
    <glyph glyph-name="copyright" unicode="&#xa9;" horiz-adv-x="1638" 
d="M819 1516q124 0 240.5 -39.5t210.5 -111.5t164 -167.5t108.5 -214.5t38.5 -246t-38.5 -245.5t-108.5 -214.5t-164 -168t-210.5 -111t-240.5 -39t-240.5 39t-210.5 111t-164 168t-108.5 214.5t-38.5 245.5t38.5 246t108.5 214.5t164 167.5t210.5 111.5t240.5 39.5z
M819 1430q-128 0 -248 -57t-207 -151.5t-139.5 -222t-52.5 -262.5q0 -181 88 -340.5t238 -255.5t321 -96t321 96t238 255.5t88 340.5q0 135 -52.5 262.5t-139.5 222t-207 151.5t-248 57zM1161 1100v-156h-33q-9 83 -69.5 141t-186.5 58q-160 0 -242.5 -103.5t-82.5 -275.5
q0 -188 84.5 -300t257.5 -112q200 0 274 191h35l-37 -156q0 -12 -8 -20t-17.5 -11.5t-31.5 -9.5q-110 -39 -236 -39q-79 0 -148.5 15.5t-130.5 49.5t-104.5 85t-68.5 127t-25 170q0 57 18 116.5t58 116.5t96 101.5t138.5 72t179.5 27.5q54 0 101 -7t68.5 -13.5t61.5 -20.5
q49 -14 49 -47z" />
    <glyph glyph-name="ordfeminine" unicode="&#xaa;" horiz-adv-x="614" 
d="M602 1014h33q-5 -181 -109 -185q-35 1 -57 11.5t-32.5 32.5t-14.5 43t-6 55h-4q-77 -140 -224 -140q-66 0 -113.5 39t-47.5 99q0 37 20 68t48 51t73.5 39t82 29.5t88 25t77.5 22.5v66q0 75 -27.5 107t-109.5 32h-6q-106 0 -123 -31q31 -8 49 -28.5t18 -49.5
q0 -32 -24.5 -52.5t-61.5 -20.5q-31 0 -53.5 25t-22.5 57q0 65 70.5 105t163.5 40q43 0 82 -6.5t76 -21t59 -42t22 -65.5v-326v-27.5t1 -20.5t3 -17.5t5.5 -11t9.5 -7.5t14 -2q6 0 11 2.5t9 8t7 11.5t5 14.5t3.5 15.5t2.5 16.5t1.5 15t1 13.5t0.5 10zM416 1104v51
q-118 -37 -159 -59q-95 -49 -95 -121q0 -35 20.5 -52.5t53.5 -17.5q83 0 131.5 52.5t48.5 146.5z" />
    <glyph glyph-name="guillemotleft" unicode="&#xab;" 
d="M328 492l139 -201q57 -80 57 -109q0 -20 -24 -20q-5 0 -9.5 2.5t-12 9t-15 14l-22.5 22.5t-31 30q-5 5 -26 26.5t-40.5 40.5t-48.5 47.5t-65.5 62t-75.5 68.5v13q59 50 163.5 151.5t124.5 118.5q9 8 21 19.5t17.5 16.5t12 9t11.5 4q22 0 22 -20q0 -25 -43 -86zM670 492
l139 -201q57 -80 57 -109q0 -20 -24 -20q-5 0 -9.5 2.5t-12 9t-15 14l-22.5 22.5t-31 30q-5 5 -26 26.5t-40.5 40.5t-48.5 47.5t-65.5 62t-75.5 68.5v13q59 50 163.5 151.5t124.5 118.5q9 8 21 19.5t17.5 16.5t12 9t11.5 4q22 0 22 -20q0 -25 -43 -86z" />
    <glyph glyph-name="logicalnot" unicode="&#xac;" horiz-adv-x="1228" 
d="M981 195v430h-856v123h979v-553h-123z" />
    <glyph glyph-name="uni00AD" unicode="&#xad;" horiz-adv-x="681" 
d="M606 420h-549v139h549v-139z" />
    <glyph glyph-name="registered" unicode="&#xae;" horiz-adv-x="1638" 
d="M492 1163h389q110 0 187 -52.5t77 -152.5q0 -86 -50 -148t-132 -89l131 -180q45 -62 95.5 -116.5t82.5 -72.5v-20h-133q-22 0 -43 15.5t-46 50.5t-48.5 73t-65 103.5t-80.5 121.5h-119v-219q0 -38 2 -54.5t14 -30.5t33 -18.5t64 -8.5v-33h-358v33q72 5 91 23t19 89v541
q0 76 -12.5 91t-80.5 22q-3 0 -4.5 0.5t-4 0.5t-4.5 0.5t-4 0.5v30zM737 1118v-377h105q83 0 125.5 54.5t42.5 154.5q0 168 -176 168h-97zM819 1516q124 0 240.5 -39.5t210.5 -111.5t164 -167.5t108.5 -214.5t38.5 -246t-38.5 -245.5t-108.5 -214.5t-164 -168t-210.5 -111
t-240.5 -39t-240.5 39t-210.5 111t-164 168t-108.5 214.5t-38.5 245.5t38.5 246t108.5 214.5t164 167.5t210.5 111.5t240.5 39.5zM819 1430q-128 0 -248 -57t-207 -151.5t-139.5 -222t-52.5 -262.5q0 -181 88 -340.5t238 -255.5t321 -96t321 96t238 255.5t88 340.5
q0 135 -52.5 262.5t-139.5 222t-207 151.5t-248 57z" />
    <glyph glyph-name="macron" unicode="&#xaf;" horiz-adv-x="569" 
d="M604 1178h-637v108h637v-108z" />
    <glyph glyph-name="degree" unicode="&#xb0;" horiz-adv-x="819" 
d="M410 938q90 0 154.5 67t64.5 156q0 92 -64.5 160t-154.5 68t-155 -68t-65 -160q0 -89 65 -156t155 -67zM410 872q-123 0 -208 84.5t-85 204.5q0 123 85 208t208 85t207.5 -85t84.5 -208q0 -120 -84.5 -204.5t-207.5 -84.5z" />
    <glyph glyph-name="plusminus" unicode="&#xb1;" horiz-adv-x="1228" 
d="M553 651v328h123v-328h428v-123h-428v-327h-123v327h-428v123h428zM125 0v123h979v-123h-979z" />
    <glyph glyph-name="twosuperior" unicode="&#xb2;" horiz-adv-x="614" 
d="M102 696h281q40 0 59 0.5t40 6t29 11.5t19 23.5t16.5 36.5t14.5 55h39l-18 -256h-584v58q0 5 2.5 12.5t7.5 16.5t10.5 17.5t14.5 20.5t16.5 21.5t19 23.5t19 23t20.5 24t19 23q48 56 116 119.5t108.5 100.5t71 87.5t30.5 102.5q0 96 -44.5 137t-129.5 41
q-74 0 -133.5 -47t-59.5 -92q0 -11 12 -11q4 0 13.5 1t13.5 1q40 0 64 -22.5t24 -59.5q0 -33 -24.5 -57t-59.5 -24q-56 0 -82.5 34t-26.5 88q0 93 84 163.5t203 70.5q129 0 211 -66.5t82 -175.5q0 -54 -41.5 -105t-105.5 -95t-131 -88t-129.5 -102t-90.5 -118z" />
    <glyph glyph-name="threesuperior" unicode="&#xb3;" horiz-adv-x="614" 
d="M590 797q0 -103 -91 -170.5t-225 -67.5q-120 0 -195 57t-75 144q0 42 24 74t72 32q36 0 62 -21.5t26 -53.5q0 -36 -23.5 -54t-47.5 -18q-42 0 -60 4q0 -35 55 -77t148 -42q102 0 142 48.5t40 146.5q0 99 -43 144.5t-149 45.5q-9 0 -30 -2t-30 -2q-43 0 -43 29q0 28 39 28
q10 0 29.5 -2t28.5 -2q95 0 133.5 51t38.5 146q0 84 -36 125t-126 41q-147 0 -162 -101q9 3 23 3q42 0 64 -25.5t22 -52.5t-21.5 -48.5t-56.5 -21.5q-44 0 -68 26.5t-24 67.5q0 86 66 141.5t173 55.5q124 0 208.5 -59t84.5 -152q0 -42 -20.5 -77.5t-50 -58.5t-69.5 -41
t-73.5 -27t-66.5 -15v-2q132 -6 219.5 -67t87.5 -150z" />
    <glyph glyph-name="acute" unicode="&#xb4;" horiz-adv-x="569" 
d="M131 1096l277 278q7 7 23 24t21.5 21.5t17 13t22 11t24.5 2.5q31 0 52.5 -16t21.5 -48q0 -9 -1 -16.5t-5 -15t-6.5 -12.5t-10 -12t-10 -10t-12.5 -10t-12 -8.5t-14 -9t-13 -8.5l-293 -184h-82z" />
    <glyph glyph-name="mu" unicode="&#xb5;" horiz-adv-x="1138" 
d="M20 905v78l316 25v-754q0 -96 30.5 -138t122.5 -42q76 0 135 56t91 143t47.5 176.5t15.5 173.5v172q0 70 -43.5 90t-161.5 20v78l365 25v-813q0 -72 28.5 -94.5t120.5 -22.5v-70q-134 -3 -313 -37v291h-4q-39 -122 -128.5 -206.5t-215.5 -84.5q-56 0 -90 15v-437h-316v70
q44 4 64.5 7t42.5 10.5t30 22t13.5 37.5t5.5 60v1037q0 68 -34 90t-122 22z" />
    <glyph glyph-name="paragraph" unicode="&#xb6;" horiz-adv-x="1228" 
d="M528 1475h508v-50q-42 -2 -65.5 -5t-45 -12t-31 -20.5t-16.5 -36t-8.5 -53t-1.5 -77.5v-1512h-118v1704h-125v-1704h-119v924q-204 0 -305 117t-101 319q0 215 99.5 310.5t328.5 95.5z" />
    <glyph glyph-name="periodcentered" unicode="&#xb7;" horiz-adv-x="512" 
d="M256 616q54 0 90.5 -39t36.5 -88t-36.5 -88t-90.5 -39t-90.5 39t-36.5 88t36.5 88t90.5 39z" />
    <glyph glyph-name="cedilla" unicode="&#xb8;" horiz-adv-x="569" 
d="M162 -203l84 203h71l-51 -133q24 6 60 6q78 0 124 -40t46 -101q0 -59 -39.5 -100t-91.5 -57.5t-109 -16.5q-117 0 -186 34l26 64q85 -25 127 -25q121 0 121 95q0 30 -25.5 51.5t-58.5 21.5q-48 0 -84 -12z" />
    <glyph glyph-name="onesuperior" unicode="&#xb9;" horiz-adv-x="614" 
d="M528 573h-460v45q104 0 140 18t36 77v499q0 58 -33.5 76.5t-142.5 18.5v49q87 0 154 18t108 72h37v-733q0 -59 33.5 -77t127.5 -18v-45z" />
    <glyph glyph-name="ordmasculine" unicode="&#xba;" horiz-adv-x="614" 
d="M158 1143v-38t1 -36.5t2.5 -38t5 -33.5t9 -33.5t13 -27.5t18.5 -25t25 -17.5t32.5 -13t40.5 -3.5q31 0 55.5 9t40 21.5t26.5 36.5t16.5 42t8 51t3 51.5t0.5 54.5t-0.5 55t-3 52t-8 51t-16.5 42t-26.5 36t-40 21t-55.5 9q-24 0 -44.5 -5.5t-35 -13t-25.5 -23.5t-18 -27
t-12 -35.5t-7.5 -36.5t-3.5 -41.5t-1 -40.5v-43zM23 1143q0 122 78.5 216.5t203.5 94.5t205 -94.5t80 -216.5t-80 -217t-205 -95t-203.5 95t-78.5 217z" />
    <glyph glyph-name="guillemotright" unicode="&#xbb;" 
d="M354 487l-139 201q-57 80 -57 109q0 20 24 20q5 0 9.5 -2.5t12 -9t15 -14l22.5 -22.5t31 -30q5 -5 26 -26.5t40.5 -40.5t48.5 -47.5t65.5 -62t75.5 -68.5v-13q-59 -50 -163.5 -151.5t-124.5 -118.5q-9 -8 -21 -19.5t-17.5 -16.5t-12 -9t-11.5 -4q-22 0 -22 20q0 25 43 86
zM696 487l-139 201q-57 80 -57 109q0 20 24 20q5 0 9.5 -2.5t12 -9t15 -14l22.5 -22.5t31 -30q5 -5 26 -26.5t40.5 -40.5t48.5 -47.5t65.5 -62t75.5 -68.5v-13q-59 -50 -163.5 -151.5t-124.5 -118.5q-9 -8 -21 -19.5t-17.5 -16.5t-12 -9t-11.5 -4q-22 0 -22 20q0 25 43 86z
" />
    <glyph glyph-name="onequarter" unicode="&#xbc;" horiz-adv-x="1536" 
d="M924 279h303v434h-2zM1350 881v-602h125v-62h-125v-106q0 -38 23 -50.5t89 -15.5v-45h-379v45q87 3 115.5 16.5t28.5 59.5v96h-357v62l418 602h62zM1315 1454l-922 -1479h-104l921 1479h105zM522 573h-461v45q104 0 140.5 18t36.5 77v499q0 58 -34 76.5t-143 18.5v49
q87 0 154.5 18t108.5 72h36v-733q0 -59 34 -77t128 -18v-45z" />
    <glyph glyph-name="onehalf" unicode="&#xbd;" horiz-adv-x="1536" 
d="M522 573h-461v45q104 0 140.5 18t36.5 77v499q0 58 -34 76.5t-143 18.5v49q87 0 154.5 18t108.5 72h36v-733q0 -59 34 -77t128 -18v-45zM1026 123h281q40 0 59 0.5t40 6t29 11.5t19 23.5t16.5 36.5t14.5 55h39l-19 -256h-583v57q0 5 2.5 12t7.5 16.5t10.5 18t15 21.5
t16 21.5t19 23.5t19 22.5t20.5 24.5t19 23q48 56 115.5 119.5t108 100t71 87t30.5 102.5q0 96 -44.5 137t-129.5 41q-74 0 -133 -47t-59 -92q0 -10 12 -10q4 0 13.5 1t13.5 1q40 0 64 -22.5t24 -59.5q0 -33 -24.5 -57.5t-59.5 -24.5q-56 0 -82.5 34.5t-26.5 88.5
q0 93 84 163t203 70q129 0 211 -66t82 -175q0 -54 -41.5 -105t-105.5 -95t-131 -88t-129.5 -102t-90.5 -118zM1284 1454l-922 -1479h-104l922 1479h104z" />
    <glyph glyph-name="threequarters" unicode="&#xbe;" horiz-adv-x="1536" 
d="M569 805q0 -103 -91 -170.5t-224 -67.5q-120 0 -195 57t-75 144q0 42 24 74t72 32q36 0 62 -21.5t26 -53.5q0 -36 -24 -54t-48 -18q-41 0 -59 4q0 -35 55 -77t148 -42q102 0 142 48.5t40 146.5t-43.5 144t-149.5 46q-9 0 -29.5 -2t-29.5 -2q-43 0 -43 29t39 29
q10 0 29 -2t28 -2q95 0 133.5 50.5t38.5 145.5q0 84 -36 125t-126 41q-146 0 -161 -100q6 2 22 2q42 0 64 -25.5t22 -52.5t-21.5 -48.5t-56.5 -21.5q-44 0 -68 26.5t-24 67.5q0 86 66.5 141.5t173.5 55.5q124 0 208.5 -59t84.5 -152q0 -42 -20.5 -77.5t-50.5 -58.5t-70 -41
t-73.5 -27t-66.5 -15v-2q132 -6 219.5 -67t87.5 -150zM1329 1454l-921 -1479h-105l922 1479h104zM924 279h303v434h-2zM1350 881v-602h125v-62h-125v-106q0 -38 23 -50.5t89 -15.5v-45h-379v45q87 3 115.5 16.5t28.5 59.5v96h-357v62l418 602h62z" />
    <glyph glyph-name="questiondown" unicode="&#xbf;" horiz-adv-x="909" 
d="M446 659h70v-122q0 -110 -21 -205t-51 -160.5t-60.5 -123t-51.5 -117t-21 -117.5q0 -89 49 -140t140 -51q80 0 132 38t52 79q0 6 -14 12t-34 14t-39.5 20.5t-33.5 37t-14 57.5q0 58 34 89.5t93 31.5q62 0 94.5 -48t32.5 -124q0 -111 -91 -196t-220 -85q-64 0 -127 18.5
t-118.5 55t-89.5 99t-34 141.5q0 73 33.5 136t80.5 113.5t94.5 104.5t81 133.5t33.5 175.5v133zM479 827q-60 0 -99.5 39t-39.5 99t39.5 98.5t99.5 38.5t99.5 -38.5t39.5 -98.5t-39.5 -99t-99.5 -39z" />
    <glyph glyph-name="Agrave" unicode="&#xc0;" horiz-adv-x="1593" 
d="M508 594h453l-220 661h-4zM743 1516h111l436 -1258q18 -53 38 -87t39.5 -54t51 -29t59 -11.5t78.5 -2.5v-74h-686v74q61 0 97 2t71.5 10t51.5 24.5t16 43.5q0 11 -5 30.5t-11 37t-19 54t-20 58.5l-54 158h-524l-61 -197q-23 -71 -23 -100q0 -121 209 -121v-74h-561v74
q56 0 101 15t71.5 34.5t49 52.5t32.5 55t22 56zM940 1573h-82l-293 184q-52 33 -67 52q-17 24 -17 51q0 32 21.5 47.5t52.5 15.5q14 0 24 -2t22.5 -11t17.5 -13t22 -22t23 -24z" />
    <glyph glyph-name="Aacute" unicode="&#xc1;" horiz-adv-x="1593" 
d="M508 594h453l-220 661h-4zM743 1516h111l436 -1258q18 -53 38 -87t39.5 -54t51 -29t59 -11.5t78.5 -2.5v-74h-686v74q61 0 97 2t71.5 10t51.5 24.5t16 43.5q0 11 -5 30.5t-11 37t-19 54t-20 58.5l-54 158h-524l-61 -197q-23 -71 -23 -100q0 -121 209 -121v-74h-561v74
q56 0 101 15t71.5 34.5t49 52.5t32.5 55t22 56zM633 1573l276 278q6 6 23 24t22 22t17.5 13t22.5 11t24 2q31 0 52.5 -15.5t21.5 -47.5q0 -25 -15.5 -46.5t-27 -29t-41.5 -27.5l-293 -184h-82z" />
    <glyph glyph-name="Acircumflex" unicode="&#xc2;" horiz-adv-x="1593" 
d="M508 594h453l-220 661h-4zM743 1516h111l436 -1258q18 -53 38 -87t39.5 -54t51 -29t59 -11.5t78.5 -2.5v-74h-686v74q61 0 97 2t71.5 10t51.5 24.5t16 43.5q0 11 -5 30.5t-11 37t-19 54t-20 58.5l-54 158h-524l-61 -197q-23 -71 -23 -100q0 -121 209 -121v-74h-561v74
q56 0 101 15t71.5 34.5t49 52.5t32.5 55t22 56zM786 1784l-251 -211h-66l254 340h127l256 -340h-72z" />
    <glyph glyph-name="Atilde" unicode="&#xc3;" horiz-adv-x="1593" 
d="M508 594h453l-220 661h-4zM743 1516h111l436 -1258q18 -53 38 -87t39.5 -54t51 -29t59 -11.5t78.5 -2.5v-74h-686v74q61 0 97 2t71.5 10t51.5 24.5t16 43.5q0 11 -5 30.5t-11 37t-19 54t-20 58.5l-54 158h-524l-61 -197q-23 -71 -23 -100q0 -121 209 -121v-74h-561v74
q56 0 101 15t71.5 34.5t49 52.5t32.5 55t22 56zM1065 1841h59q-16 -98 -73 -157.5t-152 -59.5q-61 0 -149 47q-88 45 -127 45q-42 0 -72.5 -25.5t-42.5 -66.5h-59q22 94 77.5 150.5t145.5 56.5q47 0 143 -45q5 -2 20.5 -9.5t21 -10t18.5 -8.5t20.5 -8t18 -5.5t19 -4.5
t17.5 -1q44 0 74 29t41 73z" />
    <glyph glyph-name="Adieresis" unicode="&#xc4;" horiz-adv-x="1593" 
d="M508 594h453l-220 661h-4zM743 1516h111l436 -1258q18 -53 38 -87t39.5 -54t51 -29t59 -11.5t78.5 -2.5v-74h-686v74q61 0 97 2t71.5 10t51.5 24.5t16 43.5q0 11 -5 30.5t-11 37t-19 54t-20 58.5l-54 158h-524l-61 -197q-23 -71 -23 -100q0 -121 209 -121v-74h-561v74
q56 0 101 15t71.5 34.5t49 52.5t32.5 55t22 56zM582 1808q44 0 72 -29t28 -71t-28 -71t-72 -29t-72.5 29t-28.5 71t28.5 71t72.5 29zM989 1808q44 0 72.5 -29t28.5 -71t-28.5 -71t-72.5 -29t-72 29t-28 71t28 71t72 29z" />
    <glyph glyph-name="Aring" unicode="&#xc5;" horiz-adv-x="1593" 
d="M508 594h453l-220 661h-4zM743 1516h111l436 -1258q18 -53 38 -87t39.5 -54t51 -29t59 -11.5t78.5 -2.5v-74h-686v74q61 0 97 2t71.5 10t51.5 24.5t16 43.5q0 11 -5 30.5t-11 37t-19 54t-20 58.5l-54 158h-524l-61 -197q-23 -71 -23 -100q0 -121 209 -121v-74h-561v74
q56 0 101 15t71.5 34.5t49 52.5t32.5 55t22 56zM786 1573q-85 0 -144.5 59t-59.5 144t59.5 144.5t144.5 59.5t145 -59.5t60 -144.5t-60 -144t-145 -59zM786 1911q-57 0 -96 -39.5t-39 -95.5q0 -57 39 -95.5t96 -38.5q56 0 96 39t40 95q0 55 -40 95t-96 40z" />
    <glyph glyph-name="AE" unicode="&#xc6;" horiz-adv-x="2048" 
d="M530 0h-514v74q158 27 222 153l526 1018q22 45 22 72q0 29 -15.5 46.5t-51 25.5t-69 10t-93.5 2v74h1323l8 -517h-53q-41 183 -66 245q-47 117 -141 161q-79 37 -209 37q-160 0 -214 -23t-54 -96v-479q170 0 247.5 63.5t90.5 229.5h53v-688h-49q-16 101 -35 157.5
t-57 96.5t-96 53.5t-154 13.5v-459q0 -47 2 -74t10.5 -52t21.5 -36.5t39.5 -20t60 -11t87.5 -2.5q107 0 186 22t131.5 60.5t90 104t58.5 139t38 178.5h59l-32 -578h-1168v74q58 0 91 2t62 13.5t41.5 26.5t21.5 50.5t10.5 74t1.5 109.5v133h-496l-80 -161q-43 -84 -43 -129
q0 -119 186 -119v-74zM963 586v815h-25l-420 -815h445z" />
    <glyph glyph-name="Ccedilla" unicode="&#xc7;" horiz-adv-x="1478" 
d="M1268 1516h51l8 -584h-49q-28 87 -58 156t-74 137.5t-95 114t-121 74t-152 28.5q-79 0 -144 -25t-109.5 -66t-78.5 -100.5t-53.5 -121.5t-32 -136.5t-16.5 -138t-4 -133.5q0 -71 6 -136.5t20.5 -135.5t38 -129.5t60.5 -113.5t85 -91.5t114.5 -59.5t146.5 -22
q113 0 205 42t151 114.5t91 167t32 202.5h70q0 -174 -65.5 -308.5t-194.5 -212.5t-305 -79l-35 -92q24 6 59 6q78 0 124 -40t46 -101q0 -59 -39 -100t-91 -57.5t-109 -16.5q-118 0 -187 34l27 64q85 -25 127 -25q121 0 121 95q0 30 -25.5 51.5t-58.5 21.5q-48 0 -84 -12
l-15 10l70 166q-142 13 -262 84t-199 178t-122.5 241t-43.5 277q0 91 22.5 184.5t63 179t101 160.5t132.5 130t162.5 87t186.5 32q64 0 133 -19.5t114 -43t81.5 -43t44.5 -19.5q14 0 25.5 2t22 7.5t17.5 9t15 14.5t12 15t11 18.5t9 18.5t9 21t8 19z" />
    <glyph glyph-name="Egrave" unicode="&#xc8;" horiz-adv-x="1593" 
d="M1358 1475l10 -523h-57q-18 82 -30.5 131.5t-31.5 102t-36 80t-46.5 56t-61 40.5t-81 23t-104.5 13.5t-134 2.5q-61 0 -102 -2.5t-71 -9.5t-46.5 -16.5t-26 -27t-12 -36t-2.5 -49.5v-457q51 0 86 1.5t74.5 6t65 13t53 23t44 36t31.5 51.5t22.5 69.5t10.5 90.5h54v-693
h-52q-9 103 -33.5 166.5t-73 99.5t-113.5 49t-169 13v-498q0 -64 15.5 -95t66.5 -46.5t156 -15.5q86 0 147.5 3.5t116.5 15t91.5 27t70 45.5t54.5 64t41 89t34.5 114.5t30.5 145.5h63l-33 -578h-1292v74q141 0 187.5 26.5t46.5 114.5v1045q0 52 -15.5 80t-68 44.5
t-152.5 16.5v74h1272zM989 1573h-82l-293 184q-52 33 -67 52q-17 23 -17 51q0 32 21.5 47.5t52.5 15.5q14 0 24 -2t22.5 -11t17.5 -13t22 -22t23 -24z" />
    <glyph glyph-name="Eacute" unicode="&#xc9;" horiz-adv-x="1593" 
d="M1358 1475l10 -523h-57q-18 82 -30.5 131.5t-31.5 102t-36 80t-46.5 56t-61 40.5t-81 23t-104.5 13.5t-134 2.5q-61 0 -102 -2.5t-71 -9.5t-46.5 -16.5t-26 -27t-12 -36t-2.5 -49.5v-457q51 0 86 1.5t74.5 6t65 13t53 23t44 36t31.5 51.5t22.5 69.5t10.5 90.5h54v-693
h-52q-9 103 -33.5 166.5t-73 99.5t-113.5 49t-169 13v-498q0 -64 15.5 -95t66.5 -46.5t156 -15.5q86 0 147.5 3.5t116.5 15t91.5 27t70 45.5t54.5 64t41 89t34.5 114.5t30.5 145.5h63l-33 -578h-1292v74q141 0 187.5 26.5t46.5 114.5v1045q0 52 -15.5 80t-68 44.5
t-152.5 16.5v74h1272zM682 1573l276 278q6 6 23 24t22 22t17.5 13t22.5 11t24 2q31 0 52.5 -15.5t21.5 -47.5q0 -25 -15.5 -46.5t-27 -29t-41.5 -27.5l-293 -184h-82z" />
    <glyph glyph-name="Ecircumflex" unicode="&#xca;" horiz-adv-x="1593" 
d="M1358 1475l10 -523h-57q-18 82 -30.5 131.5t-31.5 102t-36 80t-46.5 56t-61 40.5t-81 23t-104.5 13.5t-134 2.5q-61 0 -102 -2.5t-71 -9.5t-46.5 -16.5t-26 -27t-12 -36t-2.5 -49.5v-457q51 0 86 1.5t74.5 6t65 13t53 23t44 36t31.5 51.5t22.5 69.5t10.5 90.5h54v-693
h-52q-9 103 -33.5 166.5t-73 99.5t-113.5 49t-169 13v-498q0 -64 15.5 -95t66.5 -46.5t156 -15.5q86 0 147.5 3.5t116.5 15t91.5 27t70 45.5t54.5 64t41 89t34.5 114.5t30.5 145.5h63l-33 -578h-1292v74q141 0 187.5 26.5t46.5 114.5v1045q0 52 -15.5 80t-68 44.5
t-152.5 16.5v74h1272zM836 1784l-252 -211h-66l254 340h127l256 -340h-72z" />
    <glyph glyph-name="Edieresis" unicode="&#xcb;" horiz-adv-x="1593" 
d="M1358 1475l10 -523h-57q-18 82 -30.5 131.5t-31.5 102t-36 80t-46.5 56t-61 40.5t-81 23t-104.5 13.5t-134 2.5q-61 0 -102 -2.5t-71 -9.5t-46.5 -16.5t-26 -27t-12 -36t-2.5 -49.5v-457q51 0 86 1.5t74.5 6t65 13t53 23t44 36t31.5 51.5t22.5 69.5t10.5 90.5h54v-693
h-52q-9 103 -33.5 166.5t-73 99.5t-113.5 49t-169 13v-498q0 -64 15.5 -95t66.5 -46.5t156 -15.5q86 0 147.5 3.5t116.5 15t91.5 27t70 45.5t54.5 64t41 89t34.5 114.5t30.5 145.5h63l-33 -578h-1292v74q141 0 187.5 26.5t46.5 114.5v1045q0 52 -15.5 80t-68 44.5
t-152.5 16.5v74h1272zM631 1808q44 0 72 -29t28 -71t-28 -71t-72 -29t-72.5 29t-28.5 71t28.5 71t72.5 29zM1038 1808q44 0 72.5 -29t28.5 -71t-28.5 -71t-72.5 -29t-72 29t-28 71t28 71t72 29z" />
    <glyph glyph-name="Igrave" unicode="&#xcc;" horiz-adv-x="909" 
d="M115 0v74q146 0 189.5 25.5t43.5 115.5v1045q0 90 -43.5 115.5t-189.5 25.5v74h673v-74q-148 0 -191.5 -25.5t-43.5 -115.5v-1045q0 -90 44.5 -115.5t195.5 -25.5v-74h-678zM598 1573h-82l-293 184q-52 33 -67 52q-17 23 -17 51q0 32 21.5 47.5t52.5 15.5q14 0 24 -2
t22.5 -11t17.5 -13t22 -22t23 -24z" />
    <glyph glyph-name="Iacute" unicode="&#xcd;" horiz-adv-x="909" 
d="M115 0v74q146 0 189.5 25.5t43.5 115.5v1045q0 90 -43.5 115.5t-189.5 25.5v74h673v-74q-148 0 -191.5 -25.5t-43.5 -115.5v-1045q0 -90 44.5 -115.5t195.5 -25.5v-74h-678zM291 1573l276 278q6 6 23 24t22 22t17.5 13t22.5 11t24 2q31 0 52.5 -15.5t21.5 -47.5
q0 -25 -15.5 -46.5t-27 -29t-41.5 -27.5l-293 -184h-82z" />
    <glyph glyph-name="Icircumflex" unicode="&#xce;" horiz-adv-x="909" 
d="M115 0v74q146 0 189.5 25.5t43.5 115.5v1045q0 90 -43.5 115.5t-189.5 25.5v74h673v-74q-148 0 -191.5 -25.5t-43.5 -115.5v-1045q0 -90 44.5 -115.5t195.5 -25.5v-74h-678zM444 1784l-251 -211h-66l254 340h127l256 -340h-72z" />
    <glyph glyph-name="Idieresis" unicode="&#xcf;" horiz-adv-x="909" 
d="M115 0v74q146 0 189.5 25.5t43.5 115.5v1045q0 90 -43.5 115.5t-189.5 25.5v74h673v-74q-148 0 -191.5 -25.5t-43.5 -115.5v-1045q0 -90 44.5 -115.5t195.5 -25.5v-74h-678zM240 1808q44 0 72 -29t28 -71t-28 -71t-72 -29t-72.5 29t-28.5 71t28.5 71t72.5 29zM647 1808
q44 0 72.5 -29t28.5 -71t-28.5 -71t-72.5 -29t-72 29t-28 71t28 71t72 29z" />
    <glyph glyph-name="Eth" unicode="&#xd0;" horiz-adv-x="1593" 
d="M80 0v74q34 0 54 0.5t47 3.5t43 9t34 17t27 27t15.5 39.5t6.5 54.5v471h-227v103h227v465q0 45 -7.5 69.5t-33.5 41t-68 21.5t-118 5v74h751q293 0 474.5 -208.5t181.5 -553.5q0 -61 -10.5 -125t-36 -134.5t-63 -134.5t-95.5 -123t-130 -102t-171 -68.5t-213 -25.5h-688z
M512 1235v-436h389v-103h-389v-471q0 -151 242 -151q120 0 208.5 35.5t142 94t85.5 150t43.5 188.5t11.5 224q0 322 -116 478.5t-324 156.5q-84 0 -134 -4.5t-84.5 -13t-49 -30t-20 -46.5t-5.5 -72z" />
    <glyph glyph-name="Ntilde" unicode="&#xd1;" horiz-adv-x="1705" 
d="M672 0h-578v74q67 0 114 20.5t72.5 50.5t39.5 81.5t17 94.5t3 109v821q0 150 -244 150v74h365l833 -1141l4 4v838q0 206 -227 225v74h541v-74q-107 0 -169.5 -52.5t-62.5 -183.5v-1206h-53l-901 1231l-4 -4v-815q0 -155 61 -226t189 -71v-74zM1118 1841h60
q-16 -98 -73.5 -157.5t-152.5 -59.5q-61 0 -149 47q-88 45 -127 45q-42 0 -72.5 -25.5t-42.5 -66.5h-59q22 94 77.5 150.5t145.5 56.5q47 0 143 -45q4 -2 18 -8.5t18.5 -8.5t16.5 -7.5t18 -7.5t16.5 -6t17.5 -5.5t15 -2.5t16 -1q43 0 73 29t41 73z" />
    <glyph glyph-name="Ograve" unicode="&#xd2;" horiz-adv-x="1478" 
d="M739 1516q119 0 224 -46.5t180 -125t129.5 -179.5t81 -210.5t26.5 -217.5t-26.5 -217.5t-81 -210t-129.5 -179t-180 -125t-224 -46.5t-224 46.5t-180 125t-129.5 179t-81 210t-26.5 217.5t26.5 217.5t81 210.5t129.5 179.5t180 125t224 46.5zM739 1442
q-71 0 -129.5 -22.5t-99.5 -59.5t-71.5 -92.5t-49 -115t-30 -133t-15.5 -140t-4 -142.5t4 -142.5t15.5 -140t30 -133t49 -114.5t71.5 -92.5t99.5 -59.5t129.5 -22t129.5 22t99.5 59.5t72 92.5t49.5 114.5t30 133t15.5 140t4 142.5q0 90 -6 167t-21.5 161t-44.5 148.5
t-72 118t-108 82t-148 28.5zM893 1573h-82l-293 184q-52 33 -67 52q-17 24 -17 51q0 32 21.5 47.5t52.5 15.5q14 0 24.5 -2.5t22 -11t17 -13t21.5 -21.5t23 -24z" />
    <glyph glyph-name="Oacute" unicode="&#xd3;" horiz-adv-x="1478" 
d="M739 1516q119 0 224 -46.5t180 -125t129.5 -179.5t81 -210.5t26.5 -217.5t-26.5 -217.5t-81 -210t-129.5 -179t-180 -125t-224 -46.5t-224 46.5t-180 125t-129.5 179t-81 210t-26.5 217.5t26.5 217.5t81 210.5t129.5 179.5t180 125t224 46.5zM739 1442
q-71 0 -129.5 -22.5t-99.5 -59.5t-71.5 -92.5t-49 -115t-30 -133t-15.5 -140t-4 -142.5t4 -142.5t15.5 -140t30 -133t49 -114.5t71.5 -92.5t99.5 -59.5t129.5 -22t129.5 22t99.5 59.5t72 92.5t49.5 114.5t30 133t15.5 140t4 142.5q0 90 -6 167t-21.5 161t-44.5 148.5
t-72 118t-108 82t-148 28.5zM586 1573l276 278q6 6 23 24t22 22t17.5 13t22.5 11t24 2q31 0 52 -15.5t21 -47.5q0 -25 -15 -46t-27 -29.5t-41 -27.5l-293 -184h-82z" />
    <glyph glyph-name="Ocircumflex" unicode="&#xd4;" horiz-adv-x="1478" 
d="M739 1516q119 0 224 -46.5t180 -125t129.5 -179.5t81 -210.5t26.5 -217.5t-26.5 -217.5t-81 -210t-129.5 -179t-180 -125t-224 -46.5t-224 46.5t-180 125t-129.5 179t-81 210t-26.5 217.5t26.5 217.5t81 210.5t129.5 179.5t180 125t224 46.5zM739 1442
q-71 0 -129.5 -22.5t-99.5 -59.5t-71.5 -92.5t-49 -115t-30 -133t-15.5 -140t-4 -142.5t4 -142.5t15.5 -140t30 -133t49 -114.5t71.5 -92.5t99.5 -59.5t129.5 -22t129.5 22t99.5 59.5t72 92.5t49.5 114.5t30 133t15.5 140t4 142.5q0 90 -6 167t-21.5 161t-44.5 148.5
t-72 118t-108 82t-148 28.5zM739 1784l-252 -211h-65l254 340h127l256 -340h-72z" />
    <glyph glyph-name="Otilde" unicode="&#xd5;" horiz-adv-x="1478" 
d="M739 1516q119 0 224 -46.5t180 -125t129.5 -179.5t81 -210.5t26.5 -217.5t-26.5 -217.5t-81 -210t-129.5 -179t-180 -125t-224 -46.5t-224 46.5t-180 125t-129.5 179t-81 210t-26.5 217.5t26.5 217.5t81 210.5t129.5 179.5t180 125t224 46.5zM739 1442
q-71 0 -129.5 -22.5t-99.5 -59.5t-71.5 -92.5t-49 -115t-30 -133t-15.5 -140t-4 -142.5t4 -142.5t15.5 -140t30 -133t49 -114.5t71.5 -92.5t99.5 -59.5t129.5 -22t129.5 22t99.5 59.5t72 92.5t49.5 114.5t30 133t15.5 140t4 142.5q0 90 -6 167t-21.5 161t-44.5 148.5
t-72 118t-108 82t-148 28.5zM1018 1841h59q-16 -98 -73 -157.5t-152 -59.5q-62 0 -150 47q-88 45 -127 45q-41 0 -71.5 -25.5t-42.5 -66.5h-60q22 94 78 150.5t146 56.5q47 0 143 -45q5 -2 20.5 -9.5t21 -10t18.5 -8.5t20.5 -8t18 -5.5t19 -4.5t17.5 -1q44 0 74 29t41 73z
" />
    <glyph glyph-name="Odieresis" unicode="&#xd6;" horiz-adv-x="1478" 
d="M739 1516q119 0 224 -46.5t180 -125t129.5 -179.5t81 -210.5t26.5 -217.5t-26.5 -217.5t-81 -210t-129.5 -179t-180 -125t-224 -46.5t-224 46.5t-180 125t-129.5 179t-81 210t-26.5 217.5t26.5 217.5t81 210.5t129.5 179.5t180 125t224 46.5zM739 1442
q-71 0 -129.5 -22.5t-99.5 -59.5t-71.5 -92.5t-49 -115t-30 -133t-15.5 -140t-4 -142.5t4 -142.5t15.5 -140t30 -133t49 -114.5t71.5 -92.5t99.5 -59.5t129.5 -22t129.5 22t99.5 59.5t72 92.5t49.5 114.5t30 133t15.5 140t4 142.5q0 90 -6 167t-21.5 161t-44.5 148.5
t-72 118t-108 82t-148 28.5zM535 1808q44 0 72 -29t28 -71t-28 -71t-72 -29t-72.5 29t-28.5 71t28.5 71t72.5 29zM942 1808q44 0 72 -29t28 -71t-28 -71t-72 -29t-72 29t-28 71t28 71t72 29z" />
    <glyph glyph-name="multiply" unicode="&#xd7;" horiz-adv-x="1228" 
d="M528 489l-403 404l86 86l403 -401l404 401l86 -86l-404 -404l404 -403l-86 -86l-404 406l-403 -406l-86 86z" />
    <glyph glyph-name="Oslash" unicode="&#xd8;" horiz-adv-x="1478" 
d="M410 266l620 1016q-96 160 -291 160q-71 0 -129.5 -22.5t-99.5 -59.5t-71.5 -92.5t-49 -115t-30 -133t-15.5 -140t-4 -142.5q0 -299 70 -471zM1075 1186l-616 -1010q96 -143 280 -143q71 0 129.5 22t99.5 59.5t72 92.5t49.5 114.5t30 133t15.5 140t4 142.5q0 287 -64 449
zM244 -174h-103l191 311q-111 111 -172.5 273.5t-61.5 326.5q0 108 26.5 217.5t81 210.5t129.5 179.5t180 125t224 46.5q202 0 355 -130l108 179h105l-146 -240q105 -113 162 -270.5t57 -317.5q0 -108 -26.5 -217.5t-81 -210t-129.5 -179t-180 -125t-224 -46.5
q-195 0 -342 119z" />
    <glyph glyph-name="Ugrave" unicode="&#xd9;" horiz-adv-x="1705" 
d="M1612 1475v-74q-57 0 -98 -12t-67 -34t-41 -59t-20.5 -80.5t-5.5 -105.5v-680q0 -122 -40 -214t-113 -147.5t-168.5 -82.5t-212.5 -27q-103 0 -195.5 30t-168 88.5t-119.5 156t-44 221.5v798q0 92 -47 120t-178 28v74h664v-74q-59 0 -93 -1.5t-63.5 -10t-42.5 -19.5
t-22 -36.5t-11 -54t-2 -79.5v-764q0 -185 93.5 -290t283.5 -105q191 0 294 106.5t103 278.5v657q0 171 -46.5 244.5t-176.5 73.5v74h537zM1022 1573h-82l-293 184q-52 33 -67 52q-17 23 -17 51q0 32 21.5 47.5t52.5 15.5q14 0 24.5 -2.5t22 -11t17 -13t21.5 -21.5t23 -24z
" />
    <glyph glyph-name="Uacute" unicode="&#xda;" horiz-adv-x="1705" 
d="M1612 1475v-74q-57 0 -98 -12t-67 -34t-41 -59t-20.5 -80.5t-5.5 -105.5v-680q0 -122 -40 -214t-113 -147.5t-168.5 -82.5t-212.5 -27q-103 0 -195.5 30t-168 88.5t-119.5 156t-44 221.5v798q0 92 -47 120t-178 28v74h664v-74q-59 0 -93 -1.5t-63.5 -10t-42.5 -19.5
t-22 -36.5t-11 -54t-2 -79.5v-764q0 -185 93.5 -290t283.5 -105q191 0 294 106.5t103 278.5v657q0 171 -46.5 244.5t-176.5 73.5v74h537zM715 1573l276 278q6 6 23 24t22 22t17.5 13t22.5 11t24 2q31 0 52.5 -15.5t21.5 -47.5q0 -25 -15.5 -46.5t-27 -29t-41.5 -27.5
l-293 -184h-82z" />
    <glyph glyph-name="Ucircumflex" unicode="&#xdb;" horiz-adv-x="1705" 
d="M1612 1475v-74q-57 0 -98 -12t-67 -34t-41 -59t-20.5 -80.5t-5.5 -105.5v-680q0 -122 -40 -214t-113 -147.5t-168.5 -82.5t-212.5 -27q-103 0 -195.5 30t-168 88.5t-119.5 156t-44 221.5v798q0 92 -47 120t-178 28v74h664v-74q-59 0 -93 -1.5t-63.5 -10t-42.5 -19.5
t-22 -36.5t-11 -54t-2 -79.5v-764q0 -185 93.5 -290t283.5 -105q191 0 294 106.5t103 278.5v657q0 171 -46.5 244.5t-176.5 73.5v74h537zM868 1784l-252 -211h-65l254 340h127l256 -340h-72z" />
    <glyph glyph-name="Udieresis" unicode="&#xdc;" horiz-adv-x="1705" 
d="M1612 1475v-74q-57 0 -98 -12t-67 -34t-41 -59t-20.5 -80.5t-5.5 -105.5v-680q0 -122 -40 -214t-113 -147.5t-168.5 -82.5t-212.5 -27q-103 0 -195.5 30t-168 88.5t-119.5 156t-44 221.5v798q0 92 -47 120t-178 28v74h664v-74q-59 0 -93 -1.5t-63.5 -10t-42.5 -19.5
t-22 -36.5t-11 -54t-2 -79.5v-764q0 -185 93.5 -290t283.5 -105q191 0 294 106.5t103 278.5v657q0 171 -46.5 244.5t-176.5 73.5v74h537zM664 1808q44 0 72 -29t28 -71t-28 -71t-72 -29t-72.5 29t-28.5 71t28.5 71t72.5 29zM1071 1808q44 0 72 -29t28 -71t-28 -71t-72 -29
t-72 29t-28 71t28 71t72 29z" />
    <glyph glyph-name="Yacute" unicode="&#xdd;" horiz-adv-x="1593" 
d="M424 0v74q53 0 83.5 0.5t64 4t50 8t34 15.5t24 24t13 35.5t8 47.5t1.5 63v346l-325 558q-64 109 -92 141q-58 67 -156 80q-32 4 -72 4v74h670v-74q-131 0 -167 -7t-36 -36q0 -7 1.5 -14.5t5 -17t6.5 -17t10 -20t11.5 -21t15 -26t16.5 -28.5l276 -495l275 506q18 35 18 86
q0 90 -168 90v74h545v-74q-59 0 -108.5 -15.5t-83.5 -37t-67 -60t-52.5 -69.5t-46.5 -80l-271 -494v-373q0 -52 2 -81t13.5 -54t24.5 -35.5t48.5 -18t71 -8.5t104.5 -1v-74h-747zM643 1573l277 278q7 7 23 24t21.5 21.5t17 13t22 11t24.5 2.5q31 0 52.5 -15.5t21.5 -47.5
q0 -25 -15.5 -46.5t-27 -29t-41.5 -27.5l-293 -184h-82z" />
    <glyph glyph-name="Thorn" unicode="&#xde;" horiz-adv-x="1366" 
d="M739 0h-684v74q73 0 113.5 7t70 30.5t40 65.5t10.5 114v932q0 111 -44.5 144.5t-187.5 33.5v74h674v-74q-149 0 -193 -24.5t-44 -110.5v-78h274q238 0 383 -111.5t145 -300.5q0 -81 -36 -147t-94 -108t-134.5 -71t-153 -41t-153.5 -12h-231v-102q0 -42 1.5 -70.5t8 -53
t12 -39t22.5 -26t30 -17t44 -9t55 -4.5t72 -2v-74zM494 987v-516q99 0 165.5 2t129.5 8.5t100.5 16t71.5 28.5t51 42.5t30 60.5t17 79.5t4 102.5q0 177 -71.5 240t-250.5 63q-153 0 -200 -22.5t-47 -104.5z" />
    <glyph glyph-name="germandbls" unicode="&#xdf;" horiz-adv-x="1138" 
d="M356 0h-315v82q100 0 128 18t28 95v901q0 182 110 296.5t289 114.5q157 0 274 -118t117 -279q0 -118 -68 -204.5t-182 -108.5v-15q152 -41 235 -150.5t83 -246.5q0 -64 -9.5 -121.5t-32.5 -112t-58 -93.5t-90.5 -63t-125.5 -24q-97 0 -171 55.5t-74 143.5q0 51 26.5 88
t73.5 37q98 0 98 -92q0 -22 -20.5 -62t-20.5 -53q0 -26 27 -38.5t57 -12.5q31 0 52.5 14.5t34.5 39t20 65.5t9.5 84t2.5 104q0 160 -21.5 246t-67 120.5t-130.5 34.5q-5 0 -22.5 -1t-32.5 -1q-33 0 -45.5 8t-12.5 31q0 37 53 37q8 0 28.5 -2t29.5 -2q30 0 55 6t43.5 15
t32.5 26t23 31.5t15.5 39.5t9.5 42t5 47t2 46v48q0 60 -10 112.5t-34 102t-70.5 78.5t-112.5 29q-113 0 -174.5 -78t-61.5 -260v-1100z" />
    <glyph glyph-name="agrave" unicode="&#xe0;" 
d="M946 274h49q-5 -303 -168 -303q-43 0 -73.5 12.5t-48 31.5t-28 51.5t-14 62t-4.5 72.5h-4q-123 -230 -348 -230q-101 0 -174.5 64t-73.5 164q0 53 21 98t60.5 78.5t84 60t106 49t111.5 38.5t114 35.5t101 33.5v108q0 63 -8.5 105.5t-31 77t-64.5 51t-107 16.5
q-57 0 -117.5 -16.5t-78.5 -52.5q47 -14 74.5 -47.5t27.5 -81.5q0 -55 -37.5 -90t-93.5 -35q-48 0 -83.5 42.5t-35.5 94.5q0 72 53 129t135 86t173 29q52 0 99.5 -6.5t95 -23t82 -41.5t56 -65.5t21.5 -91.5v-540q0 -47 1 -66.5t5.5 -42.5t14.5 -30t28 -7q12 0 21.5 4.5
t17 13.5t13.5 19t10 24.5t6.5 25.5t5 27.5t3.5 25t2 23t1 17.5zM657 422v104q-41 -14 -67.5 -23.5t-73.5 -28.5t-78.5 -36t-69.5 -43.5t-61 -53t-39 -61.5t-16 -73q0 -58 40 -95.5t89 -37.5q124 0 200 95.5t76 252.5zM637 1096h-82l-293 184q-2 1 -11.5 7t-12.5 8t-11 8
t-11.5 8.5t-10 8.5t-9.5 10.5t-7 11t-6 12t-3.5 13t-1.5 15.5q0 32 21.5 48t52.5 16q14 0 24.5 -2.5t22 -11t17 -13t21.5 -21.5t23 -24z" />
    <glyph glyph-name="aacute" unicode="&#xe1;" 
d="M946 274h49q-5 -303 -168 -303q-43 0 -73.5 12.5t-48 31.5t-28 51.5t-14 62t-4.5 72.5h-4q-123 -230 -348 -230q-101 0 -174.5 64t-73.5 164q0 53 21 98t60.5 78.5t84 60t106 49t111.5 38.5t114 35.5t101 33.5v108q0 63 -8.5 105.5t-31 77t-64.5 51t-107 16.5
q-57 0 -117.5 -16.5t-78.5 -52.5q47 -14 74.5 -47.5t27.5 -81.5q0 -55 -37.5 -90t-93.5 -35q-48 0 -83.5 42.5t-35.5 94.5q0 72 53 129t135 86t173 29q52 0 99.5 -6.5t95 -23t82 -41.5t56 -65.5t21.5 -91.5v-540q0 -47 1 -66.5t5.5 -42.5t14.5 -30t28 -7q12 0 21.5 4.5
t17 13.5t13.5 19t10 24.5t6.5 25.5t5 27.5t3.5 25t2 23t1 17.5zM657 422v104q-41 -14 -67.5 -23.5t-73.5 -28.5t-78.5 -36t-69.5 -43.5t-61 -53t-39 -61.5t-16 -73q0 -58 40 -95.5t89 -37.5q124 0 200 95.5t76 252.5zM330 1096l276 278q6 6 23 24t22 22t17.5 13t22.5 11
t24 2q31 0 52 -16t21 -48q0 -8 -1.5 -15.5t-3 -13t-6.5 -12.5t-7 -10.5t-9.5 -10t-9.5 -9t-11.5 -9t-11 -7.5l-12 -8t-11.5 -7l-293 -184h-82z" />
    <glyph glyph-name="acircumflex" unicode="&#xe2;" 
d="M946 274h49q-5 -303 -168 -303q-43 0 -73.5 12.5t-48 31.5t-28 51.5t-14 62t-4.5 72.5h-4q-123 -230 -348 -230q-101 0 -174.5 64t-73.5 164q0 53 21 98t60.5 78.5t84 60t106 49t111.5 38.5t114 35.5t101 33.5v108q0 63 -8.5 105.5t-31 77t-64.5 51t-107 16.5
q-57 0 -117.5 -16.5t-78.5 -52.5q47 -14 74.5 -47.5t27.5 -81.5q0 -55 -37.5 -90t-93.5 -35q-48 0 -83.5 42.5t-35.5 94.5q0 72 53 129t135 86t173 29q52 0 99.5 -6.5t95 -23t82 -41.5t56 -65.5t21.5 -91.5v-540q0 -47 1 -66.5t5.5 -42.5t14.5 -30t28 -7q12 0 21.5 4.5
t17 13.5t13.5 19t10 24.5t6.5 25.5t5 27.5t3.5 25t2 23t1 17.5zM657 422v104q-41 -14 -67.5 -23.5t-73.5 -28.5t-78.5 -36t-69.5 -43.5t-61 -53t-39 -61.5t-16 -73q0 -58 40 -95.5t89 -37.5q124 0 200 95.5t76 252.5zM483 1307l-252 -211h-65l254 340h127l256 -340h-72z" />
    <glyph glyph-name="atilde" unicode="&#xe3;" 
d="M946 274h49q-5 -303 -168 -303q-43 0 -73.5 12.5t-48 31.5t-28 51.5t-14 62t-4.5 72.5h-4q-123 -230 -348 -230q-101 0 -174.5 64t-73.5 164q0 53 21 98t60.5 78.5t84 60t106 49t111.5 38.5t114 35.5t101 33.5v108q0 63 -8.5 105.5t-31 77t-64.5 51t-107 16.5
q-57 0 -117.5 -16.5t-78.5 -52.5q47 -14 74.5 -47.5t27.5 -81.5q0 -55 -37.5 -90t-93.5 -35q-48 0 -83.5 42.5t-35.5 94.5q0 72 53 129t135 86t173 29q52 0 99.5 -6.5t95 -23t82 -41.5t56 -65.5t21.5 -91.5v-540q0 -47 1 -66.5t5.5 -42.5t14.5 -30t28 -7q12 0 21.5 4.5
t17 13.5t13.5 19t10 24.5t6.5 25.5t5 27.5t3.5 25t2 23t1 17.5zM657 422v104q-41 -14 -67.5 -23.5t-73.5 -28.5t-78.5 -36t-69.5 -43.5t-61 -53t-39 -61.5t-16 -73q0 -58 40 -95.5t89 -37.5q124 0 200 95.5t76 252.5zM762 1364h59q-16 -98 -73 -157.5t-152 -59.5
q-62 0 -150 47q-88 45 -127 45q-41 0 -71.5 -25.5t-42.5 -66.5h-60q22 94 78 150.5t146 56.5q47 0 143 -45q5 -2 20.5 -9.5t21 -10t18.5 -8.5t20.5 -8t18 -5.5t19 -4.5t17.5 -1q44 0 74 29t41 73z" />
    <glyph glyph-name="adieresis" unicode="&#xe4;" 
d="M946 274h49q-5 -303 -168 -303q-43 0 -73.5 12.5t-48 31.5t-28 51.5t-14 62t-4.5 72.5h-4q-123 -230 -348 -230q-101 0 -174.5 64t-73.5 164q0 53 21 98t60.5 78.5t84 60t106 49t111.5 38.5t114 35.5t101 33.5v108q0 63 -8.5 105.5t-31 77t-64.5 51t-107 16.5
q-57 0 -117.5 -16.5t-78.5 -52.5q47 -14 74.5 -47.5t27.5 -81.5q0 -55 -37.5 -90t-93.5 -35q-48 0 -83.5 42.5t-35.5 94.5q0 72 53 129t135 86t173 29q52 0 99.5 -6.5t95 -23t82 -41.5t56 -65.5t21.5 -91.5v-540q0 -47 1 -66.5t5.5 -42.5t14.5 -30t28 -7q12 0 21.5 4.5
t17 13.5t13.5 19t10 24.5t6.5 25.5t5 27.5t3.5 25t2 23t1 17.5zM657 422v104q-41 -14 -67.5 -23.5t-73.5 -28.5t-78.5 -36t-69.5 -43.5t-61 -53t-39 -61.5t-16 -73q0 -58 40 -95.5t89 -37.5q124 0 200 95.5t76 252.5zM279 1331q44 0 72 -29t28 -71t-28.5 -71.5t-71.5 -29.5
q-44 0 -72.5 29.5t-28.5 71.5t28.5 71t72.5 29zM686 1331q44 0 72 -29t28 -71t-28.5 -71.5t-71.5 -29.5t-71.5 29.5t-28.5 71.5t28 71t72 29z" />
    <glyph glyph-name="aring" unicode="&#xe5;" 
d="M946 274h49q-5 -303 -168 -303q-43 0 -73.5 12.5t-48 31.5t-28 51.5t-14 62t-4.5 72.5h-4q-123 -230 -348 -230q-101 0 -174.5 64t-73.5 164q0 53 21 98t60.5 78.5t84 60t106 49t111.5 38.5t114 35.5t101 33.5v108q0 63 -8.5 105.5t-31 77t-64.5 51t-107 16.5
q-57 0 -117.5 -16.5t-78.5 -52.5q47 -14 74.5 -47.5t27.5 -81.5q0 -55 -37.5 -90t-93.5 -35q-48 0 -83.5 42.5t-35.5 94.5q0 72 53 129t135 86t173 29q52 0 99.5 -6.5t95 -23t82 -41.5t56 -65.5t21.5 -91.5v-540q0 -47 1 -66.5t5.5 -42.5t14.5 -30t28 -7q12 0 21.5 4.5
t17 13.5t13.5 19t10 24.5t6.5 25.5t5 27.5t3.5 25t2 23t1 17.5zM657 422v104q-41 -14 -67.5 -23.5t-73.5 -28.5t-78.5 -36t-69.5 -43.5t-61 -53t-39 -61.5t-16 -73q0 -58 40 -95.5t89 -37.5q124 0 200 95.5t76 252.5zM483 1096q-85 0 -144.5 58.5t-59.5 143.5t59.5 145
t144.5 60t145 -60t60 -145q0 -84 -60 -143t-145 -59zM483 1434q-57 0 -96 -40t-39 -96q0 -57 39 -95t96 -38q56 0 95.5 38.5t39.5 94.5t-40 96t-95 40z" />
    <glyph glyph-name="ae" unicode="&#xe6;" horiz-adv-x="1593" 
d="M1503 475h-639q0 -414 310 -414q90 0 159 51t129 142l60 -21q-55 -124 -166.5 -193t-249.5 -69q-217 0 -373 222q-193 -222 -385 -222q-70 0 -131 24t-102 77.5t-41 126.5q0 46 20 87.5t51.5 72.5t79.5 60t94 49t105.5 40.5t103 32t98 26.5t79.5 23v119q0 127 -57.5 184
t-176.5 57q-49 0 -115.5 -20t-66.5 -45q0 -7 15.5 -17t34.5 -21t34.5 -37t15.5 -62q0 -55 -37 -88t-94 -33q-55 0 -87 40.5t-32 94.5t32 102t81 78.5t105 48t106 17.5q263 0 377 -129q76 69 132.5 99t141.5 30q99 0 177 -49t123 -128t68 -170.5t21 -185.5zM705 408v122
q-39 -13 -76.5 -28t-91 -38t-97.5 -49t-84 -55.5t-63 -63.5t-23 -67q0 -64 43 -109.5t103 -45.5q129 0 209 97.5t80 236.5zM864 553h158q65 0 101.5 1t74.5 4.5t56.5 11t34.5 20.5t21 31.5t5 46.5q0 113 -45.5 191.5t-141.5 78.5q-77 0 -132 -38t-82 -100t-38.5 -122.5
t-11.5 -124.5z" />
    <glyph glyph-name="ccedilla" unicode="&#xe7;" horiz-adv-x="909" 
d="M825 246l41 -33q-62 -118 -141.5 -177.5t-200.5 -62.5l-41 -106q24 6 60 6q78 0 124 -40t46 -101q0 -59 -39.5 -100t-91.5 -57.5t-109 -16.5q-117 0 -186 34l26 64q85 -25 127 -25q121 0 121 95q0 30 -25.5 51.5t-58.5 21.5q-48 0 -84 -12l-14 10l76 180
q-111 13 -198.5 87t-134 185.5t-46.5 237.5q0 133 62 254t166 194t220 73q129 0 224.5 -79t95.5 -188q0 -66 -33.5 -116t-97.5 -50q-58 0 -94.5 33t-36.5 90q0 62 40.5 95.5t100.5 33.5q10 0 10 11q0 34 -68 67t-126 33q-74 0 -130.5 -42.5t-86 -109.5t-44 -136.5
t-14.5 -137.5q0 -75 13 -145.5t42 -139.5t86.5 -111t135.5 -42q169 0 284 172z" />
    <glyph glyph-name="egrave" unicode="&#xe8;" 
d="M938 475h-674q0 -89 17.5 -162t54.5 -131.5t101.5 -91.5t152.5 -33q42 0 78.5 12t62 26.5t57 47.5t48.5 54t51 67l59 -28q-73 -131 -169 -198t-238 -67q-137 0 -245.5 65.5t-167 177t-58.5 247.5q0 101 32.5 198.5t89.5 175.5t143 125.5t185 47.5q80 0 148.5 -30.5
t118 -82.5t84.5 -120.5t52 -145t17 -154.5zM264 553h342q74 0 104.5 25.5t30.5 99.5q0 115 -56 187.5t-167 72.5q-114 0 -184 -106t-70 -279zM666 1096h-82l-293 184q-2 1 -11.5 7t-12.5 8t-11 8t-11.5 8.5t-10 8.5t-9.5 10.5t-7 11t-6 12t-3.5 13t-1.5 15.5q0 32 21.5 48
t52.5 16q14 0 24.5 -2.5t22 -11t17 -13t21.5 -21.5t23 -24z" />
    <glyph glyph-name="eacute" unicode="&#xe9;" 
d="M938 475h-674q0 -89 17.5 -162t54.5 -131.5t101.5 -91.5t152.5 -33q42 0 78.5 12t62 26.5t57 47.5t48.5 54t51 67l59 -28q-73 -131 -169 -198t-238 -67q-137 0 -245.5 65.5t-167 177t-58.5 247.5q0 101 32.5 198.5t89.5 175.5t143 125.5t185 47.5q80 0 148.5 -30.5
t118 -82.5t84.5 -120.5t52 -145t17 -154.5zM264 553h342q74 0 104.5 25.5t30.5 99.5q0 115 -56 187.5t-167 72.5q-114 0 -184 -106t-70 -279zM358 1096l277 278q7 7 23 24t21.5 21.5t17 13t22 11t24.5 2.5q31 0 52.5 -16t21.5 -48q0 -9 -1 -16.5t-5 -15t-6.5 -12.5t-10 -12
t-10 -10t-12.5 -10t-12 -8.5t-14 -9t-13 -8.5l-293 -184h-82z" />
    <glyph glyph-name="ecircumflex" unicode="&#xea;" 
d="M938 475h-674q0 -89 17.5 -162t54.5 -131.5t101.5 -91.5t152.5 -33q42 0 78.5 12t62 26.5t57 47.5t48.5 54t51 67l59 -28q-73 -131 -169 -198t-238 -67q-137 0 -245.5 65.5t-167 177t-58.5 247.5q0 101 32.5 198.5t89.5 175.5t143 125.5t185 47.5q80 0 148.5 -30.5
t118 -82.5t84.5 -120.5t52 -145t17 -154.5zM264 553h342q74 0 104.5 25.5t30.5 99.5q0 115 -56 187.5t-167 72.5q-114 0 -184 -106t-70 -279zM512 1307l-252 -211h-65l254 340h126l256 -340h-71z" />
    <glyph glyph-name="edieresis" unicode="&#xeb;" 
d="M938 475h-674q0 -89 17.5 -162t54.5 -131.5t101.5 -91.5t152.5 -33q42 0 78.5 12t62 26.5t57 47.5t48.5 54t51 67l59 -28q-73 -131 -169 -198t-238 -67q-137 0 -245.5 65.5t-167 177t-58.5 247.5q0 101 32.5 198.5t89.5 175.5t143 125.5t185 47.5q80 0 148.5 -30.5
t118 -82.5t84.5 -120.5t52 -145t17 -154.5zM264 553h342q74 0 104.5 25.5t30.5 99.5q0 115 -56 187.5t-167 72.5q-114 0 -184 -106t-70 -279zM307 1331q44 0 72.5 -29t28.5 -71t-28.5 -71.5t-72.5 -29.5q-43 0 -71.5 29.5t-28.5 71.5t28 71t72 29zM715 1331q44 0 72 -29
t28 -71t-28.5 -71.5t-71.5 -29.5q-44 0 -72.5 29.5t-28.5 71.5t28.5 71t72.5 29z" />
    <glyph glyph-name="igrave" unicode="&#xec;" horiz-adv-x="569" 
d="M516 0h-481v74q113 0 141.5 25t28.5 124v527q0 38 -2 61t-11 41t-19 26.5t-34.5 14t-48.5 6.5t-70 2v74l345 33v-805q0 -79 25.5 -101t125.5 -28v-74zM428 1096h-82l-293 184q-2 1 -11.5 7t-12.5 8t-11 8t-11.5 8.5t-10 8.5t-9.5 10.5t-7 11t-6 12t-3.5 13t-1.5 15.5
q0 32 21.5 48t52.5 16q14 0 24 -2t22.5 -11t17.5 -13t22 -22t23 -24z" />
    <glyph glyph-name="iacute" unicode="&#xed;" horiz-adv-x="569" 
d="M516 0h-481v74q113 0 141.5 25t28.5 124v527q0 38 -2 61t-11 41t-19 26.5t-34.5 14t-48.5 6.5t-70 2v74l345 33v-805q0 -79 25.5 -101t125.5 -28v-74zM121 1096l276 278q6 6 23 24t22 22t17.5 13t22.5 11t24 2q31 0 52.5 -16t21.5 -48q0 -9 -1 -16.5t-5 -15t-6.5 -12.5
t-10 -12t-10 -10t-12.5 -10t-12 -8.5t-14 -9t-13 -8.5l-293 -184h-82z" />
    <glyph glyph-name="icircumflex" unicode="&#xee;" horiz-adv-x="569" 
d="M516 0h-481v74q113 0 141.5 25t28.5 124v527q0 38 -2 61t-11 41t-19 26.5t-34.5 14t-48.5 6.5t-70 2v74l345 33v-805q0 -79 25.5 -101t125.5 -28v-74zM274 1307l-251 -211h-66l254 340h127l256 -340h-72z" />
    <glyph glyph-name="idieresis" unicode="&#xef;" horiz-adv-x="569" 
d="M516 0h-481v74q113 0 141.5 25t28.5 124v527q0 38 -2 61t-11 41t-19 26.5t-34.5 14t-48.5 6.5t-70 2v74l345 33v-805q0 -79 25.5 -101t125.5 -28v-74zM70 1331q44 0 72 -29t28 -71t-28.5 -71.5t-71.5 -29.5q-44 0 -72.5 29.5t-28.5 71.5t28.5 71t72.5 29zM477 1331
q44 0 72.5 -29t28.5 -71t-28.5 -71.5t-72.5 -29.5q-43 0 -71.5 29.5t-28.5 71.5t28 71t72 29z" />
    <glyph glyph-name="eth" unicode="&#xf0;" 
d="M272 489q0 -46 1 -79t4 -77.5t10.5 -76.5t18.5 -68t29.5 -60.5t42.5 -45.5t58 -31t76 -10t76 10t58 31t42.5 45.5t29.5 60.5t18.5 68t10.5 76.5t4 77.5t1 79q0 53 -1 90.5t-6.5 88.5t-15 85.5t-27 72t-42.5 60.5t-62.5 37.5t-85.5 14.5t-85.5 -14.5t-62.5 -37.5
t-42.5 -60.5t-27 -72t-15 -85.5t-6.5 -88.5t-1 -90.5zM258 1434l49 41q103 -76 187 -152l235 133l45 -59l-223 -127q397 -375 397 -754q0 -143 -52 -266.5t-153.5 -201t-230.5 -77.5t-230.5 76.5t-153.5 194t-52 247.5t52 247.5t153.5 194.5t230.5 77q76 0 127 -29l4 4
q-62 122 -170 242l-213 -121l-45 59l205 117q-72 80 -162 154z" />
    <glyph glyph-name="ntilde" unicode="&#xf1;" horiz-adv-x="1138" 
d="M487 74v-74h-438v74q90 0 123 23t33 104v561q0 34 -1.5 53t-8.5 36.5t-16.5 25t-30.5 13.5t-45.5 8t-67.5 3v72l323 35v-291h4q53 141 124 216t186 75q130 0 204 -91.5t74 -273.5v-489q0 -25 11.5 -42t33 -24.5t43.5 -10.5t52 -3v-74h-424v74q76 0 100.5 22t24.5 99v530
q0 79 -43 129.5t-107 50.5q-72 0 -128 -49.5t-86.5 -126.5t-46 -155t-15.5 -148v-229q0 -42 3 -62.5t16 -36.5t36 -20t67 -4zM848 1364h59q-16 -98 -73 -157.5t-152 -59.5q-62 0 -150 47q-88 45 -126 45q-42 0 -72.5 -25.5t-42.5 -66.5h-60q22 94 78 150.5t146 56.5
q47 0 143 -45q5 -2 20.5 -9.5t21 -10t18.5 -8.5t20.5 -8t18 -5.5t19 -4.5t17.5 -1q44 0 74 29t41 73z" />
    <glyph glyph-name="ograve" unicode="&#xf2;" 
d="M272 489q0 -46 1 -79t4 -77.5t10.5 -76.5t18.5 -68t29.5 -60.5t42.5 -45.5t58 -31t76 -10t76 10t58 31t42.5 45.5t29.5 60.5t18.5 68t10.5 76.5t4 77.5t1 79q0 53 -1 90.5t-6.5 88.5t-15 85.5t-27 72t-42.5 60.5t-62.5 37.5t-85.5 14.5t-85.5 -14.5t-62.5 -37.5
t-42.5 -60.5t-27 -72t-15 -85.5t-6.5 -88.5t-1 -90.5zM76 489q0 130 52 247.5t153.5 194.5t230.5 77t230.5 -77t153.5 -194.5t52 -247.5t-52 -247.5t-153.5 -194t-230.5 -76.5t-230.5 76.5t-153.5 194t-52 247.5zM655 1096h-82l-292 184q-2 1 -11.5 7t-12.5 8t-11 8
t-11.5 8.5t-10 8.5t-9.5 10.5t-7 11t-6 12t-3.5 13t-1.5 15.5q0 32 21 48t52 16q14 0 24 -2t22.5 -11t17.5 -13t22 -22t23 -24z" />
    <glyph glyph-name="oacute" unicode="&#xf3;" 
d="M272 489q0 -46 1 -79t4 -77.5t10.5 -76.5t18.5 -68t29.5 -60.5t42.5 -45.5t58 -31t76 -10t76 10t58 31t42.5 45.5t29.5 60.5t18.5 68t10.5 76.5t4 77.5t1 79q0 53 -1 90.5t-6.5 88.5t-15 85.5t-27 72t-42.5 60.5t-62.5 37.5t-85.5 14.5t-85.5 -14.5t-62.5 -37.5
t-42.5 -60.5t-27 -72t-15 -85.5t-6.5 -88.5t-1 -90.5zM76 489q0 130 52 247.5t153.5 194.5t230.5 77t230.5 -77t153.5 -194.5t52 -247.5t-52 -247.5t-153.5 -194t-230.5 -76.5t-230.5 76.5t-153.5 194t-52 247.5zM348 1096l277 278q7 7 23 24t21.5 21.5t17 13t22 11
t24.5 2.5q31 0 52.5 -16t21.5 -48q0 -9 -1 -16.5t-5 -15t-6.5 -12.5t-10 -12t-10 -10t-12.5 -10t-12 -8.5t-14 -9t-13 -8.5l-293 -184h-82z" />
    <glyph glyph-name="ocircumflex" unicode="&#xf4;" 
d="M272 489q0 -46 1 -79t4 -77.5t10.5 -76.5t18.5 -68t29.5 -60.5t42.5 -45.5t58 -31t76 -10t76 10t58 31t42.5 45.5t29.5 60.5t18.5 68t10.5 76.5t4 77.5t1 79q0 53 -1 90.5t-6.5 88.5t-15 85.5t-27 72t-42.5 60.5t-62.5 37.5t-85.5 14.5t-85.5 -14.5t-62.5 -37.5
t-42.5 -60.5t-27 -72t-15 -85.5t-6.5 -88.5t-1 -90.5zM76 489q0 130 52 247.5t153.5 194.5t230.5 77t230.5 -77t153.5 -194.5t52 -247.5t-52 -247.5t-153.5 -194t-230.5 -76.5t-230.5 76.5t-153.5 194t-52 247.5zM502 1307l-252 -211h-66l254 340h127l256 -340h-71z" />
    <glyph glyph-name="otilde" unicode="&#xf5;" 
d="M272 489q0 -46 1 -79t4 -77.5t10.5 -76.5t18.5 -68t29.5 -60.5t42.5 -45.5t58 -31t76 -10t76 10t58 31t42.5 45.5t29.5 60.5t18.5 68t10.5 76.5t4 77.5t1 79q0 53 -1 90.5t-6.5 88.5t-15 85.5t-27 72t-42.5 60.5t-62.5 37.5t-85.5 14.5t-85.5 -14.5t-62.5 -37.5
t-42.5 -60.5t-27 -72t-15 -85.5t-6.5 -88.5t-1 -90.5zM76 489q0 130 52 247.5t153.5 194.5t230.5 77t230.5 -77t153.5 -194.5t52 -247.5t-52 -247.5t-153.5 -194t-230.5 -76.5t-230.5 76.5t-153.5 194t-52 247.5zM780 1364h60q-16 -98 -73.5 -157.5t-152.5 -59.5
q-61 0 -149 47q-88 45 -127 45q-42 0 -72.5 -25.5t-42.5 -66.5h-59q22 94 77.5 150.5t145.5 56.5q47 0 143 -45q4 -2 18 -8.5t18.5 -8.5t16.5 -7.5t18 -7.5t16.5 -6t17.5 -5.5t15 -2.5t16 -1q43 0 73 29t41 73z" />
    <glyph glyph-name="odieresis" unicode="&#xf6;" 
d="M272 489q0 -46 1 -79t4 -77.5t10.5 -76.5t18.5 -68t29.5 -60.5t42.5 -45.5t58 -31t76 -10t76 10t58 31t42.5 45.5t29.5 60.5t18.5 68t10.5 76.5t4 77.5t1 79q0 53 -1 90.5t-6.5 88.5t-15 85.5t-27 72t-42.5 60.5t-62.5 37.5t-85.5 14.5t-85.5 -14.5t-62.5 -37.5
t-42.5 -60.5t-27 -72t-15 -85.5t-6.5 -88.5t-1 -90.5zM76 489q0 130 52 247.5t153.5 194.5t230.5 77t230.5 -77t153.5 -194.5t52 -247.5t-52 -247.5t-153.5 -194t-230.5 -76.5t-230.5 76.5t-153.5 194t-52 247.5zM297 1331q44 0 72 -29t28 -71t-28.5 -71.5t-71.5 -29.5
t-71.5 29.5t-28.5 71.5t28 71t72 29zM705 1331q44 0 72 -29t28 -71t-28.5 -71.5t-71.5 -29.5q-44 0 -72.5 29.5t-28.5 71.5t28.5 71t72.5 29z" />
    <glyph glyph-name="divide" unicode="&#xf7;" horiz-adv-x="1228" 
d="M1104 428h-979v123h979v-123zM614 1028q49 0 85 -36.5t36 -84.5q0 -47 -36 -84t-85 -37t-84.5 37t-35.5 84q0 48 35.5 84.5t84.5 36.5zM614 193q49 0 85 -36.5t36 -84.5q0 -47 -36 -84t-85 -37t-84.5 37t-35.5 84q0 48 35.5 84.5t84.5 36.5z" />
    <glyph glyph-name="oslash" unicode="&#xf8;" 
d="M301 207l404 612q-55 119 -193 119q-48 0 -85.5 -14.5t-62.5 -37.5t-42.5 -60.5t-27 -72t-15 -85.5t-6.5 -88.5t-1 -90.5q0 -192 29 -282zM905 1122h82l-172 -260q64 -71 98.5 -170t34.5 -203q0 -130 -52 -247.5t-153.5 -194t-230.5 -76.5q-130 0 -233 80l-152 -231h-82
l182 276q-71 73 -111 178t-40 215q0 130 52 247.5t153.5 194.5t230.5 77q142 0 254 -97zM733 737l-399 -604q55 -92 178 -92q42 0 76 10t58 31t42.5 45.5t29.5 60.5t18.5 68t10.5 76.5t4 77.5t1 79q0 158 -19 248z" />
    <glyph glyph-name="ugrave" unicode="&#xf9;" horiz-adv-x="1138" 
d="M573 905v78l365 25v-813q0 -72 28.5 -94.5t120.5 -22.5v-70q-134 -3 -313 -37v291h-4q-39 -122 -128.5 -206.5t-215.5 -84.5q-127 0 -188.5 74.5t-61.5 204.5v543q0 68 -34 90t-122 22v78l316 25v-717q0 -104 33.5 -160.5t119.5 -56.5q76 0 135 56t91 143t47.5 176.5
t15.5 173.5v172q0 70 -43.5 90t-161.5 20zM709 1096h-82l-293 184q-2 1 -11.5 7t-12.5 8t-11 8t-11.5 8.5t-10 8.5t-9.5 10.5t-7 11t-6 12t-3.5 13t-1.5 15.5q0 32 21.5 48t52.5 16q14 0 24.5 -2.5t22 -11t17 -13t21.5 -21.5t23 -24z" />
    <glyph glyph-name="uacute" unicode="&#xfa;" horiz-adv-x="1138" 
d="M573 905v78l365 25v-813q0 -72 28.5 -94.5t120.5 -22.5v-70q-134 -3 -313 -37v291h-4q-39 -122 -128.5 -206.5t-215.5 -84.5q-127 0 -188.5 74.5t-61.5 204.5v543q0 68 -34 90t-122 22v78l316 25v-717q0 -104 33.5 -160.5t119.5 -56.5q76 0 135 56t91 143t47.5 176.5
t15.5 173.5v172q0 70 -43.5 90t-161.5 20zM401 1096l277 278q7 7 23 24t21.5 21.5t17 13t22 11t24.5 2.5q31 0 52.5 -16t21.5 -48q0 -9 -1 -16.5t-5 -15t-6.5 -12.5t-10 -12t-10 -10t-12.5 -10t-12 -8.5t-14 -9t-13 -8.5l-293 -184h-82z" />
    <glyph glyph-name="ucircumflex" unicode="&#xfb;" horiz-adv-x="1138" 
d="M573 905v78l365 25v-813q0 -72 28.5 -94.5t120.5 -22.5v-70q-134 -3 -313 -37v291h-4q-39 -122 -128.5 -206.5t-215.5 -84.5q-127 0 -188.5 74.5t-61.5 204.5v543q0 68 -34 90t-122 22v78l316 25v-717q0 -104 33.5 -160.5t119.5 -56.5q76 0 135 56t91 143t47.5 176.5
t15.5 173.5v172q0 70 -43.5 90t-161.5 20zM555 1307l-252 -211h-65l254 340h126l256 -340h-71z" />
    <glyph glyph-name="udieresis" unicode="&#xfc;" horiz-adv-x="1138" 
d="M573 905v78l365 25v-813q0 -72 28.5 -94.5t120.5 -22.5v-70q-134 -3 -313 -37v291h-4q-39 -122 -128.5 -206.5t-215.5 -84.5q-127 0 -188.5 74.5t-61.5 204.5v543q0 68 -34 90t-122 22v78l316 25v-717q0 -104 33.5 -160.5t119.5 -56.5q76 0 135 56t91 143t47.5 176.5
t15.5 173.5v172q0 70 -43.5 90t-161.5 20zM350 1331q44 0 72.5 -29t28.5 -71t-28.5 -71.5t-72.5 -29.5q-43 0 -71.5 29.5t-28.5 71.5t28 71t72 29zM758 1331q44 0 72 -29t28 -71t-28.5 -71.5t-71.5 -29.5q-44 0 -72.5 29.5t-28.5 71.5t28.5 71t72.5 29z" />
    <glyph glyph-name="yacute" unicode="&#xfd;" horiz-adv-x="1138" 
d="M29 905v74h454v-74q-67 0 -87.5 -7t-20.5 -36q0 -14 22 -78l224 -612h4l168 473q34 90 34 158q0 63 -30.5 82.5t-104.5 19.5v74h412v-74q-39 0 -70.5 -12t-52.5 -29t-40 -47t-29.5 -55t-24.5 -64l-289 -798q-29 -82 -63.5 -144.5t-69 -99t-65 -60t-63 -33t-50.5 -12
t-39 -2.5q-41 0 -78 9t-71 29t-54 58t-20 89q0 64 38 108.5t113 44.5q55 0 85 -30t30 -86q0 -31 -12 -53.5t-27 -32.5t-27 -22.5t-12 -24.5q0 -13 16.5 -20t32.5 -7q48 0 92.5 30.5t74 70t55.5 93t37 83.5t20 59l-281 772q-13 36 -23.5 61.5t-23 46t-21 33t-24 22t-25.5 14
t-32 6.5t-36 2.5t-46 0.5zM416 1096l276 278q6 6 23 24t22 22t17.5 13t22.5 11t24 2q31 0 52 -16t21 -48q0 -8 -1.5 -15.5t-3 -13t-6.5 -12.5t-7 -10.5t-9.5 -10t-9.5 -9t-11.5 -9t-11 -7.5l-12 -8t-11.5 -7l-293 -184h-82z" />
    <glyph glyph-name="thorn" unicode="&#xfe;" horiz-adv-x="1138" 
d="M870 479q0 104 -13.5 185.5t-36 132t-54 83t-64.5 45.5t-71 13q-47 0 -93.5 -29t-87 -83.5t-65.5 -145t-25 -201.5q0 -193 83 -311.5t188 -118.5q134 0 186.5 97t52.5 333zM539 -381v-70h-506v70q40 3 60 5t43 8t32.5 14t18.5 23t11.5 35.5t2.5 51.5v1512q0 87 -29.5 111
t-138.5 30v72l327 26v-782h5v8q14 51 39 98t60.5 87.5t84.5 65t104 24.5q94 0 174 -48t130 -124t78 -166t28 -178q0 -133 -56.5 -254.5t-147 -194t-187.5 -72.5q-56 0 -103 17t-78 41.5t-57.5 61.5t-40.5 66.5t-28 67.5h-5v-442q0 -39 1.5 -62t8.5 -43.5t17.5 -30.5
t32.5 -17t48.5 -9t70.5 -2z" />
    <glyph glyph-name="ydieresis" unicode="&#xff;" horiz-adv-x="1138" 
d="M29 905v74h454v-74q-67 0 -87.5 -7t-20.5 -36q0 -14 22 -78l224 -612h4l168 473q34 90 34 158q0 63 -30.5 82.5t-104.5 19.5v74h412v-74q-39 0 -70.5 -12t-52.5 -29t-40 -47t-29.5 -55t-24.5 -64l-289 -798q-29 -82 -63.5 -144.5t-69 -99t-65 -60t-63 -33t-50.5 -12
t-39 -2.5q-41 0 -78 9t-71 29t-54 58t-20 89q0 64 38 108.5t113 44.5q55 0 85 -30t30 -86q0 -31 -12 -53.5t-27 -32.5t-27 -22.5t-12 -24.5q0 -13 16.5 -20t32.5 -7q48 0 92.5 30.5t74 70t55.5 93t37 83.5t20 59l-281 772q-13 36 -23.5 61.5t-23 46t-21 33t-24 22t-25.5 14
t-32 6.5t-36 2.5t-46 0.5zM365 1331q44 0 72 -29t28 -71t-28.5 -71.5t-71.5 -29.5q-44 0 -72.5 29.5t-28.5 71.5t28.5 71t72.5 29zM772 1331q44 0 72 -29t28 -71t-28.5 -71.5t-71.5 -29.5t-71.5 29.5t-28.5 71.5t28 71t72 29z" />
    <glyph glyph-name="dotlessi" unicode="&#x131;" horiz-adv-x="569" 
d="M516 0h-481v74q113 0 141.5 25t28.5 124v527q0 38 -2 61t-11 41t-19 26.5t-34.5 14t-48.5 6.5t-70 2v74l345 33v-805q0 -79 25.5 -101t125.5 -28v-74z" />
    <glyph glyph-name="Lslash" unicode="&#x141;" horiz-adv-x="1478" 
d="M872 924v-103l-331 -86v-432v-52.5t1 -43t3 -37t6 -29t9.5 -24t14 -16.5t19.5 -13.5t26 -7.5t33 -5t41 -1h178q77 0 134 17.5t101 53t79 99t62.5 144t56.5 200.5h55l-31 -588h-1220v74h71t52.5 4.5t41.5 9.5t27 19.5t19.5 30t9 46.5t6 63t0.5 85v350l-221 -57v102l221 57
v414q0 49 -4 82t-16.5 56t-27 35.5t-44.5 19.5t-58.5 8.5t-79.5 1.5v74h689v-74q-118 0 -169.5 -13t-68 -44.5t-16.5 -104.5v-401z" />
    <glyph glyph-name="lslash" unicode="&#x142;" horiz-adv-x="569" 
d="M512 0h-461v74q100 0 127 28t27 131v512l-193 -73v78l193 73v445q0 87 -30 111t-144 30v72l334 26v-622l192 73v-77l-192 -74v-590q0 -83 28 -113t119 -30v-74z" />
    <glyph glyph-name="OE" unicode="&#x152;" horiz-adv-x="2048" 
d="M743 1475h1137l8 -517h-53q-41 183 -66 245q-47 117 -141 161q-79 37 -209 37q-91 0 -138.5 -5t-79.5 -23.5t-41 -49t-9 -86.5v-434q65 0 109 4.5t80.5 17.5t58.5 32t40 54t29 77.5t21 107.5h53v-688h-49q-11 65 -21 106.5t-27 81t-39.5 62t-58 40t-83 24.5t-113.5 7
v-459q1 -47 3 -74t10.5 -52t21.5 -36t39.5 -20.5t59.5 -11.5t87 -2q107 0 186 22t131.5 60.5t90 104t58.5 139t38 178.5h59l-32 -578h-1215q-125 0 -241 56.5t-201.5 153.5t-137 235.5t-51.5 293.5q0 136 50 267.5t137 236t218 168.5t281 64zM954 408v692q0 146 -62 217.5
t-206 71.5q-77 0 -138 -25t-101 -63t-69 -99.5t-44 -117t-23 -134t-10 -133t-2 -129.5q0 -53 3 -101t12.5 -111t26 -115t46.5 -104.5t70 -89t99.5 -59t133.5 -22.5q78 0 131 23t81.5 67.5t40 100t11.5 131.5z" />
    <glyph glyph-name="oe" unicode="&#x153;" horiz-adv-x="1593" 
d="M899 549h309q80 0 113 26.5t33 108.5q0 115 -50.5 184.5t-160.5 69.5q-61 0 -110 -40t-76.5 -101.5t-42 -125.5t-15.5 -122zM743 463q0 53 -1 91t-6.5 91t-15.5 91t-28 78.5t-43.5 65.5t-64 41.5t-86.5 16.5q-60 0 -105.5 -29.5t-71 -74t-41.5 -107t-21 -117.5t-5 -116
q0 -53 1.5 -92t7 -89.5t15.5 -86t28 -73t43.5 -60.5t63 -37.5t85.5 -14.5q51 0 92.5 21t67 58.5t43.5 80t26.5 93t12 90t3.5 79.5zM1534 471h-643q-4 -66 10.5 -134t46 -129t87.5 -99.5t128 -38.5q216 0 312 196l59 -26q-58 -135 -152 -202t-237 -67q-191 0 -328 170
q-62 -70 -145.5 -120t-173.5 -50q-103 0 -188 45t-138 119t-82 166.5t-29 190.5q0 92 31 183t85.5 165.5t139 121t181.5 46.5q24 0 46.5 -2.5t40 -5.5t37 -11.5t32 -13t30.5 -18t27 -19.5t28 -24t26.5 -25t28.5 -28.5t29 -29.5q70 81 150 129t160 48q194 0 297.5 -148
t103.5 -389z" />
    <glyph glyph-name="Scaron" unicode="&#x160;" horiz-adv-x="1251" 
d="M109 582h53q21 -102 68 -198.5t114 -175.5t159.5 -127t194.5 -48q99 0 176.5 29.5t127 96t49.5 163.5q0 65 -32 114t-86 80.5t-124 57.5t-147.5 49t-155 49.5t-147.5 65.5t-124 90t-86 130t-32 179q0 170 114.5 274.5t300.5 104.5q62 0 125 -20.5t104.5 -45.5t85 -45.5
t71.5 -20.5q57 0 102 132h55q0 -52 -5 -151t-5 -146q0 -48 5 -144.5t5 -144.5h-55q-19 78 -47.5 149.5t-72.5 138.5t-98.5 116t-129 78.5t-158.5 29.5q-120 0 -201.5 -71t-81.5 -191q0 -72 32.5 -125.5t87 -86t125 -57.5t148.5 -46.5t156.5 -45.5t149 -61.5t125 -87.5
t87 -131t32.5 -185q0 -97 -39 -174t-106.5 -124.5t-152 -72t-180.5 -24.5q-65 0 -122.5 14.5t-96 34.5t-70.5 40.5t-59.5 35t-48.5 14.5q-49 0 -82.5 -43t-48.5 -96h-57q8 106 8 277q0 58 -5 173t-5 173zM625 1702l247 211h72l-256 -340h-127l-254 340h66z" />
    <glyph glyph-name="scaron" unicode="&#x161;" horiz-adv-x="909" 
d="M133 -33h-45v420h51q27 -93 78 -171.5t132.5 -132.5t176.5 -54q78 0 139.5 45t61.5 129q0 62 -35 103t-90.5 62t-123.5 36.5t-135.5 36t-123 51.5t-90.5 92t-35 149q0 127 74.5 201t200.5 74q56 0 137.5 -31t103.5 -31q62 0 84 62h45v-367h-49q-34 133 -119.5 221
t-212.5 88q-64 0 -117 -39t-53 -102q0 -62 35 -103t90.5 -62.5t123 -38.5t135.5 -38t123.5 -51.5t90.5 -89.5t35 -143q0 -135 -83.5 -223.5t-215.5 -88.5q-64 0 -123.5 19.5t-107.5 39t-86 19.5q-8 0 -14.5 -1t-12 -5t-9.5 -6.5t-8.5 -9.5t-7 -9.5t-6.5 -12t-5 -12t-4.5 -14
t-4.5 -12.5zM453 1225l247 211h72l-256 -340h-127l-254 340h66z" />
    <glyph glyph-name="Ydieresis" unicode="&#x178;" horiz-adv-x="1593" 
d="M424 0v74q53 0 83.5 0.5t64 4t50 8t34 15.5t24 24t13 35.5t8 47.5t1.5 63v346l-325 558q-64 109 -92 141q-58 67 -156 80q-32 4 -72 4v74h670v-74q-131 0 -167 -7t-36 -36q0 -7 1.5 -14.5t5 -17t6.5 -17t10 -20t11.5 -21t15 -26t16.5 -28.5l276 -495l275 506q18 35 18 86
q0 90 -168 90v74h545v-74q-59 0 -108.5 -15.5t-83.5 -37t-67 -60t-52.5 -69.5t-46.5 -80l-271 -494v-373q0 -52 2 -81t13.5 -54t24.5 -35.5t48.5 -18t71 -8.5t104.5 -1v-74h-747zM592 1808q44 0 72 -29t28 -71t-28 -71t-72 -29t-72 29t-28 71t28 71t72 29zM999 1808
q44 0 72.5 -29t28.5 -71t-28.5 -71t-72.5 -29t-72 29t-28 71t28 71t72 29z" />
    <glyph glyph-name="Zcaron" unicode="&#x17d;" horiz-adv-x="1366" 
d="M217 938h-51l16 537h1051v-54l-911 -1347h337q57 0 101 2t84 9.5t69 15.5t56.5 26.5t46 36t39 50.5t34 62.5t30.5 80t30 96t33 116.5h57l-33 -569h-1136v66l913 1335h-403q-57 0 -105.5 -17t-82 -42.5t-62 -66.5t-45.5 -78.5t-31.5 -89t-21.5 -86.5t-15 -83zM682 1702
l248 211h71l-256 -340h-127l-253 340h65z" />
    <glyph glyph-name="zcaron" unicode="&#x17e;" horiz-adv-x="909" 
d="M86 606l20 373h730v-57l-609 -848h217q145 0 236 93t125 251h49l-27 -418h-792v74l600 831h-174q-71 0 -126 -22.5t-92 -66t-61.5 -93t-44.5 -117.5h-51zM453 1225l247 211h72l-256 -340h-127l-254 340h66z" />
    <glyph glyph-name="florin" unicode="&#x192;" 
d="M229 952h234q4 62 18 130.5t42.5 143.5t67.5 134t98 97t128 38q74 0 126 -46.5t52 -119.5q0 -57 -31 -97t-87 -40q-39 0 -71 31t-32 69q0 24 10.5 44t23.5 30t23.5 19t10.5 14q0 22 -54 22q-147 0 -165 -459v-10h254l-7 -94h-252q-2 -37 -7 -119q-7 -119 -12 -184.5
t-15.5 -190t-25 -201t-36 -181.5t-51.5 -169.5t-69 -127t-92 -92t-117 -29.5q-71 0 -123 44.5t-52 121.5q0 53 30.5 90t82.5 37q51 0 80 -24.5t29 -65.5q0 -26 -9.5 -45t-20.5 -27t-20.5 -17.5t-9.5 -17.5q0 -27 43 -27q27 0 50 12.5t39 37t29 51.5t21.5 66.5t14.5 70
t9.5 74.5t5.5 68t3.5 61.5t1.5 44.5q26 464 54 739h-228z" />
    <glyph glyph-name="circumflex" unicode="&#x2c6;" horiz-adv-x="569" 
d="M285 1307l-252 -211h-66l254 340h127l256 -340h-72z" />
    <glyph glyph-name="caron" unicode="&#x2c7;" horiz-adv-x="569" 
d="M283 1225l247 211h72l-256 -340h-127l-254 340h66z" />
    <glyph glyph-name="uni02C9" unicode="&#x2c9;" horiz-adv-x="569" 
d="M604 1178h-637v108h637v-108z" />
    <glyph glyph-name="breve" unicode="&#x2d8;" horiz-adv-x="569" 
d="M512 1417h61q0 -150 -77.5 -235.5t-229.5 -85.5q-82 0 -144.5 47t-93 119t-30.5 155h59q30 -198 234 -198q169 0 221 198z" />
    <glyph glyph-name="dotaccent" unicode="&#x2d9;" horiz-adv-x="569" 
d="M285 1331q44 0 72 -29t28 -71t-28.5 -71.5t-71.5 -29.5q-44 0 -72.5 29.5t-28.5 71.5t28.5 71t72.5 29z" />
    <glyph glyph-name="ring" unicode="&#x2da;" horiz-adv-x="569" 
d="M285 1096q-85 0 -145 59t-60 143q0 85 60 145t145 60t144.5 -60t59.5 -145t-59.5 -143.5t-144.5 -58.5zM285 1434q-57 0 -96 -40t-39 -96q0 -57 39 -95t96 -38q56 0 95.5 38.5t39.5 94.5t-40 96t-95 40z" />
    <glyph glyph-name="ogonek" unicode="&#x2db;" horiz-adv-x="569" 
d="M537 -270l26 -45q-88 -55 -158.5 -85t-148.5 -30t-134 48t-56 124q0 205 475 297v-19q-48 -18 -79.5 -31t-82.5 -41t-82.5 -56t-55.5 -70t-24 -88q0 -42 39 -66t84 -24q65 0 197 86z" />
    <glyph glyph-name="tilde" unicode="&#x2dc;" horiz-adv-x="569" 
d="M563 1364h60q-16 -98 -73.5 -157.5t-152.5 -59.5q-61 0 -149 47q-88 45 -127 45q-42 0 -72.5 -25.5t-42.5 -66.5h-59q22 94 77.5 150.5t145.5 56.5q47 0 143 -45q4 -2 18 -8.5t18.5 -8.5t16.5 -7.5t18 -7.5t16.5 -6t17.5 -5.5t15 -2.5t16 -1q43 0 73 29t41 73z" />
    <glyph glyph-name="hungarumlaut" unicode="&#x2dd;" horiz-adv-x="569" 
d="M88 1096h-86l231 272q7 8 19 22.5t17 20t14.5 14.5t16.5 12t16.5 6t21.5 3q78 0 78 -57q0 -25 -14 -47t-25 -31t-39 -29zM416 1096h-86l231 272q7 8 19 22.5t17 20t14.5 14.5t16.5 12t16.5 6t21.5 3q77 0 77 -57q0 -25 -13.5 -46.5t-25 -31.5t-38.5 -29z" />
    <glyph glyph-name="uni03A9" unicode="&#x3a9;" horiz-adv-x="1339" 
d="M1278 303l-47 -303h-447l-14 37q9 22 52 123t63 155.5t50.5 146t44 173.5t13.5 160q-1 155 -27.5 271.5t-73 183t-102.5 98.5t-122 32q-322 0 -322 -594q0 -77 15 -163.5t33 -151.5t54 -158.5t55.5 -138.5t61.5 -137l-18 -37h-443l-43 303l54 2q28 -93 57 -120t88 -27
h186q-46 43 -81 79.5t-83.5 101.5t-79.5 128.5t-54 152.5t-23 183q0 193 73.5 340.5t197 225t276.5 77.5q156 0 277.5 -75t192 -219.5t70.5 -336.5q0 -86 -22 -170t-52.5 -147.5t-80 -132.5t-86 -110.5t-88.5 -96.5h198q60 0 86 25.5t54 121.5z" />
    <glyph glyph-name="uni03BC" unicode="&#x3bc;" horiz-adv-x="1138" 
d="M20 905v78l316 25v-754q0 -96 30.5 -138t122.5 -42q76 0 135 56t91 143t47.5 176.5t15.5 173.5v172q0 70 -43.5 90t-161.5 20v78l365 25v-813q0 -72 28.5 -94.5t120.5 -22.5v-70q-134 -3 -313 -37v291h-4q-39 -122 -128.5 -206.5t-215.5 -84.5q-56 0 -90 15v-437h-316v70
q44 4 64.5 7t42.5 10.5t30 22t13.5 37.5t5.5 60v1037q0 68 -34 90t-122 22z" />
    <glyph glyph-name="pi" unicode="&#x3c0;" horiz-adv-x="1079" 
d="M975 965l53 -17q-20 -117 -70 -194q-43 -11 -124 -11q-11 -142 -11 -452q2 -97 20 -142t60 -45q26 0 45.5 13t46.5 43l27 -45q-36 -65 -92.5 -103.5t-114.5 -38.5q-83 0 -130.5 61t-47.5 210q0 207 18 506q-51 0 -141 2t-127 2v-33q0 -166 -15 -303.5t-37.5 -218.5
t-40.5 -124.5t-34 -64.5q-76 -31 -125 -37l-14 39q67 92 110 234.5t57.5 266t14.5 243.5q-86 1 -132.5 -17.5t-111.5 -66.5l-28 51q52 68 79 93q101 92 255 89q67 0 234 -3t263 -3q47 0 69 13t44 53z" />
    <glyph glyph-name="uni2010" unicode="&#x2010;" horiz-adv-x="681" 
d="M606 420h-549v139h549v-139z" />
    <glyph glyph-name="endash" unicode="&#x2013;" 
d="M1024 428h-1024v123h1024v-123z" />
    <glyph glyph-name="emdash" unicode="&#x2014;" horiz-adv-x="2048" 
d="M2048 428h-2048v123h2048v-123z" />
    <glyph glyph-name="quoteleft" unicode="&#x2018;" horiz-adv-x="464" 
d="M367 1516l49 -37q-69 -66 -131 -147.5t-62 -137.5q0 -11 16 -21.5t39 -22t46 -27.5t39 -44.5t16 -66.5q0 -63 -36.5 -103.5t-98.5 -40.5q-72 0 -112 56.5t-40 130.5q0 67 23.5 132.5t70.5 128t84 102t97 98.5z" />
    <glyph glyph-name="quoteright" unicode="&#x2019;" horiz-adv-x="464" 
d="M98 868l-49 37q69 66 131 147.5t62 137.5q0 11 -16 21.5t-39 22t-46 27.5t-39 44.5t-16 66.5q0 63 36.5 103.5t98.5 40.5q72 0 112 -56.5t40 -130.5q0 -67 -23.5 -132.5t-70.5 -128t-84 -102t-97 -98.5z" />
    <glyph glyph-name="quotesinglbase" unicode="&#x201a;" horiz-adv-x="464" 
d="M98 -418l-49 37q69 66 131 147.5t62 137.5q0 11 -16 21.5t-39 22t-46 27.5t-39 44.5t-16 66.5q0 63 36.5 103t98.5 40q72 0 112 -56t40 -130q0 -67 -23.5 -132.5t-70.5 -128t-84 -102t-97 -98.5z" />
    <glyph glyph-name="quotedblleft" unicode="&#x201c;" horiz-adv-x="909" 
d="M811 1516l49 -37q-68 -65 -130 -147t-62 -138q0 -11 16 -21.5t39 -22t45.5 -27.5t38.5 -44.5t16 -66.5q0 -63 -36.5 -103.5t-98.5 -40.5q-72 0 -111.5 56.5t-39.5 130.5q0 55 18 110.5t42 98.5t65.5 94t71.5 81.5t77 76.5zM346 1516l49 -37q-68 -65 -130 -147t-62 -138
q0 -11 16 -21.5t38.5 -22t45.5 -27.5t39 -44.5t16 -66.5q0 -63 -36.5 -103.5t-98.5 -40.5q-72 0 -111.5 56.5t-39.5 130.5q0 55 18 110.5t42 98.5t65.5 94t71.5 81.5t77 76.5z" />
    <glyph glyph-name="quotedblright" unicode="&#x201d;" horiz-adv-x="909" 
d="M98 868l-49 37q69 66 131 147.5t62 137.5q0 11 -16 21.5t-39 22t-46 27.5t-39 44.5t-16 66.5q0 63 36.5 103.5t98.5 40.5q72 0 112 -56.5t40 -130.5q0 -67 -23.5 -132.5t-70.5 -128t-84 -102t-97 -98.5zM563 868l-49 37q69 66 131 147.5t62 137.5q0 11 -16 21.5t-39 22
t-46 27.5t-39 44.5t-16 66.5q0 63 36.5 103.5t98.5 40.5q72 0 112 -56.5t40 -130.5q0 -67 -23.5 -132.5t-70.5 -128t-84 -102t-97 -98.5z" />
    <glyph glyph-name="quotedblbase" unicode="&#x201e;" horiz-adv-x="909" 
d="M98 -418l-49 37q69 66 131 147.5t62 137.5q0 11 -16 21.5t-39 22t-46 27.5t-39 44.5t-16 66.5q0 63 36.5 103t98.5 40q72 0 112 -56t40 -130q0 -67 -23.5 -132.5t-70.5 -128t-84 -102t-97 -98.5zM563 -418l-49 37q69 66 131 147.5t62 137.5q0 11 -16 21.5t-39 22
t-46 27.5t-39 44.5t-16 66.5q0 63 36.5 103t98.5 40q72 0 112 -56t40 -130q0 -67 -23.5 -132.5t-70.5 -128t-84 -102t-97 -98.5z" />
    <glyph glyph-name="dagger" unicode="&#x2020;" 
d="M532 -176h-40v113q0 187 -20.5 389.5t-65.5 322.5q39 51 59.5 125t23.5 123.5t3 126.5q-56 0 -112 -17t-99.5 -34t-69.5 -17q-40 0 -66 21.5t-26 62.5q0 43 24 70t60 27q31 0 61.5 -11.5t54 -24.5t69.5 -24.5t104 -11.5q0 78 -11.5 138.5t-25.5 89.5t-25.5 60.5
t-11.5 59.5q0 103 94 103t94 -103q0 -28 -11.5 -59.5t-25.5 -60.5t-25.5 -89.5t-11.5 -138.5q58 0 104 11.5t69.5 24.5t54 24.5t61.5 11.5q36 0 60 -27t24 -70q0 -41 -26 -62.5t-66 -21.5q-26 0 -69.5 17t-99.5 34t-112 17q0 -77 3 -126.5t23.5 -123.5t59.5 -125
q-45 -120 -65.5 -322.5t-20.5 -389.5v-113z" />
    <glyph glyph-name="daggerdbl" unicode="&#x2021;" 
d="M522 1516q29 0 57.5 -29t28.5 -72q0 -25 -12 -57t-26 -63t-26 -92t-12 -138q58 0 104 11.5t69.5 24.5t54 24.5t61.5 11.5q36 0 60 -27t24 -70q0 -41 -26 -62.5t-66 -21.5q-26 0 -69.5 17t-99.5 34t-112 17q0 -115 16.5 -204t67.5 -156q-37 -48 -57 -114t-23.5 -115.5
t-3.5 -127.5q58 0 104 11.5t69.5 24.5t54 24.5t61.5 11.5q36 0 60 -26.5t24 -69.5q0 -41 -26 -62.5t-66 -21.5q-26 0 -69.5 16.5t-99.5 33.5t-112 17q0 -68 12 -128.5t26 -95t26 -69t12 -57.5q0 -40 -29 -69t-67 -29q-36 0 -66 28.5t-30 71.5q0 25 12 57t26 62.5t26 91.5
t12 137q-56 0 -112 -17t-99.5 -33.5t-69.5 -16.5q-40 0 -66 21.5t-26 62.5q0 43 24 69.5t60 26.5q31 0 61.5 -11.5t54 -24.5t69.5 -24.5t104 -11.5q0 78 -3.5 127.5t-23.5 115.5t-57 114q51 67 67.5 156t16.5 204q-56 0 -112 -17t-99.5 -34t-69.5 -17q-40 0 -66 21.5
t-26 62.5q0 43 24 70t60 27q31 0 61.5 -11.5t54 -24.5t69.5 -24.5t104 -11.5q0 88 -19 160t-38 119t-19 73q0 40 30.5 69.5t75.5 29.5z" />
    <glyph glyph-name="bullet" unicode="&#x2022;" 
d="M881 737q0 -154 -107.5 -261t-261.5 -107t-261.5 106.5t-107.5 261.5q-1 154 106.5 261.5t262.5 107.5q154 0 261.5 -107.5t107.5 -261.5z" />
    <glyph glyph-name="ellipsis" unicode="&#x2026;" horiz-adv-x="2048" 
d="M342 238q60 0 99.5 -39t39.5 -99t-39.5 -98.5t-99.5 -38.5t-99.5 38.5t-39.5 98.5t39.5 99t99.5 39zM1024 238q60 0 99.5 -39t39.5 -99t-39.5 -98.5t-99.5 -38.5t-99.5 38.5t-39.5 98.5t39.5 99t99.5 39zM1706 238q60 0 99.5 -39t39.5 -99t-39.5 -98.5t-99.5 -38.5
t-99.5 38.5t-39.5 98.5t39.5 99t99.5 39z" />
    <glyph glyph-name="perthousand" unicode="&#x2030;" horiz-adv-x="2048" 
d="M592 1143q0 64 -17 104q-79 24 -120 84q-51 -3 -108.5 -67t-98.5 -146t-68.5 -158.5t-27.5 -109.5q0 -53 30 -89t82 -36q64 0 126 43t105.5 106t70 136t26.5 133zM303 -25h-96l745 1291l-4 4q-83 -68 -205 -68q-41 0 -112 23q1 -4 7.5 -30.5t6.5 -41.5
q0 -78 -31.5 -162.5t-83.5 -155.5t-128 -117t-158 -46q-111 0 -171.5 68t-60.5 184q0 102 63.5 209.5t166.5 179t207 71.5q55 0 89.5 -21t63.5 -67q24 -41 162 -41q86 0 166 52.5t143 146.5h82zM674 236q0 106 60 216.5t157.5 183.5t195.5 73q114 0 170 -65t56 -165
q0 -59 -18.5 -124.5t-54 -128.5t-82 -113.5t-109 -81.5t-129.5 -31q-115 0 -180.5 58t-65.5 178zM813 172q0 -51 37 -85t88 -34q78 0 153.5 66t122 169t46.5 206q0 69 -38.5 115t-107.5 46q-53 0 -126 -95t-124 -210.5t-51 -177.5zM1389 236q0 106 60 216.5t157.5 183.5
t195.5 73q114 0 170 -65t56 -165q0 -74 -29.5 -157.5t-80 -155t-126 -119t-158.5 -47.5q-115 0 -180 58t-65 178zM1528 172q0 -51 37 -85t88 -34q78 0 153 66t121.5 169t46.5 206q0 69 -38 115t-107 46q-53 0 -126 -95t-124 -210.5t-51 -177.5z" />
    <glyph glyph-name="guilsinglleft" unicode="&#x2039;" horiz-adv-x="681" 
d="M483 711l-155 -219l139 -201q57 -80 57 -109q0 -20 -24 -20q-5 0 -9.5 2.5t-12 9t-15 14l-22.5 22.5t-31 30q-5 5 -26 26.5t-40.5 40.5t-48.5 47.5t-65.5 62t-75.5 68.5v13q59 50 163.5 151.5t124.5 118.5q9 8 21 19.5t17.5 16.5t12 9t11.5 4q22 0 22 -20q0 -25 -43 -86z
" />
    <glyph glyph-name="guilsinglright" unicode="&#x203a;" horiz-adv-x="681" 
d="M199 268l155 219l-139 201q-57 80 -57 109q0 20 24 20q5 0 9.5 -2.5t12 -9t15 -14l22.5 -22.5t31 -30q5 -5 26 -26.5t40.5 -40.5t48.5 -47.5t65.5 -62t75.5 -68.5v-13q-59 -50 -163.5 -151.5t-124.5 -118.5q-9 -8 -21 -19.5t-17.5 -16.5t-12 -9t-11.5 -4q-22 0 -22 20
q0 25 43 86z" />
    <glyph glyph-name="fraction" unicode="&#x2044;" horiz-adv-x="342" 
d="M684 1454l-922 -1479h-104l922 1479h104z" />
    <glyph glyph-name="Euro" unicode="&#x20ac;" 
d="M63 621h87q-5 41 -5 100v55h-104l22 103h95q23 152 82 280.5t153 211.5t203 83q55 0 104 -17.5t76.5 -39t51.5 -39t34 -17.5q25 0 40.5 27.5t31.5 77.5q0 2 0.5 3t1 2.5t0.5 2.5h47l8 -469h-47q-16 91 -60.5 180.5t-112.5 152t-138 62.5q-231 0 -264 -501h465l-23 -103
h-446v-76q0 -52 2 -79h407l-22 -103h-381q45 -473 280 -473q133 0 210 114t77 283h63q0 -208 -102.5 -337.5t-282.5 -129.5q-116 0 -212 75t-156 195.5t-86 272.5h-121z" />
    <glyph glyph-name="afii61289" unicode="&#x2113;" horiz-adv-x="802" 
d="M729 248l43 -37q-116 -231 -326 -231q-141 0 -204 79q-36 48 -50 109t-14 188v170l-108 -82l-27 54l133 108v273q0 239 20.5 346t79.5 184q77 109 183 109q87 0 134.5 -76t47.5 -197q0 -118 -37.5 -227t-93.5 -192t-143 -179v-192q0 -197 36.5 -273t122.5 -76
q112 0 203 142zM367 993v-243q74 94 119.5 228t45.5 265q0 211 -81 211q-48 0 -66 -97.5t-18 -363.5z" />
    <glyph glyph-name="trademark" unicode="&#x2122;" horiz-adv-x="2027" 
d="M82 1475h696v-181h-41q-33 140 -139 140h-102v-633q0 -69 17 -89t83 -24v-41h-334v41q67 6 85 23.5t18 89.5v633h-105q-108 0 -137 -140h-41v181zM1376 641l-311 637h-4v-461q0 -68 21 -95.5t85 -33.5v-41h-266v41q65 6 86 33t21 96v516q-17 45 -56.5 73t-83.5 28v41h236
l321 -646l336 646h201v-41q-63 0 -89 -29t-26 -86v-518q0 -68 22.5 -89t78.5 -24v-41h-334v41q57 3 79.5 23.5t22.5 89.5v483h-4l-317 -643h-19z" />
    <glyph glyph-name="Omega" unicode="&#x2126;" horiz-adv-x="1339" 
d="M1278 303l-47 -303h-447l-14 37q9 22 52 123t63 155.5t50.5 146t44 173.5t13.5 160q-1 155 -27.5 271.5t-73 183t-102.5 98.5t-122 32q-322 0 -322 -594q0 -77 15 -163.5t33 -151.5t54 -158.5t55.5 -138.5t61.5 -137l-18 -37h-443l-43 303l54 2q28 -93 57 -120t88 -27
h186q-46 43 -81 79.5t-83.5 101.5t-79.5 128.5t-54 152.5t-23 183q0 193 73.5 340.5t197 225t276.5 77.5q156 0 277.5 -75t192 -219.5t70.5 -336.5q0 -86 -22 -170t-52.5 -147.5t-80 -132.5t-86 -110.5t-88.5 -96.5h198q60 0 86 25.5t54 121.5z" />
    <glyph glyph-name="estimated" unicode="&#x212e;" horiz-adv-x="1779" 
d="M1710 692h-1329q-10 0 -10 -8v-401q0 -25 16 -47q99 -102 229.5 -160t274.5 -58q154 0 291 65.5t237 178.5h117q-111 -131 -281.5 -208t-365.5 -77q-167 0 -318.5 58.5t-261 157t-174.5 234.5t-65 286t65 286.5t174.5 235.5t261 157t318.5 58t319 -58t262 -157
t175 -235.5t65 -286.5v-21zM1407 745v404q0 28 -18 49q-100 98 -228 153.5t-270 55.5q-143 0 -273 -57t-229 -158q-18 -21 -18 -51v-396q0 -12 10 -12h1018q8 0 8 12z" />
    <glyph glyph-name="partialdiff" unicode="&#x2202;" horiz-adv-x="1013" 
d="M504 879h2q65 0 129 -31.5t106 -95.5q20 166 21 225q10 175 -47 317q-31 74 -94 125t-148 51q-128 0 -258 -112q-15 -1 -32.5 23.5t-27 59t-1.5 56.5q126 82 264 82q258 0 401 -295q96 -200 96 -483q0 -129 -22.5 -267t-67.5 -241q-63 -146 -163 -229.5t-234 -83.5
q-158 0 -252 107t-94 296q0 99 32 188t81 154q55 69 136.5 111.5t172.5 42.5zM547 795h-2q-116 0 -189 -117q-41 -75 -63.5 -185.5t-22.5 -222.5q-2 -99 41 -163t117 -64q112 0 205 221q63 155 92 398q-18 48 -67.5 90.5t-110.5 42.5z" />
    <glyph glyph-name="uni2206" unicode="&#x2206;" horiz-adv-x="1204" 
d="M1139 0h-1076v57l488 1364l82 25l506 -1389v-57zM897 104l-365 1029l-354 -1029h719z" />
    <glyph glyph-name="product" unicode="&#x220f;" horiz-adv-x="1314" 
d="M1262 1427v-57q-44 -4 -70.5 -7.5t-48 -12t-31.5 -17.5t-17 -28.5t-8.5 -40.5t-1.5 -58v-1149q0 -40 1.5 -63.5t8.5 -45t16.5 -31.5t31 -19t47 -13t67.5 -8v-55h-514v55q57 5 83 10.5t43.5 26t20.5 49.5t3 92v1231q0 45 -13.5 57.5t-58.5 12.5h-334q-43 0 -55 -10.5
t-12 -51.5v-1239q0 -99 10 -124q13 -33 66 -45q22 -5 61 -9v-55h-504v55q63 6 93.5 12.5t50.5 27.5t24 49.5t4 88.5v1151q0 38 -1.5 58.5t-8.5 40.5t-16.5 29t-32 17t-48.5 11.5t-71 7.5v57h1215z" />
    <glyph glyph-name="summation" unicode="&#x2211;" horiz-adv-x="1048" 
d="M1006 201l-84 -389h-869v51l424 692l-416 819v53h863q6 -118 22 -327l-59 -13q-22 122 -62 197q-22 44 -60.5 58t-143.5 14h-320l344 -660l-428 -710h459q48 0 73.5 1.5t53.5 10t43 21.5t34 41t33 63.5t35 93.5z" />
    <glyph glyph-name="minus" unicode="&#x2212;" horiz-adv-x="1228" 
d="M125 428v123h979v-123h-979z" />
    <glyph glyph-name="uni2215" unicode="&#x2215;" horiz-adv-x="342" 
d="M684 1454l-922 -1479h-104l922 1479h104z" />
    <glyph glyph-name="uni2219" unicode="&#x2219;" horiz-adv-x="512" 
d="M256 616q54 0 90.5 -39t36.5 -88t-36.5 -88t-90.5 -39t-90.5 39t-36.5 88t36.5 88t90.5 39z" />
    <glyph glyph-name="radical" unicode="&#x221a;" horiz-adv-x="1064" 
d="M1034 1808l-329 -2134l-43 -20l-408 1120l-168 -76l-23 70l320 143l297 -858h6l264 1774z" />
    <glyph glyph-name="infinity" unicode="&#x221e;" horiz-adv-x="1470" 
d="M1376 592v-2q0 -145 -89 -233.5t-210 -88.5q-88 0 -168 49t-172 168q-56 -68 -102 -111t-112 -74.5t-138 -31.5q-121 0 -208 89.5t-87 224.5q0 139 87.5 228t221.5 89q99 0 179.5 -55.5t162.5 -159.5q6 6 17 19q33 37 51.5 56.5t54 51t65 47.5t71.5 28.5t87 12.5
q126 0 207.5 -85t81.5 -222zM399 387h2q33 0 65.5 12.5t55.5 27t54.5 45.5t46.5 48t47 55q-78 101 -112 134q-78 73 -167 73q-83 0 -130.5 -57.5t-47.5 -146.5q0 -79 53.5 -135t132.5 -56zM1075 782h-2q-29 0 -58.5 -11t-50 -23t-49.5 -39t-40.5 -39.5t-40 -46t-31.5 -37.5
q94 -113 151 -156t127 -43q78 0 125 60t47 133q0 92 -49 147t-129 55z" />
    <glyph glyph-name="integral" unicode="&#x222b;" horiz-adv-x="751" 
d="M313 8l-41 838q-10 156 -2 278t21.5 213.5t40 157t54.5 108.5t64.5 68t70 35t71.5 10q47 0 87.5 -26.5t41.5 -73.5q0 -47 -29.5 -72.5t-70.5 -25.5q-24 0 -39.5 16t-22 35t-17.5 35t-26 16q-87 0 -72 -324l37 -768q7 -181 2 -321t-27 -243.5t-51.5 -174.5t-70.5 -114
t-83.5 -62t-92.5 -19q-55 0 -92 31t-37 74q-1 44 33 74t79 30q21 0 36 -17t22.5 -38t19 -38t25.5 -17q41 0 59 84t10 231z" />
    <glyph glyph-name="approxequal" unicode="&#x2248;" horiz-adv-x="1011" 
d="M854 887l82 -68q-41 -88 -105 -142t-143 -54q-52 0 -96.5 17t-108.5 58q-50 34 -85 50t-74 16q-55 0 -92 -35.5t-78 -103.5l-84 65q41 89 111.5 142t154.5 53q18 0 35.5 -2t34.5 -7.5t29 -10t29 -13.5t24 -12.5t24.5 -14.5t19.5 -12q9 -5 30 -18t29 -17.5t24 -13
t25.5 -11t23 -5.5t26.5 -3q50 0 87 35.5t77 106.5zM854 545l82 -68q-41 -88 -104.5 -142t-143.5 -54q-51 0 -95 17.5t-110 57.5q-36 24 -55.5 35t-48 21t-55.5 10q-30 0 -55.5 -11t-46.5 -34.5t-35 -43t-33 -52.5l-84 67q41 88 111.5 141.5t152.5 53.5q23 0 45 -4t37.5 -8
t36 -14t28.5 -14.5t28 -17t23 -14.5q7 -4 38.5 -23t42.5 -24.5t34 -13t43 -7.5q50 0 86.5 34.5t77.5 107.5z" />
    <glyph glyph-name="notequal" unicode="&#x2260;" horiz-adv-x="1011" 
d="M737 1006l-73 -170h254v-127h-302l-112 -263h414v-124h-461l-90 -213l-99 38l74 175h-252v124h299l113 263h-412v127h457l92 208z" />
    <glyph glyph-name="lessequal" unicode="&#x2264;" horiz-adv-x="1011" 
d="M913 211l-813 432v135l813 430v-149l-688 -344v-6l688 -347v-151zM922 6h-830v131h830v-131z" />
    <glyph glyph-name="greaterequal" unicode="&#x2265;" horiz-adv-x="1011" 
d="M104 1208l814 -430v-135l-814 -432v151l689 347v4l-689 346v149zM920 6h-826v131h826v-131z" />
    <glyph glyph-name="lozenge" unicode="&#x25ca;" horiz-adv-x="1071" 
d="M975 690l-365 -825h-153l-363 825l367 832h151zM834 690l-295 692h-7l-296 -690l299 -694h4z" />
    <glyph glyph-name="fi" unicode="&#xfb01;" horiz-adv-x="1138" 
d="M25 893v86h180q0 102 22.5 192t69.5 167.5t131 123t197 45.5q68 0 133 -22.5t113.5 -74t48.5 -122.5q0 -57 -34 -93t-91 -36q-53 0 -87 29.5t-34 81.5q0 38 21 66t42 41.5t21 15.5q0 16 -48.5 30.5t-88.5 14.5q-49 0 -93.5 -17.5t-81.5 -52.5t-59 -94t-22 -135v-160h589
v-795q0 -48 10.5 -69.5t42 -31t101.5 -9.5v-74h-467v74q56 2 84 6t45.5 21.5t21 41.5t3.5 74v676h-430v-723q0 -55 32 -75.5t119 -20.5v-74h-471v74q98 0 129 21t31 98v700h-180z" />
    <glyph glyph-name="fl" unicode="&#xfb02;" horiz-adv-x="1138" 
d="M365 979h430v203q-62 -9 -96.5 25.5t-34.5 95.5q0 20 10 38.5t22.5 29t22.5 20t10 14.5q0 17 -49.5 25t-81.5 8q-63 0 -110 -25t-73 -67.5t-38 -91.5t-12 -105v-170zM25 893v86h180q0 113 20.5 204.5t64.5 166t122 116t186 41.5q24 0 94 -16q66 -12 84 -12q21 0 46.5 3
t40.5 6t48.5 10t42.5 9v-1323q0 -48 10.5 -69.5t42 -31t101.5 -9.5v-74h-467v74q56 2 84 6t45.5 21.5t21 41.5t3.5 74v676h-430v-723q0 -55 32 -75.5t119 -20.5v-74h-471v74q98 0 129 21t31 98v700h-180z" />
    <glyph glyph-name="a.superior" horiz-adv-x="614" 
d="M602 1014h33q-5 -181 -109 -185q-35 1 -57 11.5t-32.5 32.5t-14.5 43t-6 55h-4q-77 -140 -224 -140q-66 0 -113.5 39t-47.5 99q0 37 20 68t48 51t73.5 39t82 29.5t88 25t77.5 22.5v66q0 75 -27.5 107t-109.5 32h-6q-106 0 -123 -31q31 -8 49 -28.5t18 -49.5
q0 -32 -24.5 -52.5t-61.5 -20.5q-31 0 -53.5 25t-22.5 57q0 65 70.5 105t163.5 40q43 0 82 -6.5t76 -21t59 -42t22 -65.5v-326v-27.5t1 -20.5t3 -17.5t5.5 -11t9.5 -7.5t14 -2q6 0 11 2.5t9 8t7 11.5t5 14.5t3.5 15.5t2.5 16.5t1.5 15t1 13.5t0.5 10zM416 1104v51
q-118 -37 -159 -59q-95 -49 -95 -121q0 -35 20.5 -52.5t53.5 -17.5q83 0 131.5 52.5t48.5 146.5z" />
    <glyph glyph-name="o.superior" horiz-adv-x="614" 
d="M158 1143v-38t1 -36.5t2.5 -38t5 -33.5t9 -33.5t13 -27.5t18.5 -25t25 -17.5t32.5 -13t40.5 -3.5q31 0 55.5 9t40 21.5t26.5 36.5t16.5 42t8 51t3 51.5t0.5 54.5t-0.5 55t-3 52t-8 51t-16.5 42t-26.5 36t-40 21t-55.5 9q-24 0 -44.5 -5.5t-35 -13t-25.5 -23.5t-18 -27
t-12 -35.5t-7.5 -36.5t-3.5 -41.5t-1 -40.5v-43zM23 1143q0 122 78.5 216.5t203.5 94.5t205 -94.5t80 -216.5t-80 -217t-205 -95t-203.5 95t-78.5 217z" />
    <glyph glyph-name="one.superior" horiz-adv-x="614" 
d="M528 573h-460v45q104 0 140 18t36 77v499q0 58 -33.5 76.5t-142.5 18.5v49q87 0 154 18t108 72h37v-733q0 -59 33.5 -77t127.5 -18v-45z" />
    <glyph glyph-name="two.superior" horiz-adv-x="614" 
d="M102 696h281q40 0 59 0.5t40 6t29 11.5t19 23.5t16.5 36.5t14.5 55h39l-18 -256h-584v58q0 5 2.5 12.5t7.5 16.5t10.5 17.5t14.5 20.5t16.5 21.5t19 23.5t19 23t20.5 24t19 23q48 56 116 119.5t108.5 100.5t71 87.5t30.5 102.5q0 96 -44.5 137t-129.5 41
q-74 0 -133.5 -47t-59.5 -92q0 -11 12 -11q4 0 13.5 1t13.5 1q40 0 64 -22.5t24 -59.5q0 -33 -24.5 -57t-59.5 -24q-56 0 -82.5 34t-26.5 88q0 93 84 163.5t203 70.5q129 0 211 -66.5t82 -175.5q0 -54 -41.5 -105t-105.5 -95t-131 -88t-129.5 -102t-90.5 -118z" />
    <glyph glyph-name="three.superior" horiz-adv-x="614" 
d="M590 797q0 -103 -91 -170.5t-225 -67.5q-120 0 -195 57t-75 144q0 42 24 74t72 32q36 0 62 -21.5t26 -53.5q0 -36 -23.5 -54t-47.5 -18q-42 0 -60 4q0 -35 55 -77t148 -42q102 0 142 48.5t40 146.5q0 99 -43 144.5t-149 45.5q-9 0 -30 -2t-30 -2q-43 0 -43 29q0 28 39 28
q10 0 29.5 -2t28.5 -2q95 0 133.5 51t38.5 146q0 84 -36 125t-126 41q-147 0 -162 -101q9 3 23 3q42 0 64 -25.5t22 -52.5t-21.5 -48.5t-56.5 -21.5q-44 0 -68 26.5t-24 67.5q0 86 66 141.5t173 55.5q124 0 208.5 -59t84.5 -152q0 -42 -20.5 -77.5t-50 -58.5t-69.5 -41
t-73.5 -27t-66.5 -15v-2q132 -6 219.5 -67t87.5 -150z" />
    </font>
</defs>
</svg>
