<?xml version="1.0" standalone="no"?>
<!DOCTYPE svg PUBLIC "-//W3C//DTD SVG 1.1//EN" "http://www.w3.org/Graphics/SVG/1.1/DTD/svg11.dtd" >
<svg xmlns="http://www.w3.org/2000/svg" xmlns:xlink="http://www.w3.org/1999/xlink" version="1.1">
<metadata>
Created by FontForge 20170731 at Sun Jun 10 13:33:13 2018
 By Aleksey,,,
copyright missing
</metadata>
<defs>
<font id="OurHeadline-Regular" horiz-adv-x="290" >
  <font-face 
    font-family="Our Headline"
    font-weight="400"
    font-stretch="normal"
    units-per-em="1000"
    panose-1="0 0 5 0 0 0 0 0 0 0"
    ascent="669"
    descent="-331"
    cap-height="667"
    bbox="0 -331 458 678"
    underline-thickness="50"
    underline-position="-150"
    unicode-range="U+0020-005A"
  />
<missing-glyph horiz-adv-x="500" 
d="M410 669v-1000h-317v1000h317zM333 602h-165v-33h65v-37h-66v-33h166v33h-66v37h66v33zM267 473h-100v-104h166v34h-66v70zM233 439v-36h-33v36h33zM333 342h-166v-33h66v-37h-66v-33h100v70h66v33zM333 282h-33v-66h-133v-34h166v100zM333 160h-100v-56h34v23h33v-47
h-100v80h-33v-113h166v113zM333 -13h-166v-113h166v113zM300 -46v-47h-100v47h100zM333 -149h-166v-33h70l-70 -47v-33h166v33h-102l70 47h32v33z" />
    <glyph glyph-name=".notdef" horiz-adv-x="500" 
d="M410 669v-1000h-317v1000h317zM333 602h-165v-33h65v-37h-66v-33h166v33h-66v37h66v33zM267 473h-100v-104h166v34h-66v70zM233 439v-36h-33v36h33zM333 342h-166v-33h66v-37h-66v-33h100v70h66v33zM333 282h-33v-66h-133v-34h166v100zM333 160h-100v-56h34v23h33v-47
h-100v80h-33v-113h166v113zM333 -13h-166v-113h166v113zM300 -46v-47h-100v47h100zM333 -149h-166v-33h70l-70 -47v-33h166v33h-102l70 47h32v33z" />
    <glyph glyph-name=".null" horiz-adv-x="0" 
 />
    <glyph glyph-name="nonmarkingreturn" horiz-adv-x="333" 
 />
    <glyph glyph-name="space" unicode=" " horiz-adv-x="125" 
 />
    <glyph glyph-name="period" unicode="." horiz-adv-x="135" 
d="M115 0v104h-95v-104h95z" />
    <glyph glyph-name="slash" unicode="/" horiz-adv-x="190" 
d="M13 0h33l138 667h-33z" />
    <glyph glyph-name="zero" unicode="0" horiz-adv-x="304" 
d="M146 678q72 0 105 -33t33 -88v-448q0 -55 -33 -88t-105 -33q-71 0 -103.5 34.5t-32.5 86.5v448q0 52 32 86.5t104 34.5zM164 119v438q0 24 -18 24q-19 0 -19 -24v-438q0 -23 19 -23q18 0 18 23z" />
    <glyph glyph-name="one" unicode="1" horiz-adv-x="185" 
d="M0 583v-99h49v-484h120v667h-111q0 -33 -7 -49.5t-16 -21.5t-35 -13z" />
    <glyph glyph-name="two" unicode="2" horiz-adv-x="276" 
d="M135 678q132 0 132 -120v-77q0 -45 -17 -86q-1 -3 -28.5 -63.5t-57 -128t-41.5 -99.5h144v-104h-261v104l130 299q17 36 17 67v88q0 23 -18 23t-18 -23v-123h-111v123q0 52 30.5 86t98.5 34z" />
    <glyph glyph-name="three" unicode="3" horiz-adv-x="284" 
d="M205 357q16 -6 23.5 -9.5t18.5 -12t16 -22t5 -33.5v-168q0 -19 -4 -35.5t-15.5 -39t-40 -36t-70.5 -13.5q-34 0 -60 10t-39 23.5t-21 32t-10 32t-2 26.5v164h108v-146q0 -24 3.5 -32.5t17.5 -8.5t17.5 8.5t3.5 32.5l-1 160q0 14 -7.5 21.5t-14.5 8.5h-7h-21v75h21h8t13 9
t8 27l1 105q0 25 -3.5 33t-17.5 8t-17.5 -8.5t-3.5 -32.5v-102h-108v121q0 18 4 35t16 39t41 35.5t71 13.5q126 0 126 -123v-113q0 -59 -59 -85z" />
    <glyph glyph-name="four" unicode="4" 
d="M261 201h20v-98h-20v-103h-108v103h-153v95l113 469h148v-466zM153 476l-58 -275h58v275z" />
    <glyph glyph-name="five" unicode="5" horiz-adv-x="279" 
d="M189 449q34 0 57.5 -25.5t23.5 -86.5v-228q0 -55 -31.5 -88t-100.5 -33q-68 0 -99 34.5t-31 86.5v162h112v-162q0 -23 18 -23t18 23v212q0 26 -18 26t-18 -25v-10h-112v355h252v-99h-141v-165q1 2 2 5t6.5 11t13 14t20.5 11t28 5z" />
    <glyph glyph-name="six" unicode="6" horiz-adv-x="297" 
d="M269 487h-109v70q0 14 -3 19t-14 5q-20 0 -20 -24v-136q16 27 73 27q34 0 59.5 -28t25.5 -83v-228q0 -121 -139 -121q-71 0 -103.5 34.5t-32.5 86.5v448q0 121 135 121q128 0 128 -121v-70zM123 327v-218q0 -23 19 -23t19 23v218q0 25 -19 25t-19 -25z" />
    <glyph glyph-name="seven" unicode="7" horiz-adv-x="277" 
d="M6 667h262v-89l-121 -578h-111l124 558h-154v109z" />
    <glyph glyph-name="eight" unicode="8" horiz-adv-x="276" 
d="M204 368q63 -22 63 -88v-168q0 -19 -3.5 -35.5t-15 -39t-40 -36t-70.5 -13.5h-1h-2h-1h-2q-126 0 -126 124v168q0 65 63 88q-56 25 -56 96q0 100 1 106q1 20 5 34.5t14.5 33.5t36 29.5t62.5 10.5h3h3q37 0 62.5 -10.5t37.5 -29t16.5 -34t5.5 -34.5v-106q0 -71 -56 -96z
M156 430v127q0 24 -17 24q-18 0 -18 -24v-127q0 -23 18 -23q17 0 17 23zM156 109v187q0 24 -18 24q-17 0 -17 -24v-187q0 -23 17 -23q18 0 18 23z" />
    <glyph glyph-name="nine" unicode="9" 
d="M141 678q70 0 101.5 -34.5t31.5 -86.5v-448q0 -121 -134 -121q-69 0 -98 34t-29 87v140h109v-140q0 -23 18 -23q20 0 20 23v190q-12 -18 -65 -18q-89 0 -89 108v168q0 121 135 121zM160 398v159q0 24 -19 24q-18 0 -18 -24v-158q0 -25 18 -25q19 0 19 24z" />
    <glyph glyph-name="A" unicode="A" horiz-adv-x="341" 
d="M209 0l-19 182h-56l-18 -182h-113l84 667h168l83 -667h-129zM144 279h36l-19 176z" />
    <glyph glyph-name="B" unicode="B" horiz-adv-x="297" 
d="M218 359q68 -23 68 -91v-156q0 -14 -5 -30.5t-17 -36t-38.5 -32.5t-62.5 -13h-152v667h154q12 0 26.5 -3t36 -12.5t36 -34t14.5 -59.5v-103q0 -72 -60 -96zM165 433v113q0 14 -8 21.5t-16 8.5h-8v-179h9t14 9t9 27zM165 130v162q0 14 -8 21.5t-16 8.5h-8v-228q4 0 9 0.5
t14 9.5t9 26z" />
    <glyph glyph-name="C" unicode="C" horiz-adv-x="295" 
d="M285 445h-117v113q0 23 -19 23t-19 -23v-439q0 -23 19 -23t19 23v144h117v-154q0 -52 -32.5 -86.5t-103.5 -34.5q-139 0 -139 121v449q0 120 139 120q71 0 103.5 -34t32.5 -86v-113z" />
    <glyph glyph-name="D" unicode="D" horiz-adv-x="291" 
d="M281 553v-439q0 -51 -29 -82.5t-94 -31.5h-147v667h147q64 0 93.5 -32t29.5 -82zM161 121v425q0 19 -7.5 25.5t-22.5 6.5v-489q15 0 22.5 6.5t7.5 25.5z" />
    <glyph glyph-name="E" unicode="E" horiz-adv-x="257" 
d="M241 577h-111v-172h99v-101h-99v-208h116v-96h-235v667h230v-90z" />
    <glyph glyph-name="F" unicode="F" horiz-adv-x="248" 
d="M241 574h-110v-173h94v-93h-94v-308h-120v667h230v-93z" />
    <glyph glyph-name="G" unicode="G" horiz-adv-x="294" 
d="M146 337h138v-225q0 -56 -35 -90t-102 -34q-71 0 -104 34.5t-33 89.5v446q0 120 138 120q71 0 103.5 -34t32.5 -86v-127h-117v127q0 23 -19 23t-19 -23v-446q0 -17 19 -17t19 17v120h-21v105z" />
    <glyph glyph-name="H" unicode="H" horiz-adv-x="296" 
d="M166 667h119v-667h-119v304h-38v-304h-117v667h117v-262h38v262z" />
    <glyph glyph-name="I" unicode="I" horiz-adv-x="142" 
d="M131 0v667h-120v-667h120z" />
    <glyph glyph-name="J" unicode="J" 
d="M161 667h119v-558q0 -55 -33 -88t-105 -33q-71 0 -103.5 34.5t-32.5 86.5v144h117v-144q0 -23 19 -23t19 23v558z" />
    <glyph glyph-name="K" unicode="K" horiz-adv-x="301" 
d="M298 0h-112l-55 262v-262h-120v667h120v-216l39 216h104l-70 -304z" />
    <glyph glyph-name="L" unicode="L" horiz-adv-x="224" 
d="M135 105h86v-105h-210v667h124v-562z" />
    <glyph glyph-name="M" unicode="M" horiz-adv-x="442" 
d="M11 0h96v449l74 -449h81l61 444v-444h108v667h-160l-48 -380l-54 380h-158v-667z" />
    <glyph glyph-name="N" unicode="N" horiz-adv-x="328" 
d="M11 0h96v361l80 -361h130v667h-113v-327l-58 327h-135v-667z" />
    <glyph glyph-name="O" unicode="O" horiz-adv-x="294" 
d="M146 678q138 0 138 -120v-449q0 -55 -33 -88t-105 -33q-71 0 -103.5 34.5t-32.5 86.5v449q0 52 32 86t104 34zM164 120v438q0 23 -18 23q-19 0 -19 -23v-438q0 -24 19 -24q18 0 18 24z" />
    <glyph glyph-name="P" unicode="P" horiz-adv-x="289" 
d="M160 667q36 0 62.5 -13t38.5 -32.5t17 -36t5 -30.5v-170q0 -65 -36 -101t-94 -36h-22v-248h-120v667h149zM163 375v162q0 17 -8 26t-16 9l-8 1v-227h9t14 7.5t9 21.5z" />
    <glyph glyph-name="Q" unicode="Q" horiz-adv-x="293" 
d="M284 109q0 -82 -66 -109v-8q0 -20 22 -20h44v-70h-49q-61 0 -61 65q0 11 4 23q-20 -2 -32 -2q-71 0 -103.5 34.5t-32.5 86.5v449q0 52 32 86t104 34q138 0 138 -120v-449zM165 119v439q0 23 -19 23t-19 -23v-439q0 -23 19 -23t19 23z" />
    <glyph glyph-name="R" unicode="R" horiz-adv-x="318" 
d="M287 129q0 -34 7.5 -65.5t15.5 -45.5l8 -15v-3h-125q-26 33 -26 97v180q0 47 -36 47v-324h-120v667h150q64 0 93 -32t29 -83v-77q0 -43 -14 -68t-52 -39q28 -6 44.5 -27t21 -40t4.5 -39v-133zM161 447v98q0 33 -30 33v-172q18 0 24 8t6 33z" />
    <glyph glyph-name="S" unicode="S" horiz-adv-x="291" 
d="M280 454h-114v103q0 31 -19 31q-20 0 -20 -31v-27q0 -20 2 -34t9 -28t11 -20t20 -25t23 -28q6 -8 25.5 -32t23.5 -30t16.5 -24t15.5 -26l9 -24t7.5 -30t1.5 -32v-86q0 -13 -2 -26.5t-11 -32t-23.5 -32t-42 -23t-64.5 -9.5q-45 0 -76 13.5t-44 35.5t-17.5 39t-4.5 35v142
h116v-123q0 -24 3.5 -32.5t18.5 -8.5t19 8t4 33v55q0 35 -14.5 58t-75.5 92q-34 39 -51 73.5t-18.5 48.5t-1.5 42v58q0 121 142 121q132 0 132 -121v-103z" />
    <glyph glyph-name="T" unicode="T" horiz-adv-x="297" 
d="M2 667h293v-107h-87v-560h-120v560h-86v107z" />
    <glyph glyph-name="U" unicode="U" horiz-adv-x="294" 
d="M165 667h119v-558q0 -121 -138 -121q-71 0 -103.5 34.5t-32.5 86.5v558h117v-548q0 -23 19 -23t19 23v548z" />
    <glyph glyph-name="V" unicode="V" horiz-adv-x="322" 
d="M219 667h103l-76 -667h-167l-79 667h119l52 -506z" />
    <glyph glyph-name="W" unicode="W" horiz-adv-x="458" 
d="M363 667h95l-59 -667h-127l-44 447l-38 -447h-130l-60 667h102l31 -457l39 457h125l39 -454z" />
    <glyph glyph-name="X" unicode="X" horiz-adv-x="332" 
d="M20 667h105l46 -213l48 213h101l-80 -318l92 -349h-111l-61 241l-55 -241h-105l89 352z" />
    <glyph glyph-name="Y" unicode="Y" horiz-adv-x="332" 
d="M235 667h95l-109 -390v-277h-120v290l-99 377h115l53 -239z" />
    <glyph glyph-name="Z" unicode="Z" horiz-adv-x="267" 
d="M16 667h236v-87l-124 -489h129v-91h-247v91l124 489h-118v87z" />
    </font>
</defs>
</svg>
