<?xml version="1.0" standalone="no"?>
<!DOCTYPE svg PUBLIC "-//W3C//DTD SVG 1.1//EN" "http://www.w3.org/Graphics/SVG/1.1/DTD/svg11.dtd" >
<svg xmlns="http://www.w3.org/2000/svg" xmlns:xlink="http://www.w3.org/1999/xlink" version="1.1">
<metadata>
Created by FontForge 20170731 at Sun Nov 27 14:42:04 2011
 By Aleksey,,,
(URW)++,Copyright 2004 by (URW)++ Design &#38; Development
</metadata>
<defs>
<font id="URWPermanentHeadlineW01-Reg" horiz-adv-x="500" >
  <font-face 
    font-family="URWPermanentHeadlineW01-Reg"
    font-weight="400"
    font-stretch="normal"
    units-per-em="1000"
    panose-1="4 0 5 0 0 0 0 0 0 0"
    ascent="831"
    descent="-169"
    x-height="538"
    cap-height="667"
    bbox="-38 -184 793 857"
    underline-thickness="76"
    underline-position="-189"
    unicode-range="U+000D-2122"
  />
<missing-glyph horiz-adv-x="0" 
 />
    <glyph glyph-name=".notdef" horiz-adv-x="0" 
 />
    <glyph glyph-name=".null" horiz-adv-x="0" 
 />
    <glyph glyph-name="uni000D" unicode="&#xd;" horiz-adv-x="0" 
 />
    <glyph glyph-name="space" unicode=" " horiz-adv-x="67" 
 />
    <glyph glyph-name="exclam" unicode="!" horiz-adv-x="166" 
d="M34 98h97v-98h-97v98zM20 669h126l-19 -510h-86z" />
    <glyph glyph-name="quotedbl" unicode="&#x22;" horiz-adv-x="394" 
d="M242 393l-17 274h82l-17 -274h-48zM103 393l-16 274h81l-16 -274h-49z" />
    <glyph glyph-name="numbersign" unicode="#" horiz-adv-x="566" 
d="M236 403l-19 -125h126l19 125h-126zM501 219h-108l-34 -219h-59l33 219h-125l-34 -219h-59l34 219h-109l1 59h117l19 125h-108l1 58h116l32 206h59l-32 -206h126l31 206h60l-32 -206h100l-2 -58h-107l-19 -125h100z" />
    <glyph glyph-name="dollar" unicode="$" horiz-adv-x="289" 
d="M130 280v-128q0 -11 4 -17.5t12 -6.5q17 0 17 29v91q0 12 -2 21t-7.5 17.5t-16 17.5t-28.5 23q-38 28 -52.5 52.5t-14.5 59.5v82q0 34 16 52t53 29v65h72v-65q37 -12 51 -30t14 -53v-97h-85v80q0 24 -2.5 31t-11.5 7q-19 0 -19 -27v-62q0 -23 3.5 -31.5t17.5 -20.5
q7 -6 12 -10t10.5 -9t13.5 -13t23 -21q12 -11 19.5 -19t11 -15.5t5 -15.5t1.5 -18v-132q0 -33 -15 -51.5t-49 -27.5v-67h-72v64q-37 9 -53 29.5t-16 59.5v127h88z" />
    <glyph glyph-name="percent" unicode="%" horiz-adv-x="588" 
d="M124 0h-53l392 658h52zM489 340q0 25 -18 25q-12 0 -16 -7.5t-4 -30.5v-220q0 -29 4.5 -39.5t16.5 -10.5q18 0 18 30zM373 330q0 52 20.5 72.5t74.5 20.5q26 0 39 -2.5t26 -10.5q20 -12 27.5 -26.5t7.5 -43.5v-238q0 -56 -23 -80.5t-76 -24.5q-54 0 -78 29
q-11 12 -14.5 28t-3.5 49v227zM98 341q0 -34 20 -34q11 0 14.5 7t3.5 27v241q0 33 -22 33q-16 0 -16 -26v-248zM20 580q0 52 21.5 72.5t77.5 20.5q98 0 98 -84v-248q0 -95 -99 -95q-63 0 -85 40q-8 14 -10.5 27t-2.5 45v222z" />
    <glyph glyph-name="ampersand" unicode="&#x26;" horiz-adv-x="322" 
d="M136 500q0 -14 20 -57q21 13 29.5 24.5t8.5 25.5v66q0 24 -7 34.5t-23 10.5q-13 0 -20.5 -8t-7.5 -22v-74zM128 291q-9 -10 -14 -19t-7 -14l1 -142q0 -13 5.5 -21t13.5 -8q15 0 29 27l27 55zM310 357v-138l-28 -46l28 -58v-115h-50l-33 71q-24 -46 -49.5 -64.5
t-66.5 -18.5q-48 0 -73.5 29t-25.5 84v156q0 15 2 26t8.5 22.5t17.5 24t29 30.5l9.5 9.5l9.5 9.5q-5 12 -10.5 23l-10.5 21q-9 18 -14.5 30.5t-8.5 22t-4.5 17.5t-1.5 16v82q0 26 9.5 41.5t34.5 29.5q14 8 31 11.5t44 3.5q71 0 103 -25t32 -80v-84q0 -22 -6 -37t-20 -32
l-49 -48l-18 -17l37 -76l35 79h39z" />
    <glyph glyph-name="quotesingle" unicode="'" horiz-adv-x="197" 
d="M74 393l-16 274h81l-16 -274h-49z" />
    <glyph glyph-name="parenleft" unicode="(" horiz-adv-x="171" 
d="M155 600q-17 -4 -21 -12t-4 -35v-452q0 -14 5.5 -19.5t19.5 -7.5v-79h-23q-51 0 -81.5 27t-30.5 72v475q0 53 26 79.5t76 26.5h3l30 -1v-74z" />
    <glyph glyph-name="parenright" unicode=")" horiz-adv-x="168" 
d="M16 73q16 4 20.5 12.5t4.5 39.5v443q0 16 -5 21.5t-20 7.5v76q9 1 16.5 1h16.5q29 0 52.5 -12.5t35.5 -35.5q4 -7 6 -13t3.5 -14.5t2 -20.5t0.5 -30v-433q0 -34 -3 -49.5t-10 -28.5q-11 -20 -34.5 -31.5t-51.5 -11.5h-5t-29 1v78z" />
    <glyph glyph-name="asterisk" unicode="*" horiz-adv-x="268" 
d="M78 547l-65 35l25 48l68 -37v75h55v-74l65 36l26 -48l-62 -37l65 -32l-25 -48l-69 36v-79h-55v79l-66 -41l-27 49z" />
    <glyph glyph-name="plus" unicode="+" 
d="M218 374v195h65v-195h208v-65h-208v-195h-65v195h-208v65h208z" />
    <glyph glyph-name="comma" unicode="," horiz-adv-x="144" 
d="M37 179h96l-35 -178h-94z" />
    <glyph glyph-name="hyphen" unicode="-" horiz-adv-x="232" 
d="M21 325h189v-87h-189v87z" />
    <glyph glyph-name="period" unicode="." horiz-adv-x="135" 
d="M116 100v-99h-97v99h97z" />
    <glyph glyph-name="slash" unicode="/" horiz-adv-x="220" 
d="M103 667l111 1l-101 -668h-106z" />
    <glyph glyph-name="zero" unicode="0" horiz-adv-x="289" 
d="M126 99q0 -25 18 -25q12 0 15.5 7t3.5 29v458q0 11 -6 18.5t-15 7.5q-16 0 -16 -26v-469zM270 88q0 -95 -126 -95q-68 0 -96 30t-28 104v429q0 15 0.5 25t2 18t3.5 14.5t6 13.5q14 26 39.5 36.5t71.5 10.5q35 0 59 -8.5t41 -25.5q8 -8 13 -17t8 -20t4.5 -25t1.5 -33v-457
z" />
    <glyph glyph-name="one" unicode="1" horiz-adv-x="289" 
d="M47 524q34 22 51 57t18 86h100v-667h-109v437h-60v87z" />
    <glyph glyph-name="two" unicode="2" horiz-adv-x="289" 
d="M13 87l146 359v122q0 27 -20 27q-16 0 -17 -24v-129h-109v135q0 23 7.5 43.5t21.5 32.5q13 11 38.5 17.5t59.5 6.5q49 0 83 -19q26 -15 36.5 -37t10.5 -65v-75q0 -24 -5.5 -46.5t-21.5 -59.5l-117 -284h145v-91h-258v87z" />
    <glyph glyph-name="three" unicode="3" horiz-adv-x="289" 
d="M118 259v-151q0 -15 5 -24.5t13 -9.5t15 7.5t7 17.5v172q0 26 -6 35t-23 9h-33v81h33q17 0 23 8.5t6 33.5v120q0 21 -4.5 29t-16.5 8q-19 0 -19 -26v-126h-104l-1 121q0 69 28 92q14 10 40 16t56 6q131 0 131 -111v-104q0 -25 -2.5 -41.5t-8.5 -28.5t-17 -20.5t-28 -16.5
q32 -19 44 -38t12 -48v-158q0 -66 -28 -93t-95 -27q-34 0 -54.5 3t-34.5 10q-20 10 -31 35.5t-11 57.5v161h104z" />
    <glyph glyph-name="four" unicode="4" horiz-adv-x="289" 
d="M153 158l5 225l8 233l-71 -458h58zM13 171l78 496h159v-509h21v-75h-21v-83h-99v83h-138v88z" />
    <glyph glyph-name="five" unicode="5" horiz-adv-x="289" 
d="M127 260v-150q0 -21 4.5 -28.5t15.5 -7.5q19 0 19 31v228q0 19 -4 26.5t-15 7.5t-15 -9t-4 -33h-106v343h254v-89h-148v-147q16 14 29.5 19t33.5 5q41 0 62.5 -24.5t21.5 -71.5v-248q0 -68 -29 -92q-16 -13 -44 -20.5t-59 -7.5q-65 0 -95.5 27.5t-30.5 86.5v154h110z" />
    <glyph glyph-name="six" unicode="6" horiz-adv-x="289" 
d="M169 275q0 35 -21 35t-21 -31v-173q0 -34 22 -34q20 0 20 36v167zM170 444l-1 123q0 15 -4 21t-14 6q-13 0 -17 -8t-4 -31v-191q13 17 27.5 23.5t37.5 6.5q39 0 60.5 -24t21.5 -69v-188q0 -66 -28.5 -93.5t-95.5 -27.5q-32 0 -52.5 3.5t-35.5 11.5q-22 12 -34 37t-12 59
v452q0 74 30 98q15 11 41 18t56 7q67 0 97.5 -26.5t30.5 -86.5v-121h-104z" />
    <glyph glyph-name="seven" unicode="7" horiz-adv-x="289" 
d="M20 667h256v-89l-97 -578h-103l97 582h-55v-137h-98v222z" />
    <glyph glyph-name="eight" unicode="8" horiz-adv-x="289" 
d="M124 113q0 -40 25 -40q18 0 18 35v164q0 38 -23 38q-20 0 -20 -34v-163zM167 568q0 28 -22 28q-9 0 -15 -7.5t-6 -18.5v-150q0 -33 22 -33q21 0 21 30v151zM15 239q0 27 7.5 51.5t20.5 37.5q11 10 36 18q-18 9 -30.5 19.5t-20 24t-10.5 31t-3 41.5v98q0 33 7 55.5
t22 36.5t39.5 20t59.5 6q70 0 102 -28.5t32 -90.5v-106q0 -22 -3 -38t-10.5 -28t-20 -22.5t-32.5 -21.5q19 -5 28.5 -10.5t17.5 -15.5q9 -13 14.5 -31.5t5.5 -37.5v-142q0 -60 -31 -86.5t-100 -26.5q-36 0 -61 7t-40.5 22t-22.5 39.5t-7 59.5v118z" />
    <glyph glyph-name="nine" unicode="9" horiz-adv-x="289" 
d="M162 568q0 12 -6.5 20t-17.5 8q-18 0 -18 -32v-147q0 -19 4.5 -26.5t15.5 -7.5q14 0 18 8.5t4 34.5v142zM121 258v-154q0 -13 5.5 -21t14.5 -8q21 0 21 34v223q-17 -18 -31.5 -24.5t-36.5 -6.5q-82 0 -82 116v154q0 24 9 47t23 37q20 20 88 20q40 0 66.5 -6.5t42.5 -21.5
t22.5 -41t6.5 -65v-440q0 -56 -32.5 -82t-103.5 -26q-52 0 -77 15q-20 11 -31 34.5t-11 53.5v162h106z" />
    <glyph glyph-name="colon" unicode=":" horiz-adv-x="136" 
d="M19 489h99v-95h-99v95zM19 97h99v-97h-99v97z" />
    <glyph glyph-name="semicolon" unicode=";" horiz-adv-x="153" 
d="M37 491h98l-1 -97h-97v97zM37 180h95l-33 -179l-95 1z" />
    <glyph glyph-name="less" unicode="&#x3c;" 
d="M490 510l-397 -172l397 -168v-71l-481 202v72l481 207v-70z" />
    <glyph glyph-name="equal" unicode="=" 
d="M490 300v-65h-481v65h481zM490 448v-65h-481v65h481z" />
    <glyph glyph-name="greater" unicode="&#x3e;" 
d="M9 170l397 172l-397 168v70l481 -202v-72l-481 -207v71z" />
    <glyph glyph-name="question" unicode="?" horiz-adv-x="278" 
d="M94 98h97v-97h-97v97zM91 157v61v37.5t1.5 22.5t5 16t9.5 18q1 2 5.5 12t10.5 22.5t12 27t11 25.5q11 23 14 34.5t3 23.5v110q0 13 -6 21t-15 8q-20 0 -20 -38v-116h-109v123q0 59 32 85.5t101 26.5q127 0 127 -119v-85q0 -17 -2.5 -32.5t-8 -32.5t-14.5 -37.5t-23 -46.5
q-19 -37 -26.5 -60.5t-7.5 -48.5v-57z" />
    <glyph glyph-name="at" unicode="@" horiz-adv-x="698" 
d="M339 203q0 -8 3.5 -14.5t8.5 -6.5q7 0 7 13v141q0 4 -2 4q-7 0 -12 -9.5t-5 -22.5v-105zM277 465q0 33 17.5 47t59.5 14q35 0 53.5 -14.5t18.5 -40.5v-278q0 -11 9 -17.5t23 -6.5q24 0 57 17.5t60 45.5q62 62 62 149q0 54 -20.5 100t-57 79.5t-87 52.5t-109.5 19
q-63 0 -117.5 -23t-94.5 -63.5t-63 -95.5t-23 -118t23 -117.5t63.5 -94.5t95.5 -63t119 -23q63 0 111.5 22.5t102.5 75.5h58q-31 -38 -51.5 -58.5t-45.5 -36.5q-74 -48 -179 -48q-77 0 -141.5 25.5t-112 71.5t-74 108.5t-26.5 136.5t26.5 137.5t74 110t112 73t139.5 26.5
q69 0 127.5 -21.5t101.5 -59.5t67 -90.5t24 -114.5q0 -150 -124 -226q-32 -20 -67.5 -31.5t-62.5 -11.5q-18 0 -32 5.5t-34 19.5q-11 -10 -18 -13t-18 -3q-26 0 -37 13.5t-11 43.5v140q0 18 3.5 24t21.5 18l15 10l37 24q5 3 5 8v9v49q0 9 -7 9q-12 0 -12 -27v-47h-62v59z
" />
    <glyph glyph-name="A" unicode="A" horiz-adv-x="306" 
d="M116 246h58l-32 332zM66 667h169l65 -667h-107l-16 167h-64l-16 -167h-90z" />
    <glyph glyph-name="B" unicode="B" horiz-adv-x="300" 
d="M152 378q12 0 15 5t3 25v160q0 24 -22 24h-20v-214h24zM141 74q17 0 23 4.5t6 16.5v182q0 17 -6 23t-22 6h-14v-232h13zM22 667h122q71 0 102 -22t31 -72v-149q0 -18 -2.5 -31t-8.5 -22.5t-17 -17t-28 -16.5q32 -9 44.5 -29t12.5 -63v-131q0 -22 -2 -37t-6.5 -25.5
t-13 -18.5t-20.5 -15q-33 -18 -84 -18h-130v667z" />
    <glyph glyph-name="C" unicode="C" horiz-adv-x="301" 
d="M172 441v116q0 20 -4 28.5t-15 8.5t-15.5 -7t-4.5 -26l1 -462q0 -25 17 -25q21 0 21 38v153h108v-151q0 -67 -29 -94t-102 -27q-69 0 -99 27t-30 88v435q0 37 6.5 62.5t22 41t40.5 22.5t62 7t56.5 -4.5t35.5 -15.5q21 -15 29.5 -35t8.5 -55v-125h-109z" />
    <glyph glyph-name="D" unicode="D" horiz-adv-x="292" 
d="M127 75h23q10 0 13 5.5t3 22.5v463q0 27 -19 27h-20v-518zM22 667h128q66 0 94 -21t28 -70v-468q0 -27 -2 -40.5t-7 -22.5q-12 -20 -39.5 -32.5t-62.5 -12.5h-139v667z" />
    <glyph glyph-name="E" unicode="E" horiz-adv-x="252" 
d="M22 667h208v-82h-96v-199h96v-83h-97v-221h97v-82h-208v667z" />
    <glyph glyph-name="F" unicode="F" horiz-adv-x="229" 
d="M22 667h193v-81h-83v-200h83v-80h-83v-306h-110v667z" />
    <glyph glyph-name="G" unicode="G" horiz-adv-x="298" 
d="M173 440v118q0 20 -5.5 28.5t-19.5 8.5q-19 0 -19 -35v-451q0 -21 5 -29t19 -8q11 0 15.5 7.5t4.5 26.5v140h-23v79h128v-325h-43l-12 39q-22 -27 -42.5 -37.5t-52.5 -10.5q-52 0 -80 28.5t-28 81.5v458q0 72 29 94q14 12 38.5 18.5t53.5 6.5q72 0 104.5 -26t32.5 -84
v-128h-105z" />
    <glyph glyph-name="H" unicode="H" horiz-adv-x="292" 
d="M22 667h105v-281h38v281h105v-667h-105v306h-38v-306h-105v667z" />
    <glyph glyph-name="I" unicode="I" horiz-adv-x="155" 
d="M22 667h111v-667h-111v667z" />
    <glyph glyph-name="J" unicode="J" horiz-adv-x="283" 
d="M116 264v-165q0 -29 18 -29q11 0 15 8t4 30v559h109v-573q0 -103 -127 -103q-63 0 -91.5 24.5t-28.5 78.5v170h101z" />
    <glyph glyph-name="K" unicode="K" horiz-adv-x="287" 
d="M22 667h104v-275l60 275h94l-64 -276l64 -391h-101l-53 335v-335h-104v667z" />
    <glyph glyph-name="L" unicode="L" horiz-adv-x="224" 
d="M22 667h113v-587h83v-80h-196v667z" />
    <glyph glyph-name="M" unicode="M" horiz-adv-x="450" 
d="M174 667l50 -381l53 381h151v-667h-97v387l1 122l-73 -509h-80l-75 500l3 -87v-413h-85v667h152z" />
    <glyph glyph-name="N" unicode="N" horiz-adv-x="314" 
d="M22 667h115l77 -428l-8 156v272h86v-667h-111l-81 449l10 -168v-281h-88v667z" />
    <glyph glyph-name="O" unicode="O" horiz-adv-x="291" 
d="M123 115q0 -40 23 -40q17 0 17 26v462q0 32 -21 32q-19 0 -19 -32v-448zM20 563q0 60 27 86t91 26q69 0 100.5 -29t31.5 -93v-442q0 -64 -28.5 -90.5t-97.5 -26.5q-39 0 -62.5 8.5t-38.5 27.5q-23 32 -23 67v466z" />
    <glyph glyph-name="P" unicode="P" horiz-adv-x="295" 
d="M131 326q0 -3 4.5 -5.5t9.5 -2.5q26 0 26 37v196q0 24 -5.5 33.5t-20.5 9.5q-14 0 -14 -6v-262zM22 667h109q22 0 37.5 -0.5t27 -2.5t21 -5.5t18.5 -8.5q26 -14 36.5 -38.5t10.5 -67.5v-184q0 -40 -10.5 -63.5t-33.5 -34.5q-38 -18 -88 -18h-18v-244h-110v667z" />
    <glyph glyph-name="Q" unicode="Q" horiz-adv-x="296" 
d="M163 565q0 27 -21 27q-10 0 -13.5 -6t-3.5 -21v-445q0 -23 4.5 -31.5t16.5 -8.5q17 0 17 24v461zM277 67v-67h-114q-20 0 -34 0.5t-25 2.5t-19.5 4.5t-16.5 7.5q-25 14 -36.5 38.5t-11.5 65.5v449q0 106 118 106q132 0 132 -119v-400q0 -26 -8 -43.5t-26 -31.5
q-5 -4 -8.5 -7t-7.5 -6h57z" />
    <glyph glyph-name="R" unicode="R" horiz-adv-x="299" 
d="M131 381q5 -1 9 -1h8q23 0 23 23v166q0 11 -8 18t-19 7q-8 0 -10.5 -4t-2.5 -15v-194zM127 667q27 0 43.5 -0.5t27.5 -2t19.5 -4.5t17.5 -8q22 -12 34 -35.5t12 -55.5v-115q0 -21 -4 -42t-10 -30q-5 -8 -14.5 -15t-29.5 -18q19 -6 30.5 -12.5t17.5 -16.5t8 -25t2 -39
v-198q0 -18 2.5 -27t13.5 -23h-113q-4 9 -6.5 16t-4 15.5t-2 19.5t-0.5 27v193q0 36 -21 36q-17 0 -17 -13v-294h-111v667h105z" />
    <glyph glyph-name="S" unicode="S" horiz-adv-x="262" 
d="M120 266v-165q0 -28 16 -28q11 0 15.5 8t4.5 30v116q0 14 -1.5 24t-5.5 17.5t-11.5 15t-20.5 17.5q-35 27 -55.5 45.5t-31.5 34t-14.5 31t-3.5 37.5v141q0 48 29 68t96 20q124 0 124 -97v-138h-105v99q0 29 -1 37t-6 12q-6 5 -13 5q-9 0 -12.5 -6.5t-3.5 -23.5v-97
q0 -20 4 -28.5t19 -22.5l88 -78q17 -17 23.5 -30t6.5 -33v-202q0 -19 -11.5 -39t-26.5 -28q-16 -8 -40.5 -12t-62.5 -4q-108 0 -108 91v183h108z" />
    <glyph glyph-name="T" unicode="T" horiz-adv-x="243" 
d="M5 667h233v-81h-62v-586h-108v586h-63v81z" />
    <glyph glyph-name="U" unicode="U" horiz-adv-x="290" 
d="M127 667v-565q0 -26 19 -26t19 29v562h105v-571q0 -57 -28.5 -80t-97.5 -23q-67 0 -95 25.5t-28 86.5v562h106z" />
    <glyph glyph-name="V" unicode="V" horiz-adv-x="274" 
d="M3 667h105l33 -535l36 535h94l-57 -667h-158z" />
    <glyph glyph-name="W" unicode="W" horiz-adv-x="473" 
d="M107 667l30 -326l8 -133l9 129l29 330h118l34 -347l7 -131l7 144l32 334h89l-78 -667h-114l-34 330l-8 100l-9 -101l-36 -329h-114l-74 667h104z" />
    <glyph glyph-name="X" unicode="X" horiz-adv-x="275" 
d="M70 360l-65 307h111l34 -188l35 188h87l-68 -303l63 -364h-107l-26 156l-11 86l-6 -79l-34 -163h-80z" />
    <glyph glyph-name="Y" unicode="Y" horiz-adv-x="300" 
d="M116 667l33 -241l4 -64l12 104l31 201h100l-92 -443v-224h-114l1 224l-86 443h111z" />
    <glyph glyph-name="Z" unicode="Z" horiz-adv-x="228" 
d="M10 83l99 500h-99v84h208v-80l-99 -504h99v-83h-208v83z" />
    <glyph glyph-name="bracketleft" unicode="[" horiz-adv-x="291" 
d="M272 601h-107v-704h107v-66h-185v836h185v-66z" />
    <glyph glyph-name="backslash" unicode="\" horiz-adv-x="220" 
d="M107 0l-100 668l111 -1l96 -667h-107z" />
    <glyph glyph-name="bracketright" unicode="]" horiz-adv-x="291" 
d="M204 -169h-185v66h107v704h-107v66h185v-836z" />
    <glyph glyph-name="asciicircum" unicode="^" 
d="M20 378l192 289h76l193 -289h-74l-157 231l-157 -231h-73z" />
    <glyph glyph-name="underscore" unicode="_" 
d="M500 -151h-500v76h500v-76z" />
    <glyph glyph-name="grave" unicode="`" horiz-adv-x="171" 
d="M155 576h-54l-84 92h100z" />
    <glyph glyph-name="a" unicode="a" horiz-adv-x="238" 
d="M99 95q0 -12 4.5 -21t11.5 -9q10 0 10 19v195q0 6 -3 6q-9 0 -16 -13.5t-7 -30.5v-146zM14 376v82q0 45 24 64.5t81 19.5q49 0 75 -19.5t26 -55.5v-467h-88l-4 18q-15 -14 -25 -18t-25 -4q-35 0 -50.5 19t-15.5 60v195q0 14 3.5 25.5t8.5 16.5q1 1 3.5 2.5t9 6t18.5 12
t33 21.5q14 9 21.5 14.5t11.5 8.5t4.5 4.5t0.5 4.5l-1 12v69q0 11 -10 11q-16 0 -16 -37v-65h-85z" />
    <glyph glyph-name="b" unicode="b" horiz-adv-x="253" 
d="M116 82q0 -20 13 -20q12 0 12 20v369q0 26 -13 26q-12 0 -12 -33v-362zM18 667h99v-145q18 21 52 21q32 0 50 -20.5t18 -57.5v-392q0 -36 -18 -57t-50 -21q-17 0 -28 6t-28 23v-24h-95v667z" />
    <glyph glyph-name="c" unicode="c" horiz-adv-x="243" 
d="M143 356v108q0 16 -12 16q-13 0 -13 -21v-370q0 -26 11 -26q9 0 11.5 5t2.5 25v127h91v-138q0 -87 -101 -87q-32 0 -54 5t-35.5 16.5t-19 30.5t-5.5 47v352q0 54 24.5 76t84.5 22q58 0 82 -20.5t24 -71.5v-96h-91z" />
    <glyph glyph-name="d" unicode="d" horiz-adv-x="254" 
d="M141 450q0 26 -14 26q-8 0 -10.5 -7.5t-2.5 -27.5v-349q0 -30 16 -30q11 0 11 19v369zM236 667v-667h-93v22q-19 -16 -31.5 -21.5t-26.5 -5.5q-30 0 -49.5 22t-19.5 56v395q0 34 18 54.5t49 20.5q17 0 29 -4.5t27 -17.5v146h97z" />
    <glyph glyph-name="e" unicode="e" horiz-adv-x="249" 
d="M141 462q0 19 -13 19t-13 -22v-109q0 -11 1.5 -13.5t6.5 -2.5h10q5 0 6.5 2.5t1.5 11.5v114zM115 264v-173q0 -12 4 -19.5t10 -7.5q7 0 9.5 6t2.5 23v129h92v-99q0 -50 -6 -71.5t-22 -34.5q-25 -21 -77 -21q-60 0 -86 21t-26 71v368q0 89 107 89q110 0 110 -78v-203h-118
z" />
    <glyph glyph-name="f" unicode="f" horiz-adv-x="145" 
d="M1 539h17v50q1 28 5 41t17 23q5 4 10 7t12 4.5t17 2t26 0.5h36v-69h-11q-15 0 -15 -20v-39h26v-75h-26v-464h-97v464h-17v75z" />
    <glyph glyph-name="g" unicode="g" horiz-adv-x="253" 
d="M113 188q0 -28 15 -28q5 0 7.5 5t2.5 19v273q0 24 -14 24q-11 0 -11 -19v-274zM138 538h97v-447q0 -27 -6.5 -47.5t-18.5 -30.5q-11 -8 -37 -13.5t-58 -5.5q-94 0 -94 65v4.5t1 6.5h91q1 -12 3.5 -16.5t9.5 -4.5q12 0 12 21v47q-14 -15 -24 -19.5t-29 -4.5
q-32 0 -50.5 20t-18.5 54v293q0 39 18 61t50 22q17 0 28.5 -5.5t25.5 -19.5v20z" />
    <glyph glyph-name="h" unicode="h" horiz-adv-x="255" 
d="M18 667h97v-151q17 15 30 21t28 6q64 0 64 -77v-466h-97v450q0 26 -12 26q-13 0 -13 -26v-450h-97v667z" />
    <glyph glyph-name="i" unicode="i" horiz-adv-x="134" 
d="M116 668v-90h-98v90h98zM116 538v-538h-98v538h98z" />
    <glyph glyph-name="j" unicode="j" horiz-adv-x="145" 
d="M31 667h6h90v-91h-96v91zM9 65h4q11 0 14.5 6t3.5 23v444h96v-457q0 -46 -17.5 -64.5t-60.5 -18.5q-8 0 -16.5 0.5t-23.5 1.5v65z" />
    <glyph glyph-name="k" unicode="k" horiz-adv-x="246" 
d="M18 667h97v-356l14 72l33 154h86l-48 -222l53 -315h-93l-45 270v-270h-97v667z" />
    <glyph glyph-name="l" unicode="l" horiz-adv-x="135" 
d="M18 667h99v-667h-99v667z" />
    <glyph glyph-name="m" unicode="m" horiz-adv-x="375" 
d="M18 538h91l6 -17q16 14 26.5 18.5t26.5 4.5q20 0 33.5 -7t27.5 -24q14 17 25.5 23.5t31.5 6.5q38 0 54.5 -20.5t16.5 -71.5v-451h-96v451q0 14 -2.5 19.5t-8.5 5.5q-15 0 -15 -25v-451h-97v451q0 15 -2.5 20.5t-7.5 5.5q-13 0 -13 -32v-445h-97v538z" />
    <glyph glyph-name="n" unicode="n" horiz-adv-x="254" 
d="M112 538v-22q14 14 29 20.5t35 6.5q32 0 46 -16.5t14 -57.5v-469h-97v451q0 24 -10 24q-6 0 -10 -6.5t-4 -17.5v-451h-97v538h94z" />
    <glyph glyph-name="o" unicode="o" horiz-adv-x="252" 
d="M140 460q0 23 -13 23q-15 0 -15 -28v-361q0 -20 3.5 -28t12.5 -8q12 0 12 25v377zM16 451q0 29 9 50.5t25 29.5q24 12 88 12q52 0 75 -23.5t23 -76.5v-354q0 -51 -27.5 -73t-88.5 -22q-104 0 -104 95v362z" />
    <glyph glyph-name="p" unicode="p" horiz-adv-x="253" 
d="M140 451q0 30 -14 30q-11 0 -11 -21v-323q0 -15 3.5 -21t11.5 -6q6 0 8 4.5t2 18.5v318zM18 538h97v-17q15 15 25.5 20.5t27.5 5.5q37 0 52.5 -20.5t15.5 -68.5v-318q0 -51 -16 -75t-49 -24q-16 0 -28 6t-28 21v-68h-97v538z" />
    <glyph glyph-name="q" unicode="q" horiz-adv-x="252" 
d="M137 458q0 22 -12 22t-12 -22v-320q0 -29 13 -29q6 0 8.5 5.5t2.5 19.5v324zM137 538h97v-538h-97v65q-17 -14 -29 -19t-27 -5q-31 0 -48 21.5t-17 62.5v335q0 85 66 85q16 0 28.5 -5t26.5 -17v15z" />
    <glyph glyph-name="r" unicode="r" horiz-adv-x="246" 
d="M18 538h97v-26q14 16 26 22t29 6q63 0 63 -78v-198h-92v184q0 28 -12 28q-6 0 -10 -6t-4 -14v-456h-97v538z" />
    <glyph glyph-name="s" unicode="s" horiz-adv-x="234" 
d="M106 219v-141q0 -7 4 -12t9 -5q11 0 11 17v103q0 12 -0.5 19.5t-4 13.5t-11 12.5t-20.5 18.5q-4 3 -17 15.5t-36 35.5q-29 29 -29 78v86q0 43 25 62.5t80 19.5q58 0 81 -21.5t24 -76.5v-88h-92v103q0 19 -11 19q-8 0 -10.5 -5t-2.5 -20v-65q0 -17 5.5 -28t20.5 -25
q31 -31 49 -50t27 -33.5t11.5 -28t2.5 -33.5v-112q0 -43 -24.5 -63t-77.5 -20q-58 0 -83 24.5t-25 81.5v118h94z" />
    <glyph glyph-name="t" unicode="t" horiz-adv-x="145" 
d="M1 537h17v83h97v-83h25v-73h-25v-373q0 -22 23 -22h2v-68q-17 -3 -27 -4t-20 -1q-35 0 -55 14t-20 39v415h-17v73z" />
    <glyph glyph-name="u" unicode="u" horiz-adv-x="252" 
d="M117 538v-439q0 -24 1.5 -29.5t8.5 -5.5q12 0 12 20v454h95v-538h-95v28q-10 -17 -22 -24t-32 -7q-67 0 -67 74v467h99z" />
    <glyph glyph-name="v" unicode="v" horiz-adv-x="237" 
d="M100 538l17 -290l5 -120l5 124l13 286h95l-55 -538h-120l-58 538h98z" />
    <glyph glyph-name="w" unicode="w" horiz-adv-x="393" 
d="M2 538h90l24 -377l20 377h127l25 -387l17 387h86l-45 -538h-120l-30 411l-33 -411h-119z" />
    <glyph glyph-name="x" unicode="x" horiz-adv-x="245" 
d="M52 302l-43 236h88l31 -172l27 172h81l-47 -236l52 -302h-91l-31 194l-33 -194h-82z" />
    <glyph glyph-name="y" unicode="y" horiz-adv-x="223" 
d="M93 538l22 -377l15 377h89l-31 -472q-3 -41 -26.5 -56.5t-82.5 -15.5q-19 0 -32 1t-33 5v75q19 -3 30.5 -4.5t24.5 -1.5q43 0 43 32q0 13 -12 13h-38q-20 0 -27.5 10t-9.5 36l-20 378h88z" />
    <glyph glyph-name="z" unicode="z" horiz-adv-x="191" 
d="M8 67l72 400h-72v71h173v-65l-70 -397h70v-76h-173v67z" />
    <glyph glyph-name="braceleft" unicode="{" horiz-adv-x="291" 
d="M172 367q0 -24 -3 -42t-10 -31.5t-18.5 -24t-29.5 -20.5q34 -20 47.5 -46t13.5 -74v-155q0 -44 5 -62.5t21 -26.5q11 -6 27.5 -8.5t42.5 -2.5v-58h-26q-77 0 -110 34t-33 113v163q0 45 -12.5 65.5t-44.5 28.5v58q32 8 44.5 28.5t12.5 65.5v173q0 73 34 105.5t111 32.5h10
t14 -1v-58q-27 0 -43.5 -2.5t-27.5 -9.5q-15 -8 -20 -25t-5 -60v-160z" />
    <glyph glyph-name="bar" unicode="|" 
d="M300 667v-834h-100v834h100z" />
    <glyph glyph-name="braceright" unicode="}" horiz-adv-x="291" 
d="M120 132q0 24 3 42t10 31.5t18.5 24t29.5 20.5q-35 19 -48 45t-13 74v155q0 44 -5.5 62.5t-20.5 26.5q-11 6 -27.5 8.5t-43.5 2.5v58q10 1 15 1h12q78 0 110.5 -34t32.5 -113v-163q0 -45 12.5 -65.5t43.5 -28.5v-58q-32 -8 -44 -28.5t-12 -65.5v-173q0 -73 -34 -105.5
t-111 -32.5h-25v58q28 1 44 3.5t27 8.5q8 4 13 10t8 15.5t4 24t1 36.5v160z" />
    <glyph glyph-name="asciitilde" unicode="~" 
d="M496 658q-35 -63 -66 -89.5t-69 -26.5q-9 0 -17.5 1.5t-21 5.5t-30.5 11.5t-45 19.5q-29 13 -46.5 20t-28 11t-17.5 5t-15 1q-26 0 -47.5 -19.5t-50.5 -70.5l-38 39q38 63 68 89t67 26q10 0 21 -2t25 -6.5t33 -12.5t47 -20q23 -10 38.5 -16.5t26 -10.5t17 -5.5t12.5 -1.5
q26 0 49 21t49 69z" />
    <glyph glyph-name="uni00A0" unicode="&#xa0;" horiz-adv-x="67" 
 />
    <glyph glyph-name="exclamdown" unicode="&#xa1;" horiz-adv-x="165" 
d="M34 668h100v-96h-100v96zM41 508h86l18 -505h-125z" />
    <glyph glyph-name="cent" unicode="&#xa2;" horiz-adv-x="289" 
d="M114 607h72v-65q38 -6 54.5 -27t16.5 -63v-96h-91v108q0 16 -12 16q-13 0 -13 -21v-370q0 -26 11 -26q9 0 11.5 5t2.5 25v127h91v-138q0 -38 -16.5 -57.5t-54.5 -27.5v-63h-72v64q-41 7 -56.5 28t-15.5 68v352q0 45 17 67.5t55 28.5v65z" />
    <glyph glyph-name="sterling" unicode="&#xa3;" horiz-adv-x="289" 
d="M-5 349h42q-10 18 -13 30t-3 36v147q0 116 130 116q127 0 127 -106v-83h-104v73q0 19 -5 26.5t-16 7.5q-12 0 -19.5 -6.5t-7.5 -17.5v-151v-10t1.5 -8.5t5 -12t9.5 -20.5l4 -10t4 -11h128v-54h-101q8 -27 10.5 -42t2.5 -28q0 -32 -14 -65.5t-44 -73.5h146v-86h-261v86
q42 27 61 57t19 65q0 18 -6 36.5t-22 50.5h-74v54z" />
    <glyph glyph-name="currency" unicode="&#xa4;" horiz-adv-x="667" 
d="M336 525q-34 0 -64 -12.5t-52 -34.5t-35 -52t-13 -64t13 -63.5t35 -52t51.5 -35.5t62.5 -13t62.5 13t51.5 35t34.5 52t12.5 64q0 33 -12.5 63t-34.5 52t-50.5 35t-61.5 13zM143 221q-25 34 -36 67.5t-11 73.5t11.5 72.5t37.5 68.5l-98 97l46 47l98 -98q36 26 69.5 38
t72.5 12q40 0 73 -11t69 -37l95 95l46 -46l-95 -95q27 -35 39 -68.5t12 -75.5q0 -39 -11 -71.5t-37 -67.5l96 -96l-46 -47l-96 96q-66 -51 -144 -51q-39 0 -72.5 12t-71.5 39l-96 -95l-46 46z" />
    <glyph glyph-name="yen" unicode="&#xa5;" horiz-adv-x="289" 
d="M305 390v-54h-83l-11 -53h94v-54h-105l-1 -5v-224h-113v224l-1 5h-101v54h91l-11 53h-79v54h69l-53 277h111l32 -241l6 -71l11 110l30 202h100l-58 -277h72z" />
    <glyph glyph-name="brokenbar" unicode="&#xa6;" 
d="M200 668h100v-296h-100v296zM200 193h100v-359h-100v359z" />
    <glyph glyph-name="section" unicode="&#xa7;" horiz-adv-x="315" 
d="M138 218q0 -13 1 -21t5 -15t11 -13t19 -15q1 5 1.5 10t0.5 13v102q0 13 -1 21t-5 15t-11 13t-19 15q-1 -4 -1.5 -9.5t-0.5 -13.5v-102zM33 352q0 15 6 26t22 25q-9 9 -14.5 16t-8.5 15t-4 17.5t-1 24.5v125q0 42 28 59.5t96 17.5q124 0 124 -85v-78h-105v43
q0 31 -3.5 39.5t-16.5 8.5q-9 0 -12.5 -5.5t-3.5 -21.5v-85q0 -16 2.5 -23t13.5 -17q1 -1 3 -2.5t7.5 -5.5t16.5 -13t31 -25q25 -20 38.5 -31t20 -19t7.5 -15.5t1 -19.5v-178q0 -15 -6.5 -26.5t-22.5 -24.5q18 -17 23.5 -31t5.5 -42v-125q0 -42 -28 -59.5t-96 -17.5
q-124 0 -124 85v78h105v-43v-2q-2 -25 2.5 -35.5t17.5 -10.5q9 0 12.5 5.5t3.5 21.5v85q0 16 -2.5 23t-13.5 17q-2 1 -3.5 2.5t-7 5.5t-16.5 13t-31 25q-25 19 -38.5 30.5t-20 19.5t-7.5 15.5t-1 19.5v178z" />
    <glyph glyph-name="dieresis" unicode="&#xa8;" horiz-adv-x="201" 
d="M184 576h-71v92h71v-92zM88 668v-92h-71v92h71z" />
    <glyph glyph-name="copyright" unicode="&#xa9;" horiz-adv-x="778" 
d="M392 394v70q0 22 -12 22q-11 0 -11 -20v-278q0 -14 10 -14q13 0 13 22v92h65v-91q0 -40 -17.5 -56t-61.5 -16q-41 0 -59 16t-18 53v261q0 45 17 62.5t62 17.5q42 0 60 -15.5t18 -50.5v-75h-66zM392 632q-63 0 -118 -23t-95.5 -63.5t-63.5 -95t-23 -117.5
q0 -62 23.5 -116.5t63.5 -95t94 -64t115 -23.5t115 23.5t94.5 64t63.5 95t23 116.5q0 61 -23 115.5t-63 95t-93 64.5t-113 24zM393 680q70 0 132.5 -27.5t109.5 -75t74 -110.5t27 -134q0 -72 -27 -135t-74.5 -110t-110.5 -74t-135 -27t-135 27t-110 74t-74.5 110t-27.5 135
q0 73 27.5 136t74.5 110t111 74t138 27z" />
    <glyph glyph-name="ordfeminine" unicode="&#xaa;" horiz-adv-x="398" 
d="M202 578q-5 0 -9.5 -8.5t-4.5 -19.5v-93q0 -8 3 -13.5t7 -5.5q6 0 6 12v125q0 3 -2 3zM133 637v52q0 29 15.5 41.5t51.5 12.5q65 0 65 -48v-299h-56l-3 11q-9 -8 -15 -10.5t-16 -2.5q-43 0 -43 50v125q0 9 2 16.5t6 10.5q1 1 7.5 5.5t33.5 21.5q16 11 19.5 14t3.5 6v1v7
v44q0 7 -6 7q-10 0 -10 -23v-42h-55zM353 280h-295v40h295v-40z" />
    <glyph glyph-name="guillemotleft" unicode="&#xab;" horiz-adv-x="509" 
d="M271 48l-65 -47l-166 212l166 220l65 -47l-130 -172zM456 48l-65 -47l-166 212l166 220l65 -47l-130 -172z" />
    <glyph glyph-name="logicalnot" unicode="&#xac;" 
d="M430 209h-421v59h481v-268h-60v209z" />
    <glyph glyph-name="uni00AD" unicode="&#xad;" horiz-adv-x="232" 
d="M21 325h189v-87h-189v87z" />
    <glyph glyph-name="registered" unicode="&#xae;" horiz-adv-x="778" 
d="M374 358q4 -1 10 -1q13 0 13 14v99q0 6 -4.5 10.5t-11.5 4.5t-7 -11v-116zM372 529q15 0 24.5 -0.5t16.5 -1t12 -2.5t10 -5q28 -16 28 -55v-69q0 -27 -6.5 -39t-28.5 -24q11 -4 18 -7.5t10.5 -9.5t5 -15t1.5 -24v-118q0 -11 1.5 -16t7.5 -14h-67q-5 11 -6.5 19.5
t-1.5 27.5v116q0 21 -12 21q-10 0 -10 -8v-176h-67v400h64zM392 632q-63 0 -118 -23t-95.5 -63.5t-63.5 -95t-23 -117.5q0 -62 23.5 -116.5t63.5 -95t94 -64t115 -23.5t115 23.5t94.5 64t63.5 95t23 116.5q0 61 -23 115.5t-63 95t-93 64.5t-113 24zM393 680
q70 0 132.5 -27.5t109.5 -75t74 -110.5t27 -134q0 -72 -27 -135t-74.5 -110t-110.5 -74t-135 -27t-135 27t-110 74t-74.5 110t-27.5 135q0 73 27.5 136t74.5 110t111 74t138 27z" />
    <glyph glyph-name="macron" unicode="&#xaf;" horiz-adv-x="222" 
d="M17 651h189v-57h-189v57z" />
    <glyph glyph-name="degree" unicode="&#xb0;" 
d="M251 632q-42 0 -70 -28t-28 -70q0 -20 7.5 -37.5t20.5 -31t31 -21t38 -7.5t37.5 7.5t30.5 21t20.5 31.5t7.5 38t-7.5 37.5t-20.5 31t-30.5 21t-36.5 7.5zM252 681q30 0 57 -11.5t47.5 -31.5t32 -46.5t11.5 -56.5t-12 -57t-32 -47t-47.5 -31.5t-58.5 -11.5t-58.5 11.5
t-47.5 31.5t-32 46.5t-12 56.5q0 31 12 57.5t32.5 46.5t48 31.5t59.5 11.5z" />
    <glyph glyph-name="plusminus" unicode="&#xb1;" 
d="M491 128v-65h-481v65h481zM218 417v195h65v-195h208v-65h-208v-183h-65v183h-208v65h208z" />
    <glyph glyph-name="uni00B2" unicode="&#xb2;" horiz-adv-x="174" 
d="M8 383l88 180v61q0 14 -12 14q-10 0 -10 -12v-65h-66v68q0 50 76 50q29 0 50 -9q16 -8 22 -19t6 -33v-38q0 -12 -3.5 -23t-12.5 -30l-70 -142h87v-45h-155v43z" />
    <glyph glyph-name="uni00B3" unicode="&#xb3;" horiz-adv-x="174" 
d="M71 470v-75q0 -18 11 -18q13 0 13 13v86q0 13 -3.5 17.5t-13.5 4.5h-20v41h19q11 0 14.5 4t3.5 16v60q0 11 -2.5 14.5t-9.5 3.5q-12 0 -12 -12v-63h-63v60q0 33 16 45t59 12q78 0 78 -55v-52q0 -25 -6.5 -35t-27.5 -18q20 -10 27 -19.5t7 -24.5v-79q0 -32 -16.5 -46
t-56.5 -14q-45 0 -62.5 11.5t-17.5 42.5v80h63z" />
    <glyph glyph-name="acute" unicode="&#xb4;" horiz-adv-x="178" 
d="M59 668h103l-89 -91h-56z" />
    <glyph glyph-name="uni00B5" unicode="&#xb5;" 
d="M45 483h78v-271q0 -22 1.5 -38t4.5 -29t8.5 -23.5t13.5 -20.5q37 -49 95 -49q28 0 52 12.5t41 34.5t26.5 53t9.5 68v263h78v-483h-78v80q-24 -51 -54 -72.5t-75 -21.5q-42 0 -70.5 17t-52.5 57v-228h-78v651z" />
    <glyph glyph-name="paragraph" unicode="&#xb6;" horiz-adv-x="565" 
d="M241 317h-14q-40 0 -73.5 12.5t-57.5 35.5t-37.5 55t-13.5 70q0 51 23 92t64 61q23 12 58 18.5t77 6.5h231v-41h-48v-723h-53v723h-102v-723h-54v413z" />
    <glyph glyph-name="periodcentered" unicode="&#xb7;" horiz-adv-x="67" 
d="M85 223h-103v100h103v-100z" />
    <glyph glyph-name="cedilla" unicode="&#xb8;" horiz-adv-x="140" 
d="M17 -20q29 2 29 29v34h77v-51q0 -24 -9.5 -34t-32.5 -10h-64v32z" />
    <glyph glyph-name="uni00B9" unicode="&#xb9;" horiz-adv-x="174" 
d="M28 602q41 23 41 71h60v-333h-65v219h-36v43z" />
    <glyph glyph-name="ordmasculine" unicode="&#xba;" horiz-adv-x="410" 
d="M224 676q0 15 -8 15q-9 0 -9 -18v-230q0 -23 10 -23q7 0 7 16v240zM145 671q0 35 16 47t62 12q33 0 47.5 -15t14.5 -49v-227q0 -32 -17.5 -46t-55.5 -14q-67 0 -67 60v232zM356 280h-295v40h295v-40z" />
    <glyph glyph-name="guillemotright" unicode="&#xbb;" horiz-adv-x="509" 
d="M238 386l65 47l166 -220l-167 -212l-64 47l129 166zM53 386l65 47l166 -220l-166 -212l-65 47l129 166z" />
    <glyph glyph-name="onequarter" unicode="&#xbc;" horiz-adv-x="460" 
d="M357 78l3 113l5 117l-43 -230h35zM273 85l47 249h95v-256h12v-37h-12v-41h-59v41h-83v44zM55 0h-53l392 658h53zM28 602q41 23 41 71h60v-333h-65v219h-36v43z" />
    <glyph glyph-name="onehalf" unicode="&#xbd;" horiz-adv-x="460" 
d="M302 43l89 180v61q0 13 -13 13q-10 0 -10 -11v-65h-66v68q0 49 77 49q29 0 50 -9q16 -8 22 -19t6 -32v-38q0 -12 -3.5 -23.5t-12.5 -29.5l-71 -142h88v-45h-156v43zM55 0h-53l392 658h53zM28 602q41 23 41 71h60v-333h-65v219h-36v43z" />
    <glyph glyph-name="threequarters" unicode="&#xbe;" horiz-adv-x="460" 
d="M71 470v-75q0 -18 11 -18q12 0 12 13v86q0 14 -3 18t-13 4h-21v41h20q11 0 14.5 4.5t3.5 15.5v60q0 18 -13 18q-11 0 -11 -12v-63h-63v60q0 33 15.5 45t58.5 12q78 0 78 -55v-52q0 -25 -6.5 -35t-26.5 -18q19 -10 26 -19.5t7 -24.5v-79q0 -33 -16.5 -46.5t-56.5 -13.5
q-21 0 -33.5 1.5t-20.5 5.5q-11 5 -18 17.5t-7 29.5v80h63zM357 78l3 113l5 117l-43 -230h35zM273 85l47 249h95v-256h12v-37h-12v-41h-59v41h-83v44zM55 0h-53l392 658h53z" />
    <glyph glyph-name="questiondown" unicode="&#xbf;" horiz-adv-x="277" 
d="M83 669h98v-97h-98v97zM181 511v-54q0 -29 -1 -46t-6 -36t-16 -46t-32 -74q-9 -20 -9 -36v-108q0 -23 3 -29.5t14 -6.5t16 8.5t5 30.5v113h109v-118q0 -73 -49 -100q-14 -8 -36 -11.5t-57 -3.5q-57 0 -87 28.5t-30 83.5v99q0 11 1 19t7 24.5t18.5 46t35.5 83.5
q16 35 16 61v72h98z" />
    <glyph glyph-name="Agrave" unicode="&#xc0;" horiz-adv-x="306" 
d="M222 733h-53l-85 92h100zM116 246h58l-32 332zM66 667h169l65 -667h-107l-16 167h-64l-16 -167h-90z" />
    <glyph glyph-name="Aacute" unicode="&#xc1;" horiz-adv-x="306" 
d="M122 825h104l-90 -92h-55zM116 246h58l-32 332zM66 667h169l65 -667h-107l-16 167h-64l-16 -167h-90z" />
    <glyph glyph-name="Acircumflex" unicode="&#xc2;" horiz-adv-x="306" 
d="M104 824h98l46 -91h-55l-39 38l-39 -38h-57zM116 246h58l-32 332zM66 667h169l65 -667h-107l-16 167h-64l-16 -167h-90z" />
    <glyph glyph-name="Atilde" unicode="&#xc3;" horiz-adv-x="306" 
d="M245 743q-14 -6 -22.5 -8t-22.5 -2q-7 0 -12.5 0.5t-12.5 1.5t-17 3.5t-27 6.5q-5 1 -9 1.5t-8 0.5q-8 0 -17.5 -2t-34.5 -10v63q12 6 21 8.5t22 2.5q22 0 49 -8q15 -5 26.5 -7.5t16.5 -2.5q8 0 17 3t31 12v-63zM116 246h58l-32 332zM66 667h169l65 -667h-107l-16 167
h-64l-16 -167h-90z" />
    <glyph glyph-name="Adieresis" unicode="&#xc4;" horiz-adv-x="306" 
d="M237 733h-71v92h71v-92zM141 825v-92h-71v92h71zM116 246h58l-32 332zM66 667h169l65 -667h-107l-16 167h-64l-16 -167h-90z" />
    <glyph glyph-name="Aring" unicode="&#xc5;" horiz-adv-x="306" 
d="M154 823q-17 0 -28 -8t-11 -20q0 -11 11 -19.5t28 -8.5q16 0 27 8.5t11 19.5q0 12 -11 20t-27 8zM153 857q36 0 60.5 -18t24.5 -44t-24.5 -44t-59.5 -18q-36 0 -60.5 18.5t-24.5 44.5q0 25 24.5 43t59.5 18zM116 246h58l-32 332zM66 667h169l65 -667h-107l-16 167h-64
l-16 -167h-90z" />
    <glyph glyph-name="AE" unicode="&#xc6;" horiz-adv-x="422" 
d="M408 667v-82h-96v-199h96v-83h-97v-221h97v-82h-208v167h-75l-30 -167h-90l118 667h285zM135 246h65v338h-9z" />
    <glyph glyph-name="Ccedilla" unicode="&#xc7;" horiz-adv-x="301" 
d="M172 441v116q0 20 -4 28.5t-15 8.5t-15.5 -7t-4.5 -26l1 -462q0 -25 17 -25q21 0 21 38v153h108v-151q0 -58 -20 -84.5t-69 -34.5v-25q0 -24 -10 -34t-33 -10h-64v33q29 0 29 29v8q-49 5 -71 31.5t-22 80.5v435q0 37 6.5 62.5t22 41t40.5 22.5t62 7t56.5 -4.5t35.5 -15.5
q21 -15 29.5 -35t8.5 -55v-125h-109z" />
    <glyph glyph-name="Egrave" unicode="&#xc8;" horiz-adv-x="244" 
d="M195 733h-54l-84 92h100zM22 667h208v-82h-96v-199h96v-83h-97v-221h97v-82h-208v667z" />
    <glyph glyph-name="Eacute" unicode="&#xc9;" horiz-adv-x="244" 
d="M95 825h104l-90 -92h-55zM22 667h208v-82h-96v-199h96v-83h-97v-221h97v-82h-208v667z" />
    <glyph glyph-name="Ecircumflex" unicode="&#xca;" horiz-adv-x="244" 
d="M77 824h98l46 -91h-55l-39 38l-39 -38h-57zM22 667h208v-82h-96v-199h96v-83h-97v-221h97v-82h-208v667z" />
    <glyph glyph-name="Edieresis" unicode="&#xcb;" horiz-adv-x="244" 
d="M210 733h-71v92h71v-92zM114 825v-92h-71v92h71zM22 667h208v-82h-96v-199h96v-83h-97v-221h97v-82h-208v667z" />
    <glyph glyph-name="Igrave" unicode="&#xcc;" horiz-adv-x="155" 
d="M146 733h-54l-84 92h100zM22 667h111v-667h-111v667z" />
    <glyph glyph-name="Iacute" unicode="&#xcd;" horiz-adv-x="155" 
d="M47 825h103l-89 -92h-56zM22 667h111v-667h-111v667z" />
    <glyph glyph-name="Icircumflex" unicode="&#xce;" horiz-adv-x="155" 
d="M27 824h99l46 -91h-56l-38 38l-39 -38h-57zM22 667h111v-667h-111v667z" />
    <glyph glyph-name="Idieresis" unicode="&#xcf;" horiz-adv-x="155" 
d="M161 733h-71v92h71v-92zM65 825v-92h-71v92h71zM22 667h111v-667h-111v667z" />
    <glyph glyph-name="Eth" unicode="&#xd0;" horiz-adv-x="292" 
d="M127 75h24q9 0 12 5.5t3 22.5v463q0 27 -19 27h-20v-207h20v-84h-20v-227zM0 302v84h22v281h129q65 0 93 -21t28 -70v-468q0 -27 -2 -40.5t-7 -22.5q-12 -20 -39.5 -32.5t-62.5 -12.5h-139v302h-22z" />
    <glyph glyph-name="Ntilde" unicode="&#xd1;" horiz-adv-x="314" 
d="M249 743q-14 -6 -22.5 -8t-22.5 -2q-7 0 -12.5 0.5t-12.5 1.5t-17 3.5t-27 6.5q-5 1 -9 1.5t-8 0.5q-8 0 -17.5 -2t-34.5 -10v63q12 6 21 8.5t22 2.5q22 0 49 -8q15 -5 26.5 -7.5t16.5 -2.5q8 0 17 3t31 12v-63zM22 667h115l77 -428l-8 156v272h86v-667h-111l-81 449
l10 -168v-281h-88v667z" />
    <glyph glyph-name="Ograve" unicode="&#xd2;" horiz-adv-x="291" 
d="M214 741h-54l-84 92h100zM123 115q0 -40 23 -40q17 0 17 26v462q0 32 -21 32q-19 0 -19 -32v-448zM20 563q0 60 27 86t91 26q69 0 100.5 -29t31.5 -93v-442q0 -64 -28.5 -90.5t-97.5 -26.5q-39 0 -62.5 8.5t-38.5 27.5q-23 32 -23 67v466z" />
    <glyph glyph-name="Oacute" unicode="&#xd3;" horiz-adv-x="291" 
d="M114 833h103l-89 -92h-56zM123 115q0 -40 23 -40q17 0 17 26v462q0 32 -21 32q-19 0 -19 -32v-448zM20 563q0 60 27 86t91 26q69 0 100.5 -29t31.5 -93v-442q0 -64 -28.5 -90.5t-97.5 -26.5q-39 0 -62.5 8.5t-38.5 27.5q-23 32 -23 67v466z" />
    <glyph glyph-name="Ocircumflex" unicode="&#xd4;" horiz-adv-x="291" 
d="M95 832h99l46 -91h-56l-38 38l-39 -38h-57zM123 115q0 -40 23 -40q17 0 17 26v462q0 32 -21 32q-19 0 -19 -32v-448zM20 563q0 60 27 86t91 26q69 0 100.5 -29t31.5 -93v-442q0 -64 -28.5 -90.5t-97.5 -26.5q-39 0 -62.5 8.5t-38.5 27.5q-23 32 -23 67v466z" />
    <glyph glyph-name="Otilde" unicode="&#xd5;" horiz-adv-x="291" 
d="M237 751q-14 -6 -22.5 -8t-22.5 -2q-7 0 -12.5 0.5t-12.5 1.5t-17 3.5t-27 6.5q-5 1 -9 1.5t-8 0.5q-8 0 -17.5 -2t-34.5 -10v62q12 7 21 9.5t22 2.5q22 0 49 -8q15 -5 26.5 -7.5t16.5 -2.5q8 0 17 3t31 12v-63zM123 115q0 -40 23 -40q17 0 17 26v462q0 32 -21 32
q-19 0 -19 -32v-448zM20 563q0 60 27 86t91 26q69 0 100.5 -29t31.5 -93v-442q0 -64 -28.5 -90.5t-97.5 -26.5q-39 0 -62.5 8.5t-38.5 27.5q-23 32 -23 67v466z" />
    <glyph glyph-name="Odieresis" unicode="&#xd6;" horiz-adv-x="291" 
d="M229 741h-71v92h71v-92zM132 833v-92h-71v92h71zM123 115q0 -40 23 -40q17 0 17 26v462q0 32 -21 32q-19 0 -19 -32v-448zM20 563q0 60 27 86t91 26q69 0 100.5 -29t31.5 -93v-442q0 -64 -28.5 -90.5t-97.5 -26.5q-39 0 -62.5 8.5t-38.5 27.5q-23 32 -23 67v466z" />
    <glyph glyph-name="multiply" unicode="&#xd7;" 
d="M249 396l157 157l51 -51l-157 -157l156 -155l-50 -50l-156 156l-156 -157l-51 51l157 156l-156 156l50 50z" />
    <glyph glyph-name="Oslash" unicode="&#xd8;" horiz-adv-x="291" 
d="M123 195v-80q0 -40 22 -40q18 0 18 26v248zM52 -6h-31l15 47q-9 14 -12.5 26.5t-3.5 29.5v466q0 60 27 86t90 26q57 0 95 -23l7 23h32l-15 -51q8 -16 11 -32t3 -39v-442q0 -63 -28 -90t-94 -27q-30 0 -51 4.5t-39 15.5zM163 563q0 32 -21 32q-19 0 -19 -32v-267l40 155
v112z" />
    <glyph glyph-name="Ugrave" unicode="&#xd9;" horiz-adv-x="290" 
d="M214 733h-53l-84 92h99zM127 667v-565q0 -26 19 -26t19 29v562h105v-571q0 -57 -28.5 -80t-97.5 -23q-67 0 -95 25.5t-28 86.5v562h106z" />
    <glyph glyph-name="Uacute" unicode="&#xda;" horiz-adv-x="290" 
d="M115 825h103l-89 -92h-56zM127 667v-565q0 -26 19 -26t19 29v562h105v-571q0 -57 -28.5 -80t-97.5 -23q-67 0 -95 25.5t-28 86.5v562h106z" />
    <glyph glyph-name="Ucircumflex" unicode="&#xdb;" horiz-adv-x="290" 
d="M96 824h99l46 -91h-56l-39 38l-39 -38h-57zM127 667v-565q0 -26 19 -26t19 29v562h105v-571q0 -57 -28.5 -80t-97.5 -23q-67 0 -95 25.5t-28 86.5v562h106z" />
    <glyph glyph-name="Udieresis" unicode="&#xdc;" horiz-adv-x="290" 
d="M229 733h-71v92h71v-92zM133 825v-92h-71v92h71zM127 667v-565q0 -26 19 -26t19 29v562h105v-571q0 -57 -28.5 -80t-97.5 -23q-67 0 -95 25.5t-28 86.5v562h106z" />
    <glyph glyph-name="Yacute" unicode="&#xdd;" horiz-adv-x="300" 
d="M119 825h104l-90 -92h-55zM116 667l33 -241l4 -64l12 104l31 201h100l-92 -443v-224h-114l1 224l-86 443h111z" />
    <glyph glyph-name="Thorn" unicode="&#xde;" horiz-adv-x="295" 
d="M133 246q5 -4 13 -4q25 0 25 37v196q0 42 -22 42q-4 0 -7 -0.5t-9 -2.5v-268zM133 591q37 0 56 -2.5t34 -8.5q32 -14 45.5 -39.5t13.5 -73.5v-184q0 -76 -44 -97q-37 -19 -87 -19h-18v-167h-111v667h111v-76z" />
    <glyph glyph-name="germandbls" unicode="&#xdf;" horiz-adv-x="259" 
d="M20 607q0 38 23.5 53t80.5 15q63 0 89.5 -20.5t25.5 -68.5v-91q-1 -16 -3 -26.5t-7 -18t-13 -13.5t-20 -12q27 -7 35 -19t8 -46v-298q0 -30 -22 -46.5t-63 -15.5h-22v71q8 5 10.5 10.5t2.5 22.5v256v17.5t-1 7.5q0 1 -10 8l-2 1v69q9 2 11 7t2 28v91q0 26 -14 26
q-12 0 -12 -18v-597h-99v607z" />
    <glyph glyph-name="agrave" unicode="&#xe0;" horiz-adv-x="238" 
d="M185 609h-54l-84 92h100zM99 95q0 -12 4.5 -21t11.5 -9q10 0 10 19v195q0 6 -3 6q-9 0 -16 -13.5t-7 -30.5v-146zM14 376v82q0 45 24 64.5t81 19.5q49 0 75 -19.5t26 -55.5v-467h-88l-4 18q-15 -14 -25 -18t-25 -4q-35 0 -50.5 19t-15.5 60v195q0 14 3.5 25.5t8.5 16.5
q1 1 3.5 2.5t9 6t18.5 12t33 21.5q14 9 21.5 14.5t11.5 8.5t4.5 4.5t0.5 4.5l-1 12v69q0 11 -10 11q-16 0 -16 -37v-65h-85z" />
    <glyph glyph-name="aacute" unicode="&#xe1;" horiz-adv-x="238" 
d="M85 700h104l-90 -91h-55zM99 95q0 -12 4.5 -21t11.5 -9q10 0 10 19v195q0 6 -3 6q-9 0 -16 -13.5t-7 -30.5v-146zM14 376v82q0 45 24 64.5t81 19.5q49 0 75 -19.5t26 -55.5v-467h-88l-4 18q-15 -14 -25 -18t-25 -4q-35 0 -50.5 19t-15.5 60v195q0 14 3.5 25.5t8.5 16.5
q1 1 3.5 2.5t9 6t18.5 12t33 21.5q14 9 21.5 14.5t11.5 8.5t4.5 4.5t0.5 4.5l-1 12v69q0 11 -10 11q-16 0 -16 -37v-65h-85z" />
    <glyph glyph-name="acircumflex" unicode="&#xe2;" horiz-adv-x="238" 
d="M67 700h98l46 -91h-55l-39 38l-39 -38h-57zM99 95q0 -12 4.5 -21t11.5 -9q10 0 10 19v195q0 6 -3 6q-9 0 -16 -13.5t-7 -30.5v-146zM14 376v82q0 45 24 64.5t81 19.5q49 0 75 -19.5t26 -55.5v-467h-88l-4 18q-15 -14 -25 -18t-25 -4q-35 0 -50.5 19t-15.5 60v195
q0 14 3.5 25.5t8.5 16.5q1 1 3.5 2.5t9 6t18.5 12t33 21.5q14 9 21.5 14.5t11.5 8.5t4.5 4.5t0.5 4.5l-1 12v69q0 11 -10 11q-16 0 -16 -37v-65h-85z" />
    <glyph glyph-name="atilde" unicode="&#xe3;" horiz-adv-x="238" 
d="M208 619q-14 -6 -22.5 -8t-22.5 -2q-7 0 -12.5 0.5t-12.5 1.5t-17 3.5t-27 6.5q-5 1 -9 1.5t-8 0.5q-8 0 -17.5 -2.5t-34.5 -9.5v63q12 6 21 8.5t22 2.5q22 0 49 -8q15 -5 26.5 -7.5t16.5 -2.5q8 0 17 3t31 12v-63zM99 95q0 -12 4.5 -21t11.5 -9q10 0 10 19v195q0 6 -3 6
q-9 0 -16 -13.5t-7 -30.5v-146zM14 376v82q0 45 24 64.5t81 19.5q49 0 75 -19.5t26 -55.5v-467h-88l-4 18q-15 -14 -25 -18t-25 -4q-35 0 -50.5 19t-15.5 60v195q0 14 3.5 25.5t8.5 16.5q1 1 3.5 2.5t9 6t18.5 12t33 21.5q14 9 21.5 14.5t11.5 8.5t4.5 4.5t0.5 4.5l-1 12v69
q0 11 -10 11q-16 0 -16 -37v-65h-85z" />
    <glyph glyph-name="adieresis" unicode="&#xe4;" horiz-adv-x="238" 
d="M200 609h-71v92h71v-92zM104 701v-92h-71v92h71zM99 95q0 -12 4.5 -21t11.5 -9q10 0 10 19v195q0 6 -3 6q-9 0 -16 -13.5t-7 -30.5v-146zM14 376v82q0 45 24 64.5t81 19.5q49 0 75 -19.5t26 -55.5v-467h-88l-4 18q-15 -14 -25 -18t-25 -4q-35 0 -50.5 19t-15.5 60v195
q0 14 3.5 25.5t8.5 16.5q1 1 3.5 2.5t9 6t18.5 12t33 21.5q14 9 21.5 14.5t11.5 8.5t4.5 4.5t0.5 4.5l-1 12v69q0 11 -10 11q-16 0 -16 -37v-65h-85z" />
    <glyph glyph-name="aring" unicode="&#xe5;" horiz-adv-x="238" 
d="M125 698q-17 0 -28 -8t-11 -19q0 -12 11 -20t28 -8q16 0 27 8t11 20q0 11 -11 19t-27 8zM124 732q35 0 60 -17.5t25 -43.5t-24.5 -44t-59.5 -18q-36 0 -60.5 18t-24.5 44q0 25 24.5 43t59.5 18zM99 95q0 -12 4.5 -21t11.5 -9q10 0 10 19v195q0 6 -3 6q-9 0 -16 -13.5
t-7 -30.5v-146zM14 376v82q0 45 24 64.5t81 19.5q49 0 75 -19.5t26 -55.5v-467h-88l-4 18q-15 -14 -25 -18t-25 -4q-35 0 -50.5 19t-15.5 60v195q0 14 3.5 25.5t8.5 16.5q1 1 3.5 2.5t9 6t18.5 12t33 21.5q14 9 21.5 14.5t11.5 8.5t4.5 4.5t0.5 4.5l-1 12v69q0 11 -10 11
q-16 0 -16 -37v-65h-85z" />
    <glyph glyph-name="ae" unicode="&#xe6;" horiz-adv-x="357" 
d="M249 462q0 19 -13 19t-13 -22v-109q0 -11 1.5 -14t6.5 -3h10q5 0 6.5 2.5t1.5 12.5v114zM99 95q0 -12 5 -21t11 -9q11 0 11 19v195q0 6 -3 6q-9 0 -16.5 -13.5t-7.5 -30.5v-146zM341 123q0 -50 -6 -71.5t-22 -34.5q-25 -21 -78 -21q-70 0 -96 32q-18 -19 -30.5 -25.5
t-30.5 -6.5q-35 0 -50.5 19t-15.5 61v194q0 12 2.5 23t7.5 17q1 1 6 4.5t15.5 11t28.5 19t47 29.5q8 6 8 12l-1 12v69q0 11 -11 11q-16 0 -16 -37v-65h-85v82q0 45 24.5 64.5t81.5 19.5q15 0 25 -1t24 -5q14 5 27 7t33 2q112 0 112 -78v-203h-118v-173q0 -12 4 -19.5
t10 -7.5q7 0 9.5 6t2.5 23v129h92v-99z" />
    <glyph glyph-name="ccedilla" unicode="&#xe7;" horiz-adv-x="243" 
d="M143 356v108q0 16 -12 16q-13 0 -13 -21v-370q0 -26 11 -26q9 0 11.5 5t2.5 25v127h91v-138q0 -68 -65 -84v-26q0 -24 -10 -34t-33 -10h-64v33q29 0 29 29v8q-41 7 -56.5 27.5t-15.5 68.5v352q0 54 24.5 76t84.5 22q58 0 82 -20.5t24 -71.5v-96h-91z" />
    <glyph glyph-name="egrave" unicode="&#xe8;" horiz-adv-x="249" 
d="M193 612h-53l-84 92h99zM141 462q0 19 -13 19t-13 -22v-109q0 -11 1.5 -13.5t6.5 -2.5h10q5 0 6.5 2.5t1.5 11.5v114zM115 264v-173q0 -12 4 -19.5t10 -7.5q7 0 9.5 6t2.5 23v129h92v-99q0 -50 -6 -71.5t-22 -34.5q-25 -21 -77 -21q-60 0 -86 21t-26 71v368q0 89 107 89
q110 0 110 -78v-203h-118z" />
    <glyph glyph-name="eacute" unicode="&#xe9;" horiz-adv-x="249" 
d="M94 703h103l-89 -91h-56zM141 462q0 19 -13 19t-13 -22v-109q0 -11 1.5 -13.5t6.5 -2.5h10q5 0 6.5 2.5t1.5 11.5v114zM115 264v-173q0 -12 4 -19.5t10 -7.5q7 0 9.5 6t2.5 23v129h92v-99q0 -50 -6 -71.5t-22 -34.5q-25 -21 -77 -21q-60 0 -86 21t-26 71v368q0 89 107 89
q110 0 110 -78v-203h-118z" />
    <glyph glyph-name="ecircumflex" unicode="&#xea;" horiz-adv-x="249" 
d="M75 703h99l46 -91h-56l-39 38l-39 -38h-57zM141 462q0 19 -13 19t-13 -22v-109q0 -11 1.5 -13.5t6.5 -2.5h10q5 0 6.5 2.5t1.5 11.5v114zM115 264v-173q0 -12 4 -19.5t10 -7.5q7 0 9.5 6t2.5 23v129h92v-99q0 -50 -6 -71.5t-22 -34.5q-25 -21 -77 -21q-60 0 -86 21
t-26 71v368q0 89 107 89q110 0 110 -78v-203h-118z" />
    <glyph glyph-name="edieresis" unicode="&#xeb;" horiz-adv-x="249" 
d="M208 612h-71v92h71v-92zM112 704v-92h-71v92h71zM141 462q0 19 -13 19t-13 -22v-109q0 -11 1.5 -13.5t6.5 -2.5h10q5 0 6.5 2.5t1.5 11.5v114zM115 264v-173q0 -12 4 -19.5t10 -7.5q7 0 9.5 6t2.5 23v129h92v-99q0 -50 -6 -71.5t-22 -34.5q-25 -21 -77 -21q-60 0 -86 21
t-26 71v368q0 89 107 89q110 0 110 -78v-203h-118z" />
    <glyph glyph-name="igrave" unicode="&#xec;" horiz-adv-x="144" 
d="M137 605h-54l-84 92h100zM19 538h97v-538h-97v538z" />
    <glyph glyph-name="iacute" unicode="&#xed;" horiz-adv-x="144" 
d="M38 697h103l-89 -92h-56zM20 538h97v-538h-97v538z" />
    <glyph glyph-name="icircumflex" unicode="&#xee;" horiz-adv-x="144" 
d="M18 696h99l46 -91h-56l-38 38l-39 -38h-57zM20 538h97v-538h-97v538z" />
    <glyph glyph-name="idieresis" unicode="&#xef;" horiz-adv-x="144" 
d="M152 605h-71v92h71v-92zM56 697v-92h-71v92h71zM20 538h97v-538h-97v538z" />
    <glyph glyph-name="eth" unicode="&#xf0;" horiz-adv-x="252" 
d="M140 460q0 23 -13 23q-15 0 -15 -28v-361q0 -20 3.5 -28t12.5 -8q12 0 12 25v377zM235 620q1 -8 1 -14v-16v-501q0 -51 -27.5 -73t-88.5 -22q-104 0 -104 95v362q0 24 7 44t19 30q21 18 98 18v32l-45 -21l-23 49l56 27q-9 6 -24 9v76q9 1 16.5 1h14.5q29 0 51 -11t35 -32
l49 23l23 -49z" />
    <glyph glyph-name="ntilde" unicode="&#xf1;" horiz-adv-x="254" 
d="M219 619q-14 -5 -22.5 -7t-22.5 -2q-7 0 -12.5 0.5t-12.5 1.5t-17 3.5t-27 6.5q-5 1 -9 1.5t-8 0.5q-8 0 -17 -2.5t-35 -10.5v63q12 7 21 9.5t22 2.5q22 0 49 -8q15 -5 26.5 -7.5t16.5 -2.5q8 0 17 3t31 11v-63zM112 538v-22q14 14 29 20.5t35 6.5q32 0 46 -16.5
t14 -57.5v-469h-97v451q0 24 -10 24q-6 0 -10 -6.5t-4 -17.5v-451h-97v538h94z" />
    <glyph glyph-name="ograve" unicode="&#xf2;" horiz-adv-x="252" 
d="M195 610h-54l-84 92h100zM140 460q0 23 -13 23q-15 0 -15 -28v-361q0 -20 3.5 -28t12.5 -8q12 0 12 25v377zM16 451q0 29 9 50.5t25 29.5q24 12 88 12q52 0 75 -23.5t23 -76.5v-354q0 -51 -27.5 -73t-88.5 -22q-104 0 -104 95v362z" />
    <glyph glyph-name="oacute" unicode="&#xf3;" horiz-adv-x="252" 
d="M95 701h103l-89 -91h-56zM140 460q0 23 -13 23q-15 0 -15 -28v-361q0 -20 3.5 -28t12.5 -8q12 0 12 25v377zM16 451q0 29 9 50.5t25 29.5q24 12 88 12q52 0 75 -23.5t23 -76.5v-354q0 -51 -27.5 -73t-88.5 -22q-104 0 -104 95v362z" />
    <glyph glyph-name="ocircumflex" unicode="&#xf4;" horiz-adv-x="252" 
d="M76 701h99l46 -91h-56l-38 38l-39 -38h-57zM140 460q0 23 -13 23q-15 0 -15 -28v-361q0 -20 3.5 -28t12.5 -8q12 0 12 25v377zM16 451q0 29 9 50.5t25 29.5q24 12 88 12q52 0 75 -23.5t23 -76.5v-354q0 -51 -27.5 -73t-88.5 -22q-104 0 -104 95v362z" />
    <glyph glyph-name="otilde" unicode="&#xf5;" horiz-adv-x="252" 
d="M218 619q-14 -5 -22.5 -7t-22.5 -2q-7 0 -12.5 0.5t-12.5 1.5t-17 3.5t-27 6.5q-5 1 -9 1.5t-8 0.5q-8 0 -17 -2.5t-35 -10.5v63q12 7 21 9.5t22 2.5q22 0 49 -8q15 -5 26.5 -7.5t16.5 -2.5q8 0 17 3t31 11v-63zM140 460q0 23 -13 23q-15 0 -15 -28v-361q0 -20 3.5 -28
t12.5 -8q12 0 12 25v377zM16 451q0 29 9 50.5t25 29.5q24 12 88 12q52 0 75 -23.5t23 -76.5v-354q0 -51 -27.5 -73t-88.5 -22q-104 0 -104 95v362z" />
    <glyph glyph-name="odieresis" unicode="&#xf6;" horiz-adv-x="252" 
d="M210 610h-71v92h71v-92zM113 702v-92h-71v92h71zM140 460q0 23 -13 23q-15 0 -15 -28v-361q0 -20 3.5 -28t12.5 -8q12 0 12 25v377zM16 451q0 29 9 50.5t25 29.5q24 12 88 12q52 0 75 -23.5t23 -76.5v-354q0 -51 -27.5 -73t-88.5 -22q-104 0 -104 95v362z" />
    <glyph glyph-name="divide" unicode="&#xf7;" 
d="M490 374v-65h-481v65h481zM250 207q22 0 37.5 -15.5t15.5 -37.5q0 -23 -15.5 -38.5t-37.5 -15.5q-23 0 -38.5 15.5t-15.5 37.5q0 23 15.5 38.5t38.5 15.5zM250 582q22 0 37.5 -15.5t15.5 -37.5q0 -23 -15.5 -38.5t-37.5 -15.5q-23 0 -38.5 15.5t-15.5 37.5
q0 23 15.5 38.5t38.5 15.5z" />
    <glyph glyph-name="oslash" unicode="&#xf8;" horiz-adv-x="253" 
d="M140 460q0 23 -13 23q-14 0 -14 -28l-1 -190l28 115v80zM112 164l1 -70q0 -20 3.5 -28t11.5 -8q12 0 12 25v189zM48 -6h-31l13 39q-14 21 -14 56v362q0 29 9 50.5t25 29.5q13 6 35.5 9t58.5 3q20 0 33 -3t24 -11l5 14h31l-12 -41q11 -25 11 -59v-354q0 -49 -27 -72
t-85 -23q-26 0 -40.5 3t-30.5 12z" />
    <glyph glyph-name="ugrave" unicode="&#xf9;" horiz-adv-x="252" 
d="M195 605h-54l-84 92h100zM117 538v-439q0 -24 1.5 -29.5t8.5 -5.5q12 0 12 20v454h95v-538h-95v28q-10 -17 -22 -24t-32 -7q-67 0 -67 74v467h99z" />
    <glyph glyph-name="uacute" unicode="&#xfa;" horiz-adv-x="252" 
d="M95 696h104l-90 -91h-55zM117 538v-439q0 -24 1.5 -29.5t8.5 -5.5q12 0 12 20v454h95v-538h-95v28q-10 -17 -22 -24t-32 -7q-67 0 -67 74v467h99z" />
    <glyph glyph-name="ucircumflex" unicode="&#xfb;" horiz-adv-x="252" 
d="M76 695h99l46 -90h-55l-39 38l-39 -38h-57zM117 538v-439q0 -24 1.5 -29.5t8.5 -5.5q12 0 12 20v454h95v-538h-95v28q-10 -17 -22 -24t-32 -7q-67 0 -67 74v467h99z" />
    <glyph glyph-name="udieresis" unicode="&#xfc;" horiz-adv-x="252" 
d="M210 605h-71v92h71v-92zM113 697v-92h-71v92h71zM117 538v-439q0 -24 1.5 -29.5t8.5 -5.5q12 0 12 20v454h95v-538h-95v28q-10 -17 -22 -24t-32 -7q-67 0 -67 74v467h99z" />
    <glyph glyph-name="yacute" unicode="&#xfd;" horiz-adv-x="223" 
d="M81 696h103l-89 -91h-56zM93 538l22 -377l15 377h89l-31 -472q-3 -41 -26.5 -56.5t-82.5 -15.5q-19 0 -32 1t-33 5v75q19 -3 30.5 -4.5t24.5 -1.5q43 0 43 32q0 13 -12 13h-38q-20 0 -27.5 10t-9.5 36l-20 378h88z" />
    <glyph glyph-name="thorn" unicode="&#xfe;" horiz-adv-x="253" 
d="M117 119q3 -9 13 -9q6 0 8 4.5t2 18.5v318q0 29 -13 29q-7 0 -10 -10v-351zM117 522q14 16 24 20.5t27 4.5q36 0 52 -20.5t16 -68.5v-318q0 -51 -16 -75t-49 -24q-16 0 -27 5.5t-27 19.5v-66h-99v667h99v-145z" />
    <glyph glyph-name="ydieresis" unicode="&#xff;" horiz-adv-x="223" 
d="M195 605h-71v92h71v-92zM99 697v-92h-71v92h71zM93 538l22 -377l15 377h89l-31 -472q-3 -41 -26.5 -56.5t-82.5 -15.5q-19 0 -32 1t-33 5v75q19 -3 30.5 -4.5t24.5 -1.5q43 0 43 32q0 13 -12 13h-38q-20 0 -27.5 10t-9.5 36l-20 378h88z" />
    <glyph glyph-name="OE" unicode="&#x152;" horiz-adv-x="383" 
d="M370 667v-82h-96v-199h96v-83h-97v-221h97v-82h-168q-13 -3 -23.5 -4.5t-24.5 -1.5q-47 0 -71 8t-40 28q-23 31 -23 66v467q0 61 27.5 86.5t93.5 25.5q17 0 29.5 -1.5t28.5 -6.5h171zM123 115q0 -40 23 -40q17 0 17 26v462q0 32 -21 32q-19 0 -19 -32v-448z" />
    <glyph glyph-name="oe" unicode="&#x153;" horiz-adv-x="372" 
d="M264 462q0 19 -13 19t-13 -22v-109q0 -11 1.5 -13.5t6.5 -2.5h10q5 0 6.5 2.5t1.5 11.5v114zM140 460q0 23 -13 23q-15 0 -15 -28v-361q0 -20 3.5 -28t12.5 -8q12 0 12 25v377zM16 451q0 29 9 50.5t25 29.5q25 13 84 13q17 0 27.5 -1.5t23.5 -6.5q17 5 29 7t32 2
q110 0 110 -78v-203h-118v-173q0 -12 4 -19.5t10 -7.5q7 0 9.5 6t2.5 23v129h92v-99q0 -50 -6 -71.5t-22 -34.5q-27 -21 -75 -21q-18 0 -31.5 2t-33.5 7q-17 -7 -30 -9t-38 -2q-104 0 -104 95v362z" />
    <glyph glyph-name="Scaron" unicode="&#x160;" horiz-adv-x="273" 
d="M186 744h-98l-46 91h55l39 -39l39 39h57zM120 266v-165q0 -28 16 -28q11 0 15.5 8t4.5 30v116q0 14 -1.5 24t-5.5 17.5t-11.5 15t-20.5 17.5q-35 27 -55.5 45.5t-31.5 34t-14.5 31t-3.5 37.5v141q0 48 29 68t96 20q124 0 124 -97v-138h-105v99q0 29 -1 37t-6 12
q-6 5 -13 5q-9 0 -12.5 -6.5t-3.5 -23.5v-97q0 -20 4 -28.5t19 -22.5l88 -78q17 -17 23.5 -30t6.5 -33v-202q0 -19 -11.5 -39t-26.5 -28q-16 -8 -40.5 -12t-62.5 -4q-108 0 -108 91v183h108z" />
    <glyph glyph-name="scaron" unicode="&#x161;" horiz-adv-x="234" 
d="M167 609h-99l-46 91h56l38 -39l39 39h57zM106 219v-141q0 -7 4 -12t9 -5q12 0 12 17v103q0 20 -2.5 28t-11.5 16q-17 16 -36.5 33.5t-39.5 37.5q-29 29 -29 78v86q0 43 25 62.5t80 19.5q59 0 82 -21.5t23 -76.5l1 -88h-92v103q0 19 -11 19q-8 0 -11 -5t-3 -20v-65
q0 -17 5.5 -28t21.5 -25q31 -30 49 -48.5t27 -33.5t11 -29t2 -34l1 -112q0 -43 -24.5 -63t-78.5 -20q-58 0 -83 24.5t-25 81.5v118h94z" />
    <glyph glyph-name="Ydieresis" unicode="&#x178;" horiz-adv-x="300" 
d="M234 734h-71v92h71v-92zM138 826v-92h-71v92h71zM116 667l33 -241l4 -64l12 104l31 201h100l-92 -443v-224h-114l1 224l-86 443h111z" />
    <glyph glyph-name="Zcaron" unicode="&#x17d;" horiz-adv-x="228" 
d="M164 733h-99l-46 91h56l38 -39l39 39h57zM10 83l99 500h-99v84h208v-80l-99 -504h99v-83h-208v83z" />
    <glyph glyph-name="zcaron" unicode="&#x17e;" horiz-adv-x="191" 
d="M145 605h-99l-46 90h56l38 -38l39 39h57zM8 67l72 400h-72v71h173v-65l-70 -397h70v-76h-173v67z" />
    <glyph glyph-name="florin" unicode="&#x192;" horiz-adv-x="289" 
d="M-14 -87q15 0 19 20l103 531h-16l14 75h17l10 50q6 28 13 41t21 23q6 4 11.5 7t13 4.5t17.5 2t26 0.5h36l-13 -69h-11q-15 0 -19 -20l-8 -39h26l-14 -75h-26l-106 -542q-5 -27 -12.5 -40.5t-21.5 -23.5q-6 -5 -11.5 -7.5t-13 -4t-17.5 -2t-26 -0.5h-36l13 69h11z" />
    <glyph glyph-name="circumflex" unicode="&#x2c6;" horiz-adv-x="223" 
d="M62 668h99l46 -91h-56l-38 39l-39 -39h-57z" />
    <glyph glyph-name="tilde" unicode="&#x2dc;" horiz-adv-x="216" 
d="M200 597q-14 -5 -22.5 -7t-22.5 -2q-7 0 -12.5 0.5t-12.5 1.5t-17 3.5t-27 6.5q-5 1 -9 1.5t-8 0.5q-8 0 -17 -2.5t-35 -10.5v63q12 7 21 9.5t22 2.5q22 0 49 -8q15 -5 26.5 -7.5t16.5 -2.5q8 0 17 3t31 11v-63z" />
    <glyph glyph-name="endash" unicode="&#x2013;" horiz-adv-x="386" 
d="M21 325h344v-87h-344v87z" />
    <glyph glyph-name="emdash" unicode="&#x2014;" horiz-adv-x="709" 
d="M21 325h667v-87h-667v87z" />
    <glyph glyph-name="quoteleft" unicode="&#x2018;" horiz-adv-x="144" 
d="M44 668h92l-26 -164h-98z" />
    <glyph glyph-name="quoteright" unicode="&#x2019;" horiz-adv-x="144" 
d="M100 504h-92l26 164h98z" />
    <glyph glyph-name="quotesinglbase" unicode="&#x201a;" horiz-adv-x="144" 
d="M100 0h-92l26 164h98z" />
    <glyph glyph-name="quotedblleft" unicode="&#x201c;" horiz-adv-x="303" 
d="M202 668h93l-27 -164h-97zM44 668h92l-26 -164h-98z" />
    <glyph glyph-name="quotedblright" unicode="&#x201d;" horiz-adv-x="302" 
d="M100 503h-92l26 164h98zM259 503h-92l26 164h97z" />
    <glyph glyph-name="quotedblbase" unicode="&#x201e;" horiz-adv-x="302" 
d="M100 0h-92l26 164h98zM259 0h-92l26 164h97z" />
    <glyph glyph-name="dagger" unicode="&#x2020;" horiz-adv-x="512" 
d="M480 391h-185v-530h-81v530h-183v73h183v203h81v-203h185v-73z" />
    <glyph glyph-name="daggerdbl" unicode="&#x2021;" horiz-adv-x="512" 
d="M480 416h-184v-302h184v-71h-184v-182h-81v182h-183v71h183v302h-183v71h183v180h81v-180h184v-71z" />
    <glyph glyph-name="bullet" unicode="&#x2022;" horiz-adv-x="340" 
d="M171 422q34 0 58 -24.5t24 -58.5q0 -35 -24.5 -59.5t-58.5 -24.5q-35 0 -59.5 24.5t-24.5 58.5q0 35 24.5 59.5t60.5 24.5z" />
    <glyph glyph-name="ellipsis" unicode="&#x2026;" horiz-adv-x="402" 
d="M383 100v-99h-97v99h97zM249 100v-99h-97v99h97zM116 100v-99h-97v99h97z" />
    <glyph glyph-name="perthousand" unicode="&#x2030;" horiz-adv-x="813" 
d="M122 0h-54l392 658h53zM714 340q0 25 -18 25q-12 0 -16 -7.5t-4 -30.5v-220q0 -29 4.5 -39.5t16.5 -10.5q18 0 18 30zM598 330q0 52 20.5 72.5t74.5 20.5q26 0 39 -2.5t26 -10.5q20 -12 27.5 -26.5t7.5 -43.5v-238q0 -56 -23 -80.5t-76 -24.5q-54 0 -78 29
q-11 12 -14.5 28t-3.5 49v227zM489 340q0 25 -18 25q-12 0 -16 -7.5t-4 -30.5v-220q0 -29 4.5 -39.5t16.5 -10.5q18 0 18 30zM373 330q0 52 20.5 72.5t74.5 20.5q26 0 39 -2.5t26 -10.5q20 -12 27.5 -26.5t7.5 -43.5v-238q0 -56 -23 -80.5t-76 -24.5q-54 0 -78 29
q-11 12 -14.5 28t-3.5 49v227zM98 341q0 -34 20 -34q11 0 14.5 7t3.5 27v241q0 33 -22 33q-16 0 -16 -26v-248zM20 580q0 52 21.5 72.5t77.5 20.5q98 0 98 -84v-248q0 -95 -99 -95q-63 0 -85 40q-8 14 -10.5 27t-2.5 45v222z" />
    <glyph glyph-name="guilsinglleft" unicode="&#x2039;" horiz-adv-x="324" 
d="M271 48l-65 -47l-166 212l166 220l65 -47l-130 -172z" />
    <glyph glyph-name="guilsinglright" unicode="&#x203a;" horiz-adv-x="324" 
d="M53 386l65 47l166 -220l-166 -212l-65 47l129 166z" />
    <glyph glyph-name="Euro" unicode="&#x20ac;" horiz-adv-x="351" 
d="M291 415l-16 -54h-88v-26h82l-16 -54h-66v-182q0 -25 18 -25q21 0 21 38v98h108v-96q0 -67 -29 -94t-102 -27q-69 0 -99 27t-30 88v173h-65l17 54h48v26h-65l17 54h48v128q0 37 6.5 62.5t22 41t40.5 22.5t61 7q38 0 57.5 -4.5t35.5 -15.5q21 -15 29.5 -35t8.5 -56v-85
h-109v77q0 20 -4.5 28.5t-15.5 8.5t-15 -7t-4 -27v-145h104z" />
    <glyph glyph-name="trademark" unicode="&#x2122;" horiz-adv-x="510" 
d="M324 667l31 -228l31 228h91v-400h-58v232l1 73l-45 -305h-48l-45 300l2 -52v-248h-51v400h91zM33 667h140v-49h-37v-351h-65v351h-38v49z" />
    <glyph glyph-name="glyph220" horiz-adv-x="0" 
 />
    </font>
</defs>
</svg>
